<svg xmlns="http://www.w3.org/2000/svg" xmlns:xlink="http://www.w3.org/1999/xlink" xmlns:lucid="lucid" width="1028" height="1732"><g transform="translate(3788 1518)" lucid:page-tab-id="0_0"><path d="M-3218.4-1475.1c0 11.04-8.95 20-20 20-11.04 0-20-8.96-20-20 0-11.05 8.96-20 20-20 11.05 0 20 8.95 20 20z" stroke="#666"/><path d="M-3238.4-1454.1v45.37" stroke="#333" fill="none"/><path d="M-3238.42-1454.6l.52-.02v.53h-1v-.56z" stroke="#333" stroke-width=".05" fill="#333"/><path d="M-3238.4-1393.97l-4.63-14.26h9.27z" stroke="#333" fill="#333"/><path d="M-3340.9-1392.35c-15.23 0-27.57 12.34-27.57 27.56v82.7c0 15.23 12.34 27.57 27.57 27.57h205c15.23 0 27.57-12.34 27.57-27.56v-82.7c0-15.2-12.34-27.55-27.56-27.55z" stroke="#000" stroke-opacity="0" fill="#6db1ff"/><use xlink:href="#a" transform="matrix(1,0,0,1,-3360.4688438637786,-1384.3489051772576) translate(25.66049382716049 23.488888888888873)"/><use xlink:href="#b" transform="matrix(1,0,0,1,-3360.4688438637786,-1384.3489051772576) translate(161.06790123456793 23.488888888888873)"/><use xlink:href="#c" transform="matrix(1,0,0,1,-3360.4688438637786,-1384.3489051772576) translate(15.018518518518515 44.82222222222221)"/><use xlink:href="#d" transform="matrix(1,0,0,1,-3360.4688438637786,-1384.3489051772576) translate(49.58641975308642 44.82222222222221)"/><use xlink:href="#e" transform="matrix(1,0,0,1,-3360.4688438637786,-1384.3489051772576) translate(96.89506172839506 44.82222222222221)"/><use xlink:href="#f" transform="matrix(1,0,0,1,-3360.4688438637786,-1384.3489051772576) translate(127.46296296296296 44.82222222222221)"/><use xlink:href="#g" transform="matrix(1,0,0,1,-3360.4688438637786,-1384.3489051772576) translate(201.33950617283952 44.82222222222221)"/><use xlink:href="#h" transform="matrix(1,0,0,1,-3360.4688438637786,-1384.3489051772576) translate(24.327160493827147 66.15555555555555)"/><use xlink:href="#i" transform="matrix(1,0,0,1,-3360.4688438637786,-1384.3489051772576) translate(100.32716049382715 66.15555555555555)"/><use xlink:href="#j" transform="matrix(1,0,0,1,-3360.4688438637786,-1384.3489051772576) translate(119.0432098765432 66.15555555555555)"/><use xlink:href="#k" transform="matrix(1,0,0,1,-3360.4688438637786,-1384.3489051772576) translate(197.01851851851853 66.15555555555555)"/><use xlink:href="#l" transform="matrix(1,0,0,1,-3360.4688438637786,-1384.3489051772576) translate(20.351851851851844 87.4888888888889)"/><use xlink:href="#m" transform="matrix(1,0,0,1,-3360.4688438637786,-1384.3489051772576) translate(53.9320987654321 87.4888888888889)"/><use xlink:href="#n" transform="matrix(1,0,0,1,-3360.4688438637786,-1384.3489051772576) translate(122.96913580246914 87.4888888888889)"/><use xlink:href="#o" transform="matrix(1,0,0,1,-3360.4688438637786,-1384.3489051772576) translate(147.6604938271605 87.4888888888889)"/><use xlink:href="#p" transform="matrix(1,0,0,1,-3360.4688438637786,-1384.3489051772576) translate(30.351851851851844 108.82222222222224)"/><path d="M-3243.13-1177.04a7.3 7.3 0 0 1 10.8 0l9.2 10.07a8.76 8.76 0 0 1 0 11.82l-9.2 10.07a7.3 7.3 0 0 1-10.8 0l-9.2-10.08a8.76 8.76 0 0 1 0-11.8z" stroke="#6db1ff" stroke-width="4" fill="#fff"/><path d="M-3238.4-1254.03v65.78" stroke="#3a414a" fill="none"/><path d="M-3237.9-1254h-1v-.53h1z" stroke="#3a414a" stroke-width=".05" fill="#3a414a"/><path d="M-3238.4-1182.36l-7.63-12.9h15.27z" stroke="#3a414a" fill="#3a414a"/><path d="M-3471.27-746.95c-14.82 0-26.84 12.02-26.84 26.84v80.5c0 14.84 12 26.86 26.83 26.86h221.78c14.83 0 26.85-12.02 26.85-26.85v-80.5c0-14.83-12.02-26.85-26.84-26.85z" stroke="#000" stroke-opacity="0" fill="#6db1ff"/><use xlink:href="#q" transform="matrix(1,0,0,1,-3490.10723237658,-738.9479138768238) translate(38.95781777777778 18.84448)"/><use xlink:href="#r" transform="matrix(1,0,0,1,-3490.10723237658,-738.9479138768238) translate(54.11340777777778 18.84448)"/><use xlink:href="#s" transform="matrix(1,0,0,1,-3490.10723237658,-738.9479138768238) translate(126.79505444444446 18.84448)"/><use xlink:href="#t" transform="matrix(1,0,0,1,-3490.10723237658,-738.9479138768238) translate(205.88659222222225 18.84448)"/><use xlink:href="#u" transform="matrix(1,0,0,1,-3490.10723237658,-738.9479138768238) translate(93.088805 39.76888)"/><use xlink:href="#v" transform="matrix(1,0,0,1,-3490.10723237658,-738.9479138768238) translate(39.44670777777779 60.69328)"/><use xlink:href="#w" transform="matrix(1,0,0,1,-3490.10723237658,-738.9479138768238) translate(21.656543888888873 81.61768000000001)"/><use xlink:href="#x" transform="matrix(1,0,0,1,-3490.10723237658,-738.9479138768238) translate(55.28131166666665 81.61768000000001)"/><use xlink:href="#y" transform="matrix(1,0,0,1,-3490.10723237658,-738.9479138768238) translate(139.7506394444444 81.61768000000001)"/><use xlink:href="#z" transform="matrix(1,0,0,1,-3490.10723237658,-738.9479138768238) translate(149.4741183333333 81.61768000000001)"/><use xlink:href="#A" transform="matrix(1,0,0,1,-3490.10723237658,-738.9479138768238) translate(197.1680538888889 81.61768000000001)"/><use xlink:href="#B" transform="matrix(1,0,0,1,-3490.10723237658,-738.9479138768238) translate(30.70100888888889 102.54208000000001)"/><use xlink:href="#C" transform="matrix(1,0,0,1,-3490.10723237658,-738.9479138768238) translate(84.91347777777779 102.54208000000001)"/><use xlink:href="#D" transform="matrix(1,0,0,1,-3490.10723237658,-738.9479138768238) translate(105.5011788888889 102.54208000000001)"/><use xlink:href="#E" transform="matrix(1,0,0,1,-3490.10723237658,-738.9479138768238) translate(142.43953444444446 102.54208000000001)"/><use xlink:href="#F" transform="matrix(1,0,0,1,-3490.10723237658,-738.9479138768238) translate(179.37789 102.54208000000001)"/><use xlink:href="#G" transform="matrix(1,0,0,1,-3490.10723237658,-738.9479138768238) translate(107.80982611111112 123.46648000000002)"/><path d="M-3242.2-823.07a7.3 7.3 0 0 1 10.8 0l9.2 10.08a8.76 8.76 0 0 1 0 11.82l-9.2 10.07a7.3 7.3 0 0 1-10.8 0l-9.2-10.08a8.76 8.76 0 0 1 0-11.8z" stroke="#6db1ff" stroke-width="4" fill="#fff"/><path d="M-3391.66-839.47h125.5v31.34h-125.5z" fill="none"/><use xlink:href="#H" transform="matrix(1,0,0,1,-3386.665415217951,-834.4693515871677) translate(0 14.222222222222223)"/><use xlink:href="#I" transform="matrix(1,0,0,1,-3386.665415217951,-834.4693515871677) translate(41.4320987654321 14.222222222222223)"/><use xlink:href="#J" transform="matrix(1,0,0,1,-3386.665415217951,-834.4693515871677) translate(71.06172839506173 14.222222222222223)"/><path d="M-3256.2-807.1h-92.18a12 12 0 0 0-12 12v31.77" stroke="#333" fill="none"/><path d="M-3255.7-807.1l.03.5h-.55v-1h.55z" stroke="#333" stroke-width=".05" fill="#333"/><path d="M-3360.38-748.57l-4.63-14.26h9.26z" stroke="#333" fill="#333"/><path d="M-3237.23-998.27h-1v-46.44h1zm0-89.1h-1v-52.82h1z" stroke="#3a414a" stroke-width=".05" fill="#3a414a"/><path d="M-3237.73-1140.7l.5-.03v.55h-1v-.55z" fill="#3a414a"/><path d="M-3237.73-1140.72l.52-.04v.6h-1.06v-.6zm-.48.52h.94v-.5l-.47.03-.48-.04z" stroke="#3a414a" stroke-width=".05" fill="#3a414a"/><path d="M-3237.73-992.38l-7.64-12.9h15.27z" fill="#3a414a"/><path d="M-3237.73-991.4l-8.52-14.4h17.03zm-6.76-13.4l6.77 11.44 6.76-11.43z" stroke="#3a414a" stroke-width=".05" fill="#3a414a"/><use xlink:href="#K" transform="matrix(1,0,0,1,-3333.9316603379157,-1087.3772093199173) translate(0 14.222222222222223)"/><use xlink:href="#L" transform="matrix(1,0,0,1,-3333.9316603379157,-1087.3772093199173) translate(37.48148148148149 14.222222222222223)"/><use xlink:href="#M" transform="matrix(1,0,0,1,-3333.9316603379157,-1087.3772093199173) translate(80.93827160493828 14.222222222222223)"/><use xlink:href="#N" transform="matrix(1,0,0,1,-3333.9316603379157,-1087.3772093199173) translate(124.39506172839506 14.222222222222223)"/><use xlink:href="#O" transform="matrix(1,0,0,1,-3333.9316603379157,-1087.3772093199173) translate(0 35.55555555555556)"/><use xlink:href="#P" transform="matrix(1,0,0,1,-3333.9316603379157,-1087.3772093199173) translate(39.50617283950618 35.55555555555556)"/><use xlink:href="#Q" transform="matrix(1,0,0,1,-3333.9316603379157,-1087.3772093199173) translate(58.22222222222223 35.55555555555556)"/><use xlink:href="#R" transform="matrix(1,0,0,1,-3333.9316603379157,-1087.3772093199173) translate(107.50617283950618 35.55555555555556)"/><use xlink:href="#S" transform="matrix(1,0,0,1,-3333.9316603379157,-1087.3772093199173) translate(126.22222222222223 35.55555555555556)"/><path d="M-3217.46-807.8h109.6a12 12 0 0 1 12 12V-12.3a12 12 0 0 1-12 12h-105.12" stroke="#333" fill="none"/><path d="M-3217.44-807.3h-.48l-.07-1h.56z" stroke="#333" stroke-width=".05" fill="#333"/><path d="M-3227.74-.32l14.26-4.64V4.3z" stroke="#333" fill="#333"/><path d="M-3253.66-16.3a7.3 7.3 0 0 1 10.8 0l9.2 10.07a8.76 8.76 0 0 1 0 11.8l-9.2 10.1a7.3 7.3 0 0 1-10.8 0l-9.2-10.1a8.76 8.76 0 0 1 0-11.8z" stroke="#6db1ff" stroke-width="4" fill="#fff"/><path d="M-3360.38-65.44v53.12a12 12 0 0 0 12 12h64.83" stroke="#333" fill="none"/><path d="M-3359.88-65.43h-1v-.5h1z" stroke="#333" stroke-width=".05" fill="#333"/><path d="M-3268.78-.32l-14.27 4.63v-9.26z" stroke="#333" fill="#333"/><path d="M-3228.26 171.57c0 11.05-8.96 20-20 20-11.05 0-20-8.95-20-20 0-11.04 8.95-20 20-20 11.04 0 20 8.96 20 20z" stroke="#000" fill="#fff"/><path d="M-3236.26 171.57c0 6.63-5.38 12-12 12-6.63 0-12-5.37-12-12 0-6.62 5.37-12 12-12 6.62 0 12 5.38 12 12z" stroke="#000"/><path d="M-3204.2-839.47h95.87v31.34h-95.88z" fill="none"/><use xlink:href="#H" transform="matrix(1,0,0,1,-3199.212863905532,-834.4693515871677) translate(0 14.222222222222223)"/><use xlink:href="#J" transform="matrix(1,0,0,1,-3199.212863905532,-834.4693515871677) translate(41.4320987654321 14.222222222222223)"/><path d="M-3257.14-1160.56h-476.84l-1.82.14-1.76.42-1.66.7-1.54.94-1.38 1.17-1.17 1.38-.95 1.54-.7 1.67-.4 1.74-.15 1.82v1313.2l.14 1.83.42 1.74.7 1.67.93 1.54 1.16 1.38 1.38 1.17 1.54.93 1.66.7 1.76.4 1.82.16h449.5v1h-449.54l-1.94-.17-1.9-.45-1.82-.76-1.67-1.02-1.5-1.27-1.27-1.5-1.02-1.67-.75-1.8-.45-1.92-.15-1.93v-1313.28l.15-1.94.46-1.9.76-1.82 1.02-1.67 1.28-1.5 1.5-1.27 1.66-1.03 1.8-.75 1.92-.46 1.94-.16h476.88z" stroke="#333" stroke-width=".05" fill="#333"/><path d="M-3256.64-1161.06l.04.5h-.55v-1h.55z" fill="#333"/><path d="M-3256.6-1161.06l.03.52h-.6v-1.05h.6zm-.52-.48v.95h.5l-.04-.46.03-.48z" stroke="#333" stroke-width=".05" fill="#333"/><path d="M-3269.7 176.2l-14.28 4.62v-9.27z" fill="#333"/><path d="M-3268.1 176.2l-16.38 5.3v-10.64zm-15.38 3.93l12.15-3.94-12.15-3.96z" stroke="#333" stroke-width=".05" fill="#333"/><g><use xlink:href="#T" transform="matrix(1,0,0,1,-3594.127690748187,-1207.727021117462) translate(0 14.222222222222223)"/><use xlink:href="#P" transform="matrix(1,0,0,1,-3594.127690748187,-1207.727021117462) translate(39.50617283950618 14.222222222222223)"/><use xlink:href="#Q" transform="matrix(1,0,0,1,-3594.127690748187,-1207.727021117462) translate(58.22222222222223 14.222222222222223)"/><use xlink:href="#R" transform="matrix(1,0,0,1,-3594.127690748187,-1207.727021117462) translate(107.50617283950618 14.222222222222223)"/><use xlink:href="#U" transform="matrix(1,0,0,1,-3594.127690748187,-1207.727021117462) translate(126.22222222222223 14.222222222222223)"/><use xlink:href="#V" transform="matrix(1,0,0,1,-3594.127690748187,-1207.727021117462) translate(0 35.55555555555556)"/><use xlink:href="#M" transform="matrix(1,0,0,1,-3594.127690748187,-1207.727021117462) translate(43.45679012345679 35.55555555555556)"/><use xlink:href="#W" transform="matrix(1,0,0,1,-3594.127690748187,-1207.727021117462) translate(86.91358024691358 35.55555555555556)"/></g><path d="M-3242.2-987.1a7.3 7.3 0 0 1 10.8 0l9.2 10.1a8.76 8.76 0 0 1 0 11.8l-9.2 10.08a7.3 7.3 0 0 1-10.8 0l-9.2-10.08a8.76 8.76 0 0 1 0-11.8z" stroke="#6db1ff" stroke-width="4" fill="#fff"/><path d="M-3575.57 64.11l.14 1.83.42 1.76.7 1.66.93 1.53 1.17 1.37 1.37 1.17 1.54.94 1.68.7 1.75.4 1.82.16h303.77l1.82-.15 1.75-.43 1.66-.7 1.53-.93 1.37-1.17 1.17-1.38.94-1.55.7-1.66.4-1.77.16-1.82V20.56h1v43.6l-.16 1.94-.45 1.9-.76 1.8-1.02 1.68-1.27 1.5-1.5 1.27-1.67 1.02-1.8.76-1.9.45-1.94.16h-303.85l-1.93-.16-1.9-.45-1.82-.76-1.67-1.02-1.5-1.28-1.26-1.5-1.03-1.66-.76-1.8-.46-1.9-.15-1.94V-468.4h1zm303.48-1034.7h-291.95l-1.82.14-1.75.42-1.67.7-1.53.93-1.37 1.16-1.17 1.38-.94 1.53-.7 1.67-.43 1.76-.14 1.8v469.36h-1v-469.38l.15-1.94.46-1.9.75-1.82 1.02-1.67 1.27-1.5 1.48-1.27 1.68-1.02 1.8-.75 1.9-.45 1.95-.15h292z" stroke="#333" stroke-width=".05" fill="#333"/><path d="M-3248.26 20.05l.5-.05v.56h-1V20z" fill="#333"/><path d="M-3248.26 20.02l.52-.04v.6h-1.05v-.6zm-.48.52h.95v-.5l-.46.03-.48-.04z" stroke="#333" stroke-width=".05" fill="#333"/><path d="M-3257.32-971.1l-14.27 4.63v-9.27z" fill="#333"/><path d="M-3255.7-971.1l-16.4 5.32v-10.65zm-15.4 3.94l12.16-3.95-12.15-3.95z" stroke="#333" stroke-width=".05" fill="#333"/><g><use xlink:href="#X" transform="matrix(1,0,0,1,-3608.5631141904873,-489.73570599736416) translate(0 14.222222222222223)"/></g><path d="M-3236.3-843.84h-1v-48.14h1zm0-69.47h-1v-36.94h1z" stroke="#333" stroke-width=".05" fill="#333"/><path d="M-3236.8-950.74l.5-.04v.56h-1v-.56z" fill="#333"/><path d="M-3236.8-950.76l.52-.04v.6h-1.05v-.6zm-.48.5h.95v-.5l-.47.05-.48-.05z" stroke="#333" stroke-width=".05" fill="#333"/><path d="M-3236.8-829.07l-4.64-14.27h9.27z" fill="#333"/><path d="M-3236.8-827.46l-5.33-16.38h10.65zm-3.95-15.38l3.95 12.15 3.94-12.14z" stroke="#333" stroke-width=".05" fill="#333"/><g><use xlink:href="#Y" transform="matrix(1,0,0,1,-3280.6324457903156,-913.3133025625009) translate(0 14.222222222222223)"/><use xlink:href="#Z" transform="matrix(1,0,0,1,-3280.6324457903156,-913.3133025625009) translate(49.18518518518519 14.222222222222223)"/><use xlink:href="#aa" transform="matrix(1,0,0,1,-3280.6324457903156,-913.3133025625009) translate(74.8641975308642 14.222222222222223)"/></g><path d="M-3107.4-970.6h-110v-1h110zm227.8-12.5l-.14 1.95-.46 1.9-.75 1.82-1.02 1.67-1.28 1.5-1.5 1.27-1.66 1.03-1.82.75-1.9.46-1.95.15h-138.04v-1h138l1.8-.15 1.77-.42 1.66-.7 1.54-.93 1.38-1.17 1.17-1.38.94-1.53.7-1.67.4-1.76.15-1.82v-12.02h1z" stroke="#333" stroke-width=".05" fill="#333"/><path d="M-3217.4-970.6h-.54l.04-.5-.04-.5h.55z" fill="#333"/><path d="M-3217.37-970.58h-.6l.04-.52-.04-.53h.6zm-.55-1l.04.48-.03.47h.48v-.95z" stroke="#333" stroke-width=".05" fill="#333"/><path d="M-2875.45-995.65h-9.27l4.63-14.26z" fill="#333"/><path d="M-2874.76-995.15h-10.65l5.3-16.38zm-9.27-1h7.9l-3.96-12.14z" stroke="#333" stroke-width=".05" fill="#333"/><g><use xlink:href="#Y" transform="matrix(1,0,0,1,-3107.394392046767,-981.7713694846999) translate(0 14.222222222222223)"/><use xlink:href="#ab" transform="matrix(1,0,0,1,-3107.394392046767,-981.7713694846999) translate(49.18518518518519 14.222222222222223)"/><use xlink:href="#aa" transform="matrix(1,0,0,1,-3107.394392046767,-981.7713694846999) translate(64.49382716049384 14.222222222222223)"/></g><path d="M-3488.36-564.68c-14.83 0-26.84 12.02-26.84 26.84v80.52c0 14.83 12 26.84 26.84 26.84h255.97c14.83 0 26.85-12 26.85-26.84v-80.52c0-14.82-12.02-26.84-26.84-26.84z" stroke="#000" stroke-opacity="0" fill="#6db1ff"/><g><use xlink:href="#q" transform="matrix(1,0,0,1,-3507.204462714577,-556.6804241143936) translate(16.330567222222196 33.624520000000004)"/><use xlink:href="#r" transform="matrix(1,0,0,1,-3507.204462714577,-556.6804241143936) translate(31.4861572222222 33.624520000000004)"/><use xlink:href="#s" transform="matrix(1,0,0,1,-3507.204462714577,-556.6804241143936) translate(104.16780388888888 33.624520000000004)"/><use xlink:href="#ac" transform="matrix(1,0,0,1,-3507.204462714577,-556.6804241143936) translate(183.25934166666667 33.624520000000004)"/><use xlink:href="#u" transform="matrix(1,0,0,1,-3507.204462714577,-556.6804241143936) translate(203.84704277777777 33.624520000000004)"/><use xlink:href="#ad" transform="matrix(1,0,0,1,-3507.204462714577,-556.6804241143936) translate(-0.37161962962965234 54.54892)"/><use xlink:href="#ae" transform="matrix(1,0,0,1,-3507.204462714577,-556.6804241143936) translate(27.76516111111108 75.47332)"/><use xlink:href="#x" transform="matrix(1,0,0,1,-3507.204462714577,-556.6804241143936) translate(61.38992888888886 75.47332)"/><use xlink:href="#y" transform="matrix(1,0,0,1,-3507.204462714577,-556.6804241143936) translate(145.85925666666662 75.47332)"/><use xlink:href="#z" transform="matrix(1,0,0,1,-3507.204462714577,-556.6804241143936) translate(155.58273555555553 75.47332)"/><use xlink:href="#af" transform="matrix(1,0,0,1,-3507.204462714577,-556.6804241143936) translate(203.2766711111111 75.47332)"/><use xlink:href="#ag" transform="matrix(1,0,0,1,-3507.204462714577,-556.6804241143936) translate(234.72859444444447 75.47332)"/><use xlink:href="#ah" transform="matrix(1,0,0,1,-3507.204462714577,-556.6804241143936) translate(87.32825944444444 96.39772)"/><use xlink:href="#ai" transform="matrix(1,0,0,1,-3507.204462714577,-556.6804241143936) translate(133.9357727777778 96.39772)"/></g><path d="M-3471.27-382.4c-14.82 0-26.84 12-26.84 26.83v80.52c0 14.82 12 26.84 26.83 26.84h221.78c14.83 0 26.85-12.03 26.85-26.85v-80.52c0-14.83-12.02-26.84-26.84-26.84z" stroke="#000" stroke-opacity="0" fill="#6db1ff"/><g><use xlink:href="#q" transform="matrix(1,0,0,1,-3490.10723237658,-374.4129343519635) translate(43.73807555555554 23.16231999999999)"/><use xlink:href="#r" transform="matrix(1,0,0,1,-3490.10723237658,-374.4129343519635) translate(58.89366555555554 23.16231999999999)"/><use xlink:href="#aj" transform="matrix(1,0,0,1,-3490.10723237658,-374.4129343519635) translate(131.57531222222224 23.16231999999999)"/><use xlink:href="#t" transform="matrix(1,0,0,1,-3490.10723237658,-374.4129343519635) translate(201.10633444444446 23.16231999999999)"/><use xlink:href="#u" transform="matrix(1,0,0,1,-3490.10723237658,-374.4129343519635) translate(93.088805 44.08671999999999)"/><use xlink:href="#ak" transform="matrix(1,0,0,1,-3490.10723237658,-374.4129343519635) translate(24.807168333333333 65.01111999999999)"/><use xlink:href="#ae" transform="matrix(1,0,0,1,-3490.10723237658,-374.4129343519635) translate(39.446707777777746 85.93552)"/><use xlink:href="#al" transform="matrix(1,0,0,1,-3490.10723237658,-374.4129343519635) translate(73.07147555555552 85.93552)"/><use xlink:href="#y" transform="matrix(1,0,0,1,-3490.10723237658,-374.4129343519635) translate(163.02723555555556 85.93552)"/><use xlink:href="#D" transform="matrix(1,0,0,1,-3490.10723237658,-374.4129343519635) translate(172.75071444444447 85.93552)"/><use xlink:href="#am" transform="matrix(1,0,0,1,-3490.10723237658,-374.4129343519635) translate(209.68907000000004 85.93552)"/><use xlink:href="#an" transform="matrix(1,0,0,1,-3490.10723237658,-374.4129343519635) translate(32.35780277777778 106.85992)"/><use xlink:href="#ac" transform="matrix(1,0,0,1,-3490.10723237658,-374.4129343519635) translate(126.71357277777778 106.85992)"/><use xlink:href="#ao" transform="matrix(1,0,0,1,-3490.10723237658,-374.4129343519635) translate(147.3012738888889 106.85992)"/></g><path d="M-3471.27-200.15c-14.82 0-26.84 12.02-26.84 26.84v80.52c0 14.82 12 26.84 26.83 26.84h221.78c14.83 0 26.85-12.02 26.85-26.84v-80.53c0-14.83-12.02-26.84-26.84-26.84z" stroke="#000" stroke-opacity="0" fill="#6db1ff"/><g><use xlink:href="#ap" transform="matrix(1,0,0,1,-3490.10723237658,-192.14544458953333) translate(36.703491666666665 33.624520000000004)"/><use xlink:href="#aq" transform="matrix(1,0,0,1,-3490.10723237658,-192.14544458953333) translate(47.56771388888889 33.624520000000004)"/><use xlink:href="#ar" transform="matrix(1,0,0,1,-3490.10723237658,-192.14544458953333) translate(77.8788938888889 33.624520000000004)"/><use xlink:href="#as" transform="matrix(1,0,0,1,-3490.10723237658,-192.14544458953333) translate(123.45430611111112 33.624520000000004)"/><use xlink:href="#at" transform="matrix(1,0,0,1,-3490.10723237658,-192.14544458953333) translate(219.00514055555558 33.624520000000004)"/><use xlink:href="#au" transform="matrix(1,0,0,1,-3490.10723237658,-192.14544458953333) translate(22.063952222222223 54.54892)"/><use xlink:href="#C" transform="matrix(1,0,0,1,-3490.10723237658,-192.14544458953333) translate(89.20484555555556 54.54892)"/><use xlink:href="#av" transform="matrix(1,0,0,1,-3490.10723237658,-192.14544458953333) translate(109.79254666666668 54.54892)"/><use xlink:href="#aw" transform="matrix(1,0,0,1,-3490.10723237658,-192.14544458953333) translate(195.56558111111113 54.54892)"/><use xlink:href="#ax" transform="matrix(1,0,0,1,-3490.10723237658,-192.14544458953333) translate(41.07634111111112 75.47332)"/><use xlink:href="#ay" transform="matrix(1,0,0,1,-3490.10723237658,-192.14544458953333) translate(101.80734333333335 75.47332)"/><use xlink:href="#az" transform="matrix(1,0,0,1,-3490.10723237658,-192.14544458953333) translate(133.2592666666667 75.47332)"/><use xlink:href="#aA" transform="matrix(1,0,0,1,-3490.10723237658,-192.14544458953333) translate(89.31348777777778 96.39772)"/></g><path d="M-3360.38-612.24v40.7" stroke="#3a414a" fill="none"/><path d="M-3359.88-612.23h-1v-.5h1z" stroke="#3a414a" stroke-width=".05" fill="#3a414a"/><path d="M-3360.38-565.66l-7.63-12.9h15.26z" stroke="#3a414a" fill="#3a414a"/><path d="M-3360.38-429.98v40.7" stroke="#3a414a" fill="none"/><path d="M-3359.88-429.96h-1v-.52h1z" stroke="#3a414a" stroke-width=".05" fill="#3a414a"/><path d="M-3360.38-383.4l-7.63-12.9h15.26z" stroke="#3a414a" fill="#3a414a"/><path d="M-3360.38-247.7v40.68" stroke="#3a414a" fill="none"/><path d="M-3359.88-247.7h-1v-.5h1z" stroke="#3a414a" stroke-width=".05" fill="#3a414a"/><path d="M-3360.38-201.13l-7.63-12.9h15.26z" stroke="#3a414a" fill="#3a414a"/><path d="M-2952.25-1111.17c-11 0-19.93 8.92-19.93 19.93v59.78c0 11 8.93 19.93 19.93 19.93h144.32c11 0 19.93-8.92 19.93-19.93v-59.78c0-11-8.92-19.93-19.93-19.93z" stroke="#000" stroke-opacity="0" fill="#6db1ff"/><g><use xlink:href="#aB" transform="matrix(1,0,0,1,-2964.1745531236065,-1103.1723741976539) translate(39.46779888888889 26.586719999999996)"/><use xlink:href="#aC" transform="matrix(1,0,0,1,-2964.1745531236065,-1103.1723741976539) translate(99.22102111111111 26.586719999999996)"/><use xlink:href="#aD" transform="matrix(1,0,0,1,-2964.1745531236065,-1103.1723741976539) translate(14.534408888888887 47.51112)"/><use xlink:href="#aE" transform="matrix(1,0,0,1,-2964.1745531236065,-1103.1723741976539) translate(99.1123788888889 47.51112)"/><use xlink:href="#aF" transform="matrix(1,0,0,1,-2964.1745531236065,-1103.1723741976539) translate(37.13199111111112 68.43552)"/><use xlink:href="#aG" transform="matrix(1,0,0,1,-2964.1745531236065,-1103.1723741976539) translate(97.70003000000001 68.43552)"/><use xlink:href="#aH" transform="matrix(1,0,0,1,-2964.1745531236065,-1103.1723741976539) translate(114.53957444444445 68.43552)"/></g><path d="M-2880.1-1111.67v-25.4a24 24 0 0 0-24-24h-307.86" stroke="#3a414a" fill="none"/><path d="M-2879.6-1111.17h-1v-.5h1z" stroke="#3a414a" stroke-width=".05" fill="#3a414a"/><path d="M-3217.85-1161.06l12.9-7.64v15.28z" stroke="#3a414a" fill="#3a414a"/><defs><path fill="#fff" d="M11 0l48-248h34L50-27h125l-5 27H11" id="aI"/><path fill="#fff" d="M60-170H36l11-78h32" id="aJ"/><path fill="#fff" d="M165-48c-4 18 1 34 23 27l-3 20c-29 8-62 0-52-35h-2C116-14 99 4 63 4 30 4 8-16 8-49c0-68 71-67 138-67 10-26 0-56-31-54-26 1-42 9-47 31l-32-5c8-67 160-71 144 15-5 28-9 54-15 81zM42-50c3 52 80 24 89-6 7-12 7-24 11-38-47 1-103-4-100 44" id="aK"/><path fill="#fff" d="M248-111c6-24 9-61-24-58-72 9-57 108-77 169h-31l26-142c3-37-50-30-64-10C52-115 50-51 37 0H6l36-190h30c-1 10-6 24-4 32 13-43 101-52 105 5 13-22 29-41 61-41 90 0 28 129 23 194h-31" id="aL"/><path fill="#fff" d="M50-231l6-30h32l-6 30H50zM6 0l37-190h31L37 0H6" id="aM"/><path fill="#fff" d="M67-158c22-48 132-52 116 29L158 0h-32l25-140c3-38-53-32-70-12C52-117 51-52 38 0H6l36-190h30" id="aN"/><path fill="#fff" d="M55-144c13 50 104 24 104 88C159 21 15 23 1-39l26-10c6 40 102 42 102-4-13-50-104-23-104-87 0-71 143-71 148-8l-29 4c-5-35-85-37-89 0" id="aO"/><path fill="#fff" d="M51-54c-9 22 5 41 31 30L79-1C43 14 10-4 19-52l22-115H19l5-23h22l19-43h21l-9 43h35l-4 23H73" id="aP"/><path fill="#fff" d="M66-151c12-25 30-51 66-40l-6 26C45-176 58-65 38 0H6l36-190h30" id="aQ"/><path fill="#fff" d="M30-147c31-64 166-65 159 27C183-49 158 1 86 4 9 8 1-88 30-147zM88-20c53 0 68-48 68-100 0-31-11-51-44-50-52 1-68 46-68 97 0 32 13 53 44 53" id="aR"/><path fill="#fff" d="M111-194c62-3 86 47 72 106H45c-7 38 6 69 45 68 27-1 43-14 53-32l24 11C152-15 129 4 87 4 38 3 12-23 12-71c0-70 32-119 99-123zm44 81c14-66-71-72-95-28-4 8-8 17-11 28h106" id="aS"/><g id="a"><use transform="matrix(0.04938271604938272,0,0,0.04938271604938272,0,0)" xlink:href="#aI"/><use transform="matrix(0.04938271604938272,0,0,0.04938271604938272,9.876543209876544,0)" xlink:href="#aJ"/><use transform="matrix(0.04938271604938272,0,0,0.04938271604938272,13.23456790123457,0)" xlink:href="#aK"/><use transform="matrix(0.04938271604938272,0,0,0.04938271604938272,23.111111111111114,0)" xlink:href="#aL"/><use transform="matrix(0.04938271604938272,0,0,0.04938271604938272,37.876543209876544,0)" xlink:href="#aL"/><use transform="matrix(0.04938271604938272,0,0,0.04938271604938272,52.64197530864198,0)" xlink:href="#aM"/><use transform="matrix(0.04938271604938272,0,0,0.04938271604938272,56.5432098765432,0)" xlink:href="#aN"/><use transform="matrix(0.04938271604938272,0,0,0.04938271604938272,66.41975308641975,0)" xlink:href="#aM"/><use transform="matrix(0.04938271604938272,0,0,0.04938271604938272,70.32098765432099,0)" xlink:href="#aO"/><use transform="matrix(0.04938271604938272,0,0,0.04938271604938272,79.20987654320987,0)" xlink:href="#aP"/><use transform="matrix(0.04938271604938272,0,0,0.04938271604938272,84.14814814814815,0)" xlink:href="#aQ"/><use transform="matrix(0.04938271604938272,0,0,0.04938271604938272,90.0246913580247,0)" xlink:href="#aK"/><use transform="matrix(0.04938271604938272,0,0,0.04938271604938272,99.90123456790124,0)" xlink:href="#aP"/><use transform="matrix(0.04938271604938272,0,0,0.04938271604938272,104.83950617283952,0)" xlink:href="#aR"/><use transform="matrix(0.04938271604938272,0,0,0.04938271604938272,114.71604938271606,0)" xlink:href="#aQ"/><use transform="matrix(0.04938271604938272,0,0,0.04938271604938272,120.59259259259261,0)" xlink:href="#aS"/></g><path fill="#fff" d="M103-194c29 0 47 14 56 36 2-11 5-23 8-32h30L160-5C157 61 82 97 21 62 9 55 4 45 1 30l28-7c7 42 83 31 92-3 4-16 9-38 13-55-13 20-29 36-62 36-40 0-60-25-60-64 0-71 23-131 91-131zm4 24c-53 0-58 54-61 104-2 27 10 44 36 44 49 0 65-50 67-102 1-29-15-46-42-46" id="aT"/><path fill="#fff" d="M67 3c-93-2-31-127-26-193h32L48-50c-3 39 53 32 70 12 30-34 30-101 43-152h32L157 0h-30c1-10 6-24 4-33-14 20-29 37-64 36" id="aU"/><g id="b"><use transform="matrix(0.04938271604938272,0,0,0.04938271604938272,0,0)" xlink:href="#aS"/><use transform="matrix(0.04938271604938272,0,0,0.04938271604938272,9.876543209876544,0)" xlink:href="#aO"/><use transform="matrix(0.04938271604938272,0,0,0.04938271604938272,18.765432098765434,0)" xlink:href="#aS"/><use transform="matrix(0.04938271604938272,0,0,0.04938271604938272,28.641975308641978,0)" xlink:href="#aT"/><use transform="matrix(0.04938271604938272,0,0,0.04938271604938272,38.51851851851852,0)" xlink:href="#aU"/><use transform="matrix(0.04938271604938272,0,0,0.04938271604938272,48.39506172839506,0)" xlink:href="#aS"/></g><g id="c"><use transform="matrix(0.04938271604938272,0,0,0.04938271604938272,0,0)" xlink:href="#aU"/><use transform="matrix(0.04938271604938272,0,0,0.04938271604938272,9.876543209876544,0)" xlink:href="#aN"/><use transform="matrix(0.04938271604938272,0,0,0.04938271604938272,19.75308641975309,0)" xlink:href="#aR"/></g><path fill="#fff" d="M44-68c0 29 11 47 38 47 30 0 42-19 51-41l28 9C148-21 126 4 82 4 31 4 10-29 12-85c3-77 74-140 146-93 12 8 15 23 18 40l-31 5c-1-22-13-36-36-36-52 0-65 49-65 101" id="aV"/><path fill="#fff" d="M67-162c32-53 139-36 121 50C175-51 163 2 97 4 68 4 52-11 42-31 38 6 28 39 22 75H-9l50-265h29c-1 10 0 20-3 28zm89 36c0-26-10-43-35-43-54 0-67 50-69 103-1 29 14 45 42 46 53 0 62-58 62-106" id="aW"/><g id="d"><use transform="matrix(0.04938271604938272,0,0,0.04938271604938272,0,0)" xlink:href="#aO"/><use transform="matrix(0.04938271604938272,0,0,0.04938271604938272,8.88888888888889,0)" xlink:href="#aV"/><use transform="matrix(0.04938271604938272,0,0,0.04938271604938272,17.77777777777778,0)" xlink:href="#aQ"/><use transform="matrix(0.04938271604938272,0,0,0.04938271604938272,23.654320987654323,0)" xlink:href="#aM"/><use transform="matrix(0.04938271604938272,0,0,0.04938271604938272,27.555555555555557,0)" xlink:href="#aW"/><use transform="matrix(0.04938271604938272,0,0,0.04938271604938272,37.4320987654321,0)" xlink:href="#aP"/></g><g id="e"><use transform="matrix(0.04938271604938272,0,0,0.04938271604938272,0,0)" xlink:href="#aW"/><use transform="matrix(0.04938271604938272,0,0,0.04938271604938272,9.876543209876544,0)" xlink:href="#aS"/><use transform="matrix(0.04938271604938272,0,0,0.04938271604938272,19.75308641975309,0)" xlink:href="#aQ"/></g><g id="f"><use transform="matrix(0.04938271604938272,0,0,0.04938271604938272,0,0)" xlink:href="#aL"/><use transform="matrix(0.04938271604938272,0,0,0.04938271604938272,14.765432098765434,0)" xlink:href="#aM"/><use transform="matrix(0.04938271604938272,0,0,0.04938271604938272,18.666666666666668,0)" xlink:href="#aO"/><use transform="matrix(0.04938271604938272,0,0,0.04938271604938272,27.555555555555557,0)" xlink:href="#aU"/><use transform="matrix(0.04938271604938272,0,0,0.04938271604938272,37.4320987654321,0)" xlink:href="#aQ"/><use transform="matrix(0.04938271604938272,0,0,0.04938271604938272,43.308641975308646,0)" xlink:href="#aK"/><use transform="matrix(0.04938271604938272,0,0,0.04938271604938272,53.18518518518519,0)" xlink:href="#aQ"/><use transform="matrix(0.04938271604938272,0,0,0.04938271604938272,59.061728395061735,0)" xlink:href="#aS"/></g><g id="g"><use transform="matrix(0.04938271604938272,0,0,0.04938271604938272,0,0)" xlink:href="#aV"/><use transform="matrix(0.04938271604938272,0,0,0.04938271604938272,8.88888888888889,0)" xlink:href="#aR"/><use transform="matrix(0.04938271604938272,0,0,0.04938271604938272,18.765432098765434,0)" xlink:href="#aN"/></g><path fill="#fff" d="M11 0l48-248h184l-5 28H87l-15 79h140l-5 27H67L50-27h158l-5 27H11" id="aX"/><path fill="#fff" d="M89 0H52L20-190h33L74-25l89-165h34" id="aY"/><path fill="#fff" d="M194-120c59 52 2 134-86 124-53-6-90-18-98-63l31-7c8 30 29 43 70 43 46 0 84-17 71-62-32-43-135-20-137-98-3-89 178-90 191-16l-30 9c-8-48-127-53-127 5 0 53 81 35 115 65" id="aZ"/><g id="h"><use transform="matrix(0.04938271604938272,0,0,0.04938271604938272,0,0)" xlink:href="#aX"/><use transform="matrix(0.04938271604938272,0,0,0.04938271604938272,11.851851851851853,0)" xlink:href="#aY"/><use transform="matrix(0.04938271604938272,0,0,0.04938271604938272,20.74074074074074,0)" xlink:href="#aR"/><use transform="matrix(0.04938271604938272,0,0,0.04938271604938272,30.617283950617285,0)" xlink:href="#aZ"/><use transform="matrix(0.04938271604938272,0,0,0.04938271604938272,42.46913580246914,0)" xlink:href="#aU"/><use transform="matrix(0.04938271604938272,0,0,0.04938271604938272,52.345679012345684,0)" xlink:href="#aM"/><use transform="matrix(0.04938271604938272,0,0,0.04938271604938272,56.24691358024692,0)" xlink:href="#aP"/><use transform="matrix(0.04938271604938272,0,0,0.04938271604938272,61.18518518518519,0)" xlink:href="#aS"/></g><path fill="#fff" d="M6 0l50-261h32L37 0H6" id="ba"/><g id="i"><use transform="matrix(0.04938271604938272,0,0,0.04938271604938272,0,0)" xlink:href="#ba"/><use transform="matrix(0.04938271604938272,0,0,0.04938271604938272,3.901234567901235,0)" xlink:href="#aK"/></g><g id="j"><use transform="matrix(0.04938271604938272,0,0,0.04938271604938272,0,0)" xlink:href="#aV"/><use transform="matrix(0.04938271604938272,0,0,0.04938271604938272,8.88888888888889,0)" xlink:href="#aR"/><use transform="matrix(0.04938271604938272,0,0,0.04938271604938272,18.765432098765434,0)" xlink:href="#aY"/><use transform="matrix(0.04938271604938272,0,0,0.04938271604938272,27.654320987654323,0)" xlink:href="#aS"/><use transform="matrix(0.04938271604938272,0,0,0.04938271604938272,37.53086419753087,0)" xlink:href="#aQ"/><use transform="matrix(0.04938271604938272,0,0,0.04938271604938272,43.40740740740741,0)" xlink:href="#aK"/><use transform="matrix(0.04938271604938272,0,0,0.04938271604938272,53.283950617283956,0)" xlink:href="#aT"/><use transform="matrix(0.04938271604938272,0,0,0.04938271604938272,63.1604938271605,0)" xlink:href="#aS"/></g><path fill="#fff" d="M133-28C103 26-5 8 13-77c13-62 24-115 90-117 29-1 46 15 56 35l19-102h32L160 0h-30zM45-64c-2 27 10 43 35 43 54-1 69-50 69-103 0-29-15-46-42-46-53-1-58 58-62 106" id="bb"/><g id="k"><use transform="matrix(0.04938271604938272,0,0,0.04938271604938272,0,0)" xlink:href="#bb"/><use transform="matrix(0.04938271604938272,0,0,0.04938271604938272,9.876543209876544,0)" xlink:href="#aS"/><use transform="matrix(0.04938271604938272,0,0,0.04938271604938272,19.75308641975309,0)" xlink:href="#aM"/></g><g id="l"><use transform="matrix(0.04938271604938272,0,0,0.04938271604938272,0,0)" xlink:href="#aP"/><use transform="matrix(0.04938271604938272,0,0,0.04938271604938272,4.938271604938272,0)" xlink:href="#aS"/><use transform="matrix(0.04938271604938272,0,0,0.04938271604938272,14.814814814814817,0)" xlink:href="#aO"/><use transform="matrix(0.04938271604938272,0,0,0.04938271604938272,23.703703703703706,0)" xlink:href="#aP"/></g><g id="m"><use transform="matrix(0.04938271604938272,0,0,0.04938271604938272,0,0)" xlink:href="#aT"/><use transform="matrix(0.04938271604938272,0,0,0.04938271604938272,9.876543209876544,0)" xlink:href="#aS"/><use transform="matrix(0.04938271604938272,0,0,0.04938271604938272,19.75308641975309,0)" xlink:href="#aN"/><use transform="matrix(0.04938271604938272,0,0,0.04938271604938272,29.629629629629633,0)" xlink:href="#aS"/><use transform="matrix(0.04938271604938272,0,0,0.04938271604938272,39.50617283950618,0)" xlink:href="#aQ"/><use transform="matrix(0.04938271604938272,0,0,0.04938271604938272,45.38271604938272,0)" xlink:href="#aK"/><use transform="matrix(0.04938271604938272,0,0,0.04938271604938272,55.25925925925927,0)" xlink:href="#aP"/><use transform="matrix(0.04938271604938272,0,0,0.04938271604938272,60.19753086419754,0)" xlink:href="#aM"/></g><g id="n"><use transform="matrix(0.04938271604938272,0,0,0.04938271604938272,0,0)" xlink:href="#bb"/><use transform="matrix(0.04938271604938272,0,0,0.04938271604938272,9.876543209876544,0)" xlink:href="#aK"/></g><path fill="#fff" d="M249-183c0 48-29 72-75 77L221 0h-36l-43-103H65L45 0H11l48-248c83 2 190-17 190 65zm-34 3c0-55-74-39-127-41l-18 92c63-1 145 13 145-51" id="bc"/><path fill="#fff" d="M44-154l7-36h35l-8 36H44zM14 0l7-36h35L49 0H14" id="bd"/><g id="o"><use transform="matrix(0.04938271604938272,0,0,0.04938271604938272,0,0)" xlink:href="#bc"/><use transform="matrix(0.04938271604938272,0,0,0.04938271604938272,12.790123456790125,0)" xlink:href="#aK"/><use transform="matrix(0.04938271604938272,0,0,0.04938271604938272,22.66666666666667,0)" xlink:href="#aN"/><use transform="matrix(0.04938271604938272,0,0,0.04938271604938272,32.543209876543216,0)" xlink:href="#bb"/><use transform="matrix(0.04938271604938272,0,0,0.04938271604938272,42.41975308641976,0)" xlink:href="#aR"/><use transform="matrix(0.04938271604938272,0,0,0.04938271604938272,52.2962962962963,0)" xlink:href="#aR"/><use transform="matrix(0.04938271604938272,0,0,0.04938271604938272,62.17283950617284,0)" xlink:href="#aW"/><use transform="matrix(0.04938271604938272,0,0,0.04938271604938272,72.0493827160494,0)" xlink:href="#bd"/></g><path fill="#fff" d="M123-170H98l11-78h32zm-65 0H33l11-78h32" id="be"/><path fill="#fff" d="M-28 44V31h207v13H-28" id="bf"/><path fill="#fff" d="M14 0l8-38h34L48 0H14" id="bg"/><path fill="#fff" d="M198-190L69 30C53 58 25 83-20 72c4-11-1-27 19-22 33-1 43-29 59-52L20-190h32L79-34l84-156h35" id="bh"/><g id="p"><use transform="matrix(0.04938271604938272,0,0,0.04938271604938272,0,0)" xlink:href="#be"/><use transform="matrix(0.04938271604938272,0,0,0.04938271604938272,6.271604938271605,0)" xlink:href="#aQ"/><use transform="matrix(0.04938271604938272,0,0,0.04938271604938272,12.148148148148149,0)" xlink:href="#aK"/><use transform="matrix(0.04938271604938272,0,0,0.04938271604938272,22.024691358024693,0)" xlink:href="#aN"/><use transform="matrix(0.04938271604938272,0,0,0.04938271604938272,31.901234567901238,0)" xlink:href="#bb"/><use transform="matrix(0.04938271604938272,0,0,0.04938271604938272,41.777777777777786,0)" xlink:href="#aR"/><use transform="matrix(0.04938271604938272,0,0,0.04938271604938272,51.65432098765432,0)" xlink:href="#aR"/><use transform="matrix(0.04938271604938272,0,0,0.04938271604938272,61.53086419753087,0)" xlink:href="#aW"/><use transform="matrix(0.04938271604938272,0,0,0.04938271604938272,71.40740740740742,0)" xlink:href="#bf"/><use transform="matrix(0.04938271604938272,0,0,0.04938271604938272,81.28395061728396,0)" xlink:href="#aV"/><use transform="matrix(0.04938271604938272,0,0,0.04938271604938272,90.17283950617285,0)" xlink:href="#aR"/><use transform="matrix(0.04938271604938272,0,0,0.04938271604938272,100.0493827160494,0)" xlink:href="#aY"/><use transform="matrix(0.04938271604938272,0,0,0.04938271604938272,108.93827160493828,0)" xlink:href="#aS"/><use transform="matrix(0.04938271604938272,0,0,0.04938271604938272,118.81481481481482,0)" xlink:href="#aQ"/><use transform="matrix(0.04938271604938272,0,0,0.04938271604938272,124.69135802469137,0)" xlink:href="#aK"/><use transform="matrix(0.04938271604938272,0,0,0.04938271604938272,134.5679012345679,0)" xlink:href="#aT"/><use transform="matrix(0.04938271604938272,0,0,0.04938271604938272,144.44444444444446,0)" xlink:href="#aS"/><use transform="matrix(0.04938271604938272,0,0,0.04938271604938272,154.32098765432102,0)" xlink:href="#bg"/><use transform="matrix(0.04938271604938272,0,0,0.04938271604938272,159.2592592592593,0)" xlink:href="#aW"/><use transform="matrix(0.04938271604938272,0,0,0.04938271604938272,169.13580246913585,0)" xlink:href="#bh"/><use transform="matrix(0.04938271604938272,0,0,0.04938271604938272,178.02469135802474,0)" xlink:href="#be"/></g><path fill="#fff" d="M33 0v-248h34V0H33" id="bi"/><path fill="#fff" d="M24 0v-261h32V0H24" id="bj"/><g id="q"><use transform="matrix(0.05432111111111112,0,0,0.05432111111111112,0,0)" xlink:href="#bi"/><use transform="matrix(0.05432111111111112,0,0,0.05432111111111112,5.432111111111112,0)" xlink:href="#bj"/></g><path fill="#fff" d="M135-143c-3-34-86-38-87 0 15 53 115 12 119 90S17 21 10-45l28-5c4 36 97 45 98 0-10-56-113-15-118-90-4-57 82-63 122-42 12 7 21 19 24 35" id="bk"/><path fill="#fff" d="M24-231v-30h32v30H24zM24 0v-190h32V0H24" id="bl"/><path fill="#fff" d="M59-47c-2 24 18 29 38 22v24C64 9 27 4 27-40v-127H5v-23h24l9-43h21v43h35v23H59v120" id="bm"/><path fill="#fff" d="M100-194c63 0 86 42 84 106H49c0 40 14 67 53 68 26 1 43-12 49-29l28 8c-11 28-37 45-77 45C44 4 14-33 15-96c1-61 26-98 85-98zm52 81c6-60-76-77-97-28-3 7-6 17-6 28h103" id="bn"/><path fill="#fff" d="M210-169c-67 3-38 105-44 169h-31v-121c0-29-5-50-35-48C34-165 62-65 56 0H25l-1-190h30c1 10-1 24 2 32 10-44 99-50 107 0 11-21 27-35 58-36 85-2 47 119 55 194h-31v-121c0-29-5-49-35-48" id="bo"/><path fill="#fff" d="M141-36C126-15 110 5 73 4 37 3 15-17 15-53c-1-64 63-63 125-63 3-35-9-54-41-54-24 1-41 7-42 31l-33-3c5-37 33-52 76-52 45 0 72 20 72 64v82c-1 20 7 32 28 27v20c-31 9-61-2-59-35zM48-53c0 20 12 33 32 33 41-3 63-29 60-74-43 2-92-5-92 41" id="bp"/><g id="r"><use transform="matrix(0.05432111111111112,0,0,0.05432111111111112,0,0)" xlink:href="#bk"/><use transform="matrix(0.05432111111111112,0,0,0.05432111111111112,9.777800000000001,0)" xlink:href="#bl"/><use transform="matrix(0.05432111111111112,0,0,0.05432111111111112,14.06916777777778,0)" xlink:href="#bk"/><use transform="matrix(0.05432111111111112,0,0,0.05432111111111112,23.846967777777778,0)" xlink:href="#bm"/><use transform="matrix(0.05432111111111112,0,0,0.05432111111111112,29.279078888888886,0)" xlink:href="#bn"/><use transform="matrix(0.05432111111111112,0,0,0.05432111111111112,40.143301111111114,0)" xlink:href="#bo"/><use transform="matrix(0.05432111111111112,0,0,0.05432111111111112,56.38531333333334,0)" xlink:href="#bp"/></g><path fill="#fff" d="M114-163C36-179 61-72 57 0H25l-1-190h30c1 12-1 29 2 39 6-27 23-49 58-41v29" id="bq"/><path fill="#fff" d="M96-169c-40 0-48 33-48 73s9 75 48 75c24 0 41-14 43-38l32 2c-6 37-31 61-74 61-59 0-76-41-82-99-10-93 101-131 147-64 4 7 5 14 7 22l-32 3c-4-21-16-35-41-35" id="br"/><path fill="#fff" d="M106-169C34-169 62-67 57 0H25v-261h32l-1 103c12-21 28-36 61-36 89 0 53 116 60 194h-32v-121c2-32-8-49-39-48" id="bs"/><g id="s"><use transform="matrix(0.05432111111111112,0,0,0.05432111111111112,0,0)" xlink:href="#bq"/><use transform="matrix(0.05432111111111112,0,0,0.05432111111111112,6.464212222222223,0)" xlink:href="#bl"/><use transform="matrix(0.05432111111111112,0,0,0.05432111111111112,10.755580000000002,0)" xlink:href="#br"/><use transform="matrix(0.05432111111111112,0,0,0.05432111111111112,20.53338,0)" xlink:href="#bs"/><use transform="matrix(0.05432111111111112,0,0,0.05432111111111112,31.397602222222226,0)" xlink:href="#bl"/><use transform="matrix(0.05432111111111112,0,0,0.05432111111111112,35.688970000000005,0)" xlink:href="#bp"/><use transform="matrix(0.05432111111111112,0,0,0.05432111111111112,46.55319222222223,0)" xlink:href="#bo"/><use transform="matrix(0.05432111111111112,0,0,0.05432111111111112,62.79520444444445,0)" xlink:href="#bp"/></g><g id="t"><use transform="matrix(0.05432111111111112,0,0,0.05432111111111112,0,0)" xlink:href="#bj"/><use transform="matrix(0.05432111111111112,0,0,0.05432111111111112,4.291367777777778,0)" xlink:href="#bp"/></g><path fill="#fff" d="M101-234c-31-9-42 10-38 44h38v23H63V0H32v-167H5v-23h27c-7-52 17-82 69-68v24" id="bt"/><path fill="#fff" d="M84 4C-5 8 30-112 23-190h32v120c0 31 7 50 39 49 72-2 45-101 50-169h31l1 190h-30c-1-10 1-25-2-33-11 22-28 36-60 37" id="bu"/><path fill="#fff" d="M117-194c89-4 53 116 60 194h-32v-121c0-31-8-49-39-48C34-167 62-67 57 0H25l-1-190h30c1 10-1 24 2 32 11-22 29-35 61-36" id="bv"/><path fill="#fff" d="M9 0v-24l116-142H16v-24h144v24L44-24h123V0H9" id="bw"/><path fill="#fff" d="M100-194c62-1 85 37 85 99 1 63-27 99-86 99S16-35 15-95c0-66 28-99 85-99zM99-20c44 1 53-31 53-75 0-43-8-75-51-75s-53 32-53 75 10 74 51 75" id="bx"/><g id="u"><use transform="matrix(0.05432111111111112,0,0,0.05432111111111112,0,0)" xlink:href="#bt"/><use transform="matrix(0.05432111111111112,0,0,0.05432111111111112,5.432111111111112,0)" xlink:href="#bu"/><use transform="matrix(0.05432111111111112,0,0,0.05432111111111112,16.296333333333337,0)" xlink:href="#bv"/><use transform="matrix(0.05432111111111112,0,0,0.05432111111111112,27.16055555555556,0)" xlink:href="#bw"/><use transform="matrix(0.05432111111111112,0,0,0.05432111111111112,36.93835555555556,0)" xlink:href="#bl"/><use transform="matrix(0.05432111111111112,0,0,0.05432111111111112,41.22972333333334,0)" xlink:href="#bx"/><use transform="matrix(0.05432111111111112,0,0,0.05432111111111112,52.093945555555564,0)" xlink:href="#bv"/><use transform="matrix(0.05432111111111112,0,0,0.05432111111111112,62.95816777777779,0)" xlink:href="#bn"/></g><path fill="#fff" d="M17-49c1-102 45-165 103-212h30C92-210 49-145 49-46 49 4 63 43 85 75H54C30 43 18 2 17-49" id="by"/><path fill="#fff" d="M98-137C97-35 54 29-4 75h-31C23 23 67-41 67-140c0-50-15-89-37-121h31c24 32 36 73 37 124" id="bz"/><g id="v"><use transform="matrix(0.05432111111111112,0,0,0.05432111111111112,0,0)" xlink:href="#aQ"/><use transform="matrix(0.05432111111111112,0,0,0.05432111111111112,6.464212222222223,0)" xlink:href="#aS"/><use transform="matrix(0.05432111111111112,0,0,0.05432111111111112,17.328434444444447,0)" xlink:href="#aW"/><use transform="matrix(0.05432111111111112,0,0,0.05432111111111112,28.19265666666667,0)" xlink:href="#ba"/><use transform="matrix(0.05432111111111112,0,0,0.05432111111111112,32.48402444444445,0)" xlink:href="#aK"/><use transform="matrix(0.05432111111111112,0,0,0.05432111111111112,43.348246666666675,0)" xlink:href="#aV"/><use transform="matrix(0.05432111111111112,0,0,0.05432111111111112,53.126046666666674,0)" xlink:href="#aS"/><use transform="matrix(0.05432111111111112,0,0,0.05432111111111112,63.9902688888889,0)" xlink:href="#bf"/><use transform="matrix(0.05432111111111112,0,0,0.05432111111111112,74.85449111111112,0)" xlink:href="#aV"/><use transform="matrix(0.05432111111111112,0,0,0.05432111111111112,84.63229111111112,0)" xlink:href="#ba"/><use transform="matrix(0.05432111111111112,0,0,0.05432111111111112,88.9236588888889,0)" xlink:href="#aK"/><use transform="matrix(0.05432111111111112,0,0,0.05432111111111112,99.78788111111112,0)" xlink:href="#aO"/><use transform="matrix(0.05432111111111112,0,0,0.05432111111111112,109.56568111111112,0)" xlink:href="#aO"/><use transform="matrix(0.05432111111111112,0,0,0.05432111111111112,119.34348111111113,0)" xlink:href="#aN"/><use transform="matrix(0.05432111111111112,0,0,0.05432111111111112,130.20770333333334,0)" xlink:href="#aK"/><use transform="matrix(0.05432111111111112,0,0,0.05432111111111112,141.07192555555557,0)" xlink:href="#aL"/><use transform="matrix(0.05432111111111112,0,0,0.05432111111111112,157.3139377777778,0)" xlink:href="#aS"/><use transform="matrix(0.05432111111111112,0,0,0.05432111111111112,168.17816000000002,0)" xlink:href="#by"/><use transform="matrix(0.05432111111111112,0,0,0.05432111111111112,174.64237222222224,0)" xlink:href="#bz"/></g><path fill="#fff" d="M115-194c55 1 70 41 70 98S169 2 115 4C84 4 66-9 55-30l1 105H24l-1-265h31l2 30c10-21 28-34 59-34zm-8 174c40 0 45-34 45-75s-6-73-45-74c-42 0-51 32-51 76 0 43 10 73 51 73" id="bA"/><g id="w"><use transform="matrix(0.05432111111111112,0,0,0.05432111111111112,0,0)" xlink:href="#bA"/><use transform="matrix(0.05432111111111112,0,0,0.05432111111111112,10.864222222222224,0)" xlink:href="#bn"/><use transform="matrix(0.05432111111111112,0,0,0.05432111111111112,21.72844444444445,0)" xlink:href="#bq"/></g><path fill="#fff" d="M108 0H70L1-190h34L89-25l56-165h34" id="bB"/><g id="x"><use transform="matrix(0.05432111111111112,0,0,0.05432111111111112,0,0)" xlink:href="#bq"/><use transform="matrix(0.05432111111111112,0,0,0.05432111111111112,6.464212222222223,0)" xlink:href="#bl"/><use transform="matrix(0.05432111111111112,0,0,0.05432111111111112,10.755580000000002,0)" xlink:href="#bk"/><use transform="matrix(0.05432111111111112,0,0,0.05432111111111112,20.53338,0)" xlink:href="#br"/><use transform="matrix(0.05432111111111112,0,0,0.05432111111111112,30.311179999999997,0)" xlink:href="#bq"/><use transform="matrix(0.05432111111111112,0,0,0.05432111111111112,36.77539222222222,0)" xlink:href="#bl"/><use transform="matrix(0.05432111111111112,0,0,0.05432111111111112,41.06676,0)" xlink:href="#bB"/><use transform="matrix(0.05432111111111112,0,0,0.05432111111111112,50.84456,0)" xlink:href="#bn"/><use transform="matrix(0.05432111111111112,0,0,0.05432111111111112,61.70878222222223,0)" xlink:href="#bq"/><use transform="matrix(0.05432111111111112,0,0,0.05432111111111112,68.17299444444444,0)" xlink:href="#bn"/></g><use transform="matrix(0.05432111111111112,0,0,0.05432111111111112,0,0)" xlink:href="#bl" id="y"/><g id="z"><use transform="matrix(0.05432111111111112,0,0,0.05432111111111112,0,0)" xlink:href="#bv"/><use transform="matrix(0.05432111111111112,0,0,0.05432111111111112,10.864222222222224,0)" xlink:href="#bx"/><use transform="matrix(0.05432111111111112,0,0,0.05432111111111112,21.72844444444445,0)" xlink:href="#bo"/><use transform="matrix(0.05432111111111112,0,0,0.05432111111111112,37.97045666666668,0)" xlink:href="#bl"/></g><path fill="#fff" d="M85-194c31 0 48 13 60 33l-1-100h32l1 261h-30c-2-10 0-23-3-31C134-8 116 4 85 4 32 4 16-35 15-94c0-66 23-100 70-100zm9 24c-40 0-46 34-46 75 0 40 6 74 45 74 42 0 51-32 51-76 0-42-9-74-50-73" id="bC"/><g id="A"><use transform="matrix(0.05432111111111112,0,0,0.05432111111111112,0,0)" xlink:href="#bC"/><use transform="matrix(0.05432111111111112,0,0,0.05432111111111112,10.864222222222224,0)" xlink:href="#bn"/><use transform="matrix(0.05432111111111112,0,0,0.05432111111111112,21.72844444444445,0)" xlink:href="#bj"/><use transform="matrix(0.05432111111111112,0,0,0.05432111111111112,26.019812222222228,0)" xlink:href="#bj"/><use transform="matrix(0.05432111111111112,0,0,0.05432111111111112,30.31118000000001,0)" xlink:href="#bn"/></g><g id="B"><use transform="matrix(0.05432111111111112,0,0,0.05432111111111112,0,0)" xlink:href="#br"/><use transform="matrix(0.05432111111111112,0,0,0.05432111111111112,9.777800000000001,0)" xlink:href="#bj"/><use transform="matrix(0.05432111111111112,0,0,0.05432111111111112,14.06916777777778,0)" xlink:href="#bp"/><use transform="matrix(0.05432111111111112,0,0,0.05432111111111112,24.933390000000003,0)" xlink:href="#bk"/><use transform="matrix(0.05432111111111112,0,0,0.05432111111111112,34.71119,0)" xlink:href="#bk"/><use transform="matrix(0.05432111111111112,0,0,0.05432111111111112,44.48899,0)" xlink:href="#bl"/></g><g id="C"><use transform="matrix(0.05432111111111112,0,0,0.05432111111111112,0,0)" xlink:href="#bC"/><use transform="matrix(0.05432111111111112,0,0,0.05432111111111112,10.864222222222224,0)" xlink:href="#bl"/></g><g id="D"><use transform="matrix(0.05432111111111112,0,0,0.05432111111111112,0,0)" xlink:href="#bm"/><use transform="matrix(0.05432111111111112,0,0,0.05432111111111112,5.432111111111112,0)" xlink:href="#bn"/><use transform="matrix(0.05432111111111112,0,0,0.05432111111111112,16.296333333333337,0)" xlink:href="#bk"/><use transform="matrix(0.05432111111111112,0,0,0.05432111111111112,26.074133333333336,0)" xlink:href="#bm"/></g><g id="E"><use transform="matrix(0.05432111111111112,0,0,0.05432111111111112,0,0)" xlink:href="#br"/><use transform="matrix(0.05432111111111112,0,0,0.05432111111111112,9.777800000000001,0)" xlink:href="#bs"/><use transform="matrix(0.05432111111111112,0,0,0.05432111111111112,20.642022222222224,0)" xlink:href="#bn"/></g><g id="F"><use transform="matrix(0.05432111111111112,0,0,0.05432111111111112,0,0)" xlink:href="#bn"/><use transform="matrix(0.05432111111111112,0,0,0.05432111111111112,10.864222222222224,0)" xlink:href="#bq"/><use transform="matrix(0.05432111111111112,0,0,0.05432111111111112,17.328434444444447,0)" xlink:href="#bp"/><use transform="matrix(0.05432111111111112,0,0,0.05432111111111112,28.19265666666667,0)" xlink:href="#bv"/><use transform="matrix(0.05432111111111112,0,0,0.05432111111111112,39.056878888888896,0)" xlink:href="#bx"/></g><g id="G"><use transform="matrix(0.05432111111111112,0,0,0.05432111111111112,0,0)" xlink:href="#bn"/><use transform="matrix(0.05432111111111112,0,0,0.05432111111111112,10.864222222222224,0)" xlink:href="#bq"/><use transform="matrix(0.05432111111111112,0,0,0.05432111111111112,17.328434444444447,0)" xlink:href="#bq"/><use transform="matrix(0.05432111111111112,0,0,0.05432111111111112,23.79264666666667,0)" xlink:href="#bp"/><use transform="matrix(0.05432111111111112,0,0,0.05432111111111112,34.656868888888894,0)" xlink:href="#bm"/><use transform="matrix(0.05432111111111112,0,0,0.05432111111111112,40.08898000000001,0)" xlink:href="#bl"/></g><path fill="#333" d="M212-179c-10-28-35-45-73-45-59 0-87 40-87 99 0 60 29 101 89 101 43 0 62-24 78-52l27 14C228-24 195 4 139 4 59 4 22-46 18-125c-6-104 99-153 187-111 19 9 31 26 39 46" id="bD"/><path fill="#333" d="M185-189c-5-48-123-54-124 2 14 75 158 14 163 119 3 78-121 87-175 55-17-10-28-26-33-46l33-7c5 56 141 63 141-1 0-78-155-14-162-118-5-82 145-84 179-34 5 7 8 16 11 25" id="bE"/><path fill="#333" d="M137 0h-34L2-248h35l83 218 83-218h36" id="bF"/><g id="H"><use transform="matrix(0.04938271604938272,0,0,0.04938271604938272,0,0)" xlink:href="#bD"/><use transform="matrix(0.04938271604938272,0,0,0.04938271604938272,12.790123456790125,0)" xlink:href="#bE"/><use transform="matrix(0.04938271604938272,0,0,0.04938271604938272,24.641975308641978,0)" xlink:href="#bF"/></g><path fill="#333" d="M117-194c89-4 53 116 60 194h-32v-121c0-31-8-49-39-48C34-167 62-67 57 0H25l-1-190h30c1 10-1 24 2 32 11-22 29-35 61-36" id="bG"/><path fill="#333" d="M100-194c62-1 85 37 85 99 1 63-27 99-86 99S16-35 15-95c0-66 28-99 85-99zM99-20c44 1 53-31 53-75 0-43-8-75-51-75s-53 32-53 75 10 74 51 75" id="bH"/><path fill="#333" d="M59-47c-2 24 18 29 38 22v24C64 9 27 4 27-40v-127H5v-23h24l9-43h21v43h35v23H59v120" id="bI"/><g id="I"><use transform="matrix(0.04938271604938272,0,0,0.04938271604938272,0,0)" xlink:href="#bG"/><use transform="matrix(0.04938271604938272,0,0,0.04938271604938272,9.876543209876544,0)" xlink:href="#bH"/><use transform="matrix(0.04938271604938272,0,0,0.04938271604938272,19.75308641975309,0)" xlink:href="#bI"/></g><path fill="#333" d="M101-234c-31-9-42 10-38 44h38v23H63V0H32v-167H5v-23h27c-7-52 17-82 69-68v24" id="bJ"/><path fill="#333" d="M84 4C-5 8 30-112 23-190h32v120c0 31 7 50 39 49 72-2 45-101 50-169h31l1 190h-30c-1-10 1-25-2-33-11 22-28 36-60 37" id="bK"/><path fill="#333" d="M85-194c31 0 48 13 60 33l-1-100h32l1 261h-30c-2-10 0-23-3-31C134-8 116 4 85 4 32 4 16-35 15-94c0-66 23-100 70-100zm9 24c-40 0-46 34-46 75 0 40 6 74 45 74 42 0 51-32 51-76 0-42-9-74-50-73" id="bL"/><g id="J"><use transform="matrix(0.04938271604938272,0,0,0.04938271604938272,0,0)" xlink:href="#bJ"/><use transform="matrix(0.04938271604938272,0,0,0.04938271604938272,4.938271604938272,0)" xlink:href="#bH"/><use transform="matrix(0.04938271604938272,0,0,0.04938271604938272,14.814814814814817,0)" xlink:href="#bK"/><use transform="matrix(0.04938271604938272,0,0,0.04938271604938272,24.69135802469136,0)" xlink:href="#bG"/><use transform="matrix(0.04938271604938272,0,0,0.04938271604938272,34.567901234567906,0)" xlink:href="#bL"/></g><path fill="#333" d="M190 0L58-211 59 0H30v-248h39L202-35l-2-213h31V0h-41" id="bM"/><g id="K"><use transform="matrix(0.04938271604938272,0,0,0.04938271604938272,0,0)" xlink:href="#bM"/><use transform="matrix(0.04938271604938272,0,0,0.04938271604938272,12.790123456790125,0)" xlink:href="#bH"/><use transform="matrix(0.04938271604938272,0,0,0.04938271604938272,22.66666666666667,0)" xlink:href="#bG"/></g><path fill="#333" d="M135-143c-3-34-86-38-87 0 15 53 115 12 119 90S17 21 10-45l28-5c4 36 97 45 98 0-10-56-113-15-118-90-4-57 82-63 122-42 12 7 21 19 24 35" id="bN"/><g id="L"><use transform="matrix(0.04938271604938272,0,0,0.04938271604938272,0,0)" xlink:href="#bN"/><use transform="matrix(0.04938271604938272,0,0,0.04938271604938272,8.88888888888889,0)" xlink:href="#bH"/><use transform="matrix(0.04938271604938272,0,0,0.04938271604938272,18.765432098765434,0)" xlink:href="#bG"/><use transform="matrix(0.04938271604938272,0,0,0.04938271604938272,28.641975308641978,0)" xlink:href="#bH"/></g><path fill="#333" d="M141-36C126-15 110 5 73 4 37 3 15-17 15-53c-1-64 63-63 125-63 3-35-9-54-41-54-24 1-41 7-42 31l-33-3c5-37 33-52 76-52 45 0 72 20 72 64v82c-1 20 7 32 28 27v20c-31 9-61-2-59-35zM48-53c0 20 12 33 32 33 41-3 63-29 60-74-43 2-92-5-92 41" id="bO"/><path fill="#333" d="M100-194c63 0 86 42 84 106H49c0 40 14 67 53 68 26 1 43-12 49-29l28 8c-11 28-37 45-77 45C44 4 14-33 15-96c1-61 26-98 85-98zm52 81c6-60-76-77-97-28-3 7-6 17-6 28h103" id="bP"/><g id="M"><use transform="matrix(0.04938271604938272,0,0,0.04938271604938272,0,0)" xlink:href="#bN"/><use transform="matrix(0.04938271604938272,0,0,0.04938271604938272,8.88888888888889,0)" xlink:href="#bI"/><use transform="matrix(0.04938271604938272,0,0,0.04938271604938272,13.827160493827162,0)" xlink:href="#bO"/><use transform="matrix(0.04938271604938272,0,0,0.04938271604938272,23.703703703703706,0)" xlink:href="#bI"/><use transform="matrix(0.04938271604938272,0,0,0.04938271604938272,28.641975308641978,0)" xlink:href="#bP"/></g><path fill="#333" d="M210-169c-67 3-38 105-44 169h-31v-121c0-29-5-50-35-48C34-165 62-65 56 0H25l-1-190h30c1 10-1 24 2 32 10-44 99-50 107 0 11-21 27-35 58-36 85-2 47 119 55 194h-31v-121c0-29-5-49-35-48" id="bQ"/><path fill="#333" d="M24-231v-30h32v30H24zM24 0v-190h32V0H24" id="bR"/><path fill="#333" d="M114-163C36-179 61-72 57 0H25l-1-190h30c1 12-1 29 2 39 6-27 23-49 58-41v29" id="bS"/><g id="N"><use transform="matrix(0.04938271604938272,0,0,0.04938271604938272,0,0)" xlink:href="#bQ"/><use transform="matrix(0.04938271604938272,0,0,0.04938271604938272,14.765432098765434,0)" xlink:href="#bR"/><use transform="matrix(0.04938271604938272,0,0,0.04938271604938272,18.666666666666668,0)" xlink:href="#bN"/><use transform="matrix(0.04938271604938272,0,0,0.04938271604938272,27.555555555555557,0)" xlink:href="#bK"/><use transform="matrix(0.04938271604938272,0,0,0.04938271604938272,37.4320987654321,0)" xlink:href="#bS"/><use transform="matrix(0.04938271604938272,0,0,0.04938271604938272,43.308641975308646,0)" xlink:href="#bO"/><use transform="matrix(0.04938271604938272,0,0,0.04938271604938272,53.18518518518519,0)" xlink:href="#bI"/><use transform="matrix(0.04938271604938272,0,0,0.04938271604938272,58.12345679012346,0)" xlink:href="#bP"/></g><g id="O"><use transform="matrix(0.04938271604938272,0,0,0.04938271604938272,0,0)" xlink:href="#bI"/><use transform="matrix(0.04938271604938272,0,0,0.04938271604938272,4.938271604938272,0)" xlink:href="#bK"/><use transform="matrix(0.04938271604938272,0,0,0.04938271604938272,14.814814814814817,0)" xlink:href="#bI"/><use transform="matrix(0.04938271604938272,0,0,0.04938271604938272,19.75308641975309,0)" xlink:href="#bI"/><use transform="matrix(0.04938271604938272,0,0,0.04938271604938272,24.69135802469136,0)" xlink:href="#bP"/></g><path fill="#333" d="M24 0v-261h32V0H24" id="bT"/><g id="P"><use transform="matrix(0.04938271604938272,0,0,0.04938271604938272,0,0)" xlink:href="#bT"/><use transform="matrix(0.04938271604938272,0,0,0.04938271604938272,3.901234567901235,0)" xlink:href="#bP"/></g><path fill="#333" d="M96-169c-40 0-48 33-48 73s9 75 48 75c24 0 41-14 43-38l32 2c-6 37-31 61-74 61-59 0-76-41-82-99-10-93 101-131 147-64 4 7 5 14 7 22l-32 3c-4-21-16-35-41-35" id="bU"/><g id="Q"><use transform="matrix(0.04938271604938272,0,0,0.04938271604938272,0,0)" xlink:href="#bU"/><use transform="matrix(0.04938271604938272,0,0,0.04938271604938272,8.88888888888889,0)" xlink:href="#bT"/><use transform="matrix(0.04938271604938272,0,0,0.04938271604938272,12.790123456790125,0)" xlink:href="#bO"/><use transform="matrix(0.04938271604938272,0,0,0.04938271604938272,22.666666666666668,0)" xlink:href="#bN"/><use transform="matrix(0.04938271604938272,0,0,0.04938271604938272,31.555555555555557,0)" xlink:href="#bN"/><use transform="matrix(0.04938271604938272,0,0,0.04938271604938272,40.44444444444444,0)" xlink:href="#bR"/></g><g id="R"><use transform="matrix(0.04938271604938272,0,0,0.04938271604938272,0,0)" xlink:href="#bL"/><use transform="matrix(0.04938271604938272,0,0,0.04938271604938272,9.876543209876544,0)" xlink:href="#bR"/></g><g id="S"><use transform="matrix(0.04938271604938272,0,0,0.04938271604938272,0,0)" xlink:href="#bI"/><use transform="matrix(0.04938271604938272,0,0,0.04938271604938272,4.938271604938272,0)" xlink:href="#bP"/><use transform="matrix(0.04938271604938272,0,0,0.04938271604938272,14.814814814814817,0)" xlink:href="#bN"/><use transform="matrix(0.04938271604938272,0,0,0.04938271604938272,23.703703703703706,0)" xlink:href="#bI"/></g><g id="T"><use transform="matrix(0.04938271604938272,0,0,0.04938271604938272,0,0)" xlink:href="#bI"/><use transform="matrix(0.04938271604938272,0,0,0.04938271604938272,4.938271604938272,0)" xlink:href="#bK"/><use transform="matrix(0.04938271604938272,0,0,0.04938271604938272,14.814814814814817,0)" xlink:href="#bI"/><use transform="matrix(0.04938271604938272,0,0,0.04938271604938272,19.75308641975309,0)" xlink:href="#bI"/><use transform="matrix(0.04938271604938272,0,0,0.04938271604938272,24.69135802469136,0)" xlink:href="#bP"/></g><g id="U"><use transform="matrix(0.04938271604938272,0,0,0.04938271604938272,0,0)" xlink:href="#bI"/><use transform="matrix(0.04938271604938272,0,0,0.04938271604938272,4.938271604938272,0)" xlink:href="#bP"/><use transform="matrix(0.04938271604938272,0,0,0.04938271604938272,14.814814814814817,0)" xlink:href="#bN"/><use transform="matrix(0.04938271604938272,0,0,0.04938271604938272,23.703703703703706,0)" xlink:href="#bI"/></g><g id="V"><use transform="matrix(0.04938271604938272,0,0,0.04938271604938272,0,0)" xlink:href="#bN"/><use transform="matrix(0.04938271604938272,0,0,0.04938271604938272,8.88888888888889,0)" xlink:href="#bH"/><use transform="matrix(0.04938271604938272,0,0,0.04938271604938272,18.765432098765434,0)" xlink:href="#bG"/><use transform="matrix(0.04938271604938272,0,0,0.04938271604938272,28.641975308641978,0)" xlink:href="#bH"/></g><g id="W"><use transform="matrix(0.04938271604938272,0,0,0.04938271604938272,0,0)" xlink:href="#bQ"/><use transform="matrix(0.04938271604938272,0,0,0.04938271604938272,14.765432098765434,0)" xlink:href="#bR"/><use transform="matrix(0.04938271604938272,0,0,0.04938271604938272,18.666666666666668,0)" xlink:href="#bN"/><use transform="matrix(0.04938271604938272,0,0,0.04938271604938272,27.555555555555557,0)" xlink:href="#bK"/><use transform="matrix(0.04938271604938272,0,0,0.04938271604938272,37.4320987654321,0)" xlink:href="#bS"/><use transform="matrix(0.04938271604938272,0,0,0.04938271604938272,43.308641975308646,0)" xlink:href="#bO"/><use transform="matrix(0.04938271604938272,0,0,0.04938271604938272,53.18518518518519,0)" xlink:href="#bI"/><use transform="matrix(0.04938271604938272,0,0,0.04938271604938272,58.12345679012346,0)" xlink:href="#bP"/></g><path fill="#333" d="M108 0H70L1-190h34L89-25l56-165h34" id="bV"/><path fill="#333" d="M118-107v75H92v-75H18v-26h74v-75h26v75h74v26h-74" id="bW"/><g id="X"><use transform="matrix(0.04938271604938272,0,0,0.04938271604938272,0,0)" xlink:href="#bT"/><use transform="matrix(0.04938271604938272,0,0,0.04938271604938272,3.901234567901235,0)" xlink:href="#bR"/><use transform="matrix(0.04938271604938272,0,0,0.04938271604938272,7.80246913580247,0)" xlink:href="#bV"/><use transform="matrix(0.04938271604938272,0,0,0.04938271604938272,16.69135802469136,0)" xlink:href="#bP"/><use transform="matrix(0.04938271604938272,0,0,0.04938271604938272,26.567901234567902,0)" xlink:href="#bT"/><use transform="matrix(0.04938271604938272,0,0,0.04938271604938272,30.46913580246914,0)" xlink:href="#bT"/><use transform="matrix(0.04938271604938272,0,0,0.04938271604938272,34.370370370370374,0)" xlink:href="#bH"/><use transform="matrix(0.04938271604938272,0,0,0.04938271604938272,44.24691358024692,0)" xlink:href="#bW"/><use transform="matrix(0.04938271604938272,0,0,0.04938271604938272,54.61728395061729,0)" xlink:href="#bW"/></g><g id="Y"><use transform="matrix(0.04938271604938272,0,0,0.04938271604938272,0,0)" xlink:href="#bT"/><use transform="matrix(0.04938271604938272,0,0,0.04938271604938272,3.901234567901235,0)" xlink:href="#bR"/><use transform="matrix(0.04938271604938272,0,0,0.04938271604938272,7.80246913580247,0)" xlink:href="#bV"/><use transform="matrix(0.04938271604938272,0,0,0.04938271604938272,16.69135802469136,0)" xlink:href="#bP"/><use transform="matrix(0.04938271604938272,0,0,0.04938271604938272,26.567901234567902,0)" xlink:href="#bT"/><use transform="matrix(0.04938271604938272,0,0,0.04938271604938272,30.46913580246914,0)" xlink:href="#bT"/><use transform="matrix(0.04938271604938272,0,0,0.04938271604938272,34.370370370370374,0)" xlink:href="#bH"/></g><path fill="#333" d="M18-100v-36l175-74v27L42-118l151 64v27" id="bX"/><path fill="#333" d="M18-150v-26h174v26H18zm0 90v-26h174v26H18" id="bY"/><g id="Z"><use transform="matrix(0.04938271604938272,0,0,0.04938271604938272,0,0)" xlink:href="#bX"/><use transform="matrix(0.04938271604938272,0,0,0.04938271604938272,10.370370370370372,0)" xlink:href="#bY"/></g><use transform="matrix(0.04938271604938272,0,0,0.04938271604938272,0,0)" xlink:href="#bM" id="aa"/><path fill="#333" d="M18-27v-27l151-64-151-65v-27l175 74v36" id="bZ"/><use transform="matrix(0.04938271604938272,0,0,0.04938271604938272,0,0)" xlink:href="#bZ" id="ab"/><g id="ac"><use transform="matrix(0.05432111111111112,0,0,0.05432111111111112,0,0)" xlink:href="#bj"/><use transform="matrix(0.05432111111111112,0,0,0.05432111111111112,4.291367777777778,0)" xlink:href="#bp"/></g><g id="ad"><use transform="matrix(0.05185185185185186,0,0,0.05185185185185186,0,0)" xlink:href="#aQ"/><use transform="matrix(0.05185185185185186,0,0,0.05185185185185186,6.170370370370371,0)" xlink:href="#aS"/><use transform="matrix(0.05185185185185186,0,0,0.05185185185185186,16.540740740740745,0)" xlink:href="#aW"/><use transform="matrix(0.05185185185185186,0,0,0.05185185185185186,26.91111111111112,0)" xlink:href="#ba"/><use transform="matrix(0.05185185185185186,0,0,0.05185185185185186,31.00740740740741,0)" xlink:href="#aK"/><use transform="matrix(0.05185185185185186,0,0,0.05185185185185186,41.37777777777779,0)" xlink:href="#aV"/><use transform="matrix(0.05185185185185186,0,0,0.05185185185185186,50.71111111111112,0)" xlink:href="#aS"/><use transform="matrix(0.05185185185185186,0,0,0.05185185185185186,61.0814814814815,0)" xlink:href="#bf"/><use transform="matrix(0.05185185185185186,0,0,0.05185185185185186,71.45185185185187,0)" xlink:href="#aP"/><use transform="matrix(0.05185185185185186,0,0,0.05185185185185186,76.63703703703706,0)" xlink:href="#aS"/><use transform="matrix(0.05185185185185186,0,0,0.05185185185185186,87.00740740740743,0)" xlink:href="#aO"/><use transform="matrix(0.05185185185185186,0,0,0.05185185185185186,96.34074074074076,0)" xlink:href="#aP"/><use transform="matrix(0.05185185185185186,0,0,0.05185185185185186,101.52592592592595,0)" xlink:href="#bf"/><use transform="matrix(0.05185185185185186,0,0,0.05185185185185186,111.89629629629631,0)" xlink:href="#aN"/><use transform="matrix(0.05185185185185186,0,0,0.05185185185185186,122.26666666666668,0)" xlink:href="#aK"/><use transform="matrix(0.05185185185185186,0,0,0.05185185185185186,132.63703703703706,0)" xlink:href="#aL"/><use transform="matrix(0.05185185185185186,0,0,0.05185185185185186,148.14074074074077,0)" xlink:href="#aS"/><use transform="matrix(0.05185185185185186,0,0,0.05185185185185186,158.51111111111115,0)" xlink:href="#aO"/><use transform="matrix(0.05185185185185186,0,0,0.05185185185185186,167.8444444444445,0)" xlink:href="#bf"/><use transform="matrix(0.05185185185185186,0,0,0.05185185185185186,178.21481481481487,0)" xlink:href="#aM"/><use transform="matrix(0.05185185185185186,0,0,0.05185185185185186,182.31111111111116,0)" xlink:href="#aN"/><use transform="matrix(0.05185185185185186,0,0,0.05185185185185186,192.68148148148154,0)" xlink:href="#bf"/><use transform="matrix(0.05185185185185186,0,0,0.05185185185185186,203.05185185185192,0)" xlink:href="#aP"/><use transform="matrix(0.05185185185185186,0,0,0.05185185185185186,208.2370370370371,0)" xlink:href="#aS"/><use transform="matrix(0.05185185185185186,0,0,0.05185185185185186,218.60740740740746,0)" xlink:href="#aO"/><use transform="matrix(0.05185185185185186,0,0,0.05185185185185186,227.94074074074086,0)" xlink:href="#aP"/><use transform="matrix(0.05185185185185186,0,0,0.05185185185185186,233.12592592592605,0)" xlink:href="#aO"/><use transform="matrix(0.05185185185185186,0,0,0.05185185185185186,242.45925925925937,0)" xlink:href="#aU"/><use transform="matrix(0.05185185185185186,0,0,0.05185185185185186,252.82962962962975,0)" xlink:href="#aM"/><use transform="matrix(0.05185185185185186,0,0,0.05185185185185186,256.92592592592604,0)" xlink:href="#aP"/><use transform="matrix(0.05185185185185186,0,0,0.05185185185185186,262.1111111111112,0)" xlink:href="#aS"/><use transform="matrix(0.05185185185185186,0,0,0.05185185185185186,272.4814814814816,0)" xlink:href="#aO"/><use transform="matrix(0.05432111111111112,0,0,0.05432111111111112,281.8148148148149,0)" xlink:href="#by"/><use transform="matrix(0.05432111111111112,0,0,0.05432111111111112,288.2790270370371,0)" xlink:href="#bz"/></g><g id="ae"><use transform="matrix(0.05432111111111112,0,0,0.05432111111111112,0,0)" xlink:href="#bA"/><use transform="matrix(0.05432111111111112,0,0,0.05432111111111112,10.864222222222224,0)" xlink:href="#bn"/><use transform="matrix(0.05432111111111112,0,0,0.05432111111111112,21.72844444444445,0)" xlink:href="#bq"/></g><g id="af"><use transform="matrix(0.05432111111111112,0,0,0.05432111111111112,0,0)" xlink:href="#bC"/><use transform="matrix(0.05432111111111112,0,0,0.05432111111111112,10.864222222222224,0)" xlink:href="#bn"/><use transform="matrix(0.05432111111111112,0,0,0.05432111111111112,21.72844444444445,0)" xlink:href="#bl"/></g><g id="ag"><use transform="matrix(0.05432111111111112,0,0,0.05432111111111112,0,0)" xlink:href="#bm"/><use transform="matrix(0.05432111111111112,0,0,0.05432111111111112,5.432111111111112,0)" xlink:href="#bn"/><use transform="matrix(0.05432111111111112,0,0,0.05432111111111112,16.296333333333337,0)" xlink:href="#bk"/><use transform="matrix(0.05432111111111112,0,0,0.05432111111111112,26.074133333333336,0)" xlink:href="#bm"/></g><g id="ah"><use transform="matrix(0.05432111111111112,0,0,0.05432111111111112,0,0)" xlink:href="#bv"/><use transform="matrix(0.05432111111111112,0,0,0.05432111111111112,10.864222222222224,0)" xlink:href="#bn"/><use transform="matrix(0.05432111111111112,0,0,0.05432111111111112,21.72844444444445,0)" xlink:href="#bj"/><use transform="matrix(0.05432111111111112,0,0,0.05432111111111112,26.019812222222228,0)" xlink:href="#bj"/><use transform="matrix(0.05432111111111112,0,0,0.05432111111111112,30.31118000000001,0)" xlink:href="#bp"/></g><g id="ai"><use transform="matrix(0.05432111111111112,0,0,0.05432111111111112,0,0)" xlink:href="#bm"/><use transform="matrix(0.05432111111111112,0,0,0.05432111111111112,5.432111111111112,0)" xlink:href="#bn"/><use transform="matrix(0.05432111111111112,0,0,0.05432111111111112,16.296333333333337,0)" xlink:href="#bk"/><use transform="matrix(0.05432111111111112,0,0,0.05432111111111112,26.074133333333336,0)" xlink:href="#bm"/><use transform="matrix(0.05432111111111112,0,0,0.05432111111111112,31.506244444444448,0)" xlink:href="#bk"/><use transform="matrix(0.05432111111111112,0,0,0.05432111111111112,41.28404444444445,0)" xlink:href="#bu"/><use transform="matrix(0.05432111111111112,0,0,0.05432111111111112,52.14826666666667,0)" xlink:href="#bl"/><use transform="matrix(0.05432111111111112,0,0,0.05432111111111112,56.43963444444445,0)" xlink:href="#bm"/><use transform="matrix(0.05432111111111112,0,0,0.05432111111111112,61.87174555555556,0)" xlink:href="#bn"/></g><path fill="#fff" d="M177-190C167-65 218 103 67 71c-23-6-38-20-44-43l32-5c15 47 100 32 89-28v-30C133-14 115 1 83 1 29 1 15-40 15-95c0-56 16-97 71-98 29-1 48 16 59 35 1-10 0-23 2-32h30zM94-22c36 0 50-32 50-73 0-42-14-75-50-75-39 0-46 34-46 75s6 73 46 73" id="ca"/><g id="aj"><use transform="matrix(0.05432111111111112,0,0,0.05432111111111112,0,0)" xlink:href="#bn"/><use transform="matrix(0.05432111111111112,0,0,0.05432111111111112,10.864222222222224,0)" xlink:href="#bk"/><use transform="matrix(0.05432111111111112,0,0,0.05432111111111112,20.642022222222224,0)" xlink:href="#bn"/><use transform="matrix(0.05432111111111112,0,0,0.05432111111111112,31.506244444444448,0)" xlink:href="#ca"/><use transform="matrix(0.05432111111111112,0,0,0.05432111111111112,42.37046666666667,0)" xlink:href="#bu"/><use transform="matrix(0.05432111111111112,0,0,0.05432111111111112,53.2346888888889,0)" xlink:href="#bn"/></g><g id="ak"><use transform="matrix(0.05432111111111112,0,0,0.05432111111111112,0,0)" xlink:href="#aV"/><use transform="matrix(0.05432111111111112,0,0,0.05432111111111112,9.777800000000001,0)" xlink:href="#aR"/><use transform="matrix(0.05432111111111112,0,0,0.05432111111111112,20.642022222222224,0)" xlink:href="#aL"/><use transform="matrix(0.05432111111111112,0,0,0.05432111111111112,36.88403444444445,0)" xlink:href="#aW"/><use transform="matrix(0.05432111111111112,0,0,0.05432111111111112,47.74825666666668,0)" xlink:href="#aM"/><use transform="matrix(0.05432111111111112,0,0,0.05432111111111112,52.039624444444456,0)" xlink:href="#ba"/><use transform="matrix(0.05432111111111112,0,0,0.05432111111111112,56.33099222222223,0)" xlink:href="#aS"/><use transform="matrix(0.05432111111111112,0,0,0.05432111111111112,67.19521444444446,0)" xlink:href="#bf"/><use transform="matrix(0.05432111111111112,0,0,0.05432111111111112,78.05943666666668,0)" xlink:href="#aK"/><use transform="matrix(0.05432111111111112,0,0,0.05432111111111112,88.92365888888891,0)" xlink:href="#aN"/><use transform="matrix(0.05432111111111112,0,0,0.05432111111111112,99.78788111111113,0)" xlink:href="#bb"/><use transform="matrix(0.05432111111111112,0,0,0.05432111111111112,110.65210333333336,0)" xlink:href="#bf"/><use transform="matrix(0.05432111111111112,0,0,0.05432111111111112,121.51632555555557,0)" xlink:href="#aL"/><use transform="matrix(0.05432111111111112,0,0,0.05432111111111112,137.7583377777778,0)" xlink:href="#aS"/><use transform="matrix(0.05432111111111112,0,0,0.05432111111111112,148.62256000000002,0)" xlink:href="#aK"/><use transform="matrix(0.05432111111111112,0,0,0.05432111111111112,159.48678222222225,0)" xlink:href="#aO"/><use transform="matrix(0.05432111111111112,0,0,0.05432111111111112,169.26458222222226,0)" xlink:href="#aU"/><use transform="matrix(0.05432111111111112,0,0,0.05432111111111112,180.12880444444448,0)" xlink:href="#aQ"/><use transform="matrix(0.05432111111111112,0,0,0.05432111111111112,186.5930166666667,0)" xlink:href="#aS"/><use transform="matrix(0.05432111111111112,0,0,0.05432111111111112,197.45723888888892,0)" xlink:href="#by"/><use transform="matrix(0.05432111111111112,0,0,0.05432111111111112,203.92145111111114,0)" xlink:href="#bz"/></g><g id="al"><use transform="matrix(0.05432111111111112,0,0,0.05432111111111112,0,0)" xlink:href="#br"/><use transform="matrix(0.05432111111111112,0,0,0.05432111111111112,9.777800000000001,0)" xlink:href="#bx"/><use transform="matrix(0.05432111111111112,0,0,0.05432111111111112,20.642022222222224,0)" xlink:href="#bo"/><use transform="matrix(0.05432111111111112,0,0,0.05432111111111112,36.88403444444445,0)" xlink:href="#bA"/><use transform="matrix(0.05432111111111112,0,0,0.05432111111111112,47.74825666666668,0)" xlink:href="#bl"/><use transform="matrix(0.05432111111111112,0,0,0.05432111111111112,52.039624444444456,0)" xlink:href="#bj"/><use transform="matrix(0.05432111111111112,0,0,0.05432111111111112,56.33099222222223,0)" xlink:href="#bp"/><use transform="matrix(0.05432111111111112,0,0,0.05432111111111112,67.19521444444446,0)" xlink:href="#bq"/><use transform="matrix(0.05432111111111112,0,0,0.05432111111111112,73.65942666666669,0)" xlink:href="#bn"/></g><use transform="matrix(0.05432111111111112,0,0,0.05432111111111112,0,0)" xlink:href="#bn" id="am"/><g id="an"><use transform="matrix(0.05432111111111112,0,0,0.05432111111111112,0,0)" xlink:href="#br"/><use transform="matrix(0.05432111111111112,0,0,0.05432111111111112,9.777800000000001,0)" xlink:href="#bp"/><use transform="matrix(0.05432111111111112,0,0,0.05432111111111112,20.642022222222224,0)" xlink:href="#bj"/><use transform="matrix(0.05432111111111112,0,0,0.05432111111111112,24.933390000000003,0)" xlink:href="#br"/><use transform="matrix(0.05432111111111112,0,0,0.05432111111111112,34.71119,0)" xlink:href="#bx"/><use transform="matrix(0.05432111111111112,0,0,0.05432111111111112,45.575412222222226,0)" xlink:href="#bj"/><use transform="matrix(0.05432111111111112,0,0,0.05432111111111112,49.866780000000006,0)" xlink:href="#bp"/><use transform="matrix(0.05432111111111112,0,0,0.05432111111111112,60.73100222222223,0)" xlink:href="#bq"/><use transform="matrix(0.05432111111111112,0,0,0.05432111111111112,67.19521444444445,0)" xlink:href="#bv"/><use transform="matrix(0.05432111111111112,0,0,0.05432111111111112,78.05943666666667,0)" xlink:href="#bn"/></g><g id="ao"><use transform="matrix(0.05432111111111112,0,0,0.05432111111111112,0,0)" xlink:href="#br"/><use transform="matrix(0.05432111111111112,0,0,0.05432111111111112,9.777800000000001,0)" xlink:href="#bx"/><use transform="matrix(0.05432111111111112,0,0,0.05432111111111112,20.642022222222224,0)" xlink:href="#bB"/><use transform="matrix(0.05432111111111112,0,0,0.05432111111111112,30.41982222222222,0)" xlink:href="#bn"/><use transform="matrix(0.05432111111111112,0,0,0.05432111111111112,41.28404444444445,0)" xlink:href="#bq"/><use transform="matrix(0.05432111111111112,0,0,0.05432111111111112,47.74825666666667,0)" xlink:href="#bp"/><use transform="matrix(0.05432111111111112,0,0,0.05432111111111112,58.612478888888894,0)" xlink:href="#ca"/><use transform="matrix(0.05432111111111112,0,0,0.05432111111111112,69.47670111111111,0)" xlink:href="#bn"/></g><use transform="matrix(0.05432111111111112,0,0,0.05432111111111112,0,0)" xlink:href="#bi" id="ap"/><g id="aq"><use transform="matrix(0.05432111111111112,0,0,0.05432111111111112,0,0)" xlink:href="#bt"/><use transform="matrix(0.05432111111111112,0,0,0.05432111111111112,5.432111111111112,0)" xlink:href="#bl"/><use transform="matrix(0.05432111111111112,0,0,0.05432111111111112,9.723478888888891,0)" xlink:href="#bj"/><use transform="matrix(0.05432111111111112,0,0,0.05432111111111112,14.014846666666672,0)" xlink:href="#bn"/></g><path fill="#fff" d="M212-179c-10-28-35-45-73-45-59 0-87 40-87 99 0 60 29 101 89 101 43 0 62-24 78-52l27 14C228-24 195 4 139 4 59 4 22-46 18-125c-6-104 99-153 187-111 19 9 31 26 39 46" id="cb"/><path fill="#fff" d="M185-189c-5-48-123-54-124 2 14 75 158 14 163 119 3 78-121 87-175 55-17-10-28-26-33-46l33-7c5 56 141 63 141-1 0-78-155-14-162-118-5-82 145-84 179-34 5 7 8 16 11 25" id="cc"/><path fill="#fff" d="M137 0h-34L2-248h35l83 218 83-218h36" id="cd"/><g id="ar"><use transform="matrix(0.05432111111111112,0,0,0.05432111111111112,0,0)" xlink:href="#cb"/><use transform="matrix(0.05432111111111112,0,0,0.05432111111111112,14.06916777777778,0)" xlink:href="#cc"/><use transform="matrix(0.05432111111111112,0,0,0.05432111111111112,27.106234444444446,0)" xlink:href="#cd"/></g><g id="as"><use transform="matrix(0.05432111111111112,0,0,0.05432111111111112,0,0)" xlink:href="#br"/><use transform="matrix(0.05432111111111112,0,0,0.05432111111111112,9.777800000000001,0)" xlink:href="#bx"/><use transform="matrix(0.05432111111111112,0,0,0.05432111111111112,20.642022222222224,0)" xlink:href="#bv"/><use transform="matrix(0.05432111111111112,0,0,0.05432111111111112,31.506244444444448,0)" xlink:href="#bm"/><use transform="matrix(0.05432111111111112,0,0,0.05432111111111112,36.93835555555556,0)" xlink:href="#bn"/><use transform="matrix(0.05432111111111112,0,0,0.05432111111111112,47.802577777777785,0)" xlink:href="#bv"/><use transform="matrix(0.05432111111111112,0,0,0.05432111111111112,58.66680000000001,0)" xlink:href="#bn"/><use transform="matrix(0.05432111111111112,0,0,0.05432111111111112,69.53102222222223,0)" xlink:href="#bv"/><use transform="matrix(0.05432111111111112,0,0,0.05432111111111112,80.39524444444446,0)" xlink:href="#bm"/><use transform="matrix(0.05432111111111112,0,0,0.05432111111111112,85.82735555555557,0)" xlink:href="#bl"/></g><use transform="matrix(0.05432111111111112,0,0,0.05432111111111112,0,0)" xlink:href="#bl" id="at"/><g id="au"><use transform="matrix(0.05432111111111112,0,0,0.05432111111111112,0,0)" xlink:href="#bq"/><use transform="matrix(0.05432111111111112,0,0,0.05432111111111112,6.464212222222223,0)" xlink:href="#bl"/><use transform="matrix(0.05432111111111112,0,0,0.05432111111111112,10.755580000000002,0)" xlink:href="#bk"/><use transform="matrix(0.05432111111111112,0,0,0.05432111111111112,20.53338,0)" xlink:href="#bu"/><use transform="matrix(0.05432111111111112,0,0,0.05432111111111112,31.397602222222226,0)" xlink:href="#bj"/><use transform="matrix(0.05432111111111112,0,0,0.05432111111111112,35.688970000000005,0)" xlink:href="#bm"/><use transform="matrix(0.05432111111111112,0,0,0.05432111111111112,41.12108111111112,0)" xlink:href="#bp"/><use transform="matrix(0.05432111111111112,0,0,0.05432111111111112,51.98530333333334,0)" xlink:href="#bm"/><use transform="matrix(0.05432111111111112,0,0,0.05432111111111112,57.417414444444454,0)" xlink:href="#bl"/></g><g id="av"><use transform="matrix(0.05432111111111112,0,0,0.05432111111111112,0,0)" xlink:href="#br"/><use transform="matrix(0.05432111111111112,0,0,0.05432111111111112,9.777800000000001,0)" xlink:href="#bx"/><use transform="matrix(0.05432111111111112,0,0,0.05432111111111112,20.642022222222224,0)" xlink:href="#bB"/><use transform="matrix(0.05432111111111112,0,0,0.05432111111111112,30.41982222222222,0)" xlink:href="#bn"/><use transform="matrix(0.05432111111111112,0,0,0.05432111111111112,41.28404444444445,0)" xlink:href="#bq"/><use transform="matrix(0.05432111111111112,0,0,0.05432111111111112,47.74825666666667,0)" xlink:href="#bp"/><use transform="matrix(0.05432111111111112,0,0,0.05432111111111112,58.612478888888894,0)" xlink:href="#ca"/><use transform="matrix(0.05432111111111112,0,0,0.05432111111111112,69.47670111111111,0)" xlink:href="#bn"/></g><g id="aw"><use transform="matrix(0.05432111111111112,0,0,0.05432111111111112,0,0)" xlink:href="#bk"/><use transform="matrix(0.05432111111111112,0,0,0.05432111111111112,9.777800000000001,0)" xlink:href="#bx"/><use transform="matrix(0.05432111111111112,0,0,0.05432111111111112,20.642022222222224,0)" xlink:href="#bv"/><use transform="matrix(0.05432111111111112,0,0,0.05432111111111112,31.506244444444448,0)" xlink:href="#bx"/></g><g id="ax"><use transform="matrix(0.05432111111111112,0,0,0.05432111111111112,0,0)" xlink:href="#bk"/><use transform="matrix(0.05432111111111112,0,0,0.05432111111111112,9.777800000000001,0)" xlink:href="#bp"/><use transform="matrix(0.05432111111111112,0,0,0.05432111111111112,20.642022222222224,0)" xlink:href="#bj"/><use transform="matrix(0.05432111111111112,0,0,0.05432111111111112,24.933390000000003,0)" xlink:href="#bB"/><use transform="matrix(0.05432111111111112,0,0,0.05432111111111112,34.71119,0)" xlink:href="#bp"/><use transform="matrix(0.05432111111111112,0,0,0.05432111111111112,45.575412222222226,0)" xlink:href="#bm"/><use transform="matrix(0.05432111111111112,0,0,0.05432111111111112,51.00752333333334,0)" xlink:href="#bl"/></g><g id="ay"><use transform="matrix(0.05432111111111112,0,0,0.05432111111111112,0,0)" xlink:href="#bv"/><use transform="matrix(0.05432111111111112,0,0,0.05432111111111112,10.864222222222224,0)" xlink:href="#bn"/><use transform="matrix(0.05432111111111112,0,0,0.05432111111111112,21.72844444444445,0)" xlink:href="#bj"/></g><path fill="#fff" d="M179-190L93 31C79 59 56 82 12 73V49c39 6 53-20 64-50L1-190h34L92-34l54-156h33" id="ce"/><g id="az"><use transform="matrix(0.05432111111111112,0,0,0.05432111111111112,0,0)" xlink:href="#bq"/><use transform="matrix(0.05432111111111112,0,0,0.05432111111111112,6.464212222222223,0)" xlink:href="#bn"/><use transform="matrix(0.05432111111111112,0,0,0.05432111111111112,17.328434444444447,0)" xlink:href="#bA"/><use transform="matrix(0.05432111111111112,0,0,0.05432111111111112,28.19265666666667,0)" xlink:href="#bx"/><use transform="matrix(0.05432111111111112,0,0,0.05432111111111112,39.056878888888896,0)" xlink:href="#bk"/><use transform="matrix(0.05432111111111112,0,0,0.05432111111111112,48.834678888888895,0)" xlink:href="#bl"/><use transform="matrix(0.05432111111111112,0,0,0.05432111111111112,53.126046666666674,0)" xlink:href="#bm"/><use transform="matrix(0.05432111111111112,0,0,0.05432111111111112,58.55815777777779,0)" xlink:href="#bx"/><use transform="matrix(0.05432111111111112,0,0,0.05432111111111112,69.42238,0)" xlink:href="#bq"/><use transform="matrix(0.05432111111111112,0,0,0.05432111111111112,75.88659222222222,0)" xlink:href="#ce"/></g><g id="aA"><use transform="matrix(0.05432111111111112,0,0,0.05432111111111112,0,0)" xlink:href="#br"/><use transform="matrix(0.05432111111111112,0,0,0.05432111111111112,9.777800000000001,0)" xlink:href="#bx"/><use transform="matrix(0.05432111111111112,0,0,0.05432111111111112,20.642022222222224,0)" xlink:href="#bv"/><use transform="matrix(0.05432111111111112,0,0,0.05432111111111112,31.506244444444448,0)" xlink:href="#bC"/><use transform="matrix(0.05432111111111112,0,0,0.05432111111111112,42.37046666666667,0)" xlink:href="#bl"/><use transform="matrix(0.05432111111111112,0,0,0.05432111111111112,46.66183444444445,0)" xlink:href="#bB"/><use transform="matrix(0.05432111111111112,0,0,0.05432111111111112,56.43963444444445,0)" xlink:href="#bl"/><use transform="matrix(0.05432111111111112,0,0,0.05432111111111112,60.73100222222223,0)" xlink:href="#bk"/><use transform="matrix(0.05432111111111112,0,0,0.05432111111111112,70.50880222222223,0)" xlink:href="#bx"/></g><path fill="#fff" d="M30-248c87 1 191-15 191 75 0 78-77 80-158 76V0H30v-248zm33 125c57 0 124 11 124-50 0-59-68-47-124-48v98" id="cf"/><g id="aB"><use transform="matrix(0.05432111111111112,0,0,0.05432111111111112,0,0)" xlink:href="#cf"/><use transform="matrix(0.05432111111111112,0,0,0.05432111111111112,13.037066666666668,0)" xlink:href="#bp"/><use transform="matrix(0.05432111111111112,0,0,0.05432111111111112,23.901288888888892,0)" xlink:href="#bk"/><use transform="matrix(0.05432111111111112,0,0,0.05432111111111112,33.67908888888889,0)" xlink:href="#bk"/><use transform="matrix(0.05432111111111112,0,0,0.05432111111111112,43.45688888888889,0)" xlink:href="#bx"/></g><g id="aC"><use transform="matrix(0.05432111111111112,0,0,0.05432111111111112,0,0)" xlink:href="#bp"/><use transform="matrix(0.05432111111111112,0,0,0.05432111111111112,10.864222222222224,0)" xlink:href="#bj"/><use transform="matrix(0.05432111111111112,0,0,0.05432111111111112,15.155590000000005,0)" xlink:href="#bj"/><use transform="matrix(0.05432111111111112,0,0,0.05432111111111112,19.446957777777783,0)" xlink:href="#bp"/></g><g id="aD"><use transform="matrix(0.05432111111111112,0,0,0.05432111111111112,0,0)" xlink:href="#bA"/><use transform="matrix(0.05432111111111112,0,0,0.05432111111111112,10.864222222222224,0)" xlink:href="#bq"/><use transform="matrix(0.05432111111111112,0,0,0.05432111111111112,17.328434444444447,0)" xlink:href="#bx"/><use transform="matrix(0.05432111111111112,0,0,0.05432111111111112,28.19265666666667,0)" xlink:href="#bk"/><use transform="matrix(0.05432111111111112,0,0,0.05432111111111112,37.97045666666667,0)" xlink:href="#bk"/><use transform="matrix(0.05432111111111112,0,0,0.05432111111111112,47.74825666666667,0)" xlink:href="#bl"/><use transform="matrix(0.05432111111111112,0,0,0.05432111111111112,52.03962444444445,0)" xlink:href="#bo"/><use transform="matrix(0.05432111111111112,0,0,0.05432111111111112,68.28163666666667,0)" xlink:href="#bp"/></g><g id="aE"><use transform="matrix(0.05432111111111112,0,0,0.05432111111111112,0,0)" xlink:href="#br"/><use transform="matrix(0.05432111111111112,0,0,0.05432111111111112,9.777800000000001,0)" xlink:href="#bj"/><use transform="matrix(0.05432111111111112,0,0,0.05432111111111112,14.06916777777778,0)" xlink:href="#bp"/><use transform="matrix(0.05432111111111112,0,0,0.05432111111111112,24.933390000000003,0)" xlink:href="#bk"/><use transform="matrix(0.05432111111111112,0,0,0.05432111111111112,34.71119,0)" xlink:href="#bk"/><use transform="matrix(0.05432111111111112,0,0,0.05432111111111112,44.48899,0)" xlink:href="#bn"/></g><path fill="#fff" d="M87 75C49 33 22-17 22-94c0-76 28-126 65-167h31c-38 41-64 92-64 168S80 34 118 75H87" id="cg"/><g id="aF"><use transform="matrix(0.05432111111111112,0,0,0.05432111111111112,0,0)" xlink:href="#cg"/><use transform="matrix(0.05432111111111112,0,0,0.05432111111111112,6.464212222222223,0)" xlink:href="#bj"/><use transform="matrix(0.05432111111111112,0,0,0.05432111111111112,10.755580000000002,0)" xlink:href="#bl"/><use transform="matrix(0.05432111111111112,0,0,0.05432111111111112,15.04694777777778,0)" xlink:href="#bB"/><use transform="matrix(0.05432111111111112,0,0,0.05432111111111112,24.82474777777778,0)" xlink:href="#bn"/><use transform="matrix(0.05432111111111112,0,0,0.05432111111111112,35.688970000000005,0)" xlink:href="#bj"/><use transform="matrix(0.05432111111111112,0,0,0.05432111111111112,39.980337777777784,0)" xlink:href="#bj"/><use transform="matrix(0.05432111111111112,0,0,0.05432111111111112,44.27170555555556,0)" xlink:href="#bx"/></g><path fill="#fff" d="M18-150v-26h174v26H18zm0 90v-26h174v26H18" id="ch"/><use transform="matrix(0.05432111111111112,0,0,0.05432111111111112,0,0)" xlink:href="#ch" id="aG"/><path fill="#fff" d="M101-251c68 0 85 55 85 127S166 4 100 4C33 4 14-52 14-124c0-73 17-127 87-127zm-1 229c47 0 54-49 54-102s-4-102-53-102c-51 0-55 48-55 102 0 53 5 102 54 102" id="ci"/><path fill="#fff" d="M33-261c38 41 65 92 65 168S71 34 33 75H2C39 34 66-17 66-93S39-220 2-261h31" id="cj"/><g id="aH"><use transform="matrix(0.05432111111111112,0,0,0.05432111111111112,0,0)" xlink:href="#ci"/><use transform="matrix(0.05432111111111112,0,0,0.05432111111111112,10.864222222222224,0)" xlink:href="#cj"/></g></defs></g></svg>