<svg xmlns="http://www.w3.org/2000/svg" xmlns:xlink="http://www.w3.org/1999/xlink" xmlns:lucid="lucid" width="537" height="849"><g transform="translate(929 722)" lucid:page-tab-id="0_0"><path d="M-662.14-685.93c0 11.04-8.96 20-20 20-11.05 0-20-8.96-20-20 0-11.05 8.95-20 20-20 11.04 0 20 8.95 20 20z" stroke="#666"/><path d="M-682.14-664.93v27.6a.2.2 0 0 1-.2.2.2.2 0 0 0-.2.2v11.7" stroke="#000" fill="none"/><path d="M-682.16-665.43l.52-.02v.53h-1v-.57z" stroke="#000" stroke-width=".05"/><path d="M-682.53-610.45l-4.63-14.27h9.27z" stroke="#000"/><path d="M-795.6-608.83c-15.86 0-28.7 12.84-28.7 28.7v86.08c0 15.85 12.84 28.7 28.7 28.7h226.16c15.85 0 28.7-12.85 28.7-28.7v-86.1c0-15.84-12.85-28.68-28.7-28.68z" stroke="#000" stroke-opacity="0" fill="#6db1ff"/><use xlink:href="#a" transform="matrix(1,0,0,1,-816.3087053625095,-600.8340769606501) translate(7.214526666666643 20.977679999999992)"/><use xlink:href="#b" transform="matrix(1,0,0,1,-816.3087053625095,-600.8340769606501) translate(155.67412333333334 20.977679999999992)"/><use xlink:href="#c" transform="matrix(1,0,0,1,-816.3087053625095,-600.8340769606501) translate(220.69649333333336 20.977679999999992)"/><use xlink:href="#d" transform="matrix(1,0,0,1,-816.3087053625095,-600.8340769606501) translate(29.812108888888872 44.444399999999995)"/><use xlink:href="#e" transform="matrix(1,0,0,1,-816.3087053625095,-600.8340769606501) translate(99.3431311111111 44.444399999999995)"/><use xlink:href="#f" transform="matrix(1,0,0,1,-816.3087053625095,-600.8340769606501) translate(137.3679088888889 44.444399999999995)"/><use xlink:href="#g" transform="matrix(1,0,0,1,-816.3087053625095,-600.8340769606501) translate(189.40753333333333 44.444399999999995)"/><use xlink:href="#h" transform="matrix(1,0,0,1,-816.3087053625095,-600.8340769606501) translate(223.0323011111111 44.444399999999995)"/><use xlink:href="#i" transform="matrix(1,0,0,1,-816.3087053625095,-600.8340769606501) translate(30.491122777777747 67.91112)"/><use xlink:href="#j" transform="matrix(1,0,0,1,-816.3087053625095,-600.8340769606501) translate(143.37039166666665 67.91112)"/><use xlink:href="#k" transform="matrix(1,0,0,1,-816.3087053625095,-600.8340769606501) translate(174.822315 67.91112)"/><use xlink:href="#l" transform="matrix(1,0,0,1,-816.3087053625095,-600.8340769606501) translate(222.35328722222224 67.91112)"/><use xlink:href="#m" transform="matrix(1,0,0,1,-816.3087053625095,-600.8340769606501) translate(1.076241111111102 91.37783999999999)"/><use xlink:href="#n" transform="matrix(1,0,0,1,-816.3087053625095,-600.8340769606501) translate(83.59000888888889 91.37783999999999)"/><use xlink:href="#o" transform="matrix(1,0,0,1,-816.3087053625095,-600.8340769606501) translate(144.37533222222223 91.37783999999999)"/><use xlink:href="#p" transform="matrix(1,0,0,1,-816.3087053625095,-600.8340769606501) translate(175.82725555555558 91.37783999999999)"/><use xlink:href="#q" transform="matrix(1,0,0,1,-816.3087053625095,-600.8340769606501) translate(27.77506722222219 114.84456)"/><path d="M-662.9 90.32c0 11.04-8.97 20-20 20-11.06 0-20-8.96-20-20 0-11.05 8.94-20 20-20 11.03 0 20 8.95 20 20z" stroke="#666" fill="#fff"/><path d="M-670.9 90.32c0 6.63-5.38 12-12 12-6.64 0-12-5.38-12-12 0-6.63 5.36-12 12-12 6.62 0 12 5.37 12 12z" stroke="#666"/><path d="M-683-135.83v26.87a.04.04 0 0 0 .05.04.04.04 0 0 1 .04.04v11" stroke="#000" fill="none"/><path d="M-682.5-135.82h-1v-.5h1z" stroke="#000" stroke-width=".05"/><path d="M-682.9-83.13l-4.65-14.26h9.27z" stroke="#000"/><path d="M-779.85-81.5c-10.72 0-19.4 8.68-19.4 19.4v58.2c0 10.7 8.68 19.4 19.4 19.4h193.88c10.7 0 19.4-8.7 19.4-19.4v-58.2c0-10.72-8.7-19.4-19.4-19.4z" stroke="#000" stroke-opacity="0" fill="#6db1ff"/><use xlink:href="#r" transform="matrix(1,0,0,1,-791.2533990233005,-73.50703827810082) translate(24.981291666666646 18.84448)"/><use xlink:href="#s" transform="matrix(1,0,0,1,-791.2533990233005,-73.50703827810082) translate(35.845513888888874 18.84448)"/><use xlink:href="#t" transform="matrix(1,0,0,1,-791.2533990233005,-73.50703827810082) translate(77.07523722222221 18.84448)"/><use xlink:href="#u" transform="matrix(1,0,0,1,-791.2533990233005,-73.50703827810082) translate(93.37157055555555 18.84448)"/><use xlink:href="#v" transform="matrix(1,0,0,1,-791.2533990233005,-73.50703827810082) translate(113.95927166666667 18.84448)"/><use xlink:href="#w" transform="matrix(1,0,0,1,-791.2533990233005,-73.50703827810082) translate(14.062748333333328 39.76888)"/><use xlink:href="#x" transform="matrix(1,0,0,1,-791.2533990233005,-73.50703827810082) translate(99.83578277777778 39.76888)"/><use xlink:href="#y" transform="matrix(1,0,0,1,-791.2533990233005,-73.50703827810082) translate(147.63836055555555 39.76888)"/><use xlink:href="#z" transform="matrix(1,0,0,1,-791.2533990233005,-73.50703827810082) translate(49.941842222222235 60.69328)"/><use xlink:href="#A" transform="matrix(1,0,0,1,-791.2533990233005,-73.50703827810082) translate(81.39376555555558 60.69328)"/><use xlink:href="#B" transform="matrix(1,0,0,1,-791.2533990233005,-73.50703827810082) translate(67.81348777777778 81.61768000000001)"/><path d="M-778.34-235.06c-10.9 0-19.75 8.84-19.75 19.75v59.22c0 10.9 8.86 19.75 19.76 19.75h190.7c10.9 0 19.74-8.84 19.74-19.75v-59.23c0-10.92-8.85-19.76-19.75-19.76z" stroke="#000" stroke-opacity="0" fill="#6db1ff"/><g><use xlink:href="#C" transform="matrix(1,0,0,1,-790.0856288902014,-227.06108077568365) translate(33.9166666666667 19.2)"/><use xlink:href="#D" transform="matrix(1,0,0,1,-790.0856288902014,-227.06108077568365) translate(90.1388888888889 19.2)"/><use xlink:href="#E" transform="matrix(1,0,0,1,-790.0856288902014,-227.06108077568365) translate(165.58333333333331 19.2)"/><use xlink:href="#F" transform="matrix(1,0,0,1,-790.0856288902014,-227.06108077568365) translate(83.66666666666667 40.599905909304745)"/><use xlink:href="#G" transform="matrix(1,0,0,1,-790.0856288902014,-227.06108077568365) translate(3.861111111111139 61.9998118186095)"/><use xlink:href="#H" transform="matrix(1,0,0,1,-790.0856288902014,-227.06108077568365) translate(29.22222222222224 83.39971772791425)"/><use xlink:href="#I" transform="matrix(1,0,0,1,-790.0856288902014,-227.06108077568365) translate(63.61111111111113 83.39971772791425)"/><use xlink:href="#J" transform="matrix(1,0,0,1,-790.0856288902014,-227.06108077568365) translate(129.16666666666669 83.39971772791425)"/></g><path d="M-688.18-375.33a8 8 0 0 1 11.3 0l8.7 8.7a8 8 0 0 1 0 11.3l-8.7 8.7a8 8 0 0 1-11.3 0l-8.7-8.7a8 8 0 0 1 0-11.3z" stroke="#6db1ff" stroke-width="4" fill="#fff"/><path d="M-682.53-464.86V-396.06" stroke="#000" fill="none"/><path d="M-682.03-465.36v.5h-1v-.5z" stroke="#000" stroke-width=".05"/><path d="M-682.53-381.3l-4.63-14.26h9.27z" stroke="#000"/><path d="M-682.53-341.8v52.9a.23.23 0 0 1-.23.22.23.23 0 0 0-.24.24v37" stroke="#000" fill="none"/><path d="M-682.53-342.3l.5-.03v.55h-1v-.55z" stroke="#000" stroke-width=".05"/><path d="M-683-236.68l-4.63-14.26h9.27z" stroke="#000"/><path d="M-682.46-323.37h185.77v52.68h-185.76z" fill="none"/><g><use xlink:href="#K" transform="matrix(1,0,0,1,-677.4574540333142,-318.3678685466738) translate(0 14.222222222222223)"/><use xlink:href="#L" transform="matrix(1,0,0,1,-677.4574540333142,-318.3678685466738) translate(51.308641975308646 14.222222222222223)"/><use xlink:href="#M" transform="matrix(1,0,0,1,-677.4574540333142,-318.3678685466738) translate(79.90123456790124 14.222222222222223)"/><use xlink:href="#N" transform="matrix(1,0,0,1,-677.4574540333142,-318.3678685466738) translate(0 35.55555555555556)"/><use xlink:href="#O" transform="matrix(1,0,0,1,-677.4574540333142,-318.3678685466738) translate(4.938271604938272 35.55555555555556)"/><use xlink:href="#P" transform="matrix(1,0,0,1,-677.4574540333142,-318.3678685466738) translate(39.50617283950618 35.55555555555556)"/><use xlink:href="#Q" transform="matrix(1,0,0,1,-677.4574540333142,-318.3678685466738) translate(94.76543209876544 35.55555555555556)"/><use xlink:href="#R" transform="matrix(1,0,0,1,-677.4574540333142,-318.3678685466738) translate(147.11111111111114 35.55555555555556)"/></g><path d="M-566.07-33h120.3a12 12 0 0 0 12-12v-304a12 12 0 0 0-12-12h-201.68" stroke="#000" fill="none"/><path d="M-566.06-32.5h-.5v-1h.5z" stroke="#000" stroke-width=".05"/><path d="M-662.22-361l14.27-4.62v9.27z" stroke="#000"/><path d="M-701.72-361h-171.2a12 12 0 0 0-12 12V78.33a12 12 0 0 0 12 12h153.12" stroke="#000" fill="none"/><path d="M-701.22-361l.04.5h-.55v-1h.55z" stroke="#000" stroke-width=".05"/><path d="M-705.03 90.32l-14.27 4.63v-9.27z" stroke="#000"/><path d="M-869.13-432.2h141.27v74.02h-141.27z" fill="none"/><g><use xlink:href="#S" transform="matrix(1,0,0,1,-864.1277979759034,-427.186592353253) translate(0 14.222222222222223)"/><use xlink:href="#T" transform="matrix(1,0,0,1,-864.1277979759034,-427.186592353253) translate(39.50617283950618 14.222222222222223)"/><use xlink:href="#U" transform="matrix(1,0,0,1,-864.1277979759034,-427.186592353253) translate(58.22222222222223 14.222222222222223)"/><use xlink:href="#V" transform="matrix(1,0,0,1,-864.1277979759034,-427.186592353253) translate(0 35.55555555555556)"/><use xlink:href="#W" transform="matrix(1,0,0,1,-864.1277979759034,-427.186592353253) translate(28.592592592592595 35.55555555555556)"/><use xlink:href="#X" transform="matrix(1,0,0,1,-864.1277979759034,-427.186592353253) translate(0 56.88888888888889)"/><use xlink:href="#Y" transform="matrix(1,0,0,1,-864.1277979759034,-427.186592353253) translate(93.7777777777778 56.88888888888889)"/><use xlink:href="#R" transform="matrix(1,0,0,1,-864.1277979759034,-427.186592353253) translate(102.6172839506173 56.88888888888889)"/></g><defs><path fill="#fff" d="M30 0v-248h33v221h125V0H30" id="Z"/><path fill="#fff" d="M58-248c1 32-1 62-14 81H22c9-13 17-27 17-46H23v-35h35" id="aa"/><path fill="#fff" d="M141-36C126-15 110 5 73 4 37 3 15-17 15-53c-1-64 63-63 125-63 3-35-9-54-41-54-24 1-41 7-42 31l-33-3c5-37 33-52 76-52 45 0 72 20 72 64v82c-1 20 7 32 28 27v20c-31 9-61-2-59-35zM48-53c0 20 12 33 32 33 41-3 63-29 60-74-43 2-92-5-92 41" id="ab"/><path fill="#fff" d="M210-169c-67 3-38 105-44 169h-31v-121c0-29-5-50-35-48C34-165 62-65 56 0H25l-1-190h30c1 10-1 24 2 32 10-44 99-50 107 0 11-21 27-35 58-36 85-2 47 119 55 194h-31v-121c0-29-5-49-35-48" id="ac"/><path fill="#fff" d="M24-231v-30h32v30H24zM24 0v-190h32V0H24" id="ad"/><path fill="#fff" d="M117-194c89-4 53 116 60 194h-32v-121c0-31-8-49-39-48C34-167 62-67 57 0H25l-1-190h30c1 10-1 24 2 32 11-22 29-35 61-36" id="ae"/><path fill="#fff" d="M135-143c-3-34-86-38-87 0 15 53 115 12 119 90S17 21 10-45l28-5c4 36 97 45 98 0-10-56-113-15-118-90-4-57 82-63 122-42 12 7 21 19 24 35" id="af"/><path fill="#fff" d="M59-47c-2 24 18 29 38 22v24C64 9 27 4 27-40v-127H5v-23h24l9-43h21v43h35v23H59v120" id="ag"/><path fill="#fff" d="M114-163C36-179 61-72 57 0H25l-1-190h30c1 12-1 29 2 39 6-27 23-49 58-41v29" id="ah"/><path fill="#fff" d="M100-194c62-1 85 37 85 99 1 63-27 99-86 99S16-35 15-95c0-66 28-99 85-99zM99-20c44 1 53-31 53-75 0-43-8-75-51-75s-53 32-53 75 10 74 51 75" id="ai"/><path fill="#fff" d="M100-194c63 0 86 42 84 106H49c0 40 14 67 53 68 26 1 43-12 49-29l28 8c-11 28-37 45-77 45C44 4 14-33 15-96c1-61 26-98 85-98zm52 81c6-60-76-77-97-28-3 7-6 17-6 28h103" id="aj"/><g id="a"><use transform="matrix(0.05432111111111112,0,0,0.05432111111111112,0,0)" xlink:href="#Z"/><use transform="matrix(0.05432111111111112,0,0,0.05432111111111112,9.777800000000003,0)" xlink:href="#aa"/><use transform="matrix(0.05432111111111112,0,0,0.05432111111111112,14.069167777777782,0)" xlink:href="#ab"/><use transform="matrix(0.05432111111111112,0,0,0.05432111111111112,24.933390000000006,0)" xlink:href="#ac"/><use transform="matrix(0.05432111111111112,0,0,0.05432111111111112,41.17540222222223,0)" xlink:href="#ac"/><use transform="matrix(0.05432111111111112,0,0,0.05432111111111112,57.41741444444447,0)" xlink:href="#ad"/><use transform="matrix(0.05432111111111112,0,0,0.05432111111111112,61.70878222222224,0)" xlink:href="#ae"/><use transform="matrix(0.05432111111111112,0,0,0.05432111111111112,72.57300444444446,0)" xlink:href="#ad"/><use transform="matrix(0.05432111111111112,0,0,0.05432111111111112,76.86437222222224,0)" xlink:href="#af"/><use transform="matrix(0.05432111111111112,0,0,0.05432111111111112,86.64217222222224,0)" xlink:href="#ag"/><use transform="matrix(0.05432111111111112,0,0,0.05432111111111112,92.07428333333336,0)" xlink:href="#ah"/><use transform="matrix(0.05432111111111112,0,0,0.05432111111111112,98.53849555555558,0)" xlink:href="#ab"/><use transform="matrix(0.05432111111111112,0,0,0.05432111111111112,109.40271777777781,0)" xlink:href="#ag"/><use transform="matrix(0.05432111111111112,0,0,0.05432111111111112,114.83482888888894,0)" xlink:href="#ai"/><use transform="matrix(0.05432111111111112,0,0,0.05432111111111112,125.69905111111116,0)" xlink:href="#ah"/><use transform="matrix(0.05432111111111112,0,0,0.05432111111111112,132.16326333333336,0)" xlink:href="#aj"/></g><g id="b"><use transform="matrix(0.05432111111111112,0,0,0.05432111111111112,0,0)" xlink:href="#ag"/><use transform="matrix(0.05432111111111112,0,0,0.05432111111111112,5.432111111111112,0)" xlink:href="#ah"/><use transform="matrix(0.05432111111111112,0,0,0.05432111111111112,11.896323333333335,0)" xlink:href="#ab"/><use transform="matrix(0.05432111111111112,0,0,0.05432111111111112,22.76054555555556,0)" xlink:href="#ac"/><use transform="matrix(0.05432111111111112,0,0,0.05432111111111112,39.00255777777778,0)" xlink:href="#ad"/><use transform="matrix(0.05432111111111112,0,0,0.05432111111111112,43.29392555555556,0)" xlink:href="#ag"/><use transform="matrix(0.05432111111111112,0,0,0.05432111111111112,48.72603666666667,0)" xlink:href="#aj"/></g><path fill="#fff" d="M106-169C34-169 62-67 57 0H25v-261h32l-1 103c12-21 28-36 61-36 89 0 53 116 60 194h-32v-121c2-32-8-49-39-48" id="ak"/><path fill="#fff" d="M24 0v-261h32V0H24" id="al"/><g id="c"><use transform="matrix(0.05432111111111112,0,0,0.05432111111111112,0,0)" xlink:href="#af"/><use transform="matrix(0.05432111111111112,0,0,0.05432111111111112,9.777800000000001,0)" xlink:href="#ak"/><use transform="matrix(0.05432111111111112,0,0,0.05432111111111112,20.642022222222224,0)" xlink:href="#aj"/><use transform="matrix(0.05432111111111112,0,0,0.05432111111111112,31.506244444444448,0)" xlink:href="#al"/><use transform="matrix(0.05432111111111112,0,0,0.05432111111111112,35.79761222222223,0)" xlink:href="#al"/></g><path fill="#fff" d="M177-190C167-65 218 103 67 71c-23-6-38-20-44-43l32-5c15 47 100 32 89-28v-30C133-14 115 1 83 1 29 1 15-40 15-95c0-56 16-97 71-98 29-1 48 16 59 35 1-10 0-23 2-32h30zM94-22c36 0 50-32 50-73 0-42-14-75-50-75-39 0-46 34-46 75s6 73 46 73" id="am"/><path fill="#fff" d="M84 4C-5 8 30-112 23-190h32v120c0 31 7 50 39 49 72-2 45-101 50-169h31l1 190h-30c-1-10 1-25-2-33-11 22-28 36-60 37" id="an"/><g id="d"><use transform="matrix(0.05432111111111112,0,0,0.05432111111111112,0,0)" xlink:href="#aj"/><use transform="matrix(0.05432111111111112,0,0,0.05432111111111112,10.864222222222224,0)" xlink:href="#af"/><use transform="matrix(0.05432111111111112,0,0,0.05432111111111112,20.642022222222224,0)" xlink:href="#aj"/><use transform="matrix(0.05432111111111112,0,0,0.05432111111111112,31.506244444444448,0)" xlink:href="#am"/><use transform="matrix(0.05432111111111112,0,0,0.05432111111111112,42.37046666666667,0)" xlink:href="#an"/><use transform="matrix(0.05432111111111112,0,0,0.05432111111111112,53.2346888888889,0)" xlink:href="#aj"/></g><g id="e"><use transform="matrix(0.05432111111111112,0,0,0.05432111111111112,0,0)" xlink:href="#an"/><use transform="matrix(0.05432111111111112,0,0,0.05432111111111112,10.864222222222224,0)" xlink:href="#ae"/><use transform="matrix(0.05432111111111112,0,0,0.05432111111111112,21.72844444444445,0)" xlink:href="#ai"/></g><path fill="#fff" d="M96-169c-40 0-48 33-48 73s9 75 48 75c24 0 41-14 43-38l32 2c-6 37-31 61-74 61-59 0-76-41-82-99-10-93 101-131 147-64 4 7 5 14 7 22l-32 3c-4-21-16-35-41-35" id="ao"/><path fill="#fff" d="M115-194c55 1 70 41 70 98S169 2 115 4C84 4 66-9 55-30l1 105H24l-1-265h31l2 30c10-21 28-34 59-34zm-8 174c40 0 45-34 45-75s-6-73-45-74c-42 0-51 32-51 76 0 43 10 73 51 73" id="ap"/><g id="f"><use transform="matrix(0.05432111111111112,0,0,0.05432111111111112,0,0)" xlink:href="#af"/><use transform="matrix(0.05432111111111112,0,0,0.05432111111111112,9.777800000000001,0)" xlink:href="#ao"/><use transform="matrix(0.05432111111111112,0,0,0.05432111111111112,19.555600000000002,0)" xlink:href="#ah"/><use transform="matrix(0.05432111111111112,0,0,0.05432111111111112,26.019812222222225,0)" xlink:href="#ad"/><use transform="matrix(0.05432111111111112,0,0,0.05432111111111112,30.311180000000004,0)" xlink:href="#ap"/><use transform="matrix(0.05432111111111112,0,0,0.05432111111111112,41.17540222222223,0)" xlink:href="#ag"/></g><g id="g"><use transform="matrix(0.05432111111111112,0,0,0.05432111111111112,0,0)" xlink:href="#ap"/><use transform="matrix(0.05432111111111112,0,0,0.05432111111111112,10.864222222222224,0)" xlink:href="#aj"/><use transform="matrix(0.05432111111111112,0,0,0.05432111111111112,21.72844444444445,0)" xlink:href="#ah"/></g><g id="h"><use transform="matrix(0.05432111111111112,0,0,0.05432111111111112,0,0)" xlink:href="#al"/><use transform="matrix(0.05432111111111112,0,0,0.05432111111111112,4.291367777777778,0)" xlink:href="#ab"/></g><path fill="#fff" d="M9 0v-24l116-142H16v-24h144v24L44-24h123V0H9" id="aq"/><g id="i"><use transform="matrix(0.05432111111111112,0,0,0.05432111111111112,0,0)" xlink:href="#am"/><use transform="matrix(0.05432111111111112,0,0,0.05432111111111112,10.864222222222224,0)" xlink:href="#aj"/><use transform="matrix(0.05432111111111112,0,0,0.05432111111111112,21.72844444444445,0)" xlink:href="#ae"/><use transform="matrix(0.05432111111111112,0,0,0.05432111111111112,32.59266666666667,0)" xlink:href="#aj"/><use transform="matrix(0.05432111111111112,0,0,0.05432111111111112,43.4568888888889,0)" xlink:href="#ah"/><use transform="matrix(0.05432111111111112,0,0,0.05432111111111112,49.92110111111112,0)" xlink:href="#ab"/><use transform="matrix(0.05432111111111112,0,0,0.05432111111111112,60.785323333333345,0)" xlink:href="#aq"/><use transform="matrix(0.05432111111111112,0,0,0.05432111111111112,70.56312333333335,0)" xlink:href="#ad"/><use transform="matrix(0.05432111111111112,0,0,0.05432111111111112,74.85449111111113,0)" xlink:href="#ai"/><use transform="matrix(0.05432111111111112,0,0,0.05432111111111112,85.71871333333335,0)" xlink:href="#ae"/><use transform="matrix(0.05432111111111112,0,0,0.05432111111111112,96.58293555555558,0)" xlink:href="#aj"/></g><path fill="#fff" d="M85-194c31 0 48 13 60 33l-1-100h32l1 261h-30c-2-10 0-23-3-31C134-8 116 4 85 4 32 4 16-35 15-94c0-66 23-100 70-100zm9 24c-40 0-46 34-46 75 0 40 6 74 45 74 42 0 51-32 51-76 0-42-9-74-50-73" id="ar"/><g id="j"><use transform="matrix(0.05432111111111112,0,0,0.05432111111111112,0,0)" xlink:href="#ar"/><use transform="matrix(0.05432111111111112,0,0,0.05432111111111112,10.864222222222224,0)" xlink:href="#aj"/><use transform="matrix(0.05432111111111112,0,0,0.05432111111111112,21.72844444444445,0)" xlink:href="#ad"/></g><path fill="#fff" d="M108 0H70L1-190h34L89-25l56-165h34" id="as"/><g id="k"><use transform="matrix(0.05432111111111112,0,0,0.05432111111111112,0,0)" xlink:href="#al"/><use transform="matrix(0.05432111111111112,0,0,0.05432111111111112,4.291367777777778,0)" xlink:href="#ad"/><use transform="matrix(0.05432111111111112,0,0,0.05432111111111112,8.582735555555557,0)" xlink:href="#as"/><use transform="matrix(0.05432111111111112,0,0,0.05432111111111112,18.360535555555558,0)" xlink:href="#aj"/><use transform="matrix(0.05432111111111112,0,0,0.05432111111111112,29.224757777777782,0)" xlink:href="#al"/><use transform="matrix(0.05432111111111112,0,0,0.05432111111111112,33.51612555555556,0)" xlink:href="#al"/><use transform="matrix(0.05432111111111112,0,0,0.05432111111111112,37.80749333333334,0)" xlink:href="#ad"/></g><g id="l"><use transform="matrix(0.05432111111111112,0,0,0.05432111111111112,0,0)" xlink:href="#ar"/><use transform="matrix(0.05432111111111112,0,0,0.05432111111111112,10.864222222222224,0)" xlink:href="#ad"/></g><g id="m"><use transform="matrix(0.05432111111111112,0,0,0.05432111111111112,0,0)" xlink:href="#ao"/><use transform="matrix(0.05432111111111112,0,0,0.05432111111111112,9.777800000000001,0)" xlink:href="#ad"/><use transform="matrix(0.05432111111111112,0,0,0.05432111111111112,14.06916777777778,0)" xlink:href="#ab"/><use transform="matrix(0.05432111111111112,0,0,0.05432111111111112,24.933390000000003,0)" xlink:href="#af"/><use transform="matrix(0.05432111111111112,0,0,0.05432111111111112,34.71119,0)" xlink:href="#ao"/><use transform="matrix(0.05432111111111112,0,0,0.05432111111111112,44.48899,0)" xlink:href="#an"/><use transform="matrix(0.05432111111111112,0,0,0.05432111111111112,55.353212222222226,0)" xlink:href="#ae"/><use transform="matrix(0.05432111111111112,0,0,0.05432111111111112,66.21743444444445,0)" xlink:href="#ab"/></g><g id="n"><use transform="matrix(0.05432111111111112,0,0,0.05432111111111112,0,0)" xlink:href="#ao"/><use transform="matrix(0.05432111111111112,0,0,0.05432111111111112,9.777800000000001,0)" xlink:href="#al"/><use transform="matrix(0.05432111111111112,0,0,0.05432111111111112,14.06916777777778,0)" xlink:href="#ab"/><use transform="matrix(0.05432111111111112,0,0,0.05432111111111112,24.933390000000003,0)" xlink:href="#af"/><use transform="matrix(0.05432111111111112,0,0,0.05432111111111112,34.71119,0)" xlink:href="#af"/><use transform="matrix(0.05432111111111112,0,0,0.05432111111111112,44.48899,0)" xlink:href="#aj"/></g><g id="o"><use transform="matrix(0.05432111111111112,0,0,0.05432111111111112,0,0)" xlink:href="#ar"/><use transform="matrix(0.05432111111111112,0,0,0.05432111111111112,10.864222222222224,0)" xlink:href="#aj"/><use transform="matrix(0.05432111111111112,0,0,0.05432111111111112,21.72844444444445,0)" xlink:href="#al"/></g><path fill="#fff" d="M179-190L93 31C79 59 56 82 12 73V49c39 6 53-20 64-50L1-190h34L92-34l54-156h33" id="at"/><path fill="#fff" d="M33-154v-36h34v36H33zM33 0v-36h34V0H33" id="au"/><g id="p"><use transform="matrix(0.05432111111111112,0,0,0.05432111111111112,0,0)" xlink:href="#ah"/><use transform="matrix(0.05432111111111112,0,0,0.05432111111111112,6.464212222222223,0)" xlink:href="#aj"/><use transform="matrix(0.05432111111111112,0,0,0.05432111111111112,17.328434444444447,0)" xlink:href="#ap"/><use transform="matrix(0.05432111111111112,0,0,0.05432111111111112,28.19265666666667,0)" xlink:href="#ai"/><use transform="matrix(0.05432111111111112,0,0,0.05432111111111112,39.056878888888896,0)" xlink:href="#af"/><use transform="matrix(0.05432111111111112,0,0,0.05432111111111112,48.834678888888895,0)" xlink:href="#ad"/><use transform="matrix(0.05432111111111112,0,0,0.05432111111111112,53.126046666666674,0)" xlink:href="#ag"/><use transform="matrix(0.05432111111111112,0,0,0.05432111111111112,58.55815777777779,0)" xlink:href="#ai"/><use transform="matrix(0.05432111111111112,0,0,0.05432111111111112,69.42238,0)" xlink:href="#ah"/><use transform="matrix(0.05432111111111112,0,0,0.05432111111111112,75.88659222222222,0)" xlink:href="#at"/><use transform="matrix(0.05432111111111112,0,0,0.05432111111111112,85.66439222222222,0)" xlink:href="#au"/></g><path fill="#fff" d="M109-170H84l-4-78h32zm-65 0H19l-4-78h33" id="av"/><path fill="#fff" d="M-5 72V49h209v23H-5" id="aw"/><path fill="#fff" d="M33 0v-38h34V0H33" id="ax"/><g id="q"><use transform="matrix(0.05432111111111112,0,0,0.05432111111111112,0,0)" xlink:href="#av"/><use transform="matrix(0.05432111111111112,0,0,0.05432111111111112,6.898781111111112,0)" xlink:href="#aj"/><use transform="matrix(0.05432111111111112,0,0,0.05432111111111112,17.763003333333337,0)" xlink:href="#as"/><use transform="matrix(0.05432111111111112,0,0,0.05432111111111112,27.540803333333336,0)" xlink:href="#ai"/><use transform="matrix(0.05432111111111112,0,0,0.05432111111111112,38.40502555555556,0)" xlink:href="#af"/><use transform="matrix(0.05432111111111112,0,0,0.05432111111111112,48.18282555555556,0)" xlink:href="#an"/><use transform="matrix(0.05432111111111112,0,0,0.05432111111111112,59.047047777777784,0)" xlink:href="#ad"/><use transform="matrix(0.05432111111111112,0,0,0.05432111111111112,63.338415555555564,0)" xlink:href="#ag"/><use transform="matrix(0.05432111111111112,0,0,0.05432111111111112,68.77052666666668,0)" xlink:href="#aj"/><use transform="matrix(0.05432111111111112,0,0,0.05432111111111112,79.63474888888891,0)" xlink:href="#aw"/><use transform="matrix(0.05432111111111112,0,0,0.05432111111111112,90.49897111111113,0)" xlink:href="#ag"/><use transform="matrix(0.05432111111111112,0,0,0.05432111111111112,95.93108222222224,0)" xlink:href="#aj"/><use transform="matrix(0.05432111111111112,0,0,0.05432111111111112,106.79530444444447,0)" xlink:href="#af"/><use transform="matrix(0.05432111111111112,0,0,0.05432111111111112,116.57310444444445,0)" xlink:href="#ag"/><use transform="matrix(0.05432111111111112,0,0,0.05432111111111112,122.00521555555557,0)" xlink:href="#aw"/><use transform="matrix(0.05432111111111112,0,0,0.05432111111111112,132.86943777777782,0)" xlink:href="#af"/><use transform="matrix(0.05432111111111112,0,0,0.05432111111111112,142.64723777777783,0)" xlink:href="#ao"/><use transform="matrix(0.05432111111111112,0,0,0.05432111111111112,152.42503777777785,0)" xlink:href="#ah"/><use transform="matrix(0.05432111111111112,0,0,0.05432111111111112,158.88925000000006,0)" xlink:href="#ad"/><use transform="matrix(0.05432111111111112,0,0,0.05432111111111112,163.18061777777783,0)" xlink:href="#ap"/><use transform="matrix(0.05432111111111112,0,0,0.05432111111111112,174.04484000000005,0)" xlink:href="#ag"/><use transform="matrix(0.05432111111111112,0,0,0.05432111111111112,179.47695111111116,0)" xlink:href="#ax"/><use transform="matrix(0.05432111111111112,0,0,0.05432111111111112,184.90906222222227,0)" xlink:href="#af"/><use transform="matrix(0.05432111111111112,0,0,0.05432111111111112,194.6868622222223,0)" xlink:href="#ak"/><use transform="matrix(0.05432111111111112,0,0,0.05432111111111112,205.5510844444445,0)" xlink:href="#av"/></g><path fill="#f2f3f5" d="M33 0v-248h34V0H33" id="ay"/><use transform="matrix(0.05432111111111112,0,0,0.05432111111111112,0,0)" xlink:href="#ay" id="r"/><path fill="#f2f3f5" d="M127-220V0H93v-220H8v-28h204v28h-85" id="az"/><path fill="#f2f3f5" d="M100-194c63 0 86 42 84 106H49c0 40 14 67 53 68 26 1 43-12 49-29l28 8c-11 28-37 45-77 45C44 4 14-33 15-96c1-61 26-98 85-98zm52 81c6-60-76-77-97-28-3 7-6 17-6 28h103" id="aA"/><path fill="#f2f3f5" d="M135-143c-3-34-86-38-87 0 15 53 115 12 119 90S17 21 10-45l28-5c4 36 97 45 98 0-10-56-113-15-118-90-4-57 82-63 122-42 12 7 21 19 24 35" id="aB"/><path fill="#f2f3f5" d="M59-47c-2 24 18 29 38 22v24C64 9 27 4 27-40v-127H5v-23h24l9-43h21v43h35v23H59v120" id="aC"/><g id="s"><use transform="matrix(0.05432111111111112,0,0,0.05432111111111112,0,0)" xlink:href="#az"/><use transform="matrix(0.05432111111111112,0,0,0.05432111111111112,9.72347888888889,0)" xlink:href="#aA"/><use transform="matrix(0.05432111111111112,0,0,0.05432111111111112,20.587701111111116,0)" xlink:href="#aB"/><use transform="matrix(0.05432111111111112,0,0,0.05432111111111112,30.365501111111115,0)" xlink:href="#aC"/></g><use transform="matrix(0.05432111111111112,0,0,0.05432111111111112,0,0)" xlink:href="#aA" id="t"/><path fill="#f2f3f5" d="M24 0v-261h32V0H24" id="aD"/><g id="u"><use transform="matrix(0.05432111111111112,0,0,0.05432111111111112,0,0)" xlink:href="#aD"/><use transform="matrix(0.05432111111111112,0,0,0.05432111111111112,4.291367777777778,0)" xlink:href="#aA"/></g><path fill="#f2f3f5" d="M114-163C36-179 61-72 57 0H25l-1-190h30c1 12-1 29 2 39 6-27 23-49 58-41v29" id="aE"/><path fill="#f2f3f5" d="M24-231v-30h32v30H24zM24 0v-190h32V0H24" id="aF"/><path fill="#f2f3f5" d="M115-194c55 1 70 41 70 98S169 2 115 4C84 4 66-9 55-30l1 105H24l-1-265h31l2 30c10-21 28-34 59-34zm-8 174c40 0 45-34 45-75s-6-73-45-74c-42 0-51 32-51 76 0 43 10 73 51 73" id="aG"/><path fill="#f2f3f5" d="M108 0H70L1-190h34L89-25l56-165h34" id="aH"/><g id="v"><use transform="matrix(0.05432111111111112,0,0,0.05432111111111112,0,0)" xlink:href="#aE"/><use transform="matrix(0.05432111111111112,0,0,0.05432111111111112,6.464212222222223,0)" xlink:href="#aF"/><use transform="matrix(0.05432111111111112,0,0,0.05432111111111112,10.755580000000002,0)" xlink:href="#aB"/><use transform="matrix(0.05432111111111112,0,0,0.05432111111111112,20.53338,0)" xlink:href="#aG"/><use transform="matrix(0.05432111111111112,0,0,0.05432111111111112,31.397602222222226,0)" xlink:href="#aA"/><use transform="matrix(0.05432111111111112,0,0,0.05432111111111112,42.26182444444445,0)" xlink:href="#aC"/><use transform="matrix(0.05432111111111112,0,0,0.05432111111111112,47.69393555555556,0)" xlink:href="#aC"/><use transform="matrix(0.05432111111111112,0,0,0.05432111111111112,53.126046666666674,0)" xlink:href="#aF"/><use transform="matrix(0.05432111111111112,0,0,0.05432111111111112,57.417414444444454,0)" xlink:href="#aH"/><use transform="matrix(0.05432111111111112,0,0,0.05432111111111112,67.19521444444446,0)" xlink:href="#aA"/></g><path fill="#f2f3f5" d="M96-169c-40 0-48 33-48 73s9 75 48 75c24 0 41-14 43-38l32 2c-6 37-31 61-74 61-59 0-76-41-82-99-10-93 101-131 147-64 4 7 5 14 7 22l-32 3c-4-21-16-35-41-35" id="aI"/><path fill="#f2f3f5" d="M100-194c62-1 85 37 85 99 1 63-27 99-86 99S16-35 15-95c0-66 28-99 85-99zM99-20c44 1 53-31 53-75 0-43-8-75-51-75s-53 32-53 75 10 74 51 75" id="aJ"/><path fill="#f2f3f5" d="M141-36C126-15 110 5 73 4 37 3 15-17 15-53c-1-64 63-63 125-63 3-35-9-54-41-54-24 1-41 7-42 31l-33-3c5-37 33-52 76-52 45 0 72 20 72 64v82c-1 20 7 32 28 27v20c-31 9-61-2-59-35zM48-53c0 20 12 33 32 33 41-3 63-29 60-74-43 2-92-5-92 41" id="aK"/><path fill="#f2f3f5" d="M177-190C167-65 218 103 67 71c-23-6-38-20-44-43l32-5c15 47 100 32 89-28v-30C133-14 115 1 83 1 29 1 15-40 15-95c0-56 16-97 71-98 29-1 48 16 59 35 1-10 0-23 2-32h30zM94-22c36 0 50-32 50-73 0-42-14-75-50-75-39 0-46 34-46 75s6 73 46 73" id="aL"/><g id="w"><use transform="matrix(0.05432111111111112,0,0,0.05432111111111112,0,0)" xlink:href="#aI"/><use transform="matrix(0.05432111111111112,0,0,0.05432111111111112,9.777800000000001,0)" xlink:href="#aJ"/><use transform="matrix(0.05432111111111112,0,0,0.05432111111111112,20.642022222222224,0)" xlink:href="#aH"/><use transform="matrix(0.05432111111111112,0,0,0.05432111111111112,30.41982222222222,0)" xlink:href="#aA"/><use transform="matrix(0.05432111111111112,0,0,0.05432111111111112,41.28404444444445,0)" xlink:href="#aE"/><use transform="matrix(0.05432111111111112,0,0,0.05432111111111112,47.74825666666667,0)" xlink:href="#aK"/><use transform="matrix(0.05432111111111112,0,0,0.05432111111111112,58.612478888888894,0)" xlink:href="#aL"/><use transform="matrix(0.05432111111111112,0,0,0.05432111111111112,69.47670111111111,0)" xlink:href="#aA"/></g><path fill="#f2f3f5" d="M117-194c89-4 53 116 60 194h-32v-121c0-31-8-49-39-48C34-167 62-67 57 0H25l-1-190h30c1 10-1 24 2 32 11-22 29-35 61-36" id="aM"/><g id="x"><use transform="matrix(0.05432111111111112,0,0,0.05432111111111112,0,0)" xlink:href="#aB"/><use transform="matrix(0.05432111111111112,0,0,0.05432111111111112,9.777800000000001,0)" xlink:href="#aJ"/><use transform="matrix(0.05432111111111112,0,0,0.05432111111111112,20.642022222222224,0)" xlink:href="#aM"/><use transform="matrix(0.05432111111111112,0,0,0.05432111111111112,31.506244444444448,0)" xlink:href="#aJ"/></g><g id="y"><use transform="matrix(0.05432111111111112,0,0,0.05432111111111112,0,0)" xlink:href="#aB"/><use transform="matrix(0.05432111111111112,0,0,0.05432111111111112,9.777800000000001,0)" xlink:href="#aK"/><use transform="matrix(0.05432111111111112,0,0,0.05432111111111112,20.642022222222224,0)" xlink:href="#aD"/><use transform="matrix(0.05432111111111112,0,0,0.05432111111111112,24.933390000000003,0)" xlink:href="#aH"/><use transform="matrix(0.05432111111111112,0,0,0.05432111111111112,34.71119,0)" xlink:href="#aK"/><use transform="matrix(0.05432111111111112,0,0,0.05432111111111112,45.575412222222226,0)" xlink:href="#aC"/><use transform="matrix(0.05432111111111112,0,0,0.05432111111111112,51.00752333333334,0)" xlink:href="#aF"/></g><g id="z"><use transform="matrix(0.05432111111111112,0,0,0.05432111111111112,0,0)" xlink:href="#aM"/><use transform="matrix(0.05432111111111112,0,0,0.05432111111111112,10.864222222222224,0)" xlink:href="#aA"/><use transform="matrix(0.05432111111111112,0,0,0.05432111111111112,21.72844444444445,0)" xlink:href="#aD"/></g><path fill="#f2f3f5" d="M179-190L93 31C79 59 56 82 12 73V49c39 6 53-20 64-50L1-190h34L92-34l54-156h33" id="aN"/><g id="A"><use transform="matrix(0.05432111111111112,0,0,0.05432111111111112,0,0)" xlink:href="#aE"/><use transform="matrix(0.05432111111111112,0,0,0.05432111111111112,6.464212222222223,0)" xlink:href="#aA"/><use transform="matrix(0.05432111111111112,0,0,0.05432111111111112,17.328434444444447,0)" xlink:href="#aG"/><use transform="matrix(0.05432111111111112,0,0,0.05432111111111112,28.19265666666667,0)" xlink:href="#aJ"/><use transform="matrix(0.05432111111111112,0,0,0.05432111111111112,39.056878888888896,0)" xlink:href="#aB"/><use transform="matrix(0.05432111111111112,0,0,0.05432111111111112,48.834678888888895,0)" xlink:href="#aF"/><use transform="matrix(0.05432111111111112,0,0,0.05432111111111112,53.126046666666674,0)" xlink:href="#aC"/><use transform="matrix(0.05432111111111112,0,0,0.05432111111111112,58.55815777777779,0)" xlink:href="#aJ"/><use transform="matrix(0.05432111111111112,0,0,0.05432111111111112,69.42238,0)" xlink:href="#aE"/><use transform="matrix(0.05432111111111112,0,0,0.05432111111111112,75.88659222222222,0)" xlink:href="#aN"/></g><path fill="#f2f3f5" d="M85-194c31 0 48 13 60 33l-1-100h32l1 261h-30c-2-10 0-23-3-31C134-8 116 4 85 4 32 4 16-35 15-94c0-66 23-100 70-100zm9 24c-40 0-46 34-46 75 0 40 6 74 45 74 42 0 51-32 51-76 0-42-9-74-50-73" id="aO"/><g id="B"><use transform="matrix(0.05432111111111112,0,0,0.05432111111111112,0,0)" xlink:href="#aI"/><use transform="matrix(0.05432111111111112,0,0,0.05432111111111112,9.777800000000001,0)" xlink:href="#aJ"/><use transform="matrix(0.05432111111111112,0,0,0.05432111111111112,20.642022222222224,0)" xlink:href="#aM"/><use transform="matrix(0.05432111111111112,0,0,0.05432111111111112,31.506244444444448,0)" xlink:href="#aO"/><use transform="matrix(0.05432111111111112,0,0,0.05432111111111112,42.37046666666667,0)" xlink:href="#aF"/><use transform="matrix(0.05432111111111112,0,0,0.05432111111111112,46.66183444444445,0)" xlink:href="#aH"/><use transform="matrix(0.05432111111111112,0,0,0.05432111111111112,56.43963444444445,0)" xlink:href="#aF"/><use transform="matrix(0.05432111111111112,0,0,0.05432111111111112,60.73100222222223,0)" xlink:href="#aB"/><use transform="matrix(0.05432111111111112,0,0,0.05432111111111112,70.50880222222223,0)" xlink:href="#aJ"/></g><path fill="#fff" d="M119 0H84L31-248h34l41 218 126-218h36" id="aP"/><path fill="#fff" d="M50-231l6-30h32l-6 30H50zM6 0l37-190h31L37 0H6" id="aQ"/><path fill="#fff" d="M111-194c62-3 86 47 72 106H45c-7 38 6 69 45 68 27-1 43-14 53-32l24 11C152-15 129 4 87 4 38 3 12-23 12-71c0-70 32-119 99-123zm44 81c14-66-71-72-95-28-4 8-8 17-11 28h106" id="aR"/><path fill="#fff" d="M67-158c22-48 132-52 116 29L158 0h-32l25-140c3-38-53-32-70-12C52-117 51-52 38 0H6l36-190h30" id="aS"/><g id="C"><use transform="matrix(0.055555555555555546,0,0,0.055555555555555546,0,0)" xlink:href="#aP"/><use transform="matrix(0.055555555555555546,0,0,0.055555555555555546,12.944444444444441,0)" xlink:href="#aQ"/><use transform="matrix(0.055555555555555546,0,0,0.055555555555555546,17.33333333333333,0)" xlink:href="#aR"/><use transform="matrix(0.055555555555555546,0,0,0.055555555555555546,28.444444444444436,0)" xlink:href="#aS"/><use transform="matrix(0.055555555555555546,0,0,0.055555555555555546,39.55555555555554,0)" xlink:href="#aR"/></g><path fill="#fff" d="M44-68c0 29 11 47 38 47 30 0 42-19 51-41l28 9C148-21 126 4 82 4 31 4 10-29 12-85c3-77 74-140 146-93 12 8 15 23 18 40l-31 5c-1-22-13-36-36-36-52 0-65 49-65 101" id="aT"/><path fill="#fff" d="M67-158c15-20 31-36 64-36 94 0 33 127 27 194h-32l25-140c3-38-53-32-70-12C52-117 51-51 37 0H6l51-261h31" id="aU"/><path fill="#fff" d="M248-111c6-24 9-61-24-58-72 9-57 108-77 169h-31l26-142c3-37-50-30-64-10C52-115 50-51 37 0H6l36-190h30c-1 10-6 24-4 32 13-43 101-52 105 5 13-22 29-41 61-41 90 0 28 129 23 194h-31" id="aV"/><path fill="#fff" d="M165-48c-4 18 1 34 23 27l-3 20c-29 8-62 0-52-35h-2C116-14 99 4 63 4 30 4 8-16 8-49c0-68 71-67 138-67 10-26 0-56-31-54-26 1-42 9-47 31l-32-5c8-67 160-71 144 15-5 28-9 54-15 81zM42-50c3 52 80 24 89-6 7-12 7-24 11-38-47 1-103-4-100 44" id="aW"/><path fill="#fff" d="M51-54c-9 22 5 41 31 30L79-1C43 14 10-4 19-52l22-115H19l5-23h22l19-43h21l-9 43h35l-4 23H73" id="aX"/><path fill="#fff" d="M30-147c31-64 166-65 159 27C183-49 158 1 86 4 9 8 1-88 30-147zM88-20c53 0 68-48 68-100 0-31-11-51-44-50-52 1-68 46-68 97 0 32 13 53 44 53" id="aY"/><g id="D"><use transform="matrix(0.055555555555555546,0,0,0.055555555555555546,0,0)" xlink:href="#aT"/><use transform="matrix(0.055555555555555546,0,0,0.055555555555555546,9.999999999999998,0)" xlink:href="#aU"/><use transform="matrix(0.055555555555555546,0,0,0.055555555555555546,21.111111111111107,0)" xlink:href="#aQ"/><use transform="matrix(0.055555555555555546,0,0,0.055555555555555546,25.499999999999996,0)" xlink:href="#aV"/><use transform="matrix(0.055555555555555546,0,0,0.055555555555555546,42.1111111111111,0)" xlink:href="#aW"/><use transform="matrix(0.055555555555555546,0,0,0.055555555555555546,53.22222222222221,0)" xlink:href="#aX"/><use transform="matrix(0.055555555555555546,0,0,0.055555555555555546,58.777777777777764,0)" xlink:href="#aY"/></g><path fill="#fff" d="M6 0l50-261h32L37 0H6" id="aZ"/><g id="E"><use transform="matrix(0.055555555555555546,0,0,0.055555555555555546,0,0)" xlink:href="#aZ"/><use transform="matrix(0.055555555555555546,0,0,0.055555555555555546,4.388888888888888,0)" xlink:href="#aY"/></g><path fill="#fff" d="M55-144c13 50 104 24 104 88C159 21 15 23 1-39l26-10c6 40 102 42 102-4-13-50-104-23-104-87 0-71 143-71 148-8l-29 4c-5-35-85-37-89 0" id="ba"/><path fill="#fff" d="M66-151c12-25 30-51 66-40l-6 26C45-176 58-65 38 0H6l36-190h30" id="bb"/><path fill="#fff" d="M67-162c32-53 139-36 121 50C175-51 163 2 97 4 68 4 52-11 42-31 38 6 28 39 22 75H-9l50-265h29c-1 10 0 20-3 28zm89 36c0-26-10-43-35-43-54 0-67 50-69 103-1 29 14 45 42 46 53 0 62-58 62-106" id="bc"/><g id="F"><use transform="matrix(0.055555555555555546,0,0,0.055555555555555546,0,0)" xlink:href="#ba"/><use transform="matrix(0.055555555555555546,0,0,0.055555555555555546,9.999999999999998,0)" xlink:href="#aT"/><use transform="matrix(0.055555555555555546,0,0,0.055555555555555546,19.999999999999996,0)" xlink:href="#bb"/><use transform="matrix(0.055555555555555546,0,0,0.055555555555555546,26.611111111111107,0)" xlink:href="#aQ"/><use transform="matrix(0.055555555555555546,0,0,0.055555555555555546,30.999999999999993,0)" xlink:href="#bc"/><use transform="matrix(0.055555555555555546,0,0,0.055555555555555546,42.11111111111111,0)" xlink:href="#aX"/></g><path fill="#fff" d="M123-170H98l11-78h32zm-65 0H33l11-78h32" id="bd"/><path fill="#fff" d="M68-162c25-46 127-43 121 31C183-60 169 1 98 4 69 5 53-11 43-31L36 0H5l52-261h31zm88 36c2-27-9-43-34-43-55 0-70 51-70 103 0 29 15 45 43 46 52 0 58-58 61-106" id="be"/><path fill="#fff" d="M-28 44V31h207v13H-28" id="bf"/><path fill="#fff" d="M103-194c29 0 47 14 56 36 2-11 5-23 8-32h30L160-5C157 61 82 97 21 62 9 55 4 45 1 30l28-7c7 42 83 31 92-3 4-16 9-38 13-55-13 20-29 36-62 36-40 0-60-25-60-64 0-71 23-131 91-131zm4 24c-53 0-58 54-61 104-2 27 10 44 36 44 49 0 65-50 67-102 1-29-15-46-42-46" id="bg"/><path fill="#fff" d="M-8 0l5-24 140-142H31l5-24h145l-5 24L36-24h119l-5 24H-8" id="bh"/><path fill="#fff" d="M14 0l8-38h34L48 0H14" id="bi"/><g id="G"><use transform="matrix(0.055555555555555546,0,0,0.055555555555555546,0,0)" xlink:href="#bd"/><use transform="matrix(0.055555555555555546,0,0,0.055555555555555546,7.0555555555555545,0)" xlink:href="#bb"/><use transform="matrix(0.055555555555555546,0,0,0.055555555555555546,13.666666666666664,0)" xlink:href="#aY"/><use transform="matrix(0.055555555555555546,0,0,0.055555555555555546,24.77777777777777,0)" xlink:href="#be"/><use transform="matrix(0.055555555555555546,0,0,0.055555555555555546,35.88888888888888,0)" xlink:href="#aY"/><use transform="matrix(0.055555555555555546,0,0,0.055555555555555546,46.999999999999986,0)" xlink:href="#aX"/><use transform="matrix(0.055555555555555546,0,0,0.055555555555555546,52.55555555555554,0)" xlink:href="#bf"/><use transform="matrix(0.055555555555555546,0,0,0.055555555555555546,63.66666666666666,0)" xlink:href="#bg"/><use transform="matrix(0.055555555555555546,0,0,0.055555555555555546,74.77777777777776,0)" xlink:href="#aR"/><use transform="matrix(0.055555555555555546,0,0,0.055555555555555546,85.88888888888887,0)" xlink:href="#aS"/><use transform="matrix(0.055555555555555546,0,0,0.055555555555555546,96.99999999999999,0)" xlink:href="#aR"/><use transform="matrix(0.055555555555555546,0,0,0.055555555555555546,108.1111111111111,0)" xlink:href="#bb"/><use transform="matrix(0.055555555555555546,0,0,0.055555555555555546,114.72222222222223,0)" xlink:href="#aW"/><use transform="matrix(0.055555555555555546,0,0,0.055555555555555546,125.83333333333334,0)" xlink:href="#bh"/><use transform="matrix(0.055555555555555546,0,0,0.055555555555555546,135.83333333333331,0)" xlink:href="#aQ"/><use transform="matrix(0.055555555555555546,0,0,0.055555555555555546,140.2222222222222,0)" xlink:href="#aY"/><use transform="matrix(0.055555555555555546,0,0,0.055555555555555546,151.33333333333331,0)" xlink:href="#aS"/><use transform="matrix(0.055555555555555546,0,0,0.055555555555555546,162.44444444444443,0)" xlink:href="#aR"/><use transform="matrix(0.055555555555555546,0,0,0.055555555555555546,173.55555555555554,0)" xlink:href="#bi"/><use transform="matrix(0.055555555555555546,0,0,0.055555555555555546,179.1111111111111,0)" xlink:href="#ba"/><use transform="matrix(0.055555555555555546,0,0,0.055555555555555546,189.1111111111111,0)" xlink:href="#aU"/><use transform="matrix(0.055555555555555546,0,0,0.055555555555555546,200.2222222222222,0)" xlink:href="#bd"/></g><g id="H"><use transform="matrix(0.055555555555555546,0,0,0.055555555555555546,0,0)" xlink:href="#bc"/><use transform="matrix(0.055555555555555546,0,0,0.055555555555555546,11.111111111111109,0)" xlink:href="#aR"/><use transform="matrix(0.055555555555555546,0,0,0.055555555555555546,22.222222222222218,0)" xlink:href="#bb"/></g><path fill="#fff" d="M133-28C103 26-5 8 13-77c13-62 24-115 90-117 29-1 46 15 56 35 2-12 6-24 8-34h31L144 75h-31zM45-64c-2 27 10 43 35 43 54-1 69-50 69-103 0-29-15-46-42-46-53-1-58 58-62 106" id="bj"/><path fill="#fff" d="M67 3c-93-2-31-127-26-193h32L48-50c-3 39 53 32 70 12 30-34 30-101 43-152h32L157 0h-30c1-10 6-24 4-33-14 20-29 37-64 36" id="bk"/><g id="I"><use transform="matrix(0.055555555555555546,0,0,0.055555555555555546,0,0)" xlink:href="#bj"/><use transform="matrix(0.055555555555555546,0,0,0.055555555555555546,11.111111111111109,0)" xlink:href="#bk"/><use transform="matrix(0.055555555555555546,0,0,0.055555555555555546,22.222222222222218,0)" xlink:href="#aR"/><use transform="matrix(0.055555555555555546,0,0,0.055555555555555546,33.33333333333333,0)" xlink:href="#ba"/><use transform="matrix(0.055555555555555546,0,0,0.055555555555555546,43.33333333333333,0)" xlink:href="#aX"/><use transform="matrix(0.055555555555555546,0,0,0.055555555555555546,48.888888888888886,0)" xlink:href="#aW"/></g><g id="J"><use transform="matrix(0.055555555555555546,0,0,0.055555555555555546,0,0)" xlink:href="#aT"/><use transform="matrix(0.055555555555555546,0,0,0.055555555555555546,9.999999999999998,0)" xlink:href="#aZ"/><use transform="matrix(0.055555555555555546,0,0,0.055555555555555546,14.388888888888886,0)" xlink:href="#aW"/><use transform="matrix(0.055555555555555546,0,0,0.055555555555555546,25.499999999999993,0)" xlink:href="#ba"/><use transform="matrix(0.055555555555555546,0,0,0.055555555555555546,35.49999999999999,0)" xlink:href="#ba"/><use transform="matrix(0.055555555555555546,0,0,0.055555555555555546,45.49999999999999,0)" xlink:href="#aR"/></g><path fill="#333" d="M100-194c63 0 86 42 84 106H49c0 40 14 67 53 68 26 1 43-12 49-29l28 8c-11 28-37 45-77 45C44 4 14-33 15-96c1-61 26-98 85-98zm52 81c6-60-76-77-97-28-3 7-6 17-6 28h103" id="bl"/><path fill="#333" d="M135-143c-3-34-86-38-87 0 15 53 115 12 119 90S17 21 10-45l28-5c4 36 97 45 98 0-10-56-113-15-118-90-4-57 82-63 122-42 12 7 21 19 24 35" id="bm"/><path fill="#333" d="M24-231v-30h32v30H24zM24 0v-190h32V0H24" id="bn"/><path fill="#333" d="M59-47c-2 24 18 29 38 22v24C64 9 27 4 27-40v-127H5v-23h24l9-43h21v43h35v23H59v120" id="bo"/><g id="K"><use transform="matrix(0.04938271604938272,0,0,0.04938271604938272,0,0)" xlink:href="#bl"/><use transform="matrix(0.04938271604938272,0,0,0.04938271604938272,9.876543209876544,0)" xlink:href="#bm"/><use transform="matrix(0.04938271604938272,0,0,0.04938271604938272,18.765432098765434,0)" xlink:href="#bn"/><use transform="matrix(0.04938271604938272,0,0,0.04938271604938272,22.666666666666668,0)" xlink:href="#bm"/><use transform="matrix(0.04938271604938272,0,0,0.04938271604938272,31.555555555555557,0)" xlink:href="#bo"/><use transform="matrix(0.04938271604938272,0,0,0.04938271604938272,36.49382716049383,0)" xlink:href="#bl"/></g><path fill="#333" d="M117-194c89-4 53 116 60 194h-32v-121c0-31-8-49-39-48C34-167 62-67 57 0H25l-1-190h30c1 10-1 24 2 32 11-22 29-35 61-36" id="bp"/><path fill="#333" d="M24 0v-261h32V0H24" id="bq"/><g id="L"><use transform="matrix(0.04938271604938272,0,0,0.04938271604938272,0,0)" xlink:href="#bp"/><use transform="matrix(0.04938271604938272,0,0,0.04938271604938272,9.876543209876544,0)" xlink:href="#bl"/><use transform="matrix(0.04938271604938272,0,0,0.04938271604938272,19.75308641975309,0)" xlink:href="#bq"/></g><path fill="#333" d="M114-163C36-179 61-72 57 0H25l-1-190h30c1 12-1 29 2 39 6-27 23-49 58-41v29" id="br"/><path fill="#333" d="M115-194c55 1 70 41 70 98S169 2 115 4C84 4 66-9 55-30l1 105H24l-1-265h31l2 30c10-21 28-34 59-34zm-8 174c40 0 45-34 45-75s-6-73-45-74c-42 0-51 32-51 76 0 43 10 73 51 73" id="bs"/><path fill="#333" d="M100-194c62-1 85 37 85 99 1 63-27 99-86 99S16-35 15-95c0-66 28-99 85-99zM99-20c44 1 53-31 53-75 0-43-8-75-51-75s-53 32-53 75 10 74 51 75" id="bt"/><path fill="#333" d="M179-190L93 31C79 59 56 82 12 73V49c39 6 53-20 64-50L1-190h34L92-34l54-156h33" id="bu"/><g id="M"><use transform="matrix(0.04938271604938272,0,0,0.04938271604938272,0,0)" xlink:href="#br"/><use transform="matrix(0.04938271604938272,0,0,0.04938271604938272,5.8765432098765435,0)" xlink:href="#bl"/><use transform="matrix(0.04938271604938272,0,0,0.04938271604938272,15.753086419753087,0)" xlink:href="#bs"/><use transform="matrix(0.04938271604938272,0,0,0.04938271604938272,25.629629629629633,0)" xlink:href="#bt"/><use transform="matrix(0.04938271604938272,0,0,0.04938271604938272,35.50617283950618,0)" xlink:href="#bm"/><use transform="matrix(0.04938271604938272,0,0,0.04938271604938272,44.39506172839506,0)" xlink:href="#bn"/><use transform="matrix(0.04938271604938272,0,0,0.04938271604938272,48.2962962962963,0)" xlink:href="#bo"/><use transform="matrix(0.04938271604938272,0,0,0.04938271604938272,53.23456790123457,0)" xlink:href="#bt"/><use transform="matrix(0.04938271604938272,0,0,0.04938271604938272,63.111111111111114,0)" xlink:href="#br"/><use transform="matrix(0.04938271604938272,0,0,0.04938271604938272,68.98765432098766,0)" xlink:href="#bu"/></g><path fill="#333" d="M84 4C-5 8 30-112 23-190h32v120c0 31 7 50 39 49 72-2 45-101 50-169h31l1 190h-30c-1-10 1-25-2-33-11 22-28 36-60 37" id="bv"/><path fill="#333" d="M141-36C126-15 110 5 73 4 37 3 15-17 15-53c-1-64 63-63 125-63 3-35-9-54-41-54-24 1-41 7-42 31l-33-3c5-37 33-52 76-52 45 0 72 20 72 64v82c-1 20 7 32 28 27v20c-31 9-61-2-59-35zM48-53c0 20 12 33 32 33 41-3 63-29 60-74-43 2-92-5-92 41" id="bw"/><g id="O"><use transform="matrix(0.04938271604938272,0,0,0.04938271604938272,0,0)" xlink:href="#bv"/><use transform="matrix(0.04938271604938272,0,0,0.04938271604938272,9.876543209876544,0)" xlink:href="#bp"/><use transform="matrix(0.04938271604938272,0,0,0.04938271604938272,19.75308641975309,0)" xlink:href="#bw"/></g><path fill="#333" d="M96-169c-40 0-48 33-48 73s9 75 48 75c24 0 41-14 43-38l32 2c-6 37-31 61-74 61-59 0-76-41-82-99-10-93 101-131 147-64 4 7 5 14 7 22l-32 3c-4-21-16-35-41-35" id="bx"/><g id="P"><use transform="matrix(0.04938271604938272,0,0,0.04938271604938272,0,0)" xlink:href="#bx"/><use transform="matrix(0.04938271604938272,0,0,0.04938271604938272,8.88888888888889,0)" xlink:href="#bq"/><use transform="matrix(0.04938271604938272,0,0,0.04938271604938272,12.790123456790125,0)" xlink:href="#bw"/><use transform="matrix(0.04938271604938272,0,0,0.04938271604938272,22.666666666666668,0)" xlink:href="#bm"/><use transform="matrix(0.04938271604938272,0,0,0.04938271604938272,31.555555555555557,0)" xlink:href="#bm"/><use transform="matrix(0.04938271604938272,0,0,0.04938271604938272,40.44444444444444,0)" xlink:href="#bl"/></g><path fill="#333" d="M9 0v-24l116-142H16v-24h144v24L44-24h123V0H9" id="by"/><g id="Q"><use transform="matrix(0.04938271604938272,0,0,0.04938271604938272,0,0)" xlink:href="#bm"/><use transform="matrix(0.04938271604938272,0,0,0.04938271604938272,8.88888888888889,0)" xlink:href="#bl"/><use transform="matrix(0.04938271604938272,0,0,0.04938271604938272,18.765432098765434,0)" xlink:href="#bp"/><use transform="matrix(0.04938271604938272,0,0,0.04938271604938272,28.641975308641978,0)" xlink:href="#by"/><use transform="matrix(0.04938271604938272,0,0,0.04938271604938272,37.53086419753087,0)" xlink:href="#bw"/></g><g id="R"><use transform="matrix(0.04938271604938272,0,0,0.04938271604938272,0,0)" xlink:href="#bo"/><use transform="matrix(0.04938271604938272,0,0,0.04938271604938272,4.938271604938272,0)" xlink:href="#bl"/><use transform="matrix(0.04938271604938272,0,0,0.04938271604938272,14.814814814814817,0)" xlink:href="#bm"/><use transform="matrix(0.04938271604938272,0,0,0.04938271604938272,23.703703703703706,0)" xlink:href="#bo"/></g><g id="S"><use transform="matrix(0.04938271604938272,0,0,0.04938271604938272,0,0)" xlink:href="#bo"/><use transform="matrix(0.04938271604938272,0,0,0.04938271604938272,4.938271604938272,0)" xlink:href="#bv"/><use transform="matrix(0.04938271604938272,0,0,0.04938271604938272,14.814814814814817,0)" xlink:href="#bo"/><use transform="matrix(0.04938271604938272,0,0,0.04938271604938272,19.75308641975309,0)" xlink:href="#bo"/><use transform="matrix(0.04938271604938272,0,0,0.04938271604938272,24.69135802469136,0)" xlink:href="#bl"/></g><g id="T"><use transform="matrix(0.04938271604938272,0,0,0.04938271604938272,0,0)" xlink:href="#bq"/><use transform="matrix(0.04938271604938272,0,0,0.04938271604938272,3.901234567901235,0)" xlink:href="#bl"/></g><g id="U"><use transform="matrix(0.04938271604938272,0,0,0.04938271604938272,0,0)" xlink:href="#bx"/><use transform="matrix(0.04938271604938272,0,0,0.04938271604938272,8.88888888888889,0)" xlink:href="#bq"/><use transform="matrix(0.04938271604938272,0,0,0.04938271604938272,12.790123456790125,0)" xlink:href="#bw"/><use transform="matrix(0.04938271604938272,0,0,0.04938271604938272,22.666666666666668,0)" xlink:href="#bm"/><use transform="matrix(0.04938271604938272,0,0,0.04938271604938272,31.555555555555557,0)" xlink:href="#bm"/><use transform="matrix(0.04938271604938272,0,0,0.04938271604938272,40.44444444444444,0)" xlink:href="#bn"/></g><g id="V"><use transform="matrix(0.04938271604938272,0,0,0.04938271604938272,0,0)" xlink:href="#bp"/><use transform="matrix(0.04938271604938272,0,0,0.04938271604938272,9.876543209876544,0)" xlink:href="#bl"/><use transform="matrix(0.04938271604938272,0,0,0.04938271604938272,19.75308641975309,0)" xlink:href="#bq"/></g><g id="W"><use transform="matrix(0.04938271604938272,0,0,0.04938271604938272,0,0)" xlink:href="#br"/><use transform="matrix(0.04938271604938272,0,0,0.04938271604938272,5.8765432098765435,0)" xlink:href="#bl"/><use transform="matrix(0.04938271604938272,0,0,0.04938271604938272,15.753086419753087,0)" xlink:href="#bs"/><use transform="matrix(0.04938271604938272,0,0,0.04938271604938272,25.629629629629633,0)" xlink:href="#bt"/><use transform="matrix(0.04938271604938272,0,0,0.04938271604938272,35.50617283950618,0)" xlink:href="#bm"/><use transform="matrix(0.04938271604938272,0,0,0.04938271604938272,44.39506172839506,0)" xlink:href="#bn"/><use transform="matrix(0.04938271604938272,0,0,0.04938271604938272,48.2962962962963,0)" xlink:href="#bo"/><use transform="matrix(0.04938271604938272,0,0,0.04938271604938272,53.23456790123457,0)" xlink:href="#bt"/><use transform="matrix(0.04938271604938272,0,0,0.04938271604938272,63.111111111111114,0)" xlink:href="#br"/><use transform="matrix(0.04938271604938272,0,0,0.04938271604938272,68.98765432098766,0)" xlink:href="#bu"/></g><g id="X"><use transform="matrix(0.04938271604938272,0,0,0.04938271604938272,0,0)" xlink:href="#bs"/><use transform="matrix(0.04938271604938272,0,0,0.04938271604938272,9.876543209876544,0)" xlink:href="#br"/><use transform="matrix(0.04938271604938272,0,0,0.04938271604938272,15.753086419753087,0)" xlink:href="#bl"/><use transform="matrix(0.04938271604938272,0,0,0.04938271604938272,25.629629629629633,0)" xlink:href="#bm"/><use transform="matrix(0.04938271604938272,0,0,0.04938271604938272,34.51851851851852,0)" xlink:href="#bl"/><use transform="matrix(0.04938271604938272,0,0,0.04938271604938272,44.39506172839506,0)" xlink:href="#bp"/><use transform="matrix(0.04938271604938272,0,0,0.04938271604938272,54.27160493827161,0)" xlink:href="#bo"/><use transform="matrix(0.04938271604938272,0,0,0.04938271604938272,59.20987654320988,0)" xlink:href="#bw"/><use transform="matrix(0.04938271604938272,0,0,0.04938271604938272,69.08641975308643,0)" xlink:href="#bp"/><use transform="matrix(0.04938271604938272,0,0,0.04938271604938272,78.96296296296298,0)" xlink:href="#bt"/></g><use transform="matrix(0.04938271604938272,0,0,0.04938271604938272,0,0)" xlink:href="#bn" id="Y"/></defs></g></svg>