<svg xmlns="http://www.w3.org/2000/svg" xmlns:xlink="http://www.w3.org/1999/xlink" xmlns:lucid="lucid" width="1038" height="1736"><g transform="translate(3377 1391)" lucid:page-tab-id="0_0"><path d="M-2803.76-1351.54c0 11.05-8.95 20-20 20-11.04 0-20-8.95-20-20s8.96-20 20-20c11.05 0 20 8.95 20 20z" stroke="#666"/><path d="M-2823.76-1330.54v45.37" stroke="#333" fill="none"/><path d="M-2823.78-1331.04l.52-.02v.53h-1v-.57z" stroke="#333" stroke-width=".05" fill="#333"/><path d="M-2823.76-1270.4l-4.63-14.27h9.28z" stroke="#333" fill="#333"/><path d="M-2926.26-1268.8c-15.23 0-27.57 12.35-27.57 27.58v82.7c0 15.2 12.34 27.55 27.57 27.55h205c15.23 0 27.57-12.34 27.57-27.56v-82.7c0-15.22-12.33-27.56-27.55-27.56z" stroke="#000" stroke-opacity="0" fill="#6db1ff"/><use xlink:href="#a" transform="matrix(1,0,0,1,-2945.8282592759897,-1260.7880810016113) translate(25.66049382716049 23.488888888888873)"/><use xlink:href="#b" transform="matrix(1,0,0,1,-2945.8282592759897,-1260.7880810016113) translate(161.06790123456793 23.488888888888873)"/><use xlink:href="#c" transform="matrix(1,0,0,1,-2945.8282592759897,-1260.7880810016113) translate(15.018518518518515 44.82222222222221)"/><use xlink:href="#d" transform="matrix(1,0,0,1,-2945.8282592759897,-1260.7880810016113) translate(49.58641975308642 44.82222222222221)"/><use xlink:href="#e" transform="matrix(1,0,0,1,-2945.8282592759897,-1260.7880810016113) translate(96.89506172839506 44.82222222222221)"/><use xlink:href="#f" transform="matrix(1,0,0,1,-2945.8282592759897,-1260.7880810016113) translate(127.46296296296296 44.82222222222221)"/><use xlink:href="#g" transform="matrix(1,0,0,1,-2945.8282592759897,-1260.7880810016113) translate(201.33950617283952 44.82222222222221)"/><use xlink:href="#h" transform="matrix(1,0,0,1,-2945.8282592759897,-1260.7880810016113) translate(24.327160493827147 66.15555555555555)"/><use xlink:href="#i" transform="matrix(1,0,0,1,-2945.8282592759897,-1260.7880810016113) translate(100.32716049382715 66.15555555555555)"/><use xlink:href="#j" transform="matrix(1,0,0,1,-2945.8282592759897,-1260.7880810016113) translate(119.0432098765432 66.15555555555555)"/><use xlink:href="#k" transform="matrix(1,0,0,1,-2945.8282592759897,-1260.7880810016113) translate(197.01851851851853 66.15555555555555)"/><use xlink:href="#l" transform="matrix(1,0,0,1,-2945.8282592759897,-1260.7880810016113) translate(20.351851851851844 87.4888888888889)"/><use xlink:href="#m" transform="matrix(1,0,0,1,-2945.8282592759897,-1260.7880810016113) translate(53.9320987654321 87.4888888888889)"/><use xlink:href="#n" transform="matrix(1,0,0,1,-2945.8282592759897,-1260.7880810016113) translate(122.96913580246914 87.4888888888889)"/><use xlink:href="#o" transform="matrix(1,0,0,1,-2945.8282592759897,-1260.7880810016113) translate(147.6604938271605 87.4888888888889)"/><use xlink:href="#p" transform="matrix(1,0,0,1,-2945.8282592759897,-1260.7880810016113) translate(30.351851851851844 108.82222222222224)"/><path d="M-2828.5-1053.48a7.3 7.3 0 0 1 10.8 0l9.2 10.08a8.76 8.76 0 0 1 0 11.8l-9.2 10.08a7.3 7.3 0 0 1-10.8 0l-9.2-10.07a8.76 8.76 0 0 1 0-11.8z" stroke="#6db1ff" stroke-width="4" fill="#fff"/><path d="M-2823.76-1130.47v65.78" stroke="#3a414a" fill="none"/><path d="M-2823.26-1130.45h-1v-.52h1z" stroke="#3a414a" stroke-width=".05" fill="#3a414a"/><path d="M-2823.76-1058.8l-7.63-12.9h15.28z" stroke="#3a414a" fill="#3a414a"/><path d="M-3056.63-623.4c-14.82 0-26.84 12.03-26.84 26.85v80.53c0 14.82 12.02 26.84 26.84 26.84h221.78c14.82 0 26.84-12.02 26.84-26.84v-80.53c0-14.82-12.03-26.84-26.85-26.84z" stroke="#000" stroke-opacity="0" fill="#6db1ff"/><use xlink:href="#q" transform="matrix(1,0,0,1,-3075.4666477887913,-615.3870897011775) translate(38.95781777777778 23.16231999999999)"/><use xlink:href="#r" transform="matrix(1,0,0,1,-3075.4666477887913,-615.3870897011775) translate(54.11340777777778 23.16231999999999)"/><use xlink:href="#s" transform="matrix(1,0,0,1,-3075.4666477887913,-615.3870897011775) translate(126.79505444444446 23.16231999999999)"/><use xlink:href="#t" transform="matrix(1,0,0,1,-3075.4666477887913,-615.3870897011775) translate(205.88659222222225 23.16231999999999)"/><use xlink:href="#u" transform="matrix(1,0,0,1,-3075.4666477887913,-615.3870897011775) translate(93.088805 44.08671999999999)"/><use xlink:href="#v" transform="matrix(1,0,0,1,-3075.4666477887913,-615.3870897011775) translate(39.44670777777779 65.01111999999999)"/><use xlink:href="#w" transform="matrix(1,0,0,1,-3075.4666477887913,-615.3870897011775) translate(21.656543888888873 85.93552)"/><use xlink:href="#x" transform="matrix(1,0,0,1,-3075.4666477887913,-615.3870897011775) translate(55.28131166666665 85.93552)"/><use xlink:href="#y" transform="matrix(1,0,0,1,-3075.4666477887913,-615.3870897011775) translate(139.7506394444444 85.93552)"/><use xlink:href="#z" transform="matrix(1,0,0,1,-3075.4666477887913,-615.3870897011775) translate(149.4741183333333 85.93552)"/><use xlink:href="#A" transform="matrix(1,0,0,1,-3075.4666477887913,-615.3870897011775) translate(197.1680538888889 85.93552)"/><use xlink:href="#B" transform="matrix(1,0,0,1,-3075.4666477887913,-615.3870897011775) translate(13.942946111111095 106.85992)"/><use xlink:href="#C" transform="matrix(1,0,0,1,-3075.4666477887913,-615.3870897011775) translate(68.15541499999999 106.85992)"/><use xlink:href="#D" transform="matrix(1,0,0,1,-3075.4666477887913,-615.3870897011775) translate(88.7431161111111 106.85992)"/><use xlink:href="#E" transform="matrix(1,0,0,1,-3075.4666477887913,-615.3870897011775) translate(125.68147166666667 106.85992)"/><use xlink:href="#F" transform="matrix(1,0,0,1,-3075.4666477887913,-615.3870897011775) translate(201.67670611111112 106.85992)"/><path d="M-2827.56-699.5a7.3 7.3 0 0 1 10.8 0l9.2 10.07a8.76 8.76 0 0 1 0 11.8l-9.2 10.1a7.3 7.3 0 0 1-10.8 0l-9.2-10.1a8.76 8.76 0 0 1 0-11.8z" stroke="#6db1ff" stroke-width="4" fill="#fff"/><path d="M-2977.03-715.9h125.52v31.33h-125.53z" fill="none"/><use xlink:href="#G" transform="matrix(1,0,0,1,-2972.024830630162,-710.9085274115214) translate(0 14.222222222222223)"/><use xlink:href="#H" transform="matrix(1,0,0,1,-2972.024830630162,-710.9085274115214) translate(41.4320987654321 14.222222222222223)"/><use xlink:href="#I" transform="matrix(1,0,0,1,-2972.024830630162,-710.9085274115214) translate(71.06172839506173 14.222222222222223)"/><path d="M-2841.57-683.53h-92.17a12 12 0 0 0-12 12v31.76" stroke="#333" fill="none"/><path d="M-2841.07-683.53l.04.5h-.55v-1h.55z" stroke="#333" stroke-width=".05" fill="#333"/><path d="M-2945.74-625l-4.63-14.27h9.27z" stroke="#333" fill="#333"/><path d="M-2822.6-874.7h-1v-46.45h1zm0-89.12h-1v-52.8h1z" stroke="#3a414a" stroke-width=".05" fill="#3a414a"/><path d="M-2823.1-1017.13l.5-.04v.55h-1v-.55z" fill="#3a414a"/><path d="M-2823.1-1017.16l.53-.04v.6h-1.05v-.6zm-.47.52h.95v-.5l-.47.03-.47-.05z" stroke="#3a414a" stroke-width=".05" fill="#3a414a"/><path d="M-2823.1-868.82l-7.63-12.9h15.27z" fill="#3a414a"/><path d="M-2823.1-867.84l-8.5-14.4h17.02zm-6.75-13.4l6.76 11.44 6.77-11.43z" stroke="#3a414a" stroke-width=".05" fill="#3a414a"/><use xlink:href="#J" transform="matrix(1,0,0,1,-2919.2910757501268,-963.816385144271) translate(0 14.222222222222223)"/><use xlink:href="#K" transform="matrix(1,0,0,1,-2919.2910757501268,-963.816385144271) translate(37.48148148148149 14.222222222222223)"/><use xlink:href="#L" transform="matrix(1,0,0,1,-2919.2910757501268,-963.816385144271) translate(80.93827160493828 14.222222222222223)"/><use xlink:href="#M" transform="matrix(1,0,0,1,-2919.2910757501268,-963.816385144271) translate(124.39506172839506 14.222222222222223)"/><use xlink:href="#N" transform="matrix(1,0,0,1,-2919.2910757501268,-963.816385144271) translate(0 35.55555555555556)"/><use xlink:href="#O" transform="matrix(1,0,0,1,-2919.2910757501268,-963.816385144271) translate(39.50617283950618 35.55555555555556)"/><use xlink:href="#P" transform="matrix(1,0,0,1,-2919.2910757501268,-963.816385144271) translate(58.22222222222223 35.55555555555556)"/><use xlink:href="#Q" transform="matrix(1,0,0,1,-2919.2910757501268,-963.816385144271) translate(107.50617283950618 35.55555555555556)"/><use xlink:href="#R" transform="matrix(1,0,0,1,-2919.2910757501268,-963.816385144271) translate(126.22222222222223 35.55555555555556)"/><path d="M-2802.82-684.23h109.6a12 12 0 0 1 12 12v783.47a12 12 0 0 1-12 12h-105.12" stroke="#333" fill="none"/><path d="M-2802.8-683.73h-.48l-.07-1h.55z" stroke="#333" stroke-width=".05" fill="#333"/><path d="M-2813.1 123.24l14.26-4.64v9.28z" stroke="#333" fill="#333"/><path d="M-2839.02 107.26a7.3 7.3 0 0 1 10.8 0l9.2 10.07a8.76 8.76 0 0 1 0 11.82l-9.2 10.07a7.3 7.3 0 0 1-10.8 0l-9.2-10.07a8.76 8.76 0 0 1 0-11.82z" stroke="#6db1ff" stroke-width="4" fill="#fff"/><path d="M-2945.74 58.12v53.12a12 12 0 0 0 12 12h64.83" stroke="#333" fill="none"/><path d="M-2945.24 58.13h-1v-.5h1z" stroke="#333" stroke-width=".05" fill="#333"/><path d="M-2854.14 123.24l-14.27 4.64v-9.28z" stroke="#333" fill="#333"/><path d="M-2813.62 295.13c0 11.05-8.96 20-20 20-11.05 0-20-8.95-20-20 0-11.04 8.95-20 20-20 11.04 0 20 8.96 20 20z" stroke="#000" fill="#fff"/><path d="M-2821.62 295.13c0 6.63-5.38 12-12 12-6.63 0-12-5.37-12-12 0-6.62 5.37-12 12-12 6.62 0 12 5.38 12 12z" stroke="#000"/><path d="M-2789.57-715.9h95.88v31.33h-95.87z" fill="none"/><use xlink:href="#G" transform="matrix(1,0,0,1,-2784.572279317743,-710.9085274115214) translate(0 14.222222222222223)"/><use xlink:href="#I" transform="matrix(1,0,0,1,-2784.572279317743,-710.9085274115214) translate(41.4320987654321 14.222222222222223)"/><path d="M-2842.5-1037h-476.84l-1.82.14-1.76.42-1.66.7-1.54.94-1.37 1.17-1.17 1.37-.94 1.54-.7 1.67-.42 1.75-.14 1.82v1313.2l.14 1.83.42 1.75.7 1.67.93 1.54 1.18 1.38 1.38 1.17 1.54.94 1.66.68 1.76.42 1.82.15h449.5v1h-449.54l-1.94-.15-1.9-.46-1.82-.75-1.67-1.04-1.5-1.27-1.28-1.5-1.02-1.68-.75-1.8-.46-1.92-.16-1.93v-1313.3l.15-1.92.45-1.9.75-1.83 1.02-1.67 1.28-1.5 1.5-1.26 1.66-1.04 1.8-.75 1.92-.45 1.94-.15h476.9z" stroke="#333" stroke-width=".05" fill="#333"/><path d="M-2842-1037.5l.04.5h-.55v-1h.54z" fill="#333"/><path d="M-2841.97-1037.5l.04.53h-.6v-1.06h.6zm-.5-.47v.94h.5l-.05-.47.04-.47z" stroke="#333" stroke-width=".05" fill="#333"/><path d="M-2855.07 299.75l-14.27 4.63v-9.27z" fill="#333"/><path d="M-2853.45 299.75l-16.4 5.32v-10.65zm-15.4 3.94l12.16-3.95-12.14-3.95z" stroke="#333" stroke-width=".05" fill="#333"/><g><use xlink:href="#S" transform="matrix(1,0,0,1,-3179.487106160398,-1084.166196941816) translate(0 14.222222222222223)"/><use xlink:href="#O" transform="matrix(1,0,0,1,-3179.487106160398,-1084.166196941816) translate(39.50617283950618 14.222222222222223)"/><use xlink:href="#T" transform="matrix(1,0,0,1,-3179.487106160398,-1084.166196941816) translate(58.22222222222223 14.222222222222223)"/><use xlink:href="#Q" transform="matrix(1,0,0,1,-3179.487106160398,-1084.166196941816) translate(98.61728395061729 14.222222222222223)"/><use xlink:href="#U" transform="matrix(1,0,0,1,-3179.487106160398,-1084.166196941816) translate(117.33333333333334 14.222222222222223)"/><use xlink:href="#V" transform="matrix(1,0,0,1,-3179.487106160398,-1084.166196941816) translate(0 35.55555555555556)"/><use xlink:href="#L" transform="matrix(1,0,0,1,-3179.487106160398,-1084.166196941816) translate(43.45679012345679 35.55555555555556)"/><use xlink:href="#W" transform="matrix(1,0,0,1,-3179.487106160398,-1084.166196941816) translate(86.91358024691358 35.55555555555556)"/></g><path d="M-2827.56-863.53a7.3 7.3 0 0 1 10.8 0l9.2 10.08a8.76 8.76 0 0 1 0 11.8l-9.2 10.1a7.3 7.3 0 0 1-10.8 0l-9.2-10.1a8.76 8.76 0 0 1 0-11.8z" stroke="#6db1ff" stroke-width="4" fill="#fff"/><path d="M-3160.93 187.68l.14 1.8.44 1.77.7 1.67.93 1.53 1.17 1.38 1.37 1.17 1.55.94 1.67.7 1.75.4 1.82.16h303.76l1.82-.15 1.75-.42 1.67-.7 1.54-.93 1.37-1.17 1.18-1.38.94-1.53.7-1.67.4-1.75.16-1.82V144.1h1v43.62l-.16 1.93-.45 1.9-.75 1.82-1.03 1.67-1.28 1.5-1.5 1.27-1.67 1.03-1.8.75-1.92.46-1.93.16h-303.85l-1.93-.16-1.9-.45-1.82-.76-1.68-1.03-1.5-1.26-1.26-1.5-1.03-1.67-.75-1.8-.46-1.92-.15-1.94v-532.54h1zm303.48-1034.72h-291.96l-1.83.14-1.75.42-1.67.7-1.54.93-1.36 1.18-1.17 1.37-.94 1.54-.7 1.66-.42 1.76-.13 1.82v469.34h-1v-469.38l.15-1.94.46-1.9.75-1.82 1.03-1.67 1.27-1.48 1.5-1.28 1.67-1.02 1.8-.75 1.92-.46 1.93-.14h292z" stroke="#333" stroke-width=".05" fill="#333"/><path d="M-2833.62 143.6l.5-.03v.55h-1v-.55z" fill="#333"/><path d="M-2833.62 143.58l.52-.04v.6h-1.05v-.6zm-.48.5h.95v-.5l-.47.05-.48-.04z" stroke="#333" stroke-width=".05" fill="#333"/><path d="M-2842.68-847.54l-14.27 4.63v-9.28z" fill="#333"/><path d="M-2841.07-847.54l-16.38 5.32v-10.65zm-15.38 3.94l12.15-3.94-12.15-3.95z" stroke="#333" stroke-width=".05" fill="#333"/><g><use xlink:href="#X" transform="matrix(1,0,0,1,-3193.9225296027003,-366.1748818217172) translate(0 14.222222222222223)"/></g><path d="M-2821.66-720.28h-1v-48.14h1zm0-69.47h-1v-36.93h1z" stroke="#333" stroke-width=".05" fill="#333"/><path d="M-2822.16-827.18l.5-.04v.56h-1v-.56z" fill="#333"/><path d="M-2822.16-827.2l.52-.04v.6h-1.05v-.6zm-.48.5h.95v-.5l-.47.05-.47-.04z" stroke="#333" stroke-width=".05" fill="#333"/><path d="M-2822.16-705.5l-4.64-14.28h9.27z" fill="#333"/><path d="M-2822.16-703.9l-5.33-16.38h10.66zm-3.95-15.38l3.93 12.15 3.95-12.15z" stroke="#333" stroke-width=".05" fill="#333"/><g><use xlink:href="#Y" transform="matrix(1,0,0,1,-2865.9918612025267,-789.7524783868546) translate(0 14.222222222222223)"/><use xlink:href="#Z" transform="matrix(1,0,0,1,-2865.9918612025267,-789.7524783868546) translate(49.18518518518519 14.222222222222223)"/><use xlink:href="#aa" transform="matrix(1,0,0,1,-2865.9918612025267,-789.7524783868546) translate(74.8641975308642 14.222222222222223)"/></g><path d="M-2692.75-847.04h-110v-1h110zm227.8-12.48l-.15 1.93-.46 1.92-.75 1.8-1.03 1.68-1.28 1.5-1.5 1.27-1.67 1.02-1.8.75-1.92.45-1.93.16h-138.04v-1h138l1.82-.15 1.76-.4 1.68-.7 1.53-.94 1.38-1.17 1.18-1.38.94-1.54.7-1.67.4-1.75.15-1.8v-12.04h1z" stroke="#333" stroke-width=".05" fill="#333"/><path d="M-2802.75-847.04h-.55l.04-.5-.04-.5h.55z" fill="#333"/><path d="M-2802.73-847.02h-.6l.04-.52-.03-.53h.6zm-.54-1l.03.48-.03.47h.5v-.95z" stroke="#333" stroke-width=".05" fill="#333"/><path d="M-2460.8-872.1h-9.28l4.63-14.25z" fill="#333"/><path d="M-2460.12-871.6h-10.65l5.32-16.37zm-9.27-1h7.9l-3.95-12.13z" stroke="#333" stroke-width=".05" fill="#333"/><g><use xlink:href="#Y" transform="matrix(1,0,0,1,-2692.753807458978,-858.2105453090536) translate(0 14.222222222222223)"/><use xlink:href="#ab" transform="matrix(1,0,0,1,-2692.753807458978,-858.2105453090536) translate(49.18518518518519 14.222222222222223)"/><use xlink:href="#aa" transform="matrix(1,0,0,1,-2692.753807458978,-858.2105453090536) translate(64.49382716049384 14.222222222222223)"/></g><path d="M-3073.72-441.12c-14.83 0-26.84 12.02-26.84 26.84v80.52c0 14.83 12 26.84 26.84 26.84h255.97c14.82 0 26.84-12 26.84-26.84v-80.52c0-14.82-12.03-26.84-26.85-26.84z" stroke="#000" stroke-opacity="0" fill="#6db1ff"/><g><use xlink:href="#q" transform="matrix(1,0,0,1,-3092.563878126788,-433.11959993874734) translate(16.330567222222196 33.624520000000004)"/><use xlink:href="#r" transform="matrix(1,0,0,1,-3092.563878126788,-433.11959993874734) translate(31.4861572222222 33.624520000000004)"/><use xlink:href="#s" transform="matrix(1,0,0,1,-3092.563878126788,-433.11959993874734) translate(104.16780388888888 33.624520000000004)"/><use xlink:href="#ac" transform="matrix(1,0,0,1,-3092.563878126788,-433.11959993874734) translate(183.25934166666667 33.624520000000004)"/><use xlink:href="#u" transform="matrix(1,0,0,1,-3092.563878126788,-433.11959993874734) translate(203.84704277777777 33.624520000000004)"/><use xlink:href="#ad" transform="matrix(1,0,0,1,-3092.563878126788,-433.11959993874734) translate(-0.37161962962965234 54.54892)"/><use xlink:href="#ae" transform="matrix(1,0,0,1,-3092.563878126788,-433.11959993874734) translate(27.76516111111108 75.47332)"/><use xlink:href="#x" transform="matrix(1,0,0,1,-3092.563878126788,-433.11959993874734) translate(61.38992888888886 75.47332)"/><use xlink:href="#y" transform="matrix(1,0,0,1,-3092.563878126788,-433.11959993874734) translate(145.85925666666662 75.47332)"/><use xlink:href="#z" transform="matrix(1,0,0,1,-3092.563878126788,-433.11959993874734) translate(155.58273555555553 75.47332)"/><use xlink:href="#af" transform="matrix(1,0,0,1,-3092.563878126788,-433.11959993874734) translate(203.2766711111111 75.47332)"/><use xlink:href="#ag" transform="matrix(1,0,0,1,-3092.563878126788,-433.11959993874734) translate(234.72859444444447 75.47332)"/><use xlink:href="#ah" transform="matrix(1,0,0,1,-3092.563878126788,-433.11959993874734) translate(87.32825944444444 96.39772)"/><use xlink:href="#ai" transform="matrix(1,0,0,1,-3092.563878126788,-433.11959993874734) translate(133.9357727777778 96.39772)"/></g><path d="M-3056.63-258.85c-14.82 0-26.84 12.02-26.84 26.84v80.5c0 14.84 12.02 26.85 26.84 26.85h221.78c14.82 0 26.84-12 26.84-26.84V-232c0-14.84-12.03-26.85-26.85-26.85z" stroke="#000" stroke-opacity="0" fill="#6db1ff"/><g><use xlink:href="#q" transform="matrix(1,0,0,1,-3075.4666477887913,-250.85211017631718) translate(43.73807555555554 23.16231999999999)"/><use xlink:href="#r" transform="matrix(1,0,0,1,-3075.4666477887913,-250.85211017631718) translate(58.89366555555554 23.16231999999999)"/><use xlink:href="#aj" transform="matrix(1,0,0,1,-3075.4666477887913,-250.85211017631718) translate(131.57531222222224 23.16231999999999)"/><use xlink:href="#t" transform="matrix(1,0,0,1,-3075.4666477887913,-250.85211017631718) translate(201.10633444444446 23.16231999999999)"/><use xlink:href="#u" transform="matrix(1,0,0,1,-3075.4666477887913,-250.85211017631718) translate(93.088805 44.08671999999999)"/><use xlink:href="#ak" transform="matrix(1,0,0,1,-3075.4666477887913,-250.85211017631718) translate(24.807168333333333 65.01111999999999)"/><use xlink:href="#ae" transform="matrix(1,0,0,1,-3075.4666477887913,-250.85211017631718) translate(39.446707777777746 85.93552)"/><use xlink:href="#al" transform="matrix(1,0,0,1,-3075.4666477887913,-250.85211017631718) translate(73.07147555555552 85.93552)"/><use xlink:href="#y" transform="matrix(1,0,0,1,-3075.4666477887913,-250.85211017631718) translate(163.02723555555556 85.93552)"/><use xlink:href="#D" transform="matrix(1,0,0,1,-3075.4666477887913,-250.85211017631718) translate(172.75071444444447 85.93552)"/><use xlink:href="#am" transform="matrix(1,0,0,1,-3075.4666477887913,-250.85211017631718) translate(209.68907000000004 85.93552)"/><use xlink:href="#an" transform="matrix(1,0,0,1,-3075.4666477887913,-250.85211017631718) translate(32.35780277777778 106.85992)"/><use xlink:href="#ac" transform="matrix(1,0,0,1,-3075.4666477887913,-250.85211017631718) translate(126.71357277777778 106.85992)"/><use xlink:href="#ao" transform="matrix(1,0,0,1,-3075.4666477887913,-250.85211017631718) translate(147.3012738888889 106.85992)"/></g><path d="M-3056.63-76.58c-14.82 0-26.84 12-26.84 26.84v80.52c0 14.82 12.02 26.84 26.84 26.84h221.78c14.82 0 26.84-12.02 26.84-26.84v-80.52c0-14.83-12.03-26.84-26.85-26.84z" stroke="#000" stroke-opacity="0" fill="#6db1ff"/><g><use xlink:href="#ap" transform="matrix(1,0,0,1,-3075.4666477887913,-68.58462041388702) translate(36.703491666666665 33.624520000000004)"/><use xlink:href="#aq" transform="matrix(1,0,0,1,-3075.4666477887913,-68.58462041388702) translate(47.56771388888889 33.624520000000004)"/><use xlink:href="#ar" transform="matrix(1,0,0,1,-3075.4666477887913,-68.58462041388702) translate(77.8788938888889 33.624520000000004)"/><use xlink:href="#as" transform="matrix(1,0,0,1,-3075.4666477887913,-68.58462041388702) translate(123.45430611111112 33.624520000000004)"/><use xlink:href="#at" transform="matrix(1,0,0,1,-3075.4666477887913,-68.58462041388702) translate(219.00514055555558 33.624520000000004)"/><use xlink:href="#au" transform="matrix(1,0,0,1,-3075.4666477887913,-68.58462041388702) translate(22.063952222222223 54.54892)"/><use xlink:href="#C" transform="matrix(1,0,0,1,-3075.4666477887913,-68.58462041388702) translate(89.20484555555556 54.54892)"/><use xlink:href="#av" transform="matrix(1,0,0,1,-3075.4666477887913,-68.58462041388702) translate(109.79254666666668 54.54892)"/><use xlink:href="#aw" transform="matrix(1,0,0,1,-3075.4666477887913,-68.58462041388702) translate(195.56558111111113 54.54892)"/><use xlink:href="#ax" transform="matrix(1,0,0,1,-3075.4666477887913,-68.58462041388702) translate(41.07634111111112 75.47332)"/><use xlink:href="#ay" transform="matrix(1,0,0,1,-3075.4666477887913,-68.58462041388702) translate(101.80734333333335 75.47332)"/><use xlink:href="#az" transform="matrix(1,0,0,1,-3075.4666477887913,-68.58462041388702) translate(133.2592666666667 75.47332)"/><use xlink:href="#aA" transform="matrix(1,0,0,1,-3075.4666477887913,-68.58462041388702) translate(89.31348777777778 96.39772)"/></g><path d="M-2945.74-488.68v40.7" stroke="#3a414a" fill="none"/><path d="M-2945.24-488.67h-1v-.5h1z" stroke="#3a414a" stroke-width=".05" fill="#3a414a"/><path d="M-2945.74-442.1l-7.63-12.9h15.27z" stroke="#3a414a" fill="#3a414a"/><path d="M-2945.74-306.42v40.7" stroke="#3a414a" fill="none"/><path d="M-2945.24-306.4h-1v-.52h1z" stroke="#3a414a" stroke-width=".05" fill="#3a414a"/><path d="M-2945.74-259.83l-7.63-12.92h15.27z" stroke="#3a414a" fill="#3a414a"/><path d="M-2945.74-124.15v40.7" stroke="#3a414a" fill="none"/><path d="M-2945.24-124.14h-1v-.5h1z" stroke="#3a414a" stroke-width=".05" fill="#3a414a"/><path d="M-2945.74-77.57l-7.63-12.9h15.27z" stroke="#3a414a" fill="#3a414a"/><path d="M-2537.6-987.6c-11 0-19.93 8.9-19.93 19.92v59.78c0 11 8.92 19.93 19.93 19.93h144.3c11.02 0 19.94-8.92 19.94-19.93v-59.78c0-11-8.92-19.93-19.93-19.93z" stroke="#000" stroke-opacity="0" fill="#6db1ff"/><g><use xlink:href="#aB" transform="matrix(1,0,0,1,-2549.5339685358176,-979.6115500220076) translate(39.46779888888889 37.048919999999995)"/><use xlink:href="#aC" transform="matrix(1,0,0,1,-2549.5339685358176,-979.6115500220076) translate(99.22102111111111 37.048919999999995)"/><use xlink:href="#aD" transform="matrix(1,0,0,1,-2549.5339685358176,-979.6115500220076) translate(14.534408888888887 57.97332)"/><use xlink:href="#aE" transform="matrix(1,0,0,1,-2549.5339685358176,-979.6115500220076) translate(99.1123788888889 57.97332)"/></g><path d="M-2465.45-988.1v-25.4a24 24 0 0 0-24-24h-307.87" stroke="#3a414a" fill="none"/><path d="M-2464.95-987.6h-1v-.52h1z" stroke="#3a414a" stroke-width=".05" fill="#3a414a"/><path d="M-2803.2-1037.5l12.9-7.63v15.27z" stroke="#3a414a" fill="#3a414a"/><defs><path fill="#fff" d="M11 0l48-248h34L50-27h125l-5 27H11" id="aF"/><path fill="#fff" d="M60-170H36l11-78h32" id="aG"/><path fill="#fff" d="M165-48c-4 18 1 34 23 27l-3 20c-29 8-62 0-52-35h-2C116-14 99 4 63 4 30 4 8-16 8-49c0-68 71-67 138-67 10-26 0-56-31-54-26 1-42 9-47 31l-32-5c8-67 160-71 144 15-5 28-9 54-15 81zM42-50c3 52 80 24 89-6 7-12 7-24 11-38-47 1-103-4-100 44" id="aH"/><path fill="#fff" d="M248-111c6-24 9-61-24-58-72 9-57 108-77 169h-31l26-142c3-37-50-30-64-10C52-115 50-51 37 0H6l36-190h30c-1 10-6 24-4 32 13-43 101-52 105 5 13-22 29-41 61-41 90 0 28 129 23 194h-31" id="aI"/><path fill="#fff" d="M50-231l6-30h32l-6 30H50zM6 0l37-190h31L37 0H6" id="aJ"/><path fill="#fff" d="M67-158c22-48 132-52 116 29L158 0h-32l25-140c3-38-53-32-70-12C52-117 51-52 38 0H6l36-190h30" id="aK"/><path fill="#fff" d="M55-144c13 50 104 24 104 88C159 21 15 23 1-39l26-10c6 40 102 42 102-4-13-50-104-23-104-87 0-71 143-71 148-8l-29 4c-5-35-85-37-89 0" id="aL"/><path fill="#fff" d="M51-54c-9 22 5 41 31 30L79-1C43 14 10-4 19-52l22-115H19l5-23h22l19-43h21l-9 43h35l-4 23H73" id="aM"/><path fill="#fff" d="M66-151c12-25 30-51 66-40l-6 26C45-176 58-65 38 0H6l36-190h30" id="aN"/><path fill="#fff" d="M30-147c31-64 166-65 159 27C183-49 158 1 86 4 9 8 1-88 30-147zM88-20c53 0 68-48 68-100 0-31-11-51-44-50-52 1-68 46-68 97 0 32 13 53 44 53" id="aO"/><path fill="#fff" d="M111-194c62-3 86 47 72 106H45c-7 38 6 69 45 68 27-1 43-14 53-32l24 11C152-15 129 4 87 4 38 3 12-23 12-71c0-70 32-119 99-123zm44 81c14-66-71-72-95-28-4 8-8 17-11 28h106" id="aP"/><g id="a"><use transform="matrix(0.04938271604938272,0,0,0.04938271604938272,0,0)" xlink:href="#aF"/><use transform="matrix(0.04938271604938272,0,0,0.04938271604938272,9.876543209876544,0)" xlink:href="#aG"/><use transform="matrix(0.04938271604938272,0,0,0.04938271604938272,13.23456790123457,0)" xlink:href="#aH"/><use transform="matrix(0.04938271604938272,0,0,0.04938271604938272,23.111111111111114,0)" xlink:href="#aI"/><use transform="matrix(0.04938271604938272,0,0,0.04938271604938272,37.876543209876544,0)" xlink:href="#aI"/><use transform="matrix(0.04938271604938272,0,0,0.04938271604938272,52.64197530864198,0)" xlink:href="#aJ"/><use transform="matrix(0.04938271604938272,0,0,0.04938271604938272,56.5432098765432,0)" xlink:href="#aK"/><use transform="matrix(0.04938271604938272,0,0,0.04938271604938272,66.41975308641975,0)" xlink:href="#aJ"/><use transform="matrix(0.04938271604938272,0,0,0.04938271604938272,70.32098765432099,0)" xlink:href="#aL"/><use transform="matrix(0.04938271604938272,0,0,0.04938271604938272,79.20987654320987,0)" xlink:href="#aM"/><use transform="matrix(0.04938271604938272,0,0,0.04938271604938272,84.14814814814815,0)" xlink:href="#aN"/><use transform="matrix(0.04938271604938272,0,0,0.04938271604938272,90.0246913580247,0)" xlink:href="#aH"/><use transform="matrix(0.04938271604938272,0,0,0.04938271604938272,99.90123456790124,0)" xlink:href="#aM"/><use transform="matrix(0.04938271604938272,0,0,0.04938271604938272,104.83950617283952,0)" xlink:href="#aO"/><use transform="matrix(0.04938271604938272,0,0,0.04938271604938272,114.71604938271606,0)" xlink:href="#aN"/><use transform="matrix(0.04938271604938272,0,0,0.04938271604938272,120.59259259259261,0)" xlink:href="#aP"/></g><path fill="#fff" d="M103-194c29 0 47 14 56 36 2-11 5-23 8-32h30L160-5C157 61 82 97 21 62 9 55 4 45 1 30l28-7c7 42 83 31 92-3 4-16 9-38 13-55-13 20-29 36-62 36-40 0-60-25-60-64 0-71 23-131 91-131zm4 24c-53 0-58 54-61 104-2 27 10 44 36 44 49 0 65-50 67-102 1-29-15-46-42-46" id="aQ"/><path fill="#fff" d="M67 3c-93-2-31-127-26-193h32L48-50c-3 39 53 32 70 12 30-34 30-101 43-152h32L157 0h-30c1-10 6-24 4-33-14 20-29 37-64 36" id="aR"/><g id="b"><use transform="matrix(0.04938271604938272,0,0,0.04938271604938272,0,0)" xlink:href="#aP"/><use transform="matrix(0.04938271604938272,0,0,0.04938271604938272,9.876543209876544,0)" xlink:href="#aL"/><use transform="matrix(0.04938271604938272,0,0,0.04938271604938272,18.765432098765434,0)" xlink:href="#aP"/><use transform="matrix(0.04938271604938272,0,0,0.04938271604938272,28.641975308641978,0)" xlink:href="#aQ"/><use transform="matrix(0.04938271604938272,0,0,0.04938271604938272,38.51851851851852,0)" xlink:href="#aR"/><use transform="matrix(0.04938271604938272,0,0,0.04938271604938272,48.39506172839506,0)" xlink:href="#aP"/></g><g id="c"><use transform="matrix(0.04938271604938272,0,0,0.04938271604938272,0,0)" xlink:href="#aR"/><use transform="matrix(0.04938271604938272,0,0,0.04938271604938272,9.876543209876544,0)" xlink:href="#aK"/><use transform="matrix(0.04938271604938272,0,0,0.04938271604938272,19.75308641975309,0)" xlink:href="#aO"/></g><path fill="#fff" d="M44-68c0 29 11 47 38 47 30 0 42-19 51-41l28 9C148-21 126 4 82 4 31 4 10-29 12-85c3-77 74-140 146-93 12 8 15 23 18 40l-31 5c-1-22-13-36-36-36-52 0-65 49-65 101" id="aS"/><path fill="#fff" d="M67-162c32-53 139-36 121 50C175-51 163 2 97 4 68 4 52-11 42-31 38 6 28 39 22 75H-9l50-265h29c-1 10 0 20-3 28zm89 36c0-26-10-43-35-43-54 0-67 50-69 103-1 29 14 45 42 46 53 0 62-58 62-106" id="aT"/><g id="d"><use transform="matrix(0.04938271604938272,0,0,0.04938271604938272,0,0)" xlink:href="#aL"/><use transform="matrix(0.04938271604938272,0,0,0.04938271604938272,8.88888888888889,0)" xlink:href="#aS"/><use transform="matrix(0.04938271604938272,0,0,0.04938271604938272,17.77777777777778,0)" xlink:href="#aN"/><use transform="matrix(0.04938271604938272,0,0,0.04938271604938272,23.654320987654323,0)" xlink:href="#aJ"/><use transform="matrix(0.04938271604938272,0,0,0.04938271604938272,27.555555555555557,0)" xlink:href="#aT"/><use transform="matrix(0.04938271604938272,0,0,0.04938271604938272,37.4320987654321,0)" xlink:href="#aM"/></g><g id="e"><use transform="matrix(0.04938271604938272,0,0,0.04938271604938272,0,0)" xlink:href="#aT"/><use transform="matrix(0.04938271604938272,0,0,0.04938271604938272,9.876543209876544,0)" xlink:href="#aP"/><use transform="matrix(0.04938271604938272,0,0,0.04938271604938272,19.75308641975309,0)" xlink:href="#aN"/></g><g id="f"><use transform="matrix(0.04938271604938272,0,0,0.04938271604938272,0,0)" xlink:href="#aI"/><use transform="matrix(0.04938271604938272,0,0,0.04938271604938272,14.765432098765434,0)" xlink:href="#aJ"/><use transform="matrix(0.04938271604938272,0,0,0.04938271604938272,18.666666666666668,0)" xlink:href="#aL"/><use transform="matrix(0.04938271604938272,0,0,0.04938271604938272,27.555555555555557,0)" xlink:href="#aR"/><use transform="matrix(0.04938271604938272,0,0,0.04938271604938272,37.4320987654321,0)" xlink:href="#aN"/><use transform="matrix(0.04938271604938272,0,0,0.04938271604938272,43.308641975308646,0)" xlink:href="#aH"/><use transform="matrix(0.04938271604938272,0,0,0.04938271604938272,53.18518518518519,0)" xlink:href="#aN"/><use transform="matrix(0.04938271604938272,0,0,0.04938271604938272,59.061728395061735,0)" xlink:href="#aP"/></g><g id="g"><use transform="matrix(0.04938271604938272,0,0,0.04938271604938272,0,0)" xlink:href="#aS"/><use transform="matrix(0.04938271604938272,0,0,0.04938271604938272,8.88888888888889,0)" xlink:href="#aO"/><use transform="matrix(0.04938271604938272,0,0,0.04938271604938272,18.765432098765434,0)" xlink:href="#aK"/></g><path fill="#fff" d="M11 0l48-248h184l-5 28H87l-15 79h140l-5 27H67L50-27h158l-5 27H11" id="aU"/><path fill="#fff" d="M89 0H52L20-190h33L74-25l89-165h34" id="aV"/><path fill="#fff" d="M194-120c59 52 2 134-86 124-53-6-90-18-98-63l31-7c8 30 29 43 70 43 46 0 84-17 71-62-32-43-135-20-137-98-3-89 178-90 191-16l-30 9c-8-48-127-53-127 5 0 53 81 35 115 65" id="aW"/><g id="h"><use transform="matrix(0.04938271604938272,0,0,0.04938271604938272,0,0)" xlink:href="#aU"/><use transform="matrix(0.04938271604938272,0,0,0.04938271604938272,11.851851851851853,0)" xlink:href="#aV"/><use transform="matrix(0.04938271604938272,0,0,0.04938271604938272,20.74074074074074,0)" xlink:href="#aO"/><use transform="matrix(0.04938271604938272,0,0,0.04938271604938272,30.617283950617285,0)" xlink:href="#aW"/><use transform="matrix(0.04938271604938272,0,0,0.04938271604938272,42.46913580246914,0)" xlink:href="#aR"/><use transform="matrix(0.04938271604938272,0,0,0.04938271604938272,52.345679012345684,0)" xlink:href="#aJ"/><use transform="matrix(0.04938271604938272,0,0,0.04938271604938272,56.24691358024692,0)" xlink:href="#aM"/><use transform="matrix(0.04938271604938272,0,0,0.04938271604938272,61.18518518518519,0)" xlink:href="#aP"/></g><path fill="#fff" d="M6 0l50-261h32L37 0H6" id="aX"/><g id="i"><use transform="matrix(0.04938271604938272,0,0,0.04938271604938272,0,0)" xlink:href="#aX"/><use transform="matrix(0.04938271604938272,0,0,0.04938271604938272,3.901234567901235,0)" xlink:href="#aH"/></g><g id="j"><use transform="matrix(0.04938271604938272,0,0,0.04938271604938272,0,0)" xlink:href="#aS"/><use transform="matrix(0.04938271604938272,0,0,0.04938271604938272,8.88888888888889,0)" xlink:href="#aO"/><use transform="matrix(0.04938271604938272,0,0,0.04938271604938272,18.765432098765434,0)" xlink:href="#aV"/><use transform="matrix(0.04938271604938272,0,0,0.04938271604938272,27.654320987654323,0)" xlink:href="#aP"/><use transform="matrix(0.04938271604938272,0,0,0.04938271604938272,37.53086419753087,0)" xlink:href="#aN"/><use transform="matrix(0.04938271604938272,0,0,0.04938271604938272,43.40740740740741,0)" xlink:href="#aH"/><use transform="matrix(0.04938271604938272,0,0,0.04938271604938272,53.283950617283956,0)" xlink:href="#aQ"/><use transform="matrix(0.04938271604938272,0,0,0.04938271604938272,63.1604938271605,0)" xlink:href="#aP"/></g><path fill="#fff" d="M133-28C103 26-5 8 13-77c13-62 24-115 90-117 29-1 46 15 56 35l19-102h32L160 0h-30zM45-64c-2 27 10 43 35 43 54-1 69-50 69-103 0-29-15-46-42-46-53-1-58 58-62 106" id="aY"/><g id="k"><use transform="matrix(0.04938271604938272,0,0,0.04938271604938272,0,0)" xlink:href="#aY"/><use transform="matrix(0.04938271604938272,0,0,0.04938271604938272,9.876543209876544,0)" xlink:href="#aP"/><use transform="matrix(0.04938271604938272,0,0,0.04938271604938272,19.75308641975309,0)" xlink:href="#aJ"/></g><g id="l"><use transform="matrix(0.04938271604938272,0,0,0.04938271604938272,0,0)" xlink:href="#aM"/><use transform="matrix(0.04938271604938272,0,0,0.04938271604938272,4.938271604938272,0)" xlink:href="#aP"/><use transform="matrix(0.04938271604938272,0,0,0.04938271604938272,14.814814814814817,0)" xlink:href="#aL"/><use transform="matrix(0.04938271604938272,0,0,0.04938271604938272,23.703703703703706,0)" xlink:href="#aM"/></g><g id="m"><use transform="matrix(0.04938271604938272,0,0,0.04938271604938272,0,0)" xlink:href="#aQ"/><use transform="matrix(0.04938271604938272,0,0,0.04938271604938272,9.876543209876544,0)" xlink:href="#aP"/><use transform="matrix(0.04938271604938272,0,0,0.04938271604938272,19.75308641975309,0)" xlink:href="#aK"/><use transform="matrix(0.04938271604938272,0,0,0.04938271604938272,29.629629629629633,0)" xlink:href="#aP"/><use transform="matrix(0.04938271604938272,0,0,0.04938271604938272,39.50617283950618,0)" xlink:href="#aN"/><use transform="matrix(0.04938271604938272,0,0,0.04938271604938272,45.38271604938272,0)" xlink:href="#aH"/><use transform="matrix(0.04938271604938272,0,0,0.04938271604938272,55.25925925925927,0)" xlink:href="#aM"/><use transform="matrix(0.04938271604938272,0,0,0.04938271604938272,60.19753086419754,0)" xlink:href="#aJ"/></g><g id="n"><use transform="matrix(0.04938271604938272,0,0,0.04938271604938272,0,0)" xlink:href="#aY"/><use transform="matrix(0.04938271604938272,0,0,0.04938271604938272,9.876543209876544,0)" xlink:href="#aH"/></g><path fill="#fff" d="M249-183c0 48-29 72-75 77L221 0h-36l-43-103H65L45 0H11l48-248c83 2 190-17 190 65zm-34 3c0-55-74-39-127-41l-18 92c63-1 145 13 145-51" id="aZ"/><path fill="#fff" d="M44-154l7-36h35l-8 36H44zM14 0l7-36h35L49 0H14" id="ba"/><g id="o"><use transform="matrix(0.04938271604938272,0,0,0.04938271604938272,0,0)" xlink:href="#aZ"/><use transform="matrix(0.04938271604938272,0,0,0.04938271604938272,12.790123456790125,0)" xlink:href="#aH"/><use transform="matrix(0.04938271604938272,0,0,0.04938271604938272,22.66666666666667,0)" xlink:href="#aK"/><use transform="matrix(0.04938271604938272,0,0,0.04938271604938272,32.543209876543216,0)" xlink:href="#aY"/><use transform="matrix(0.04938271604938272,0,0,0.04938271604938272,42.41975308641976,0)" xlink:href="#aO"/><use transform="matrix(0.04938271604938272,0,0,0.04938271604938272,52.2962962962963,0)" xlink:href="#aO"/><use transform="matrix(0.04938271604938272,0,0,0.04938271604938272,62.17283950617284,0)" xlink:href="#aT"/><use transform="matrix(0.04938271604938272,0,0,0.04938271604938272,72.0493827160494,0)" xlink:href="#ba"/></g><path fill="#fff" d="M123-170H98l11-78h32zm-65 0H33l11-78h32" id="bb"/><path fill="#fff" d="M-28 44V31h207v13H-28" id="bc"/><path fill="#fff" d="M14 0l8-38h34L48 0H14" id="bd"/><path fill="#fff" d="M198-190L69 30C53 58 25 83-20 72c4-11-1-27 19-22 33-1 43-29 59-52L20-190h32L79-34l84-156h35" id="be"/><g id="p"><use transform="matrix(0.04938271604938272,0,0,0.04938271604938272,0,0)" xlink:href="#bb"/><use transform="matrix(0.04938271604938272,0,0,0.04938271604938272,6.271604938271605,0)" xlink:href="#aN"/><use transform="matrix(0.04938271604938272,0,0,0.04938271604938272,12.148148148148149,0)" xlink:href="#aH"/><use transform="matrix(0.04938271604938272,0,0,0.04938271604938272,22.024691358024693,0)" xlink:href="#aK"/><use transform="matrix(0.04938271604938272,0,0,0.04938271604938272,31.901234567901238,0)" xlink:href="#aY"/><use transform="matrix(0.04938271604938272,0,0,0.04938271604938272,41.777777777777786,0)" xlink:href="#aO"/><use transform="matrix(0.04938271604938272,0,0,0.04938271604938272,51.65432098765432,0)" xlink:href="#aO"/><use transform="matrix(0.04938271604938272,0,0,0.04938271604938272,61.53086419753087,0)" xlink:href="#aT"/><use transform="matrix(0.04938271604938272,0,0,0.04938271604938272,71.40740740740742,0)" xlink:href="#bc"/><use transform="matrix(0.04938271604938272,0,0,0.04938271604938272,81.28395061728396,0)" xlink:href="#aS"/><use transform="matrix(0.04938271604938272,0,0,0.04938271604938272,90.17283950617285,0)" xlink:href="#aO"/><use transform="matrix(0.04938271604938272,0,0,0.04938271604938272,100.0493827160494,0)" xlink:href="#aV"/><use transform="matrix(0.04938271604938272,0,0,0.04938271604938272,108.93827160493828,0)" xlink:href="#aP"/><use transform="matrix(0.04938271604938272,0,0,0.04938271604938272,118.81481481481482,0)" xlink:href="#aN"/><use transform="matrix(0.04938271604938272,0,0,0.04938271604938272,124.69135802469137,0)" xlink:href="#aH"/><use transform="matrix(0.04938271604938272,0,0,0.04938271604938272,134.5679012345679,0)" xlink:href="#aQ"/><use transform="matrix(0.04938271604938272,0,0,0.04938271604938272,144.44444444444446,0)" xlink:href="#aP"/><use transform="matrix(0.04938271604938272,0,0,0.04938271604938272,154.32098765432102,0)" xlink:href="#bd"/><use transform="matrix(0.04938271604938272,0,0,0.04938271604938272,159.2592592592593,0)" xlink:href="#aT"/><use transform="matrix(0.04938271604938272,0,0,0.04938271604938272,169.13580246913585,0)" xlink:href="#be"/><use transform="matrix(0.04938271604938272,0,0,0.04938271604938272,178.02469135802474,0)" xlink:href="#bb"/></g><path fill="#fff" d="M33 0v-248h34V0H33" id="bf"/><path fill="#fff" d="M24 0v-261h32V0H24" id="bg"/><g id="q"><use transform="matrix(0.05432111111111112,0,0,0.05432111111111112,0,0)" xlink:href="#bf"/><use transform="matrix(0.05432111111111112,0,0,0.05432111111111112,5.432111111111112,0)" xlink:href="#bg"/></g><path fill="#fff" d="M135-143c-3-34-86-38-87 0 15 53 115 12 119 90S17 21 10-45l28-5c4 36 97 45 98 0-10-56-113-15-118-90-4-57 82-63 122-42 12 7 21 19 24 35" id="bh"/><path fill="#fff" d="M24-231v-30h32v30H24zM24 0v-190h32V0H24" id="bi"/><path fill="#fff" d="M59-47c-2 24 18 29 38 22v24C64 9 27 4 27-40v-127H5v-23h24l9-43h21v43h35v23H59v120" id="bj"/><path fill="#fff" d="M100-194c63 0 86 42 84 106H49c0 40 14 67 53 68 26 1 43-12 49-29l28 8c-11 28-37 45-77 45C44 4 14-33 15-96c1-61 26-98 85-98zm52 81c6-60-76-77-97-28-3 7-6 17-6 28h103" id="bk"/><path fill="#fff" d="M210-169c-67 3-38 105-44 169h-31v-121c0-29-5-50-35-48C34-165 62-65 56 0H25l-1-190h30c1 10-1 24 2 32 10-44 99-50 107 0 11-21 27-35 58-36 85-2 47 119 55 194h-31v-121c0-29-5-49-35-48" id="bl"/><path fill="#fff" d="M141-36C126-15 110 5 73 4 37 3 15-17 15-53c-1-64 63-63 125-63 3-35-9-54-41-54-24 1-41 7-42 31l-33-3c5-37 33-52 76-52 45 0 72 20 72 64v82c-1 20 7 32 28 27v20c-31 9-61-2-59-35zM48-53c0 20 12 33 32 33 41-3 63-29 60-74-43 2-92-5-92 41" id="bm"/><g id="r"><use transform="matrix(0.05432111111111112,0,0,0.05432111111111112,0,0)" xlink:href="#bh"/><use transform="matrix(0.05432111111111112,0,0,0.05432111111111112,9.777800000000001,0)" xlink:href="#bi"/><use transform="matrix(0.05432111111111112,0,0,0.05432111111111112,14.06916777777778,0)" xlink:href="#bh"/><use transform="matrix(0.05432111111111112,0,0,0.05432111111111112,23.846967777777778,0)" xlink:href="#bj"/><use transform="matrix(0.05432111111111112,0,0,0.05432111111111112,29.279078888888886,0)" xlink:href="#bk"/><use transform="matrix(0.05432111111111112,0,0,0.05432111111111112,40.143301111111114,0)" xlink:href="#bl"/><use transform="matrix(0.05432111111111112,0,0,0.05432111111111112,56.38531333333334,0)" xlink:href="#bm"/></g><path fill="#fff" d="M114-163C36-179 61-72 57 0H25l-1-190h30c1 12-1 29 2 39 6-27 23-49 58-41v29" id="bn"/><path fill="#fff" d="M96-169c-40 0-48 33-48 73s9 75 48 75c24 0 41-14 43-38l32 2c-6 37-31 61-74 61-59 0-76-41-82-99-10-93 101-131 147-64 4 7 5 14 7 22l-32 3c-4-21-16-35-41-35" id="bo"/><path fill="#fff" d="M106-169C34-169 62-67 57 0H25v-261h32l-1 103c12-21 28-36 61-36 89 0 53 116 60 194h-32v-121c2-32-8-49-39-48" id="bp"/><g id="s"><use transform="matrix(0.05432111111111112,0,0,0.05432111111111112,0,0)" xlink:href="#bn"/><use transform="matrix(0.05432111111111112,0,0,0.05432111111111112,6.464212222222223,0)" xlink:href="#bi"/><use transform="matrix(0.05432111111111112,0,0,0.05432111111111112,10.755580000000002,0)" xlink:href="#bo"/><use transform="matrix(0.05432111111111112,0,0,0.05432111111111112,20.53338,0)" xlink:href="#bp"/><use transform="matrix(0.05432111111111112,0,0,0.05432111111111112,31.397602222222226,0)" xlink:href="#bi"/><use transform="matrix(0.05432111111111112,0,0,0.05432111111111112,35.688970000000005,0)" xlink:href="#bm"/><use transform="matrix(0.05432111111111112,0,0,0.05432111111111112,46.55319222222223,0)" xlink:href="#bl"/><use transform="matrix(0.05432111111111112,0,0,0.05432111111111112,62.79520444444445,0)" xlink:href="#bm"/></g><g id="t"><use transform="matrix(0.05432111111111112,0,0,0.05432111111111112,0,0)" xlink:href="#bg"/><use transform="matrix(0.05432111111111112,0,0,0.05432111111111112,4.291367777777778,0)" xlink:href="#bm"/></g><path fill="#fff" d="M101-234c-31-9-42 10-38 44h38v23H63V0H32v-167H5v-23h27c-7-52 17-82 69-68v24" id="bq"/><path fill="#fff" d="M84 4C-5 8 30-112 23-190h32v120c0 31 7 50 39 49 72-2 45-101 50-169h31l1 190h-30c-1-10 1-25-2-33-11 22-28 36-60 37" id="br"/><path fill="#fff" d="M117-194c89-4 53 116 60 194h-32v-121c0-31-8-49-39-48C34-167 62-67 57 0H25l-1-190h30c1 10-1 24 2 32 11-22 29-35 61-36" id="bs"/><path fill="#fff" d="M9 0v-24l116-142H16v-24h144v24L44-24h123V0H9" id="bt"/><path fill="#fff" d="M100-194c62-1 85 37 85 99 1 63-27 99-86 99S16-35 15-95c0-66 28-99 85-99zM99-20c44 1 53-31 53-75 0-43-8-75-51-75s-53 32-53 75 10 74 51 75" id="bu"/><g id="u"><use transform="matrix(0.05432111111111112,0,0,0.05432111111111112,0,0)" xlink:href="#bq"/><use transform="matrix(0.05432111111111112,0,0,0.05432111111111112,5.432111111111112,0)" xlink:href="#br"/><use transform="matrix(0.05432111111111112,0,0,0.05432111111111112,16.296333333333337,0)" xlink:href="#bs"/><use transform="matrix(0.05432111111111112,0,0,0.05432111111111112,27.16055555555556,0)" xlink:href="#bt"/><use transform="matrix(0.05432111111111112,0,0,0.05432111111111112,36.93835555555556,0)" xlink:href="#bi"/><use transform="matrix(0.05432111111111112,0,0,0.05432111111111112,41.22972333333334,0)" xlink:href="#bu"/><use transform="matrix(0.05432111111111112,0,0,0.05432111111111112,52.093945555555564,0)" xlink:href="#bs"/><use transform="matrix(0.05432111111111112,0,0,0.05432111111111112,62.95816777777779,0)" xlink:href="#bk"/></g><path fill="#fff" d="M17-49c1-102 45-165 103-212h30C92-210 49-145 49-46 49 4 63 43 85 75H54C30 43 18 2 17-49" id="bv"/><path fill="#fff" d="M98-137C97-35 54 29-4 75h-31C23 23 67-41 67-140c0-50-15-89-37-121h31c24 32 36 73 37 124" id="bw"/><g id="v"><use transform="matrix(0.05432111111111112,0,0,0.05432111111111112,0,0)" xlink:href="#aN"/><use transform="matrix(0.05432111111111112,0,0,0.05432111111111112,6.464212222222223,0)" xlink:href="#aP"/><use transform="matrix(0.05432111111111112,0,0,0.05432111111111112,17.328434444444447,0)" xlink:href="#aT"/><use transform="matrix(0.05432111111111112,0,0,0.05432111111111112,28.19265666666667,0)" xlink:href="#aX"/><use transform="matrix(0.05432111111111112,0,0,0.05432111111111112,32.48402444444445,0)" xlink:href="#aH"/><use transform="matrix(0.05432111111111112,0,0,0.05432111111111112,43.348246666666675,0)" xlink:href="#aS"/><use transform="matrix(0.05432111111111112,0,0,0.05432111111111112,53.126046666666674,0)" xlink:href="#aP"/><use transform="matrix(0.05432111111111112,0,0,0.05432111111111112,63.9902688888889,0)" xlink:href="#bc"/><use transform="matrix(0.05432111111111112,0,0,0.05432111111111112,74.85449111111112,0)" xlink:href="#aS"/><use transform="matrix(0.05432111111111112,0,0,0.05432111111111112,84.63229111111112,0)" xlink:href="#aX"/><use transform="matrix(0.05432111111111112,0,0,0.05432111111111112,88.9236588888889,0)" xlink:href="#aH"/><use transform="matrix(0.05432111111111112,0,0,0.05432111111111112,99.78788111111112,0)" xlink:href="#aL"/><use transform="matrix(0.05432111111111112,0,0,0.05432111111111112,109.56568111111112,0)" xlink:href="#aL"/><use transform="matrix(0.05432111111111112,0,0,0.05432111111111112,119.34348111111113,0)" xlink:href="#aK"/><use transform="matrix(0.05432111111111112,0,0,0.05432111111111112,130.20770333333334,0)" xlink:href="#aH"/><use transform="matrix(0.05432111111111112,0,0,0.05432111111111112,141.07192555555557,0)" xlink:href="#aI"/><use transform="matrix(0.05432111111111112,0,0,0.05432111111111112,157.3139377777778,0)" xlink:href="#aP"/><use transform="matrix(0.05432111111111112,0,0,0.05432111111111112,168.17816000000002,0)" xlink:href="#bv"/><use transform="matrix(0.05432111111111112,0,0,0.05432111111111112,174.64237222222224,0)" xlink:href="#bw"/></g><path fill="#fff" d="M115-194c55 1 70 41 70 98S169 2 115 4C84 4 66-9 55-30l1 105H24l-1-265h31l2 30c10-21 28-34 59-34zm-8 174c40 0 45-34 45-75s-6-73-45-74c-42 0-51 32-51 76 0 43 10 73 51 73" id="bx"/><g id="w"><use transform="matrix(0.05432111111111112,0,0,0.05432111111111112,0,0)" xlink:href="#bx"/><use transform="matrix(0.05432111111111112,0,0,0.05432111111111112,10.864222222222224,0)" xlink:href="#bk"/><use transform="matrix(0.05432111111111112,0,0,0.05432111111111112,21.72844444444445,0)" xlink:href="#bn"/></g><path fill="#fff" d="M108 0H70L1-190h34L89-25l56-165h34" id="by"/><g id="x"><use transform="matrix(0.05432111111111112,0,0,0.05432111111111112,0,0)" xlink:href="#bn"/><use transform="matrix(0.05432111111111112,0,0,0.05432111111111112,6.464212222222223,0)" xlink:href="#bi"/><use transform="matrix(0.05432111111111112,0,0,0.05432111111111112,10.755580000000002,0)" xlink:href="#bh"/><use transform="matrix(0.05432111111111112,0,0,0.05432111111111112,20.53338,0)" xlink:href="#bo"/><use transform="matrix(0.05432111111111112,0,0,0.05432111111111112,30.311179999999997,0)" xlink:href="#bn"/><use transform="matrix(0.05432111111111112,0,0,0.05432111111111112,36.77539222222222,0)" xlink:href="#bi"/><use transform="matrix(0.05432111111111112,0,0,0.05432111111111112,41.06676,0)" xlink:href="#by"/><use transform="matrix(0.05432111111111112,0,0,0.05432111111111112,50.84456,0)" xlink:href="#bk"/><use transform="matrix(0.05432111111111112,0,0,0.05432111111111112,61.70878222222223,0)" xlink:href="#bn"/><use transform="matrix(0.05432111111111112,0,0,0.05432111111111112,68.17299444444444,0)" xlink:href="#bk"/></g><use transform="matrix(0.05432111111111112,0,0,0.05432111111111112,0,0)" xlink:href="#bi" id="y"/><g id="z"><use transform="matrix(0.05432111111111112,0,0,0.05432111111111112,0,0)" xlink:href="#bs"/><use transform="matrix(0.05432111111111112,0,0,0.05432111111111112,10.864222222222224,0)" xlink:href="#bu"/><use transform="matrix(0.05432111111111112,0,0,0.05432111111111112,21.72844444444445,0)" xlink:href="#bl"/><use transform="matrix(0.05432111111111112,0,0,0.05432111111111112,37.97045666666668,0)" xlink:href="#bi"/></g><path fill="#fff" d="M85-194c31 0 48 13 60 33l-1-100h32l1 261h-30c-2-10 0-23-3-31C134-8 116 4 85 4 32 4 16-35 15-94c0-66 23-100 70-100zm9 24c-40 0-46 34-46 75 0 40 6 74 45 74 42 0 51-32 51-76 0-42-9-74-50-73" id="bz"/><g id="A"><use transform="matrix(0.05432111111111112,0,0,0.05432111111111112,0,0)" xlink:href="#bz"/><use transform="matrix(0.05432111111111112,0,0,0.05432111111111112,10.864222222222224,0)" xlink:href="#bk"/><use transform="matrix(0.05432111111111112,0,0,0.05432111111111112,21.72844444444445,0)" xlink:href="#bg"/><use transform="matrix(0.05432111111111112,0,0,0.05432111111111112,26.019812222222228,0)" xlink:href="#bg"/><use transform="matrix(0.05432111111111112,0,0,0.05432111111111112,30.31118000000001,0)" xlink:href="#bk"/></g><g id="B"><use transform="matrix(0.05432111111111112,0,0,0.05432111111111112,0,0)" xlink:href="#bo"/><use transform="matrix(0.05432111111111112,0,0,0.05432111111111112,9.777800000000001,0)" xlink:href="#bg"/><use transform="matrix(0.05432111111111112,0,0,0.05432111111111112,14.06916777777778,0)" xlink:href="#bm"/><use transform="matrix(0.05432111111111112,0,0,0.05432111111111112,24.933390000000003,0)" xlink:href="#bh"/><use transform="matrix(0.05432111111111112,0,0,0.05432111111111112,34.71119,0)" xlink:href="#bh"/><use transform="matrix(0.05432111111111112,0,0,0.05432111111111112,44.48899,0)" xlink:href="#bi"/></g><g id="C"><use transform="matrix(0.05432111111111112,0,0,0.05432111111111112,0,0)" xlink:href="#bz"/><use transform="matrix(0.05432111111111112,0,0,0.05432111111111112,10.864222222222224,0)" xlink:href="#bi"/></g><g id="D"><use transform="matrix(0.05432111111111112,0,0,0.05432111111111112,0,0)" xlink:href="#bj"/><use transform="matrix(0.05432111111111112,0,0,0.05432111111111112,5.432111111111112,0)" xlink:href="#bk"/><use transform="matrix(0.05432111111111112,0,0,0.05432111111111112,16.296333333333337,0)" xlink:href="#bh"/><use transform="matrix(0.05432111111111112,0,0,0.05432111111111112,26.074133333333336,0)" xlink:href="#bj"/></g><g id="E"><use transform="matrix(0.05432111111111112,0,0,0.05432111111111112,0,0)" xlink:href="#bo"/><use transform="matrix(0.05432111111111112,0,0,0.05432111111111112,9.777800000000001,0)" xlink:href="#bp"/><use transform="matrix(0.05432111111111112,0,0,0.05432111111111112,20.642022222222224,0)" xlink:href="#bk"/><use transform="matrix(0.05432111111111112,0,0,0.05432111111111112,31.506244444444448,0)" xlink:href="#bn"/><use transform="matrix(0.05432111111111112,0,0,0.05432111111111112,37.97045666666667,0)" xlink:href="#bm"/><use transform="matrix(0.05432111111111112,0,0,0.05432111111111112,48.834678888888895,0)" xlink:href="#bs"/><use transform="matrix(0.05432111111111112,0,0,0.05432111111111112,59.69890111111112,0)" xlink:href="#bu"/></g><g id="F"><use transform="matrix(0.05432111111111112,0,0,0.05432111111111112,0,0)" xlink:href="#bk"/><use transform="matrix(0.05432111111111112,0,0,0.05432111111111112,10.864222222222224,0)" xlink:href="#bn"/><use transform="matrix(0.05432111111111112,0,0,0.05432111111111112,17.328434444444447,0)" xlink:href="#bn"/><use transform="matrix(0.05432111111111112,0,0,0.05432111111111112,23.79264666666667,0)" xlink:href="#bm"/><use transform="matrix(0.05432111111111112,0,0,0.05432111111111112,34.656868888888894,0)" xlink:href="#bj"/><use transform="matrix(0.05432111111111112,0,0,0.05432111111111112,40.08898000000001,0)" xlink:href="#bi"/></g><path fill="#333" d="M212-179c-10-28-35-45-73-45-59 0-87 40-87 99 0 60 29 101 89 101 43 0 62-24 78-52l27 14C228-24 195 4 139 4 59 4 22-46 18-125c-6-104 99-153 187-111 19 9 31 26 39 46" id="bA"/><path fill="#333" d="M185-189c-5-48-123-54-124 2 14 75 158 14 163 119 3 78-121 87-175 55-17-10-28-26-33-46l33-7c5 56 141 63 141-1 0-78-155-14-162-118-5-82 145-84 179-34 5 7 8 16 11 25" id="bB"/><path fill="#333" d="M137 0h-34L2-248h35l83 218 83-218h36" id="bC"/><g id="G"><use transform="matrix(0.04938271604938272,0,0,0.04938271604938272,0,0)" xlink:href="#bA"/><use transform="matrix(0.04938271604938272,0,0,0.04938271604938272,12.790123456790125,0)" xlink:href="#bB"/><use transform="matrix(0.04938271604938272,0,0,0.04938271604938272,24.641975308641978,0)" xlink:href="#bC"/></g><path fill="#333" d="M117-194c89-4 53 116 60 194h-32v-121c0-31-8-49-39-48C34-167 62-67 57 0H25l-1-190h30c1 10-1 24 2 32 11-22 29-35 61-36" id="bD"/><path fill="#333" d="M100-194c62-1 85 37 85 99 1 63-27 99-86 99S16-35 15-95c0-66 28-99 85-99zM99-20c44 1 53-31 53-75 0-43-8-75-51-75s-53 32-53 75 10 74 51 75" id="bE"/><path fill="#333" d="M59-47c-2 24 18 29 38 22v24C64 9 27 4 27-40v-127H5v-23h24l9-43h21v43h35v23H59v120" id="bF"/><g id="H"><use transform="matrix(0.04938271604938272,0,0,0.04938271604938272,0,0)" xlink:href="#bD"/><use transform="matrix(0.04938271604938272,0,0,0.04938271604938272,9.876543209876544,0)" xlink:href="#bE"/><use transform="matrix(0.04938271604938272,0,0,0.04938271604938272,19.75308641975309,0)" xlink:href="#bF"/></g><path fill="#333" d="M101-234c-31-9-42 10-38 44h38v23H63V0H32v-167H5v-23h27c-7-52 17-82 69-68v24" id="bG"/><path fill="#333" d="M84 4C-5 8 30-112 23-190h32v120c0 31 7 50 39 49 72-2 45-101 50-169h31l1 190h-30c-1-10 1-25-2-33-11 22-28 36-60 37" id="bH"/><path fill="#333" d="M85-194c31 0 48 13 60 33l-1-100h32l1 261h-30c-2-10 0-23-3-31C134-8 116 4 85 4 32 4 16-35 15-94c0-66 23-100 70-100zm9 24c-40 0-46 34-46 75 0 40 6 74 45 74 42 0 51-32 51-76 0-42-9-74-50-73" id="bI"/><g id="I"><use transform="matrix(0.04938271604938272,0,0,0.04938271604938272,0,0)" xlink:href="#bG"/><use transform="matrix(0.04938271604938272,0,0,0.04938271604938272,4.938271604938272,0)" xlink:href="#bE"/><use transform="matrix(0.04938271604938272,0,0,0.04938271604938272,14.814814814814817,0)" xlink:href="#bH"/><use transform="matrix(0.04938271604938272,0,0,0.04938271604938272,24.69135802469136,0)" xlink:href="#bD"/><use transform="matrix(0.04938271604938272,0,0,0.04938271604938272,34.567901234567906,0)" xlink:href="#bI"/></g><path fill="#333" d="M190 0L58-211 59 0H30v-248h39L202-35l-2-213h31V0h-41" id="bJ"/><g id="J"><use transform="matrix(0.04938271604938272,0,0,0.04938271604938272,0,0)" xlink:href="#bJ"/><use transform="matrix(0.04938271604938272,0,0,0.04938271604938272,12.790123456790125,0)" xlink:href="#bE"/><use transform="matrix(0.04938271604938272,0,0,0.04938271604938272,22.66666666666667,0)" xlink:href="#bD"/></g><path fill="#333" d="M135-143c-3-34-86-38-87 0 15 53 115 12 119 90S17 21 10-45l28-5c4 36 97 45 98 0-10-56-113-15-118-90-4-57 82-63 122-42 12 7 21 19 24 35" id="bK"/><g id="K"><use transform="matrix(0.04938271604938272,0,0,0.04938271604938272,0,0)" xlink:href="#bK"/><use transform="matrix(0.04938271604938272,0,0,0.04938271604938272,8.88888888888889,0)" xlink:href="#bE"/><use transform="matrix(0.04938271604938272,0,0,0.04938271604938272,18.765432098765434,0)" xlink:href="#bD"/><use transform="matrix(0.04938271604938272,0,0,0.04938271604938272,28.641975308641978,0)" xlink:href="#bE"/></g><path fill="#333" d="M141-36C126-15 110 5 73 4 37 3 15-17 15-53c-1-64 63-63 125-63 3-35-9-54-41-54-24 1-41 7-42 31l-33-3c5-37 33-52 76-52 45 0 72 20 72 64v82c-1 20 7 32 28 27v20c-31 9-61-2-59-35zM48-53c0 20 12 33 32 33 41-3 63-29 60-74-43 2-92-5-92 41" id="bL"/><path fill="#333" d="M100-194c63 0 86 42 84 106H49c0 40 14 67 53 68 26 1 43-12 49-29l28 8c-11 28-37 45-77 45C44 4 14-33 15-96c1-61 26-98 85-98zm52 81c6-60-76-77-97-28-3 7-6 17-6 28h103" id="bM"/><g id="L"><use transform="matrix(0.04938271604938272,0,0,0.04938271604938272,0,0)" xlink:href="#bK"/><use transform="matrix(0.04938271604938272,0,0,0.04938271604938272,8.88888888888889,0)" xlink:href="#bF"/><use transform="matrix(0.04938271604938272,0,0,0.04938271604938272,13.827160493827162,0)" xlink:href="#bL"/><use transform="matrix(0.04938271604938272,0,0,0.04938271604938272,23.703703703703706,0)" xlink:href="#bF"/><use transform="matrix(0.04938271604938272,0,0,0.04938271604938272,28.641975308641978,0)" xlink:href="#bM"/></g><path fill="#333" d="M210-169c-67 3-38 105-44 169h-31v-121c0-29-5-50-35-48C34-165 62-65 56 0H25l-1-190h30c1 10-1 24 2 32 10-44 99-50 107 0 11-21 27-35 58-36 85-2 47 119 55 194h-31v-121c0-29-5-49-35-48" id="bN"/><path fill="#333" d="M24-231v-30h32v30H24zM24 0v-190h32V0H24" id="bO"/><path fill="#333" d="M114-163C36-179 61-72 57 0H25l-1-190h30c1 12-1 29 2 39 6-27 23-49 58-41v29" id="bP"/><g id="M"><use transform="matrix(0.04938271604938272,0,0,0.04938271604938272,0,0)" xlink:href="#bN"/><use transform="matrix(0.04938271604938272,0,0,0.04938271604938272,14.765432098765434,0)" xlink:href="#bO"/><use transform="matrix(0.04938271604938272,0,0,0.04938271604938272,18.666666666666668,0)" xlink:href="#bK"/><use transform="matrix(0.04938271604938272,0,0,0.04938271604938272,27.555555555555557,0)" xlink:href="#bH"/><use transform="matrix(0.04938271604938272,0,0,0.04938271604938272,37.4320987654321,0)" xlink:href="#bP"/><use transform="matrix(0.04938271604938272,0,0,0.04938271604938272,43.308641975308646,0)" xlink:href="#bL"/><use transform="matrix(0.04938271604938272,0,0,0.04938271604938272,53.18518518518519,0)" xlink:href="#bF"/><use transform="matrix(0.04938271604938272,0,0,0.04938271604938272,58.12345679012346,0)" xlink:href="#bM"/></g><g id="N"><use transform="matrix(0.04938271604938272,0,0,0.04938271604938272,0,0)" xlink:href="#bF"/><use transform="matrix(0.04938271604938272,0,0,0.04938271604938272,4.938271604938272,0)" xlink:href="#bH"/><use transform="matrix(0.04938271604938272,0,0,0.04938271604938272,14.814814814814817,0)" xlink:href="#bF"/><use transform="matrix(0.04938271604938272,0,0,0.04938271604938272,19.75308641975309,0)" xlink:href="#bF"/><use transform="matrix(0.04938271604938272,0,0,0.04938271604938272,24.69135802469136,0)" xlink:href="#bM"/></g><path fill="#333" d="M24 0v-261h32V0H24" id="bQ"/><g id="O"><use transform="matrix(0.04938271604938272,0,0,0.04938271604938272,0,0)" xlink:href="#bQ"/><use transform="matrix(0.04938271604938272,0,0,0.04938271604938272,3.901234567901235,0)" xlink:href="#bM"/></g><path fill="#333" d="M96-169c-40 0-48 33-48 73s9 75 48 75c24 0 41-14 43-38l32 2c-6 37-31 61-74 61-59 0-76-41-82-99-10-93 101-131 147-64 4 7 5 14 7 22l-32 3c-4-21-16-35-41-35" id="bR"/><g id="P"><use transform="matrix(0.04938271604938272,0,0,0.04938271604938272,0,0)" xlink:href="#bR"/><use transform="matrix(0.04938271604938272,0,0,0.04938271604938272,8.88888888888889,0)" xlink:href="#bQ"/><use transform="matrix(0.04938271604938272,0,0,0.04938271604938272,12.790123456790125,0)" xlink:href="#bL"/><use transform="matrix(0.04938271604938272,0,0,0.04938271604938272,22.666666666666668,0)" xlink:href="#bK"/><use transform="matrix(0.04938271604938272,0,0,0.04938271604938272,31.555555555555557,0)" xlink:href="#bK"/><use transform="matrix(0.04938271604938272,0,0,0.04938271604938272,40.44444444444444,0)" xlink:href="#bO"/></g><g id="Q"><use transform="matrix(0.04938271604938272,0,0,0.04938271604938272,0,0)" xlink:href="#bI"/><use transform="matrix(0.04938271604938272,0,0,0.04938271604938272,9.876543209876544,0)" xlink:href="#bO"/></g><g id="R"><use transform="matrix(0.04938271604938272,0,0,0.04938271604938272,0,0)" xlink:href="#bF"/><use transform="matrix(0.04938271604938272,0,0,0.04938271604938272,4.938271604938272,0)" xlink:href="#bM"/><use transform="matrix(0.04938271604938272,0,0,0.04938271604938272,14.814814814814817,0)" xlink:href="#bK"/><use transform="matrix(0.04938271604938272,0,0,0.04938271604938272,23.703703703703706,0)" xlink:href="#bF"/></g><g id="S"><use transform="matrix(0.04938271604938272,0,0,0.04938271604938272,0,0)" xlink:href="#bF"/><use transform="matrix(0.04938271604938272,0,0,0.04938271604938272,4.938271604938272,0)" xlink:href="#bH"/><use transform="matrix(0.04938271604938272,0,0,0.04938271604938272,14.814814814814817,0)" xlink:href="#bF"/><use transform="matrix(0.04938271604938272,0,0,0.04938271604938272,19.75308641975309,0)" xlink:href="#bF"/><use transform="matrix(0.04938271604938272,0,0,0.04938271604938272,24.69135802469136,0)" xlink:href="#bM"/></g><g id="T"><use transform="matrix(0.04938271604938272,0,0,0.04938271604938272,0,0)" xlink:href="#bR"/><use transform="matrix(0.04938271604938272,0,0,0.04938271604938272,8.88888888888889,0)" xlink:href="#bQ"/><use transform="matrix(0.04938271604938272,0,0,0.04938271604938272,12.790123456790125,0)" xlink:href="#bL"/><use transform="matrix(0.04938271604938272,0,0,0.04938271604938272,22.666666666666668,0)" xlink:href="#bK"/><use transform="matrix(0.04938271604938272,0,0,0.04938271604938272,31.555555555555557,0)" xlink:href="#bO"/></g><g id="U"><use transform="matrix(0.04938271604938272,0,0,0.04938271604938272,0,0)" xlink:href="#bF"/><use transform="matrix(0.04938271604938272,0,0,0.04938271604938272,4.938271604938272,0)" xlink:href="#bM"/><use transform="matrix(0.04938271604938272,0,0,0.04938271604938272,14.814814814814817,0)" xlink:href="#bK"/><use transform="matrix(0.04938271604938272,0,0,0.04938271604938272,23.703703703703706,0)" xlink:href="#bF"/></g><g id="V"><use transform="matrix(0.04938271604938272,0,0,0.04938271604938272,0,0)" xlink:href="#bK"/><use transform="matrix(0.04938271604938272,0,0,0.04938271604938272,8.88888888888889,0)" xlink:href="#bE"/><use transform="matrix(0.04938271604938272,0,0,0.04938271604938272,18.765432098765434,0)" xlink:href="#bD"/><use transform="matrix(0.04938271604938272,0,0,0.04938271604938272,28.641975308641978,0)" xlink:href="#bE"/></g><g id="W"><use transform="matrix(0.04938271604938272,0,0,0.04938271604938272,0,0)" xlink:href="#bN"/><use transform="matrix(0.04938271604938272,0,0,0.04938271604938272,14.765432098765434,0)" xlink:href="#bO"/><use transform="matrix(0.04938271604938272,0,0,0.04938271604938272,18.666666666666668,0)" xlink:href="#bK"/><use transform="matrix(0.04938271604938272,0,0,0.04938271604938272,27.555555555555557,0)" xlink:href="#bH"/><use transform="matrix(0.04938271604938272,0,0,0.04938271604938272,37.4320987654321,0)" xlink:href="#bP"/><use transform="matrix(0.04938271604938272,0,0,0.04938271604938272,43.308641975308646,0)" xlink:href="#bL"/><use transform="matrix(0.04938271604938272,0,0,0.04938271604938272,53.18518518518519,0)" xlink:href="#bF"/><use transform="matrix(0.04938271604938272,0,0,0.04938271604938272,58.12345679012346,0)" xlink:href="#bM"/></g><path fill="#333" d="M108 0H70L1-190h34L89-25l56-165h34" id="bS"/><path fill="#333" d="M118-107v75H92v-75H18v-26h74v-75h26v75h74v26h-74" id="bT"/><g id="X"><use transform="matrix(0.04938271604938272,0,0,0.04938271604938272,0,0)" xlink:href="#bQ"/><use transform="matrix(0.04938271604938272,0,0,0.04938271604938272,3.901234567901235,0)" xlink:href="#bO"/><use transform="matrix(0.04938271604938272,0,0,0.04938271604938272,7.80246913580247,0)" xlink:href="#bS"/><use transform="matrix(0.04938271604938272,0,0,0.04938271604938272,16.69135802469136,0)" xlink:href="#bM"/><use transform="matrix(0.04938271604938272,0,0,0.04938271604938272,26.567901234567902,0)" xlink:href="#bQ"/><use transform="matrix(0.04938271604938272,0,0,0.04938271604938272,30.46913580246914,0)" xlink:href="#bQ"/><use transform="matrix(0.04938271604938272,0,0,0.04938271604938272,34.370370370370374,0)" xlink:href="#bE"/><use transform="matrix(0.04938271604938272,0,0,0.04938271604938272,44.24691358024692,0)" xlink:href="#bT"/><use transform="matrix(0.04938271604938272,0,0,0.04938271604938272,54.61728395061729,0)" xlink:href="#bT"/></g><g id="Y"><use transform="matrix(0.04938271604938272,0,0,0.04938271604938272,0,0)" xlink:href="#bQ"/><use transform="matrix(0.04938271604938272,0,0,0.04938271604938272,3.901234567901235,0)" xlink:href="#bO"/><use transform="matrix(0.04938271604938272,0,0,0.04938271604938272,7.80246913580247,0)" xlink:href="#bS"/><use transform="matrix(0.04938271604938272,0,0,0.04938271604938272,16.69135802469136,0)" xlink:href="#bM"/><use transform="matrix(0.04938271604938272,0,0,0.04938271604938272,26.567901234567902,0)" xlink:href="#bQ"/><use transform="matrix(0.04938271604938272,0,0,0.04938271604938272,30.46913580246914,0)" xlink:href="#bQ"/><use transform="matrix(0.04938271604938272,0,0,0.04938271604938272,34.370370370370374,0)" xlink:href="#bE"/></g><path fill="#333" d="M18-100v-36l175-74v27L42-118l151 64v27" id="bU"/><path fill="#333" d="M18-150v-26h174v26H18zm0 90v-26h174v26H18" id="bV"/><g id="Z"><use transform="matrix(0.04938271604938272,0,0,0.04938271604938272,0,0)" xlink:href="#bU"/><use transform="matrix(0.04938271604938272,0,0,0.04938271604938272,10.370370370370372,0)" xlink:href="#bV"/></g><use transform="matrix(0.04938271604938272,0,0,0.04938271604938272,0,0)" xlink:href="#bJ" id="aa"/><path fill="#333" d="M18-27v-27l151-64-151-65v-27l175 74v36" id="bW"/><use transform="matrix(0.04938271604938272,0,0,0.04938271604938272,0,0)" xlink:href="#bW" id="ab"/><g id="ac"><use transform="matrix(0.05432111111111112,0,0,0.05432111111111112,0,0)" xlink:href="#bg"/><use transform="matrix(0.05432111111111112,0,0,0.05432111111111112,4.291367777777778,0)" xlink:href="#bm"/></g><g id="ad"><use transform="matrix(0.05185185185185186,0,0,0.05185185185185186,0,0)" xlink:href="#aN"/><use transform="matrix(0.05185185185185186,0,0,0.05185185185185186,6.170370370370371,0)" xlink:href="#aP"/><use transform="matrix(0.05185185185185186,0,0,0.05185185185185186,16.540740740740745,0)" xlink:href="#aT"/><use transform="matrix(0.05185185185185186,0,0,0.05185185185185186,26.91111111111112,0)" xlink:href="#aX"/><use transform="matrix(0.05185185185185186,0,0,0.05185185185185186,31.00740740740741,0)" xlink:href="#aH"/><use transform="matrix(0.05185185185185186,0,0,0.05185185185185186,41.37777777777779,0)" xlink:href="#aS"/><use transform="matrix(0.05185185185185186,0,0,0.05185185185185186,50.71111111111112,0)" xlink:href="#aP"/><use transform="matrix(0.05185185185185186,0,0,0.05185185185185186,61.0814814814815,0)" xlink:href="#bc"/><use transform="matrix(0.05185185185185186,0,0,0.05185185185185186,71.45185185185187,0)" xlink:href="#aM"/><use transform="matrix(0.05185185185185186,0,0,0.05185185185185186,76.63703703703706,0)" xlink:href="#aP"/><use transform="matrix(0.05185185185185186,0,0,0.05185185185185186,87.00740740740743,0)" xlink:href="#aL"/><use transform="matrix(0.05185185185185186,0,0,0.05185185185185186,96.34074074074076,0)" xlink:href="#aM"/><use transform="matrix(0.05185185185185186,0,0,0.05185185185185186,101.52592592592595,0)" xlink:href="#bc"/><use transform="matrix(0.05185185185185186,0,0,0.05185185185185186,111.89629629629631,0)" xlink:href="#aK"/><use transform="matrix(0.05185185185185186,0,0,0.05185185185185186,122.26666666666668,0)" xlink:href="#aH"/><use transform="matrix(0.05185185185185186,0,0,0.05185185185185186,132.63703703703706,0)" xlink:href="#aI"/><use transform="matrix(0.05185185185185186,0,0,0.05185185185185186,148.14074074074077,0)" xlink:href="#aP"/><use transform="matrix(0.05185185185185186,0,0,0.05185185185185186,158.51111111111115,0)" xlink:href="#aL"/><use transform="matrix(0.05185185185185186,0,0,0.05185185185185186,167.8444444444445,0)" xlink:href="#bc"/><use transform="matrix(0.05185185185185186,0,0,0.05185185185185186,178.21481481481487,0)" xlink:href="#aJ"/><use transform="matrix(0.05185185185185186,0,0,0.05185185185185186,182.31111111111116,0)" xlink:href="#aK"/><use transform="matrix(0.05185185185185186,0,0,0.05185185185185186,192.68148148148154,0)" xlink:href="#bc"/><use transform="matrix(0.05185185185185186,0,0,0.05185185185185186,203.05185185185192,0)" xlink:href="#aM"/><use transform="matrix(0.05185185185185186,0,0,0.05185185185185186,208.2370370370371,0)" xlink:href="#aP"/><use transform="matrix(0.05185185185185186,0,0,0.05185185185185186,218.60740740740746,0)" xlink:href="#aL"/><use transform="matrix(0.05185185185185186,0,0,0.05185185185185186,227.94074074074086,0)" xlink:href="#aM"/><use transform="matrix(0.05185185185185186,0,0,0.05185185185185186,233.12592592592605,0)" xlink:href="#aL"/><use transform="matrix(0.05185185185185186,0,0,0.05185185185185186,242.45925925925937,0)" xlink:href="#aR"/><use transform="matrix(0.05185185185185186,0,0,0.05185185185185186,252.82962962962975,0)" xlink:href="#aJ"/><use transform="matrix(0.05185185185185186,0,0,0.05185185185185186,256.92592592592604,0)" xlink:href="#aM"/><use transform="matrix(0.05185185185185186,0,0,0.05185185185185186,262.1111111111112,0)" xlink:href="#aP"/><use transform="matrix(0.05185185185185186,0,0,0.05185185185185186,272.4814814814816,0)" xlink:href="#aL"/><use transform="matrix(0.05432111111111112,0,0,0.05432111111111112,281.8148148148149,0)" xlink:href="#bv"/><use transform="matrix(0.05432111111111112,0,0,0.05432111111111112,288.2790270370371,0)" xlink:href="#bw"/></g><g id="ae"><use transform="matrix(0.05432111111111112,0,0,0.05432111111111112,0,0)" xlink:href="#bx"/><use transform="matrix(0.05432111111111112,0,0,0.05432111111111112,10.864222222222224,0)" xlink:href="#bk"/><use transform="matrix(0.05432111111111112,0,0,0.05432111111111112,21.72844444444445,0)" xlink:href="#bn"/></g><g id="af"><use transform="matrix(0.05432111111111112,0,0,0.05432111111111112,0,0)" xlink:href="#bz"/><use transform="matrix(0.05432111111111112,0,0,0.05432111111111112,10.864222222222224,0)" xlink:href="#bk"/><use transform="matrix(0.05432111111111112,0,0,0.05432111111111112,21.72844444444445,0)" xlink:href="#bi"/></g><g id="ag"><use transform="matrix(0.05432111111111112,0,0,0.05432111111111112,0,0)" xlink:href="#bj"/><use transform="matrix(0.05432111111111112,0,0,0.05432111111111112,5.432111111111112,0)" xlink:href="#bk"/><use transform="matrix(0.05432111111111112,0,0,0.05432111111111112,16.296333333333337,0)" xlink:href="#bh"/><use transform="matrix(0.05432111111111112,0,0,0.05432111111111112,26.074133333333336,0)" xlink:href="#bj"/></g><g id="ah"><use transform="matrix(0.05432111111111112,0,0,0.05432111111111112,0,0)" xlink:href="#bs"/><use transform="matrix(0.05432111111111112,0,0,0.05432111111111112,10.864222222222224,0)" xlink:href="#bk"/><use transform="matrix(0.05432111111111112,0,0,0.05432111111111112,21.72844444444445,0)" xlink:href="#bg"/><use transform="matrix(0.05432111111111112,0,0,0.05432111111111112,26.019812222222228,0)" xlink:href="#bg"/><use transform="matrix(0.05432111111111112,0,0,0.05432111111111112,30.31118000000001,0)" xlink:href="#bm"/></g><g id="ai"><use transform="matrix(0.05432111111111112,0,0,0.05432111111111112,0,0)" xlink:href="#bj"/><use transform="matrix(0.05432111111111112,0,0,0.05432111111111112,5.432111111111112,0)" xlink:href="#bk"/><use transform="matrix(0.05432111111111112,0,0,0.05432111111111112,16.296333333333337,0)" xlink:href="#bh"/><use transform="matrix(0.05432111111111112,0,0,0.05432111111111112,26.074133333333336,0)" xlink:href="#bj"/><use transform="matrix(0.05432111111111112,0,0,0.05432111111111112,31.506244444444448,0)" xlink:href="#bh"/><use transform="matrix(0.05432111111111112,0,0,0.05432111111111112,41.28404444444445,0)" xlink:href="#br"/><use transform="matrix(0.05432111111111112,0,0,0.05432111111111112,52.14826666666667,0)" xlink:href="#bi"/><use transform="matrix(0.05432111111111112,0,0,0.05432111111111112,56.43963444444445,0)" xlink:href="#bj"/><use transform="matrix(0.05432111111111112,0,0,0.05432111111111112,61.87174555555556,0)" xlink:href="#bk"/></g><path fill="#fff" d="M177-190C167-65 218 103 67 71c-23-6-38-20-44-43l32-5c15 47 100 32 89-28v-30C133-14 115 1 83 1 29 1 15-40 15-95c0-56 16-97 71-98 29-1 48 16 59 35 1-10 0-23 2-32h30zM94-22c36 0 50-32 50-73 0-42-14-75-50-75-39 0-46 34-46 75s6 73 46 73" id="bX"/><g id="aj"><use transform="matrix(0.05432111111111112,0,0,0.05432111111111112,0,0)" xlink:href="#bk"/><use transform="matrix(0.05432111111111112,0,0,0.05432111111111112,10.864222222222224,0)" xlink:href="#bh"/><use transform="matrix(0.05432111111111112,0,0,0.05432111111111112,20.642022222222224,0)" xlink:href="#bk"/><use transform="matrix(0.05432111111111112,0,0,0.05432111111111112,31.506244444444448,0)" xlink:href="#bX"/><use transform="matrix(0.05432111111111112,0,0,0.05432111111111112,42.37046666666667,0)" xlink:href="#br"/><use transform="matrix(0.05432111111111112,0,0,0.05432111111111112,53.2346888888889,0)" xlink:href="#bk"/></g><g id="ak"><use transform="matrix(0.05432111111111112,0,0,0.05432111111111112,0,0)" xlink:href="#aS"/><use transform="matrix(0.05432111111111112,0,0,0.05432111111111112,9.777800000000001,0)" xlink:href="#aO"/><use transform="matrix(0.05432111111111112,0,0,0.05432111111111112,20.642022222222224,0)" xlink:href="#aI"/><use transform="matrix(0.05432111111111112,0,0,0.05432111111111112,36.88403444444445,0)" xlink:href="#aT"/><use transform="matrix(0.05432111111111112,0,0,0.05432111111111112,47.74825666666668,0)" xlink:href="#aJ"/><use transform="matrix(0.05432111111111112,0,0,0.05432111111111112,52.039624444444456,0)" xlink:href="#aX"/><use transform="matrix(0.05432111111111112,0,0,0.05432111111111112,56.33099222222223,0)" xlink:href="#aP"/><use transform="matrix(0.05432111111111112,0,0,0.05432111111111112,67.19521444444446,0)" xlink:href="#bc"/><use transform="matrix(0.05432111111111112,0,0,0.05432111111111112,78.05943666666668,0)" xlink:href="#aH"/><use transform="matrix(0.05432111111111112,0,0,0.05432111111111112,88.92365888888891,0)" xlink:href="#aK"/><use transform="matrix(0.05432111111111112,0,0,0.05432111111111112,99.78788111111113,0)" xlink:href="#aY"/><use transform="matrix(0.05432111111111112,0,0,0.05432111111111112,110.65210333333336,0)" xlink:href="#bc"/><use transform="matrix(0.05432111111111112,0,0,0.05432111111111112,121.51632555555557,0)" xlink:href="#aI"/><use transform="matrix(0.05432111111111112,0,0,0.05432111111111112,137.7583377777778,0)" xlink:href="#aP"/><use transform="matrix(0.05432111111111112,0,0,0.05432111111111112,148.62256000000002,0)" xlink:href="#aH"/><use transform="matrix(0.05432111111111112,0,0,0.05432111111111112,159.48678222222225,0)" xlink:href="#aL"/><use transform="matrix(0.05432111111111112,0,0,0.05432111111111112,169.26458222222226,0)" xlink:href="#aR"/><use transform="matrix(0.05432111111111112,0,0,0.05432111111111112,180.12880444444448,0)" xlink:href="#aN"/><use transform="matrix(0.05432111111111112,0,0,0.05432111111111112,186.5930166666667,0)" xlink:href="#aP"/><use transform="matrix(0.05432111111111112,0,0,0.05432111111111112,197.45723888888892,0)" xlink:href="#bv"/><use transform="matrix(0.05432111111111112,0,0,0.05432111111111112,203.92145111111114,0)" xlink:href="#bw"/></g><g id="al"><use transform="matrix(0.05432111111111112,0,0,0.05432111111111112,0,0)" xlink:href="#bo"/><use transform="matrix(0.05432111111111112,0,0,0.05432111111111112,9.777800000000001,0)" xlink:href="#bu"/><use transform="matrix(0.05432111111111112,0,0,0.05432111111111112,20.642022222222224,0)" xlink:href="#bl"/><use transform="matrix(0.05432111111111112,0,0,0.05432111111111112,36.88403444444445,0)" xlink:href="#bx"/><use transform="matrix(0.05432111111111112,0,0,0.05432111111111112,47.74825666666668,0)" xlink:href="#bi"/><use transform="matrix(0.05432111111111112,0,0,0.05432111111111112,52.039624444444456,0)" xlink:href="#bg"/><use transform="matrix(0.05432111111111112,0,0,0.05432111111111112,56.33099222222223,0)" xlink:href="#bm"/><use transform="matrix(0.05432111111111112,0,0,0.05432111111111112,67.19521444444446,0)" xlink:href="#bn"/><use transform="matrix(0.05432111111111112,0,0,0.05432111111111112,73.65942666666669,0)" xlink:href="#bk"/></g><use transform="matrix(0.05432111111111112,0,0,0.05432111111111112,0,0)" xlink:href="#bk" id="am"/><g id="an"><use transform="matrix(0.05432111111111112,0,0,0.05432111111111112,0,0)" xlink:href="#bo"/><use transform="matrix(0.05432111111111112,0,0,0.05432111111111112,9.777800000000001,0)" xlink:href="#bm"/><use transform="matrix(0.05432111111111112,0,0,0.05432111111111112,20.642022222222224,0)" xlink:href="#bg"/><use transform="matrix(0.05432111111111112,0,0,0.05432111111111112,24.933390000000003,0)" xlink:href="#bo"/><use transform="matrix(0.05432111111111112,0,0,0.05432111111111112,34.71119,0)" xlink:href="#bu"/><use transform="matrix(0.05432111111111112,0,0,0.05432111111111112,45.575412222222226,0)" xlink:href="#bg"/><use transform="matrix(0.05432111111111112,0,0,0.05432111111111112,49.866780000000006,0)" xlink:href="#bm"/><use transform="matrix(0.05432111111111112,0,0,0.05432111111111112,60.73100222222223,0)" xlink:href="#bn"/><use transform="matrix(0.05432111111111112,0,0,0.05432111111111112,67.19521444444445,0)" xlink:href="#bs"/><use transform="matrix(0.05432111111111112,0,0,0.05432111111111112,78.05943666666667,0)" xlink:href="#bk"/></g><g id="ao"><use transform="matrix(0.05432111111111112,0,0,0.05432111111111112,0,0)" xlink:href="#bo"/><use transform="matrix(0.05432111111111112,0,0,0.05432111111111112,9.777800000000001,0)" xlink:href="#bu"/><use transform="matrix(0.05432111111111112,0,0,0.05432111111111112,20.642022222222224,0)" xlink:href="#by"/><use transform="matrix(0.05432111111111112,0,0,0.05432111111111112,30.41982222222222,0)" xlink:href="#bk"/><use transform="matrix(0.05432111111111112,0,0,0.05432111111111112,41.28404444444445,0)" xlink:href="#bn"/><use transform="matrix(0.05432111111111112,0,0,0.05432111111111112,47.74825666666667,0)" xlink:href="#bm"/><use transform="matrix(0.05432111111111112,0,0,0.05432111111111112,58.612478888888894,0)" xlink:href="#bX"/><use transform="matrix(0.05432111111111112,0,0,0.05432111111111112,69.47670111111111,0)" xlink:href="#bk"/></g><use transform="matrix(0.05432111111111112,0,0,0.05432111111111112,0,0)" xlink:href="#bf" id="ap"/><g id="aq"><use transform="matrix(0.05432111111111112,0,0,0.05432111111111112,0,0)" xlink:href="#bq"/><use transform="matrix(0.05432111111111112,0,0,0.05432111111111112,5.432111111111112,0)" xlink:href="#bi"/><use transform="matrix(0.05432111111111112,0,0,0.05432111111111112,9.723478888888891,0)" xlink:href="#bg"/><use transform="matrix(0.05432111111111112,0,0,0.05432111111111112,14.014846666666672,0)" xlink:href="#bk"/></g><path fill="#fff" d="M212-179c-10-28-35-45-73-45-59 0-87 40-87 99 0 60 29 101 89 101 43 0 62-24 78-52l27 14C228-24 195 4 139 4 59 4 22-46 18-125c-6-104 99-153 187-111 19 9 31 26 39 46" id="bY"/><path fill="#fff" d="M185-189c-5-48-123-54-124 2 14 75 158 14 163 119 3 78-121 87-175 55-17-10-28-26-33-46l33-7c5 56 141 63 141-1 0-78-155-14-162-118-5-82 145-84 179-34 5 7 8 16 11 25" id="bZ"/><path fill="#fff" d="M137 0h-34L2-248h35l83 218 83-218h36" id="ca"/><g id="ar"><use transform="matrix(0.05432111111111112,0,0,0.05432111111111112,0,0)" xlink:href="#bY"/><use transform="matrix(0.05432111111111112,0,0,0.05432111111111112,14.06916777777778,0)" xlink:href="#bZ"/><use transform="matrix(0.05432111111111112,0,0,0.05432111111111112,27.106234444444446,0)" xlink:href="#ca"/></g><g id="as"><use transform="matrix(0.05432111111111112,0,0,0.05432111111111112,0,0)" xlink:href="#bo"/><use transform="matrix(0.05432111111111112,0,0,0.05432111111111112,9.777800000000001,0)" xlink:href="#bu"/><use transform="matrix(0.05432111111111112,0,0,0.05432111111111112,20.642022222222224,0)" xlink:href="#bs"/><use transform="matrix(0.05432111111111112,0,0,0.05432111111111112,31.506244444444448,0)" xlink:href="#bj"/><use transform="matrix(0.05432111111111112,0,0,0.05432111111111112,36.93835555555556,0)" xlink:href="#bk"/><use transform="matrix(0.05432111111111112,0,0,0.05432111111111112,47.802577777777785,0)" xlink:href="#bs"/><use transform="matrix(0.05432111111111112,0,0,0.05432111111111112,58.66680000000001,0)" xlink:href="#bk"/><use transform="matrix(0.05432111111111112,0,0,0.05432111111111112,69.53102222222223,0)" xlink:href="#bs"/><use transform="matrix(0.05432111111111112,0,0,0.05432111111111112,80.39524444444446,0)" xlink:href="#bj"/><use transform="matrix(0.05432111111111112,0,0,0.05432111111111112,85.82735555555557,0)" xlink:href="#bi"/></g><use transform="matrix(0.05432111111111112,0,0,0.05432111111111112,0,0)" xlink:href="#bi" id="at"/><g id="au"><use transform="matrix(0.05432111111111112,0,0,0.05432111111111112,0,0)" xlink:href="#bn"/><use transform="matrix(0.05432111111111112,0,0,0.05432111111111112,6.464212222222223,0)" xlink:href="#bi"/><use transform="matrix(0.05432111111111112,0,0,0.05432111111111112,10.755580000000002,0)" xlink:href="#bh"/><use transform="matrix(0.05432111111111112,0,0,0.05432111111111112,20.53338,0)" xlink:href="#br"/><use transform="matrix(0.05432111111111112,0,0,0.05432111111111112,31.397602222222226,0)" xlink:href="#bg"/><use transform="matrix(0.05432111111111112,0,0,0.05432111111111112,35.688970000000005,0)" xlink:href="#bj"/><use transform="matrix(0.05432111111111112,0,0,0.05432111111111112,41.12108111111112,0)" xlink:href="#bm"/><use transform="matrix(0.05432111111111112,0,0,0.05432111111111112,51.98530333333334,0)" xlink:href="#bj"/><use transform="matrix(0.05432111111111112,0,0,0.05432111111111112,57.417414444444454,0)" xlink:href="#bi"/></g><g id="av"><use transform="matrix(0.05432111111111112,0,0,0.05432111111111112,0,0)" xlink:href="#bo"/><use transform="matrix(0.05432111111111112,0,0,0.05432111111111112,9.777800000000001,0)" xlink:href="#bu"/><use transform="matrix(0.05432111111111112,0,0,0.05432111111111112,20.642022222222224,0)" xlink:href="#by"/><use transform="matrix(0.05432111111111112,0,0,0.05432111111111112,30.41982222222222,0)" xlink:href="#bk"/><use transform="matrix(0.05432111111111112,0,0,0.05432111111111112,41.28404444444445,0)" xlink:href="#bn"/><use transform="matrix(0.05432111111111112,0,0,0.05432111111111112,47.74825666666667,0)" xlink:href="#bm"/><use transform="matrix(0.05432111111111112,0,0,0.05432111111111112,58.612478888888894,0)" xlink:href="#bX"/><use transform="matrix(0.05432111111111112,0,0,0.05432111111111112,69.47670111111111,0)" xlink:href="#bk"/></g><g id="aw"><use transform="matrix(0.05432111111111112,0,0,0.05432111111111112,0,0)" xlink:href="#bh"/><use transform="matrix(0.05432111111111112,0,0,0.05432111111111112,9.777800000000001,0)" xlink:href="#bu"/><use transform="matrix(0.05432111111111112,0,0,0.05432111111111112,20.642022222222224,0)" xlink:href="#bs"/><use transform="matrix(0.05432111111111112,0,0,0.05432111111111112,31.506244444444448,0)" xlink:href="#bu"/></g><g id="ax"><use transform="matrix(0.05432111111111112,0,0,0.05432111111111112,0,0)" xlink:href="#bh"/><use transform="matrix(0.05432111111111112,0,0,0.05432111111111112,9.777800000000001,0)" xlink:href="#bm"/><use transform="matrix(0.05432111111111112,0,0,0.05432111111111112,20.642022222222224,0)" xlink:href="#bg"/><use transform="matrix(0.05432111111111112,0,0,0.05432111111111112,24.933390000000003,0)" xlink:href="#by"/><use transform="matrix(0.05432111111111112,0,0,0.05432111111111112,34.71119,0)" xlink:href="#bm"/><use transform="matrix(0.05432111111111112,0,0,0.05432111111111112,45.575412222222226,0)" xlink:href="#bj"/><use transform="matrix(0.05432111111111112,0,0,0.05432111111111112,51.00752333333334,0)" xlink:href="#bi"/></g><g id="ay"><use transform="matrix(0.05432111111111112,0,0,0.05432111111111112,0,0)" xlink:href="#bs"/><use transform="matrix(0.05432111111111112,0,0,0.05432111111111112,10.864222222222224,0)" xlink:href="#bk"/><use transform="matrix(0.05432111111111112,0,0,0.05432111111111112,21.72844444444445,0)" xlink:href="#bg"/></g><path fill="#fff" d="M179-190L93 31C79 59 56 82 12 73V49c39 6 53-20 64-50L1-190h34L92-34l54-156h33" id="cb"/><g id="az"><use transform="matrix(0.05432111111111112,0,0,0.05432111111111112,0,0)" xlink:href="#bn"/><use transform="matrix(0.05432111111111112,0,0,0.05432111111111112,6.464212222222223,0)" xlink:href="#bk"/><use transform="matrix(0.05432111111111112,0,0,0.05432111111111112,17.328434444444447,0)" xlink:href="#bx"/><use transform="matrix(0.05432111111111112,0,0,0.05432111111111112,28.19265666666667,0)" xlink:href="#bu"/><use transform="matrix(0.05432111111111112,0,0,0.05432111111111112,39.056878888888896,0)" xlink:href="#bh"/><use transform="matrix(0.05432111111111112,0,0,0.05432111111111112,48.834678888888895,0)" xlink:href="#bi"/><use transform="matrix(0.05432111111111112,0,0,0.05432111111111112,53.126046666666674,0)" xlink:href="#bj"/><use transform="matrix(0.05432111111111112,0,0,0.05432111111111112,58.55815777777779,0)" xlink:href="#bu"/><use transform="matrix(0.05432111111111112,0,0,0.05432111111111112,69.42238,0)" xlink:href="#bn"/><use transform="matrix(0.05432111111111112,0,0,0.05432111111111112,75.88659222222222,0)" xlink:href="#cb"/></g><g id="aA"><use transform="matrix(0.05432111111111112,0,0,0.05432111111111112,0,0)" xlink:href="#bo"/><use transform="matrix(0.05432111111111112,0,0,0.05432111111111112,9.777800000000001,0)" xlink:href="#bu"/><use transform="matrix(0.05432111111111112,0,0,0.05432111111111112,20.642022222222224,0)" xlink:href="#bs"/><use transform="matrix(0.05432111111111112,0,0,0.05432111111111112,31.506244444444448,0)" xlink:href="#bz"/><use transform="matrix(0.05432111111111112,0,0,0.05432111111111112,42.37046666666667,0)" xlink:href="#bi"/><use transform="matrix(0.05432111111111112,0,0,0.05432111111111112,46.66183444444445,0)" xlink:href="#by"/><use transform="matrix(0.05432111111111112,0,0,0.05432111111111112,56.43963444444445,0)" xlink:href="#bi"/><use transform="matrix(0.05432111111111112,0,0,0.05432111111111112,60.73100222222223,0)" xlink:href="#bh"/><use transform="matrix(0.05432111111111112,0,0,0.05432111111111112,70.50880222222223,0)" xlink:href="#bu"/></g><path fill="#fff" d="M30-248c87 1 191-15 191 75 0 78-77 80-158 76V0H30v-248zm33 125c57 0 124 11 124-50 0-59-68-47-124-48v98" id="cc"/><g id="aB"><use transform="matrix(0.05432111111111112,0,0,0.05432111111111112,0,0)" xlink:href="#cc"/><use transform="matrix(0.05432111111111112,0,0,0.05432111111111112,13.037066666666668,0)" xlink:href="#bm"/><use transform="matrix(0.05432111111111112,0,0,0.05432111111111112,23.901288888888892,0)" xlink:href="#bh"/><use transform="matrix(0.05432111111111112,0,0,0.05432111111111112,33.67908888888889,0)" xlink:href="#bh"/><use transform="matrix(0.05432111111111112,0,0,0.05432111111111112,43.45688888888889,0)" xlink:href="#bu"/></g><g id="aC"><use transform="matrix(0.05432111111111112,0,0,0.05432111111111112,0,0)" xlink:href="#bm"/><use transform="matrix(0.05432111111111112,0,0,0.05432111111111112,10.864222222222224,0)" xlink:href="#bg"/><use transform="matrix(0.05432111111111112,0,0,0.05432111111111112,15.155590000000005,0)" xlink:href="#bg"/><use transform="matrix(0.05432111111111112,0,0,0.05432111111111112,19.446957777777783,0)" xlink:href="#bm"/></g><g id="aD"><use transform="matrix(0.05432111111111112,0,0,0.05432111111111112,0,0)" xlink:href="#bx"/><use transform="matrix(0.05432111111111112,0,0,0.05432111111111112,10.864222222222224,0)" xlink:href="#bn"/><use transform="matrix(0.05432111111111112,0,0,0.05432111111111112,17.328434444444447,0)" xlink:href="#bu"/><use transform="matrix(0.05432111111111112,0,0,0.05432111111111112,28.19265666666667,0)" xlink:href="#bh"/><use transform="matrix(0.05432111111111112,0,0,0.05432111111111112,37.97045666666667,0)" xlink:href="#bh"/><use transform="matrix(0.05432111111111112,0,0,0.05432111111111112,47.74825666666667,0)" xlink:href="#bi"/><use transform="matrix(0.05432111111111112,0,0,0.05432111111111112,52.03962444444445,0)" xlink:href="#bl"/><use transform="matrix(0.05432111111111112,0,0,0.05432111111111112,68.28163666666667,0)" xlink:href="#bm"/></g><g id="aE"><use transform="matrix(0.05432111111111112,0,0,0.05432111111111112,0,0)" xlink:href="#bo"/><use transform="matrix(0.05432111111111112,0,0,0.05432111111111112,9.777800000000001,0)" xlink:href="#bg"/><use transform="matrix(0.05432111111111112,0,0,0.05432111111111112,14.06916777777778,0)" xlink:href="#bm"/><use transform="matrix(0.05432111111111112,0,0,0.05432111111111112,24.933390000000003,0)" xlink:href="#bh"/><use transform="matrix(0.05432111111111112,0,0,0.05432111111111112,34.71119,0)" xlink:href="#bh"/><use transform="matrix(0.05432111111111112,0,0,0.05432111111111112,44.48899,0)" xlink:href="#bk"/></g></defs></g></svg>