<svg xmlns="http://www.w3.org/2000/svg" xmlns:xlink="http://www.w3.org/1999/xlink" xmlns:lucid="lucid" width="1278" height="1020"><g transform="translate(5512 1637)" lucid:page-tab-id="0_0"><path d="M-5166.86-1462.5l.43.04.4.1.4.16.36.22.32.28.28.32.22.36.16.4.1.4.05.43v9.98m0 9.97v19.93m0 9.97v19.94m0 9.96v19.93m0 9.96v19.94m0 9.97v19.93m0 9.97v19.94m0 9.98v19.94m0 9.96v19.94m0 9.97v19.93m0 9.97v19.93m0 9.97v19.94m0 9.97v19.94m0 9.97v19.95m0 9.97v19.93m0 9.97v19.94m0 9.97v19.93m0 9.97v19.94m0 9.97v19.94m0 9.97v19.93m0 9.97v19.94m0 9.96v19.93m0 9.96v19.94m0 9.97V-762m0 9.97v19.94m0 9.98v19.93m0 9.98v9.97M-5166.84-1462.5h-3.52M-5164.15-682.26v.5" stroke="#333" fill="none"/><path d="M-5183.7-1334.92a8 8 0 0 1 8-8h24a8 8 0 0 1 8 8v397.14a8 8 0 0 1-8 8h-24a8 8 0 0 1-8-8z" stroke="#f2f2f2" fill="#6db1ff"/><path d="M-4776.28-1435.3v9.8m0 9.82v19.63m0 9.8v19.64m0 9.8v19.63m0 9.8v19.64m0 9.8v19.64m0 9.82v19.63m0 9.8v19.63m0 9.82v19.62m0 9.82v19.62m0 9.82v19.62m0 9.8v19.64m0 9.8v19.64m0 9.8v19.65m0 9.8v19.64m0 9.8v19.64m0 9.8v19.64m0 9.8v19.63m0 9.82v19.6m0 9.83v19.62m0 9.82v19.62m0 9.8v19.63m0 9.8v19.64m0 9.8v19.64m0 9.82v19.63m0 9.8v19.64m0 9.8v9.8" stroke="#333" fill="none"/><path d="M-4775.78-1435.3h-1v-.5h1z" stroke="#333" stroke-width=".05" fill="#333"/><path d="M-4776.28-669.9v.5" stroke="#333" fill="none"/><path d="M-4796.28-1162.73a8 8 0 0 1 8-8h24a8 8 0 0 1 8 8v225.34a8 8 0 0 1-8 8h-24a8 8 0 0 1-8-8z" stroke="#f2f2f2" fill="#6db1ff"/><path d="M-4415.45-1435.3v9.9m0 9.88v19.77m0 9.9v19.77m0 9.9v19.77m0 9.88v19.78m0 9.9v19.77m0 9.88v19.8m0 9.88v19.78m0 9.9v19.77m0 9.9v19.77m0 9.9v19.77m0 9.88v19.78m0 9.9v19.77m0 9.9v19.78m0 9.88v19.78m0 9.88v19.78m0 9.9v19.77m0 9.9v19.77m0 9.9v19.77m0 9.9v19.77m0 9.9v19.77m0 9.9v19.77m0 9.9v19.78m0 9.9v19.77m0 9.88v19.78m0 9.9v19.78m0 9.9v9.88" stroke="#333" fill="none"/><path d="M-4414.95-1435.3h-1v-.5h1z" stroke="#333" stroke-width=".05" fill="#333"/><path d="M-4415.45-663.95v.5" stroke="#333" fill="none"/><path d="M-4436.52-1350.23a.5.5 0 0 1 .5-.5h39a.5.5 0 0 1 .5.5.5.5 0 0 1-.5.5h-39a.5.5 0 0 1-.5-.5z" stroke="#f2f2f2" fill="#6db1ff"/><path d="M-4871.32-1592.8a8 8 0 0 1 8-8h174.07a8 8 0 0 1 8 8v149a8 8 0 0 1-8 8h-174.07a8 8 0 0 1-8-8z" stroke="#000" stroke-opacity="0" fill="#6db1ff"/><use xlink:href="#a" transform="matrix(1,0,0,1,-4863.320761078531,-1592.80296458673) translate(71.98148148148148 63.83333333333333)"/><use xlink:href="#b" transform="matrix(1,0,0,1,-4863.320761078531,-1592.80296458673) translate(24.648148148148167 95.83333333333333)"/><path d="M-4510.5-1592.8a8 8 0 0 1 8-8h174.1a8 8 0 0 1 8 8v149a8 8 0 0 1-8 8h-174.1a8 8 0 0 1-8-8z" stroke="#000" stroke-opacity="0" fill="#6db1ff"/><use xlink:href="#c" transform="matrix(1,0,0,1,-4502.486762750314,-1592.80296458673) translate(23.907407407407426 63.833333333333336)"/><use xlink:href="#d" transform="matrix(1,0,0,1,-4502.486762750314,-1592.80296458673) translate(32.01851851851853 95.83333333333333)"/><path d="M-5147.6-1538.48c0 10.9-8.85 19.75-19.76 19.75-10.9 0-19.75-8.84-19.75-19.75 0-10.9 8.84-19.75 19.74-19.75 10.9 0 19.75 8.85 19.75 19.75z" stroke="#333" fill="#6db1ff"/><path d="M-5167.36-1518.73v47.3a27.6 27.6 0 0 0 4.28 14.76l35.72 56.44m-40-63.2l-40 63.2m0-98.75h80" stroke="#333" fill="none"/><path d="M-5207.36-1550.23a8 8 0 0 1 8-8h64a8 8 0 0 1 8 8v164a8 8 0 0 1-8 8h-64a8 8 0 0 1-8-8z" fill="none"/><use xlink:href="#e" transform="matrix(1,0,0,1,-5287.3562465473715,-1400.2270406914104) translate(82.2962962962963 21.333333333333332)"/><path d="M-5464.84-1282.73a8 8 0 0 1 8-8h84a8 8 0 0 1 8 8v4.93a17.07 17.07 0 0 1-5 12.07 17.07 17.07 0 0 1-12.07 5h-74.94a8 8 0 0 1-8-8z" fill="#fff"/><path d="M-5364.84-1290.73v20l-10 10h-90" stroke="#333" fill="none"/><path d="M-5464.84-1282.73a8 8 0 0 1 8-8h1153.04a8 8 0 0 1 8 8v544a8 8 0 0 1-8 8h-1153.04a8 8 0 0 1-8-8z" stroke="#333" fill="none"/><use xlink:href="#f" transform="matrix(1,0,0,1,-5456.840353240792,-1290.7270406914104) translate(24.025 18.6)"/><use xlink:href="#g" transform="matrix(1,0,0,1,-5452.840353240792,-1252.7270406914104) translate(4.074999999999996 14.4)"/><use xlink:href="#h" transform="matrix(1,0,0,1,-5452.840353240792,-1252.7270406914104) translate(42.025 14.4)"/><use xlink:href="#i" transform="matrix(1,0,0,1,-5452.840353240792,-1252.7270406914104) translate(80.975 14.4)"/><use xlink:href="#j" transform="matrix(1,0,0,1,-5452.840353240792,-1252.7270406914104) translate(11.599999999999994 36)"/><use xlink:href="#k" transform="matrix(1,0,0,1,-5452.840353240792,-1252.7270406914104) translate(40.55 36)"/><path d="M-4775.78-1250.73H-4452.32M-4775.77-1250.73h-.5" stroke="#333" fill="none"/><path d="M-4437.57-1250.73l-14.26 4.64v-9.26z" stroke="#333" fill="#333"/><use xlink:href="#l" transform="matrix(1,0,0,1,-4624.091139639496,-1276.328245041089) translate(0.004999999999999005 14.4)"/><path d="M-5385.8-1182.73a8 8 0 0 1 8-8h84a8 8 0 0 1 8 8v4.93a17.07 17.07 0 0 1-5 12.07 17.07 17.07 0 0 1-12.08 5h-74.92a8 8 0 0 1-8-8z" fill="#fff"/><path d="M-5285.8-1190.73v20l-10 10h-90" stroke="#333" fill="none"/><path d="M-5385.8-1182.73a8 8 0 0 1 8-8h1029.4a8 8 0 0 1 8 8v404a8 8 0 0 1-8 8h-1029.4a8 8 0 0 1-8-8zM-5385.8-910.73h20m15 0h20m15 0h20m15 0h20m15 0h20m15 0h20m15 0h20m15 0h20m15 0h20m15 0h20m15 0h20m15 0h20m15 0h20m15 0h20m15 0h20m15 0h20m15 0h20m15 0h20m15 0h20m15 0h20m15 0h20m15 0h20m15 0h20m15 0h20m15 0h20m15 0h20m15 0h20m15 0h20m15 0h20m15 0h20" stroke="#333" fill="none"/><use xlink:href="#m" transform="matrix(1,0,0,1,-5377.8044490330085,-1190.7270406914104) translate(36.525 18.6)"/><use xlink:href="#n" transform="matrix(1,0,0,1,-5373.8044490330085,-1152.7270406914104) translate(4.049999999999997 14.4)"/><use xlink:href="#o" transform="matrix(1,0,0,1,-5373.8044490330085,-1152.7270406914104) translate(119.95 14.4)"/><use xlink:href="#p" transform="matrix(1,0,0,1,-5373.8044490330085,-1152.7270406914104) translate(51.025 36)"/><use xlink:href="#n" transform="matrix(1,0,0,1,-5373.8044490330085,-902.7270406914104) translate(4.074999999999989 18.6)"/><use xlink:href="#q" transform="matrix(1,0,0,1,-5373.8044490330085,-902.7270406914104) translate(119.975 18.6)"/><path d="M-4755.28-1130.73h47.4a12 12 0 0 1 12 12v35.12a12 12 0 0 1-12 12h-31.52" stroke="#333" fill="none"/><path d="M-4755.27-1131.23v1h-.5v-1z" stroke="#333" stroke-width=".05" fill="#333"/><path d="M-4754.16-1071.6l14.26-4.64v9.27z" stroke="#333" fill="#333"/><use xlink:href="#r" transform="matrix(1,0,0,1,-4687.868089166005,-1111.9676155340348) translate(0.005000000000002558 14.4)"/><path d="M-4755.28-1030.73h301.88" stroke="#333" fill="none"/><path d="M-4755.27-1030.23h-.5v-1h.5z" stroke="#333" stroke-width=".05" fill="#333"/><path d="M-4438.64-1030.73l-14.27 4.64v-9.26z" stroke="#333" fill="#333"/><use xlink:href="#s" transform="matrix(1,0,0,1,-4715.254445825586,-1026.7266744366389) translate(0.0049999999999954525 14.4)"/><use xlink:href="#t" transform="matrix(1,0,0,1,-4715.254445825586,-1026.7266744366389) translate(95.905 14.4)"/><use xlink:href="#u" transform="matrix(1,0,0,1,-4715.254445825586,-1026.7266744366389) translate(124.855 14.4)"/><use xlink:href="#v" transform="matrix(1,0,0,1,-4715.254445825586,-1026.7266744366389) translate(34.42999999999999 36)"/><use xlink:href="#w" transform="matrix(1,0,0,1,-4715.254445825586,-1026.7266744366389) translate(74.38 36)"/><use xlink:href="#x" transform="matrix(1,0,0,1,-4715.254445825586,-1026.7266744366389) translate(89.38 36)"/><path d="M-5361.58-870.73h127.65l16 16v64h-143.65z" stroke="#333" fill="#fff"/><path d="M-5233.93-870.25v15.52h15.52" stroke="#333" fill="#fff"/><g><use xlink:href="#y" transform="matrix(1,0,0,1,-5356.5816889362195,-865.7270406914104) translate(0.07499999999999574 16.5875)"/><use xlink:href="#z" transform="matrix(1,0,0,1,-5356.5816889362195,-865.7270406914104) translate(25.074999999999996 16.5875)"/><use xlink:href="#A" transform="matrix(1,0,0,1,-5356.5816889362195,-865.7270406914104) translate(74.975 16.5875)"/><use xlink:href="#B" transform="matrix(1,0,0,1,-5356.5816889362195,-865.7270406914104) translate(93.92500000000001 16.5875)"/><use xlink:href="#C" transform="matrix(1,0,0,1,-5356.5816889362195,-865.7270406914104) translate(11.024999999999999 38.1875)"/><use xlink:href="#D" transform="matrix(1,0,0,1,-5356.5816889362195,-865.7270406914104) translate(55.025 38.1875)"/><use xlink:href="#E" transform="matrix(1,0,0,1,-5356.5816889362195,-865.7270406914104) translate(99.025 38.1875)"/><use xlink:href="#F" transform="matrix(1,0,0,1,-5356.5816889362195,-865.7270406914104) translate(31.525 59.7875)"/></g><path d="M-4797.28-949.1h-4.8m-4.8 0h-9.6m-4.8 0h-9.6m-4.78 0h-9.6m-4.8 0h-9.6m-4.8 0h-9.58m-4.8 0h-9.6m-4.8 0h-9.6m-4.78 0h-9.6m-4.8 0h-9.6m-4.8 0h-9.58m-4.8 0h-9.6m-4.8 0h-10m-5.23 0h-10.44m-5.22 0h-10.43m-5.23 0h-10.44m-5.22 0h-10.44m-5.22 0h-10.44m-5.23 0h-10.44m-5.2 0h-10.45m-5.22 0h-10.44m-5.23 0h-10.45m-5.22 0h-10.44m-5.22 0h-5.22" stroke="#333" fill="none"/><path d="M-4796.78-948.6h-.52v-1h.52z" stroke="#333" stroke-width=".05" fill="#333"/><path d="M-5125-959.27l-17.2 10.18 17.2 10.2" stroke="#333" fill="none"/><g><use xlink:href="#G" transform="matrix(1,0,0,1,-5040.978139391935,-974.6897558122586) translate(0.0049999999999954525 14.4)"/><use xlink:href="#H" transform="matrix(1,0,0,1,-5040.978139391935,-974.6897558122586) translate(34.004999999999995 14.4)"/><use xlink:href="#I" transform="matrix(1,0,0,1,-5040.978139391935,-974.6897558122586) translate(103.905 14.4)"/><use xlink:href="#J" transform="matrix(1,0,0,1,-5040.978139391935,-974.6897558122586) translate(137.905 14.4)"/></g><path d="M-4609.68-1170.73h129.8l10.42 10.42v41.64h-140.22z" stroke="#333" fill="#fff"/><path d="M-4479.88-1170.25v9.94h9.94" stroke="#333" fill="#fff"/><g><use xlink:href="#K" transform="matrix(1,0,0,1,-4604.683156790621,-1165.7270406914104) translate(5.166666666666657 16.041666666666668)"/><use xlink:href="#L" transform="matrix(1,0,0,1,-4604.683156790621,-1165.7270406914104) translate(48.87037037037036 16.041666666666668)"/><use xlink:href="#M" transform="matrix(1,0,0,1,-4604.683156790621,-1165.7270406914104) translate(59.981481481481474 16.041666666666668)"/><use xlink:href="#N" transform="matrix(1,0,0,1,-4604.683156790621,-1165.7270406914104) translate(74.01851851851852 16.041666666666668)"/><use xlink:href="#O" transform="matrix(1,0,0,1,-4604.683156790621,-1165.7270406914104) translate(109.5 16.041666666666668)"/><use xlink:href="#P" transform="matrix(1,0,0,1,-4604.683156790621,-1165.7270406914104) translate(5.55555555555555 32.04166666666667)"/><use xlink:href="#Q" transform="matrix(1,0,0,1,-4604.683156790621,-1165.7270406914104) translate(82.5185185185185 32.04166666666667)"/><use xlink:href="#R" transform="matrix(1,0,0,1,-4604.683156790621,-1165.7270406914104) translate(103.96296296296296 32.04166666666667)"/></g><path d="M-4435.45-1268.96a8 8 0 0 1 8-8h24a8 8 0 0 1 8 8v284a8 8 0 0 1-8 8h-24a8 8 0 0 1-8-8z" stroke="#f2f2f2" fill="#6db1ff"/><path d="M-5142.7-1319.58h350.03" stroke="#333" fill="none"/><path d="M-5142.68-1319.08h-.5v-1h.5z" stroke="#333" stroke-width=".05" fill="#333"/><path d="M-4777.9-1319.58l-14.27 4.64v-9.27z" stroke="#333" fill="#333"/><g><use xlink:href="#S" transform="matrix(1,0,0,1,-5033.137845273127,-1345.1794327915325) translate(0.0049999999999954525 14.4)"/><use xlink:href="#T" transform="matrix(1,0,0,1,-5033.137845273127,-1345.1794327915325) translate(46.955 14.4)"/></g><defs><path fill="#333" d="M127-220V0H93v-220H8v-28h204v28h-85" id="U"/><path fill="#333" d="M99-251c64 0 84 50 84 122C183-37 130 33 47-8c-14-7-20-23-25-40l30-5c6 39 69 39 84 7 9-19 16-44 16-74-10 22-31 35-62 35-49 0-73-33-73-83 0-54 28-83 82-83zm-1 141c31-1 51-18 51-49 0-36-14-67-51-67-34 0-49 23-49 58 0 34 15 58 49 58" id="V"/><g id="a"><use transform="matrix(0.07407407407407407,0,0,0.07407407407407407,0,0)" xlink:href="#U"/><use transform="matrix(0.07407407407407407,0,0,0.07407407407407407,16.22222222222222,0)" xlink:href="#V"/></g><path fill="#333" d="M87 75C49 33 22-17 22-94c0-76 28-126 65-167h31c-38 41-64 92-64 168S80 34 118 75H87" id="W"/><path fill="#333" d="M233-177c-1 41-23 64-60 70L243 0h-38l-65-103H63V0H30v-248c88 3 205-21 203 71zM63-129c60-2 137 13 137-47 0-61-80-42-137-45v92" id="X"/><path fill="#333" d="M141-36C126-15 110 5 73 4 37 3 15-17 15-53c-1-64 63-63 125-63 3-35-9-54-41-54-24 1-41 7-42 31l-33-3c5-37 33-52 76-52 45 0 72 20 72 64v82c-1 20 7 32 28 27v20c-31 9-61-2-59-35zM48-53c0 20 12 33 32 33 41-3 63-29 60-74-43 2-92-5-92 41" id="Y"/><path fill="#333" d="M117-194c89-4 53 116 60 194h-32v-121c0-31-8-49-39-48C34-167 62-67 57 0H25l-1-190h30c1 10-1 24 2 32 11-22 29-35 61-36" id="Z"/><path fill="#333" d="M85-194c31 0 48 13 60 33l-1-100h32l1 261h-30c-2-10 0-23-3-31C134-8 116 4 85 4 32 4 16-35 15-94c0-66 23-100 70-100zm9 24c-40 0-46 34-46 75 0 40 6 74 45 74 42 0 51-32 51-76 0-42-9-74-50-73" id="aa"/><path fill="#333" d="M100-194c62-1 85 37 85 99 1 63-27 99-86 99S16-35 15-95c0-66 28-99 85-99zM99-20c44 1 53-31 53-75 0-43-8-75-51-75s-53 32-53 75 10 74 51 75" id="ab"/><path fill="#333" d="M115-194c55 1 70 41 70 98S169 2 115 4C84 4 66-9 55-30l1 105H24l-1-265h31l2 30c10-21 28-34 59-34zm-8 174c40 0 45-34 45-75s-6-73-45-74c-42 0-51 32-51 76 0 43 10 73 51 73" id="ac"/><path fill="#333" d="M33-261c38 41 65 92 65 168S71 34 33 75H2C39 34 66-17 66-93S39-220 2-261h31" id="ad"/><g id="b"><use transform="matrix(0.07407407407407407,0,0,0.07407407407407407,0,0)" xlink:href="#W"/><use transform="matrix(0.07407407407407407,0,0,0.07407407407407407,8.814814814814815,0)" xlink:href="#X"/><use transform="matrix(0.07407407407407407,0,0,0.07407407407407407,28,0)" xlink:href="#Y"/><use transform="matrix(0.07407407407407407,0,0,0.07407407407407407,42.81481481481481,0)" xlink:href="#Z"/><use transform="matrix(0.07407407407407407,0,0,0.07407407407407407,57.62962962962962,0)" xlink:href="#aa"/><use transform="matrix(0.07407407407407407,0,0,0.07407407407407407,72.44444444444443,0)" xlink:href="#ab"/><use transform="matrix(0.07407407407407407,0,0,0.07407407407407407,87.25925925925924,0)" xlink:href="#ab"/><use transform="matrix(0.07407407407407407,0,0,0.07407407407407407,102.07407407407405,0)" xlink:href="#ac"/><use transform="matrix(0.07407407407407407,0,0,0.07407407407407407,116.88888888888887,0)" xlink:href="#ad"/></g><path fill="#333" d="M100-194c63 0 86 42 84 106H49c0 40 14 67 53 68 26 1 43-12 49-29l28 8c-11 28-37 45-77 45C44 4 14-33 15-96c1-61 26-98 85-98zm52 81c6-60-76-77-97-28-3 7-6 17-6 28h103" id="ae"/><path fill="#333" d="M135-143c-3-34-86-38-87 0 15 53 115 12 119 90S17 21 10-45l28-5c4 36 97 45 98 0-10-56-113-15-118-90-4-57 82-63 122-42 12 7 21 19 24 35" id="af"/><path fill="#333" d="M24-231v-30h32v30H24zM24 0v-190h32V0H24" id="ag"/><path fill="#333" d="M59-47c-2 24 18 29 38 22v24C64 9 27 4 27-40v-127H5v-23h24l9-43h21v43h35v23H59v120" id="ah"/><path fill="#333" d="M114-163C36-179 61-72 57 0H25l-1-190h30c1 12-1 29 2 39 6-27 23-49 58-41v29" id="ai"/><path fill="#333" d="M179-190L93 31C79 59 56 82 12 73V49c39 6 53-20 64-50L1-190h34L92-34l54-156h33" id="aj"/><g id="c"><use transform="matrix(0.07407407407407406,0,0,0.07407407407407406,0,0)" xlink:href="#X"/><use transform="matrix(0.07407407407407406,0,0,0.07407407407407406,19.18518518518518,0)" xlink:href="#ae"/><use transform="matrix(0.07407407407407406,0,0,0.07407407407407406,33.99999999999999,0)" xlink:href="#ac"/><use transform="matrix(0.07407407407407406,0,0,0.07407407407407406,48.8148148148148,0)" xlink:href="#ab"/><use transform="matrix(0.07407407407407406,0,0,0.07407407407407406,63.62962962962961,0)" xlink:href="#af"/><use transform="matrix(0.07407407407407406,0,0,0.07407407407407406,76.96296296296295,0)" xlink:href="#ag"/><use transform="matrix(0.07407407407407406,0,0,0.07407407407407406,82.8148148148148,0)" xlink:href="#ah"/><use transform="matrix(0.07407407407407406,0,0,0.07407407407407406,90.2222222222222,0)" xlink:href="#ab"/><use transform="matrix(0.07407407407407406,0,0,0.07407407407407406,105.03703703703701,0)" xlink:href="#ai"/><use transform="matrix(0.07407407407407406,0,0,0.07407407407407406,113.85185185185182,0)" xlink:href="#aj"/></g><path fill="#333" d="M96-169c-40 0-48 33-48 73s9 75 48 75c24 0 41-14 43-38l32 2c-6 37-31 61-74 61-59 0-76-41-82-99-10-93 101-131 147-64 4 7 5 14 7 22l-32 3c-4-21-16-35-41-35" id="ak"/><path fill="#333" d="M108 0H70L1-190h34L89-25l56-165h34" id="al"/><g id="d"><use transform="matrix(0.07407407407407406,0,0,0.07407407407407406,0,0)" xlink:href="#ak"/><use transform="matrix(0.07407407407407406,0,0,0.07407407407407406,13.33333333333333,0)" xlink:href="#ab"/><use transform="matrix(0.07407407407407406,0,0,0.07407407407407406,28.14814814814814,0)" xlink:href="#Z"/><use transform="matrix(0.07407407407407406,0,0,0.07407407407407406,42.962962962962955,0)" xlink:href="#aa"/><use transform="matrix(0.07407407407407406,0,0,0.07407407407407406,57.777777777777764,0)" xlink:href="#ag"/><use transform="matrix(0.07407407407407406,0,0,0.07407407407407406,63.62962962962961,0)" xlink:href="#al"/><use transform="matrix(0.07407407407407406,0,0,0.07407407407407406,76.96296296296295,0)" xlink:href="#ag"/><use transform="matrix(0.07407407407407406,0,0,0.07407407407407406,82.8148148148148,0)" xlink:href="#af"/><use transform="matrix(0.07407407407407406,0,0,0.07407407407407406,96.14814814814812,0)" xlink:href="#ab"/></g><path fill="#333" d="M187 0l-14-72H61L19 0h-37l149-248h38L221 0h-34zm-19-99l-22-123L76-99h92" id="am"/><path fill="#333" d="M133-28C103 26-5 8 13-77c13-62 24-115 90-117 29-1 46 15 56 35l19-102h32L160 0h-30zM45-64c-2 27 10 43 35 43 54-1 69-50 69-103 0-29-15-46-42-46-53-1-58 58-62 106" id="an"/><path fill="#333" d="M248-111c6-24 9-61-24-58-72 9-57 108-77 169h-31l26-142c3-37-50-30-64-10C52-115 50-51 37 0H6l36-190h30c-1 10-6 24-4 32 13-43 101-52 105 5 13-22 29-41 61-41 90 0 28 129 23 194h-31" id="ao"/><path fill="#333" d="M50-231l6-30h32l-6 30H50zM6 0l37-190h31L37 0H6" id="ap"/><path fill="#333" d="M67-158c22-48 132-52 116 29L158 0h-32l25-140c3-38-53-32-70-12C52-117 51-52 38 0H6l36-190h30" id="aq"/><g id="e"><use transform="matrix(0.07407407407407407,0,0,0.07407407407407407,0,0)" xlink:href="#am"/><use transform="matrix(0.07407407407407407,0,0,0.07407407407407407,17.77777777777778,0)" xlink:href="#an"/><use transform="matrix(0.07407407407407407,0,0,0.07407407407407407,32.592592592592595,0)" xlink:href="#ao"/><use transform="matrix(0.07407407407407407,0,0,0.07407407407407407,54.74074074074074,0)" xlink:href="#ap"/><use transform="matrix(0.07407407407407407,0,0,0.07407407407407407,60.592592592592595,0)" xlink:href="#aq"/></g><path fill="#333" d="M24 0v-261h32V0H24" id="ar"/><g id="f"><use transform="matrix(0.05,0,0,0.05,0,0)" xlink:href="#ar"/><use transform="matrix(0.05,0,0,0.05,3.95,0)" xlink:href="#ab"/><use transform="matrix(0.05,0,0,0.05,13.949999999999998,0)" xlink:href="#ab"/><use transform="matrix(0.05,0,0,0.05,23.95,0)" xlink:href="#ac"/></g><path fill="#333" d="M26 75v-336h71v23H56V52h41v23H26" id="as"/><path fill="#333" d="M30-248c87 1 191-15 191 75 0 78-77 80-158 76V0H30v-248zm33 125c57 0 124 11 124-50 0-59-68-47-124-48v98" id="at"/><g id="g"><use transform="matrix(0.05,0,0,0.05,0,0)" xlink:href="#as"/><use transform="matrix(0.05,0,0,0.05,5,0)" xlink:href="#at"/><use transform="matrix(0.05,0,0,0.05,17,0)" xlink:href="#ae"/><use transform="matrix(0.05,0,0,0.05,27,0)" xlink:href="#ai"/></g><path fill="#333" d="M177-190C167-65 218 103 67 71c-23-6-38-20-44-43l32-5c15 47 100 32 89-28v-30C133-14 115 1 83 1 29 1 15-40 15-95c0-56 16-97 71-98 29-1 48 16 59 35 1-10 0-23 2-32h30zM94-22c36 0 50-32 50-73 0-42-14-75-50-75-39 0-46 34-46 75s6 73 46 73" id="au"/><g id="h"><use transform="matrix(0.05,0,0,0.05,0,0)" xlink:href="#ab"/><use transform="matrix(0.05,0,0,0.05,10,0)" xlink:href="#au"/><use transform="matrix(0.05,0,0,0.05,20,0)" xlink:href="#Z"/><use transform="matrix(0.05,0,0,0.05,30,0)" xlink:href="#ag"/></g><g id="i"><use transform="matrix(0.05,0,0,0.05,0,0)" xlink:href="#ak"/><use transform="matrix(0.05,0,0,0.05,9,0)" xlink:href="#ar"/><use transform="matrix(0.05,0,0,0.05,12.949999999999998,0)" xlink:href="#Y"/><use transform="matrix(0.05,0,0,0.05,22.95,0)" xlink:href="#af"/><use transform="matrix(0.05,0,0,0.05,31.950000000000003,0)" xlink:href="#af"/><use transform="matrix(0.05,0,0,0.05,40.95,0)" xlink:href="#ae"/></g><g id="j"><use transform="matrix(0.05,0,0,0.05,0,0)" xlink:href="#Z"/><use transform="matrix(0.05,0,0,0.05,10,0)" xlink:href="#ae"/><use transform="matrix(0.05,0,0,0.05,20,0)" xlink:href="#ar"/></g><path fill="#333" d="M3 75V52h41v-290H3v-23h71V75H3" id="av"/><g id="k"><use transform="matrix(0.05,0,0,0.05,0,0)" xlink:href="#ai"/><use transform="matrix(0.05,0,0,0.05,5.95,0)" xlink:href="#ae"/><use transform="matrix(0.05,0,0,0.05,15.949999999999998,0)" xlink:href="#ac"/><use transform="matrix(0.05,0,0,0.05,25.950000000000003,0)" xlink:href="#ab"/><use transform="matrix(0.05,0,0,0.05,35.95,0)" xlink:href="#af"/><use transform="matrix(0.05,0,0,0.05,44.95,0)" xlink:href="#ag"/><use transform="matrix(0.05,0,0,0.05,48.900000000000006,0)" xlink:href="#ah"/><use transform="matrix(0.05,0,0,0.05,53.900000000000006,0)" xlink:href="#ab"/><use transform="matrix(0.05,0,0,0.05,63.900000000000006,0)" xlink:href="#ai"/><use transform="matrix(0.05,0,0,0.05,69.85000000000001,0)" xlink:href="#aj"/><use transform="matrix(0.05,0,0,0.05,78.85000000000001,0)" xlink:href="#av"/></g><g id="l"><use transform="matrix(0.05,0,0,0.05,0,0)" xlink:href="#ai"/><use transform="matrix(0.05,0,0,0.05,5.95,0)" xlink:href="#ae"/><use transform="matrix(0.05,0,0,0.05,15.949999999999998,0)" xlink:href="#Y"/><use transform="matrix(0.05,0,0,0.05,25.950000000000003,0)" xlink:href="#aa"/></g><path fill="#333" d="M101-234c-31-9-42 10-38 44h38v23H63V0H32v-167H5v-23h27c-7-52 17-82 69-68v24" id="aw"/><g id="m"><use transform="matrix(0.05,0,0,0.05,0,0)" xlink:href="#ag"/><use transform="matrix(0.05,0,0,0.05,3.95,0)" xlink:href="#aw"/></g><g id="n"><use transform="matrix(0.05,0,0,0.05,0,0)" xlink:href="#as"/><use transform="matrix(0.05,0,0,0.05,5,0)" xlink:href="#X"/><use transform="matrix(0.05,0,0,0.05,17.950000000000003,0)" xlink:href="#Y"/><use transform="matrix(0.05,0,0,0.05,27.950000000000003,0)" xlink:href="#Z"/><use transform="matrix(0.05,0,0,0.05,37.95,0)" xlink:href="#aa"/><use transform="matrix(0.05,0,0,0.05,47.95,0)" xlink:href="#ab"/><use transform="matrix(0.05,0,0,0.05,57.95,0)" xlink:href="#ab"/><use transform="matrix(0.05,0,0,0.05,67.95,0)" xlink:href="#ac"/><use transform="matrix(0.05,0,0,0.05,77.95,0)" xlink:href="#U"/><use transform="matrix(0.05,0,0,0.05,86.9,0)" xlink:href="#ae"/><use transform="matrix(0.05,0,0,0.05,96.9,0)" xlink:href="#af"/><use transform="matrix(0.05,0,0,0.05,105.9,0)" xlink:href="#ah"/></g><g id="o"><use transform="matrix(0.05,0,0,0.05,0,0)" xlink:href="#Z"/><use transform="matrix(0.05,0,0,0.05,10,0)" xlink:href="#ab"/><use transform="matrix(0.05,0,0,0.05,20,0)" xlink:href="#Z"/></g><g id="p"><use transform="matrix(0.05,0,0,0.05,0,0)" xlink:href="#ae"/><use transform="matrix(0.05,0,0,0.05,10,0)" xlink:href="#af"/><use transform="matrix(0.05,0,0,0.05,19,0)" xlink:href="#ag"/><use transform="matrix(0.05,0,0,0.05,22.95,0)" xlink:href="#af"/><use transform="matrix(0.05,0,0,0.05,31.950000000000003,0)" xlink:href="#ah"/><use transform="matrix(0.05,0,0,0.05,36.95,0)" xlink:href="#ae"/><use transform="matrix(0.05,0,0,0.05,46.95,0)" xlink:href="#av"/></g><g id="q"><use transform="matrix(0.05,0,0,0.05,0,0)" xlink:href="#ae"/><use transform="matrix(0.05,0,0,0.05,10,0)" xlink:href="#af"/><use transform="matrix(0.05,0,0,0.05,19,0)" xlink:href="#ag"/><use transform="matrix(0.05,0,0,0.05,22.95,0)" xlink:href="#af"/><use transform="matrix(0.05,0,0,0.05,31.950000000000003,0)" xlink:href="#ah"/><use transform="matrix(0.05,0,0,0.05,36.95,0)" xlink:href="#ae"/><use transform="matrix(0.05,0,0,0.05,46.95,0)" xlink:href="#av"/></g><path fill="#333" d="M33 0v-38h34V0H33" id="ax"/><path fill="#333" d="M0 4l72-265h28L28 4H0" id="ay"/><path fill="#333" d="M115-194c53 0 69 39 70 98 0 66-23 100-70 100C84 3 66-7 56-30L54 0H23l1-261h32v101c10-23 28-34 59-34zm-8 174c40 0 45-34 45-75 0-40-5-75-45-74-42 0-51 32-51 76 0 43 10 73 51 73" id="az"/><path fill="#333" d="M106-169C34-169 62-67 57 0H25v-261h32l-1 103c12-21 28-36 61-36 89 0 53 116 60 194h-32v-121c2-32-8-49-39-48" id="aA"/><g id="r"><use transform="matrix(0.05,0,0,0.05,0,0)" xlink:href="#ax"/><use transform="matrix(0.05,0,0,0.05,5,0)" xlink:href="#ay"/><use transform="matrix(0.05,0,0,0.05,10,0)" xlink:href="#ai"/><use transform="matrix(0.05,0,0,0.05,15.949999999999998,0)" xlink:href="#ab"/><use transform="matrix(0.05,0,0,0.05,25.950000000000003,0)" xlink:href="#az"/><use transform="matrix(0.05,0,0,0.05,35.95,0)" xlink:href="#ab"/><use transform="matrix(0.05,0,0,0.05,45.95,0)" xlink:href="#ah"/><use transform="matrix(0.05,0,0,0.05,50.95,0)" xlink:href="#ax"/><use transform="matrix(0.05,0,0,0.05,55.95,0)" xlink:href="#af"/><use transform="matrix(0.05,0,0,0.05,64.95,0)" xlink:href="#aA"/></g><g id="s"><use transform="matrix(0.05,0,0,0.05,0,0)" xlink:href="#af"/><use transform="matrix(0.05,0,0,0.05,9,0)" xlink:href="#Y"/><use transform="matrix(0.05,0,0,0.05,19,0)" xlink:href="#ar"/><use transform="matrix(0.05,0,0,0.05,22.95,0)" xlink:href="#al"/><use transform="matrix(0.05,0,0,0.05,31.950000000000003,0)" xlink:href="#Y"/><use transform="matrix(0.05,0,0,0.05,41.95,0)" xlink:href="#ah"/><use transform="matrix(0.05,0,0,0.05,46.95,0)" xlink:href="#Y"/><use transform="matrix(0.05,0,0,0.05,56.95,0)" xlink:href="#au"/><use transform="matrix(0.05,0,0,0.05,66.95,0)" xlink:href="#au"/><use transform="matrix(0.05,0,0,0.05,76.95,0)" xlink:href="#ag"/><use transform="matrix(0.05,0,0,0.05,80.9,0)" xlink:href="#ab"/></g><g id="t"><use transform="matrix(0.05,0,0,0.05,0,0)" xlink:href="#Z"/><use transform="matrix(0.05,0,0,0.05,10,0)" xlink:href="#ae"/><use transform="matrix(0.05,0,0,0.05,20,0)" xlink:href="#ar"/></g><g id="u"><use transform="matrix(0.05,0,0,0.05,0,0)" xlink:href="#ai"/><use transform="matrix(0.05,0,0,0.05,5.95,0)" xlink:href="#ae"/><use transform="matrix(0.05,0,0,0.05,15.949999999999998,0)" xlink:href="#ac"/><use transform="matrix(0.05,0,0,0.05,25.950000000000003,0)" xlink:href="#ab"/><use transform="matrix(0.05,0,0,0.05,35.95,0)" xlink:href="#af"/><use transform="matrix(0.05,0,0,0.05,44.95,0)" xlink:href="#ag"/><use transform="matrix(0.05,0,0,0.05,48.900000000000006,0)" xlink:href="#ah"/><use transform="matrix(0.05,0,0,0.05,53.900000000000006,0)" xlink:href="#ab"/><use transform="matrix(0.05,0,0,0.05,63.900000000000006,0)" xlink:href="#ai"/><use transform="matrix(0.05,0,0,0.05,69.85000000000001,0)" xlink:href="#aj"/></g><g id="v"><use transform="matrix(0.05,0,0,0.05,0,0)" xlink:href="#W"/><use transform="matrix(0.05,0,0,0.05,5.95,0)" xlink:href="#ah"/><use transform="matrix(0.05,0,0,0.05,10.95,0)" xlink:href="#ae"/><use transform="matrix(0.05,0,0,0.05,20.95,0)" xlink:href="#af"/><use transform="matrix(0.05,0,0,0.05,29.950000000000003,0)" xlink:href="#ah"/></g><use transform="matrix(0.05,0,0,0.05,0,0)" xlink:href="#ae" id="w"/><g id="x"><use transform="matrix(0.05,0,0,0.05,0,0)" xlink:href="#ak"/><use transform="matrix(0.05,0,0,0.05,9,0)" xlink:href="#ab"/><use transform="matrix(0.05,0,0,0.05,19,0)" xlink:href="#al"/><use transform="matrix(0.05,0,0,0.05,28,0)" xlink:href="#ae"/><use transform="matrix(0.05,0,0,0.05,38,0)" xlink:href="#ai"/><use transform="matrix(0.05,0,0,0.05,43.95,0)" xlink:href="#Y"/><use transform="matrix(0.05,0,0,0.05,53.95,0)" xlink:href="#au"/><use transform="matrix(0.05,0,0,0.05,63.95,0)" xlink:href="#ae"/><use transform="matrix(0.05,0,0,0.05,73.95,0)" xlink:href="#ad"/></g><path fill="#333" d="M30 0v-248h33v221h125V0H30" id="aB"/><g id="y"><use transform="matrix(0.05,0,0,0.05,0,0)" xlink:href="#aB"/><use transform="matrix(0.05,0,0,0.05,10,0)" xlink:href="#ae"/></g><g id="z"><use transform="matrix(0.05,0,0,0.05,0,0)" xlink:href="#ak"/><use transform="matrix(0.05,0,0,0.05,9,0)" xlink:href="#ar"/><use transform="matrix(0.05,0,0,0.05,12.949999999999998,0)" xlink:href="#Y"/><use transform="matrix(0.05,0,0,0.05,22.95,0)" xlink:href="#af"/><use transform="matrix(0.05,0,0,0.05,31.950000000000003,0)" xlink:href="#af"/><use transform="matrix(0.05,0,0,0.05,40.95,0)" xlink:href="#ag"/></g><g id="A"><use transform="matrix(0.05,0,0,0.05,0,0)" xlink:href="#aa"/><use transform="matrix(0.05,0,0,0.05,10,0)" xlink:href="#ag"/></g><g id="B"><use transform="matrix(0.05,0,0,0.05,0,0)" xlink:href="#ah"/><use transform="matrix(0.05,0,0,0.05,5,0)" xlink:href="#ae"/><use transform="matrix(0.05,0,0,0.05,15,0)" xlink:href="#af"/><use transform="matrix(0.05,0,0,0.05,24,0)" xlink:href="#ah"/></g><g id="C"><use transform="matrix(0.05,0,0,0.05,0,0)" xlink:href="#af"/><use transform="matrix(0.05,0,0,0.05,9,0)" xlink:href="#ab"/><use transform="matrix(0.05,0,0,0.05,19,0)" xlink:href="#Z"/><use transform="matrix(0.05,0,0,0.05,29,0)" xlink:href="#ab"/></g><g id="D"><use transform="matrix(0.05,0,0,0.05,0,0)" xlink:href="#af"/><use transform="matrix(0.05,0,0,0.05,9,0)" xlink:href="#ah"/><use transform="matrix(0.05,0,0,0.05,14,0)" xlink:href="#Y"/><use transform="matrix(0.05,0,0,0.05,24,0)" xlink:href="#ah"/><use transform="matrix(0.05,0,0,0.05,29,0)" xlink:href="#ae"/></g><path fill="#333" d="M141-36C126-15 110 5 73 4 37 3 15-17 15-53c-1-64 63-63 125-63 3-35-9-54-41-54-24 1-41 7-42 31l-33-3c5-37 33-52 76-52 45 0 72 20 72 64v82c-1 20 7 32 28 27v20c-31 9-61-2-59-35zM48-53c0 20 12 33 32 33 41-3 63-29 60-74-43 2-92-5-92 41zm62-158l-58-49v-5h36c12 19 30 32 38 54h-16" id="aC"/><g id="E"><use transform="matrix(0.05,0,0,0.05,0,0)" xlink:href="#au"/><use transform="matrix(0.05,0,0,0.05,10,0)" xlink:href="#ag"/><use transform="matrix(0.05,0,0,0.05,13.949999999999998,0)" xlink:href="#aC"/></g><g id="F"><use transform="matrix(0.05,0,0,0.05,0,0)" xlink:href="#au"/><use transform="matrix(0.05,0,0,0.05,10,0)" xlink:href="#ae"/><use transform="matrix(0.05,0,0,0.05,20,0)" xlink:href="#Z"/><use transform="matrix(0.05,0,0,0.05,30,0)" xlink:href="#ae"/><use transform="matrix(0.05,0,0,0.05,40,0)" xlink:href="#ai"/><use transform="matrix(0.05,0,0,0.05,45.95,0)" xlink:href="#Y"/><use transform="matrix(0.05,0,0,0.05,55.95,0)" xlink:href="#ah"/><use transform="matrix(0.05,0,0,0.05,60.95,0)" xlink:href="#ae"/></g><g id="G"><use transform="matrix(0.05,0,0,0.05,0,0)" xlink:href="#ah"/><use transform="matrix(0.05,0,0,0.05,5,0)" xlink:href="#ae"/><use transform="matrix(0.05,0,0,0.05,15,0)" xlink:href="#af"/><use transform="matrix(0.05,0,0,0.05,24,0)" xlink:href="#ah"/></g><g id="H"><use transform="matrix(0.05,0,0,0.05,0,0)" xlink:href="#au"/><use transform="matrix(0.05,0,0,0.05,10,0)" xlink:href="#ae"/><use transform="matrix(0.05,0,0,0.05,20,0)" xlink:href="#Z"/><use transform="matrix(0.05,0,0,0.05,30,0)" xlink:href="#ae"/><use transform="matrix(0.05,0,0,0.05,40,0)" xlink:href="#ai"/><use transform="matrix(0.05,0,0,0.05,45.95,0)" xlink:href="#Y"/><use transform="matrix(0.05,0,0,0.05,55.95,0)" xlink:href="#ah"/><use transform="matrix(0.05,0,0,0.05,60.95,0)" xlink:href="#ag"/></g><g id="I"><use transform="matrix(0.05,0,0,0.05,0,0)" xlink:href="#ak"/><use transform="matrix(0.05,0,0,0.05,9,0)" xlink:href="#ab"/><use transform="matrix(0.05,0,0,0.05,19,0)" xlink:href="#Z"/></g><path fill="#333" d="M84 4C-5 8 30-112 23-190h32v120c0 31 7 50 39 49 72-2 45-101 50-169h31l1 190h-30c-1-10 1-25-2-33-11 22-28 36-60 37" id="aD"/><g id="J"><use transform="matrix(0.05,0,0,0.05,0,0)" xlink:href="#af"/><use transform="matrix(0.05,0,0,0.05,9,0)" xlink:href="#aD"/><use transform="matrix(0.05,0,0,0.05,19,0)" xlink:href="#ak"/><use transform="matrix(0.05,0,0,0.05,28,0)" xlink:href="#ak"/><use transform="matrix(0.05,0,0,0.05,37,0)" xlink:href="#ae"/><use transform="matrix(0.05,0,0,0.05,47,0)" xlink:href="#af"/><use transform="matrix(0.05,0,0,0.05,56,0)" xlink:href="#af"/><use transform="matrix(0.05,0,0,0.05,65,0)" xlink:href="#ab"/></g><path fill="#333" d="M145-31C134-9 116 4 85 4 32 4 16-35 15-94c0-59 17-99 70-100 32-1 48 14 60 33 0-11-1-24 2-32h30l-1 268h-32zM93-21c41 0 51-33 51-76s-8-73-50-73c-40 0-46 35-46 75s5 74 45 74" id="aE"/><g id="K"><use transform="matrix(0.03703703703703704,0,0,0.03703703703703704,0,0)" xlink:href="#aE"/><use transform="matrix(0.03703703703703704,0,0,0.03703703703703704,7.407407407407408,0)" xlink:href="#aD"/><use transform="matrix(0.03703703703703704,0,0,0.03703703703703704,14.814814814814817,0)" xlink:href="#ae"/><use transform="matrix(0.03703703703703704,0,0,0.03703703703703704,22.222222222222225,0)" xlink:href="#af"/><use transform="matrix(0.03703703703703704,0,0,0.03703703703703704,28.888888888888893,0)" xlink:href="#ah"/><use transform="matrix(0.03703703703703704,0,0,0.03703703703703704,32.592592592592595,0)" xlink:href="#ab"/></g><path fill="#333" d="M100-194c63 0 86 42 84 106H49c0 40 14 67 53 68 26 1 43-12 49-29l28 8c-11 28-37 45-77 45C44 4 14-33 15-96c1-61 26-98 85-98zm52 81c6-60-76-77-97-28-3 7-6 17-6 28h103zm-36-98l-58-49v-5h36c12 19 30 32 38 54h-16" id="aF"/><use transform="matrix(0.03703703703703704,0,0,0.03703703703703704,0,0)" xlink:href="#aF" id="L"/><g id="M"><use transform="matrix(0.03703703703703704,0,0,0.03703703703703704,0,0)" xlink:href="#ar"/><use transform="matrix(0.03703703703703704,0,0,0.03703703703703704,2.9259259259259265,0)" xlink:href="#ab"/></g><g id="N"><use transform="matrix(0.03703703703703704,0,0,0.03703703703703704,0,0)" xlink:href="#af"/><use transform="matrix(0.03703703703703704,0,0,0.03703703703703704,6.666666666666668,0)" xlink:href="#ak"/><use transform="matrix(0.03703703703703704,0,0,0.03703703703703704,13.333333333333336,0)" xlink:href="#ai"/><use transform="matrix(0.03703703703703704,0,0,0.03703703703703704,17.740740740740744,0)" xlink:href="#ag"/><use transform="matrix(0.03703703703703704,0,0,0.03703703703703704,20.666666666666668,0)" xlink:href="#ac"/><use transform="matrix(0.03703703703703704,0,0,0.03703703703703704,28.074074074074076,0)" xlink:href="#ah"/></g><g id="O"><use transform="matrix(0.03703703703703704,0,0,0.03703703703703704,0,0)" xlink:href="#aa"/><use transform="matrix(0.03703703703703704,0,0,0.03703703703703704,7.407407407407408,0)" xlink:href="#ag"/></g><path fill="#333" d="M9 0v-24l116-142H16v-24h144v24L44-24h123V0H9" id="aG"/><g id="P"><use transform="matrix(0.03703703703703704,0,0,0.03703703703703704,0,0)" xlink:href="#au"/><use transform="matrix(0.03703703703703704,0,0,0.03703703703703704,7.407407407407408,0)" xlink:href="#ae"/><use transform="matrix(0.03703703703703704,0,0,0.03703703703703704,14.814814814814817,0)" xlink:href="#Z"/><use transform="matrix(0.03703703703703704,0,0,0.03703703703703704,22.222222222222225,0)" xlink:href="#ae"/><use transform="matrix(0.03703703703703704,0,0,0.03703703703703704,29.629629629629633,0)" xlink:href="#ai"/><use transform="matrix(0.03703703703703704,0,0,0.03703703703703704,34.03703703703704,0)" xlink:href="#Y"/><use transform="matrix(0.03703703703703704,0,0,0.03703703703703704,41.44444444444444,0)" xlink:href="#aG"/><use transform="matrix(0.03703703703703704,0,0,0.03703703703703704,48.111111111111114,0)" xlink:href="#ag"/><use transform="matrix(0.03703703703703704,0,0,0.03703703703703704,51.03703703703704,0)" xlink:href="#ab"/><use transform="matrix(0.03703703703703704,0,0,0.03703703703703704,58.44444444444444,0)" xlink:href="#Z"/><use transform="matrix(0.03703703703703704,0,0,0.03703703703703704,65.85185185185185,0)" xlink:href="#ae"/></g><g id="Q"><use transform="matrix(0.03703703703703704,0,0,0.03703703703703704,0,0)" xlink:href="#aa"/><use transform="matrix(0.03703703703703704,0,0,0.03703703703703704,7.407407407407408,0)" xlink:href="#ae"/><use transform="matrix(0.03703703703703704,0,0,0.03703703703703704,14.814814814814817,0)" xlink:href="#ag"/></g><g id="R"><use transform="matrix(0.03703703703703704,0,0,0.03703703703703704,0,0)" xlink:href="#ah"/><use transform="matrix(0.03703703703703704,0,0,0.03703703703703704,3.703703703703704,0)" xlink:href="#ae"/><use transform="matrix(0.03703703703703704,0,0,0.03703703703703704,11.111111111111112,0)" xlink:href="#af"/><use transform="matrix(0.03703703703703704,0,0,0.03703703703703704,17.77777777777778,0)" xlink:href="#ah"/></g><g id="S"><use transform="matrix(0.05,0,0,0.05,0,0)" xlink:href="#Y"/><use transform="matrix(0.05,0,0,0.05,10,0)" xlink:href="#al"/><use transform="matrix(0.05,0,0,0.05,19,0)" xlink:href="#al"/><use transform="matrix(0.05,0,0,0.05,28,0)" xlink:href="#ag"/><use transform="matrix(0.05,0,0,0.05,31.950000000000003,0)" xlink:href="#ab"/></g><g id="T"><use transform="matrix(0.05,0,0,0.05,0,0)" xlink:href="#Y"/><use transform="matrix(0.05,0,0,0.05,10,0)" xlink:href="#ac"/><use transform="matrix(0.05,0,0,0.05,20,0)" xlink:href="#ac"/><use transform="matrix(0.05,0,0,0.05,30,0)" xlink:href="#ar"/><use transform="matrix(0.05,0,0,0.05,33.95,0)" xlink:href="#ag"/><use transform="matrix(0.05,0,0,0.05,37.900000000000006,0)" xlink:href="#ak"/><use transform="matrix(0.05,0,0,0.05,46.900000000000006,0)" xlink:href="#Y"/><use transform="matrix(0.05,0,0,0.05,56.900000000000006,0)" xlink:href="#aG"/><use transform="matrix(0.05,0,0,0.05,65.9,0)" xlink:href="#ag"/><use transform="matrix(0.05,0,0,0.05,69.85000000000001,0)" xlink:href="#ab"/><use transform="matrix(0.05,0,0,0.05,79.85000000000001,0)" xlink:href="#Z"/><use transform="matrix(0.05,0,0,0.05,89.85000000000001,0)" xlink:href="#ae"/></g></defs></g></svg>