<svg xmlns="http://www.w3.org/2000/svg" xmlns:xlink="http://www.w3.org/1999/xlink" xmlns:lucid="lucid" width="1751" height="1263"><g transform="translate(5225 705)" lucid:page-tab-id="0_0"><path d="M-5139.2-195.4a8 8 0 0 1 8-8h84a8 8 0 0 1 8 8v4.92a17.07 17.07 0 0 1-5 12.07 17.07 17.07 0 0 1-12.07 5h-74.92a8 8 0 0 1-8-8z" fill="#fff"/><path d="M-5039.2-203.4v20l-10 10h-90" stroke="#333" fill="none"/><path d="M-5139.2-195.4a8 8 0 0 1 8-8h1566.04a8 8 0 0 1 8 8v653.73a8 8 0 0 1-8 8H-5131.2a8 8 0 0 1-8-8z" stroke="#333" fill="none"/><use xlink:href="#a" transform="matrix(1,0,0,1,-5131.1954306956395,-203.41302056025052) translate(24.025 18.6)"/><use xlink:href="#b" transform="matrix(1,0,0,1,-5127.1954306956395,-165.41302056025052) translate(4.149999999999999 18.6)"/><use xlink:href="#c" transform="matrix(1,0,0,1,-5127.1954306956395,-165.41302056025052) translate(42.1 18.6)"/><use xlink:href="#d" transform="matrix(1,0,0,1,-5127.1954306956395,-165.41302056025052) translate(81.05000000000001 18.6)"/><path d="M-5103.73-106.4a8 8 0 0 1 8-8h84a8 8 0 0 1 8 8v4.94a17.07 17.07 0 0 1-5 12.07 17.07 17.07 0 0 1-12.08 5h-74.93a8 8 0 0 1-8-8z" fill="#fff"/><path d="M-5003.73-114.4v20l-10 10h-90" stroke="#333" fill="none"/><path d="M-5103.73-106.4a8 8 0 0 1 8-8h1487.1a8 8 0 0 1 8.02 8v516.66a8 8 0 0 1-8 8h-1487.13a8 8 0 0 1-8-8zM-5103.73 291.68h20m15 0h20m15 0h20m15 0h20m15 0h20m15 0h20m15 0h20m15 0h20m15 0h20m15 0h20m15 0h20m15 0h20m15 0h20m15 0h20m15 0h20m15 0h20m15 0h20m15 0h20m15 0h20m15 0h20m15 0h20m15 0h20m15 0h20m15 0h20m15 0h20m15 0h20m15 0h20m15 0h20m15 0h20m15 0h20m15 0h20m15 0h20m15 0h20m15 0h20m15 0h20m15 0h20m15 0h20m15 0h20m15 0h20m15 0h20m15 0h20m15 0h20m15 0h20" stroke="#333" fill="none"/><use xlink:href="#e" transform="matrix(1,0,0,1,-5095.7335941039455,-114.39265753925974) translate(36.525 18.6)"/><use xlink:href="#f" transform="matrix(1,0,0,1,-5091.7335941039455,-76.39265753925974) translate(4.024999999999999 18.6)"/><use xlink:href="#g" transform="matrix(1,0,0,1,-5091.7335941039455,-76.39265753925974) translate(50.975 18.6)"/><use xlink:href="#h" transform="matrix(1,0,0,1,-5091.7335941039455,-76.39265753925974) translate(80.975 18.6)"/><use xlink:href="#i" transform="matrix(1,0,0,1,-5091.7335941039455,299.6831669567964) translate(18.525 18.6)"/><path d="M-3785.44-519.15v10.1m0 10.08v20.17m0 10.1v20.17m0 10.08v20.18m0 10.1v20.16m0 10.08v20.17m0 10.1v20.16m0 10.1v20.18m0 10.1v20.16m0 10.1v20.16m0 10.1v20.16m0 10.1v20.17m0 10.08v20.2m0 10.08v20.17m0 10.1v20.16m0 10.1v20.18m0 10.08v20.18m0 10.1V5.4m0 10.1v20.16m0 10.1v20.17m0 10.08v20.2m0 10.08v20.17m0 10.1v20.16m0 10.1v20.18m0 10.08v20.18m0 10.1v20.16m0 10.1v20.16m0 10.1V308m0 10.1v20.17m0 10.07v20.18m0 10.1v20.16m0 10.1v20.18m0 10.08v20.18m0 10.08v20.18m0 10.1v20.16m0 10.1v20.16m0 10.1v10.08" stroke="#333" fill="none"/><path d="M-3784.94-519.13h-1v-.52h1z" stroke="#333" stroke-width=".05" fill="#333"/><path d="M-3785.44 570.3v.5" stroke="#333" fill="none"/><path d="M-3791.44 155.68a8 8 0 0 1 8-8h24a8 8 0 0 1 8 8v39.98a8 8 0 0 1-8 8h-24a8 8 0 0 1-8-8z" stroke="#f2f2f2" fill="#6db1ff"/><path d="M-4852.44-573.4v9.97m0 10v19.96m0 9.98v20m0 9.97v19.97m0 10v19.96m0 9.98v19.97m0 10v19.96m0 10v19.97m0 9.98v19.97m0 10v19.96m0 9.98v19.97m0 10v19.96m0 9.98v19.97m0 9.98V-174m0 10v19.96m0 9.98v19.98m0 9.98v19.97m0 10v19.96m0 9.98v19.98m0 10V5.73m0 9.98V35.7m0 9.98v19.97m0 10V95.6m0 10v19.96m0 10v19.96m0 10v19.96m0 9.98v19.97m0 10v19.96m0 9.97v19.98m0 9.98v19.97m0 10v19.96m0 9.98v19.97m0 10v19.97m0 9.98v19.98m0 9.98v19.98m0 10v19.96m0 9.98V515m0 9.98v19.97m0 9.98v10M-4852.44 564.9v.52" stroke="#333" fill="none"/><path d="M-4872.44-410.32a8 8 0 0 1 8-8h24a8 8 0 0 1 8 8v784a8 8 0 0 1-8 8h-24a8 8 0 0 1-8-8z" stroke="#f2f2f2" fill="#6db1ff"/><path d="M-5170.97-289.85a8 8 0 0 1 8-8h84a8 8 0 0 1 8 8v4.93a17.07 17.07 0 0 1-5 12.07 17.07 17.07 0 0 1-12.07 5h-74.93a8 8 0 0 1-8-8z" fill="#fff"/><path d="M-5070.97-297.85v20l-10 10h-90" stroke="#333" fill="none"/><path d="M-5170.97-289.85a8 8 0 0 1 8-8h1630.8a8 8 0 0 1 8 8v795a8 8 0 0 1-8 8h-1630.8a8 8 0 0 1-8-8z" stroke="#333" fill="none"/><use xlink:href="#a" transform="matrix(1,0,0,1,-5162.970299019188,-297.84772865623563) translate(24.025 18.6)"/><use xlink:href="#b" transform="matrix(1,0,0,1,-5158.970299019188,-259.84772865623563) translate(4.074999999999996 14.4)"/><use xlink:href="#c" transform="matrix(1,0,0,1,-5158.970299019188,-259.84772865623563) translate(42.025 14.4)"/><use xlink:href="#j" transform="matrix(1,0,0,1,-5158.970299019188,-259.84772865623563) translate(80.975 14.4)"/><use xlink:href="#k" transform="matrix(1,0,0,1,-5158.970299019188,-259.84772865623563) translate(11.599999999999994 36)"/><use xlink:href="#l" transform="matrix(1,0,0,1,-5158.970299019188,-259.84772865623563) translate(40.55 36)"/><path d="M-4435.1-509.15v10.02m0 10.02v20.03m0 10.02V-439m0 10v20.05m0 10.02v20.04m0 10.03v20.04m0 10.02v20.03m0 10.02v20.04m0 10v20.05m0 10.02v20.04m0 10.03v20.04m0 10.02v20.03m0 10.02v20.03m0 10.02v20.04m0 10.02v20.04m0 10.02v20.04m0 10.02v20.04m0 10.02v20.04m0 10.02v20.04m0 10.02V72m0 10.02v20.04m0 10.02v20.04m0 10.02v20.04m0 10.02v20.04m0 10.02v20.04m0 10.02v20.04m0 10.02v20.04m0 10v20.06m0 10v20.05m0 10.02v20.04m0 10v20.05m0 10.02v20.04m0 10.03v20.04m0 10.02v20.03m0 10.02v20.04m0 10v20.05m0 10.02V573" stroke="#333" fill="none"/><path d="M-4434.6-509.13h-1v-.52h1z" stroke="#333" stroke-width=".05" fill="#333"/><path d="M-4435.1 572.98v.5" stroke="#333" fill="none"/><path d="M-4455.1-410.32a8 8 0 0 1 8-8h24a8 8 0 0 1 8 8v784a8 8 0 0 1-8 8h-24a8 8 0 0 1-8-8z" stroke="#f2f2f2" fill="#6db1ff"/><path d="M-4530.14-666.65a8 8 0 0 1 8-8h174.07a8 8 0 0 1 8 8v149a8 8 0 0 1-8 8h-174.07a8 8 0 0 1-8-8z" stroke="#000" stroke-opacity="0" fill="#6db1ff"/><use xlink:href="#m" transform="matrix(1,0,0,1,-4522.142950304045,-666.6464170373365) translate(71.98148148148148 63.83333333333333)"/><use xlink:href="#n" transform="matrix(1,0,0,1,-4522.142950304045,-666.6464170373365) translate(27.61111111111113 95.83333333333333)"/><path d="M-3880.47-676.65a8 8 0 0 1 8-8h174.07a8 8 0 0 1 8 8v149a8 8 0 0 1-8 8h-174.07a8 8 0 0 1-8-8z" stroke="#000" stroke-opacity="0" fill="#6db1ff"/><use xlink:href="#o" transform="matrix(1,0,0,1,-3872.4742790314895,-676.6464036209018) translate(23.907407407407426 63.833333333333336)"/><use xlink:href="#p" transform="matrix(1,0,0,1,-3872.4742790314895,-676.6464036209018) translate(32.01851851851853 95.83333333333333)"/><path d="M-4832.7-649.9c0 10.9-8.83 19.75-19.74 19.75-10.9 0-19.75-8.84-19.75-19.75 0-10.9 8.86-19.75 19.76-19.75 10.9 0 19.75 8.85 19.75 19.75z" stroke="#333" fill="#6db1ff"/><path d="M-4852.44-630.15v47.3a27.6 27.6 0 0 0 4.28 14.76l35.72 56.45m-40-63.2l-40 63.2m0-98.75h80" stroke="#333" fill="none"/><path d="M-4892.44-661.65a8 8 0 0 1 8-8h64a8 8 0 0 1 8 8v164a8 8 0 0 1-8 8h-64a8 8 0 0 1-8-8z" fill="none"/><use xlink:href="#q" transform="matrix(1,0,0,1,-4972.43595030389,-511.6464529352452) translate(82.2962962962963 21.333333333333332)"/><path d="M-4831.44-359.2H-4472" stroke="#333" fill="none"/><path d="M-4831.42-358.7h-.52v-1h.52z" stroke="#333" stroke-width=".05" fill="#333"/><path d="M-4457.22-359.2l-14.27 4.64v-9.27z" stroke="#333" fill="#333"/><use xlink:href="#r" transform="matrix(1,0,0,1,-4730.720685507255,-384.7912849356705) translate(0.0049999999999954525 14.4)"/><path d="M-4414.1 178.08h605.78" stroke="#333" fill="none"/><path d="M-4414.1 178.58h-.5v-1h.5z" stroke="#333" stroke-width=".05" fill="#333"/><path d="M-3793.56 178.08l-14.26 4.64v-9.27z" stroke="#333" fill="#333"/><use xlink:href="#s" transform="matrix(1,0,0,1,-4269.020980998177,152.48316748673446) translate(0.0049999999999954525 14.4)"/><use xlink:href="#t" transform="matrix(1,0,0,1,-4269.020980998177,152.48316748673446) translate(95.905 14.4)"/><use xlink:href="#u" transform="matrix(1,0,0,1,-4269.020980998177,152.48316748673446) translate(124.855 14.4)"/><use xlink:href="#v" transform="matrix(1,0,0,1,-4269.020980998177,152.48316748673446) translate(208.705 14.4)"/><path d="M-4456.1 233.7h-4.82m-4.8 0h-9.63m-4.8 0h-9.64m-4.8 0h-9.63m-4.8 0h-9.63m-4.8 0h-9.64m-4.8 0h-9.63m-4.8 0h-9.64m-4.8 0h-9.63m-4.82 0h-9.62m-4.8 0h-9.63m-4.82 0h-9.6m-4.82 0h-9.63m-4.8 0h-10.02m-5.2 0h-10.4m-5.2 0h-10.4m-5.2 0h-10.42m-5.2 0h-10.4m-5.2 0h-10.4m-5.2 0h-10.4m-5.2 0h-10.4m-5.2 0h-10.4m-5.2 0h-10.4m-5.22 0h-10.4m-5.2 0h-10.4m-5.2 0h-5.2" stroke="#333" fill="none"/><path d="M-4455.6 234.2h-.52v-1h.52z" stroke="#333" stroke-width=".05" fill="#333"/><path d="M-4813.74 223.5l-17.2 10.2 17.2 10.17" stroke="#333" fill="none"/><use xlink:href="#w" transform="matrix(1,0,0,1,-4664.980474623566,208.35861653692604) translate(0 14.222222222222223)"/><path d="M-4414.1-74.9h27.5a12 12 0 0 1 12 12v35.3a12 12 0 0 1-12 12h-11.62" stroke="#333" fill="none"/><path d="M-4414.1-74.4h-.5v-1h.5z" stroke="#333" stroke-width=".05" fill="#333"/><path d="M-4413-15.6l14.28-4.64v9.27z" stroke="#333" fill="#333"/><use xlink:href="#x" transform="matrix(1,0,0,1,-4366.605380892751,-56.04667612942937) translate(0.0049999999999954525 14.4)"/><path d="M-4414.1 10.88h27.5a12 12 0 0 1 12 12v23.8a12 12 0 0 1-12 12h-11.62" stroke="#333" fill="none"/><path d="M-4414.1 11.38h-.5v-1h.5z" stroke="#333" stroke-width=".05" fill="#333"/><path d="M-4413 58.7l14.28-4.64v9.27z" stroke="#333" fill="#333"/><g><use xlink:href="#y" transform="matrix(1,0,0,1,-4366.605371416704,23.5841910958966) translate(0.0049999999999954525 14.933333333333335)"/></g><path d="M-4414.1 80.76h27.5a12 12 0 0 1 12 12v20.13a12 12 0 0 1-12 12h-11.62" stroke="#333" fill="none"/><path d="M-4414.1 81.26h-.5v-1h.5z" stroke="#333" stroke-width=".05" fill="#333"/><path d="M-4413 124.9l14.28-4.64v9.27z" stroke="#333" fill="#333"/><g><use xlink:href="#z" transform="matrix(1,0,0,1,-4366.605362972415,91.62640130741904) translate(0.0049999999999954525 14.933333333333335)"/></g><path d="M-4456.1 345.94h-4.82m-4.8 0h-9.63m-4.8 0h-9.64m-4.8 0h-9.63m-4.8 0h-9.63m-4.8 0h-9.64m-4.8 0h-9.63m-4.8 0h-9.64m-4.8 0h-9.63m-4.82 0h-9.62m-4.8 0h-9.63m-4.82 0h-9.6m-4.82 0h-9.63m-4.8 0h-10.02m-5.2 0h-10.4m-5.2 0h-10.4m-5.2 0h-10.42m-5.2 0h-10.4m-5.2 0h-10.4m-5.2 0h-10.4m-5.2 0h-10.4m-5.2 0h-10.4m-5.2 0h-10.4m-5.22 0h-10.4m-5.2 0h-10.4m-5.2 0h-5.2" stroke="#333" fill="none"/><path d="M-4455.6 346.44h-.52v-1h.52z" stroke="#333" stroke-width=".05" fill="#333"/><path d="M-4813.74 335.75l-17.2 10.2 17.2 10.17" stroke="#333" fill="none"/><g><use xlink:href="#A" transform="matrix(1,0,0,1,-4676.313804187381,320.6014770920799) translate(0 14.222222222222223)"/></g><defs><path fill="#333" d="M24 0v-261h32V0H24" id="B"/><path fill="#333" d="M100-194c62-1 85 37 85 99 1 63-27 99-86 99S16-35 15-95c0-66 28-99 85-99zM99-20c44 1 53-31 53-75 0-43-8-75-51-75s-53 32-53 75 10 74 51 75" id="C"/><path fill="#333" d="M115-194c55 1 70 41 70 98S169 2 115 4C84 4 66-9 55-30l1 105H24l-1-265h31l2 30c10-21 28-34 59-34zm-8 174c40 0 45-34 45-75s-6-73-45-74c-42 0-51 32-51 76 0 43 10 73 51 73" id="D"/><g id="a"><use transform="matrix(0.05,0,0,0.05,0,0)" xlink:href="#B"/><use transform="matrix(0.05,0,0,0.05,3.95,0)" xlink:href="#C"/><use transform="matrix(0.05,0,0,0.05,13.949999999999998,0)" xlink:href="#C"/><use transform="matrix(0.05,0,0,0.05,23.95,0)" xlink:href="#D"/></g><path fill="#333" d="M26 75v-336h71v23H56V52h41v23H26" id="E"/><path fill="#333" d="M30-248c87 1 191-15 191 75 0 78-77 80-158 76V0H30v-248zm33 125c57 0 124 11 124-50 0-59-68-47-124-48v98" id="F"/><path fill="#333" d="M100-194c63 0 86 42 84 106H49c0 40 14 67 53 68 26 1 43-12 49-29l28 8c-11 28-37 45-77 45C44 4 14-33 15-96c1-61 26-98 85-98zm52 81c6-60-76-77-97-28-3 7-6 17-6 28h103" id="G"/><path fill="#333" d="M114-163C36-179 61-72 57 0H25l-1-190h30c1 12-1 29 2 39 6-27 23-49 58-41v29" id="H"/><g id="b"><use transform="matrix(0.05,0,0,0.05,0,0)" xlink:href="#E"/><use transform="matrix(0.05,0,0,0.05,5,0)" xlink:href="#F"/><use transform="matrix(0.05,0,0,0.05,17,0)" xlink:href="#G"/><use transform="matrix(0.05,0,0,0.05,27,0)" xlink:href="#H"/></g><path fill="#333" d="M177-190C167-65 218 103 67 71c-23-6-38-20-44-43l32-5c15 47 100 32 89-28v-30C133-14 115 1 83 1 29 1 15-40 15-95c0-56 16-97 71-98 29-1 48 16 59 35 1-10 0-23 2-32h30zM94-22c36 0 50-32 50-73 0-42-14-75-50-75-39 0-46 34-46 75s6 73 46 73" id="I"/><path fill="#333" d="M117-194c89-4 53 116 60 194h-32v-121c0-31-8-49-39-48C34-167 62-67 57 0H25l-1-190h30c1 10-1 24 2 32 11-22 29-35 61-36" id="J"/><path fill="#333" d="M24-231v-30h32v30H24zM24 0v-190h32V0H24" id="K"/><g id="c"><use transform="matrix(0.05,0,0,0.05,0,0)" xlink:href="#C"/><use transform="matrix(0.05,0,0,0.05,10,0)" xlink:href="#I"/><use transform="matrix(0.05,0,0,0.05,20,0)" xlink:href="#J"/><use transform="matrix(0.05,0,0,0.05,30,0)" xlink:href="#K"/></g><path fill="#333" d="M108 0H70L1-190h34L89-25l56-165h34" id="L"/><path fill="#333" d="M3 75V52h41v-290H3v-23h71V75H3" id="M"/><g id="d"><use transform="matrix(0.05,0,0,0.05,0,0)" xlink:href="#B"/><use transform="matrix(0.05,0,0,0.05,3.95,0)" xlink:href="#K"/><use transform="matrix(0.05,0,0,0.05,7.9,0)" xlink:href="#L"/><use transform="matrix(0.05,0,0,0.05,16.9,0)" xlink:href="#G"/><use transform="matrix(0.05,0,0,0.05,26.899999999999995,0)" xlink:href="#B"/><use transform="matrix(0.05,0,0,0.05,30.849999999999994,0)" xlink:href="#B"/><use transform="matrix(0.05,0,0,0.05,34.8,0)" xlink:href="#C"/><use transform="matrix(0.05,0,0,0.05,44.8,0)" xlink:href="#M"/></g><path fill="#333" d="M101-234c-31-9-42 10-38 44h38v23H63V0H32v-167H5v-23h27c-7-52 17-82 69-68v24" id="N"/><g id="e"><use transform="matrix(0.05,0,0,0.05,0,0)" xlink:href="#K"/><use transform="matrix(0.05,0,0,0.05,3.95,0)" xlink:href="#N"/></g><path fill="#333" d="M212-179c-10-28-35-45-73-45-59 0-87 40-87 99 0 60 29 101 89 101 43 0 62-24 78-52l27 14C228-24 195 4 139 4 59 4 22-46 18-125c-6-104 99-153 187-111 19 9 31 26 39 46" id="O"/><path fill="#333" d="M185-189c-5-48-123-54-124 2 14 75 158 14 163 119 3 78-121 87-175 55-17-10-28-26-33-46l33-7c5 56 141 63 141-1 0-78-155-14-162-118-5-82 145-84 179-34 5 7 8 16 11 25" id="P"/><path fill="#333" d="M137 0h-34L2-248h35l83 218 83-218h36" id="Q"/><g id="f"><use transform="matrix(0.05,0,0,0.05,0,0)" xlink:href="#E"/><use transform="matrix(0.05,0,0,0.05,5,0)" xlink:href="#O"/><use transform="matrix(0.05,0,0,0.05,17.950000000000003,0)" xlink:href="#P"/><use transform="matrix(0.05,0,0,0.05,29.950000000000003,0)" xlink:href="#Q"/></g><path fill="#333" d="M59-47c-2 24 18 29 38 22v24C64 9 27 4 27-40v-127H5v-23h24l9-43h21v43h35v23H59v120" id="R"/><g id="g"><use transform="matrix(0.05,0,0,0.05,0,0)" xlink:href="#J"/><use transform="matrix(0.05,0,0,0.05,10,0)" xlink:href="#C"/><use transform="matrix(0.05,0,0,0.05,20,0)" xlink:href="#R"/></g><path fill="#333" d="M84 4C-5 8 30-112 23-190h32v120c0 31 7 50 39 49 72-2 45-101 50-169h31l1 190h-30c-1-10 1-25-2-33-11 22-28 36-60 37" id="S"/><path fill="#333" d="M85-194c31 0 48 13 60 33l-1-100h32l1 261h-30c-2-10 0-23-3-31C134-8 116 4 85 4 32 4 16-35 15-94c0-66 23-100 70-100zm9 24c-40 0-46 34-46 75 0 40 6 74 45 74 42 0 51-32 51-76 0-42-9-74-50-73" id="T"/><g id="h"><use transform="matrix(0.05,0,0,0.05,0,0)" xlink:href="#N"/><use transform="matrix(0.05,0,0,0.05,5,0)" xlink:href="#C"/><use transform="matrix(0.05,0,0,0.05,15,0)" xlink:href="#S"/><use transform="matrix(0.05,0,0,0.05,25,0)" xlink:href="#J"/><use transform="matrix(0.05,0,0,0.05,35,0)" xlink:href="#T"/><use transform="matrix(0.05,0,0,0.05,45,0)" xlink:href="#M"/></g><path fill="#333" d="M135-143c-3-34-86-38-87 0 15 53 115 12 119 90S17 21 10-45l28-5c4 36 97 45 98 0-10-56-113-15-118-90-4-57 82-63 122-42 12 7 21 19 24 35" id="U"/><g id="i"><use transform="matrix(0.05,0,0,0.05,0,0)" xlink:href="#E"/><use transform="matrix(0.05,0,0,0.05,5,0)" xlink:href="#G"/><use transform="matrix(0.05,0,0,0.05,15,0)" xlink:href="#B"/><use transform="matrix(0.05,0,0,0.05,18.95,0)" xlink:href="#U"/><use transform="matrix(0.05,0,0,0.05,27.950000000000003,0)" xlink:href="#G"/><use transform="matrix(0.05,0,0,0.05,37.95,0)" xlink:href="#M"/></g><path fill="#333" d="M96-169c-40 0-48 33-48 73s9 75 48 75c24 0 41-14 43-38l32 2c-6 37-31 61-74 61-59 0-76-41-82-99-10-93 101-131 147-64 4 7 5 14 7 22l-32 3c-4-21-16-35-41-35" id="V"/><path fill="#333" d="M141-36C126-15 110 5 73 4 37 3 15-17 15-53c-1-64 63-63 125-63 3-35-9-54-41-54-24 1-41 7-42 31l-33-3c5-37 33-52 76-52 45 0 72 20 72 64v82c-1 20 7 32 28 27v20c-31 9-61-2-59-35zM48-53c0 20 12 33 32 33 41-3 63-29 60-74-43 2-92-5-92 41" id="W"/><g id="j"><use transform="matrix(0.05,0,0,0.05,0,0)" xlink:href="#V"/><use transform="matrix(0.05,0,0,0.05,9,0)" xlink:href="#B"/><use transform="matrix(0.05,0,0,0.05,12.949999999999998,0)" xlink:href="#W"/><use transform="matrix(0.05,0,0,0.05,22.95,0)" xlink:href="#U"/><use transform="matrix(0.05,0,0,0.05,31.950000000000003,0)" xlink:href="#U"/><use transform="matrix(0.05,0,0,0.05,40.95,0)" xlink:href="#G"/></g><g id="k"><use transform="matrix(0.05,0,0,0.05,0,0)" xlink:href="#J"/><use transform="matrix(0.05,0,0,0.05,10,0)" xlink:href="#G"/><use transform="matrix(0.05,0,0,0.05,20,0)" xlink:href="#B"/></g><path fill="#333" d="M179-190L93 31C79 59 56 82 12 73V49c39 6 53-20 64-50L1-190h34L92-34l54-156h33" id="X"/><g id="l"><use transform="matrix(0.05,0,0,0.05,0,0)" xlink:href="#H"/><use transform="matrix(0.05,0,0,0.05,5.95,0)" xlink:href="#G"/><use transform="matrix(0.05,0,0,0.05,15.949999999999998,0)" xlink:href="#D"/><use transform="matrix(0.05,0,0,0.05,25.950000000000003,0)" xlink:href="#C"/><use transform="matrix(0.05,0,0,0.05,35.95,0)" xlink:href="#U"/><use transform="matrix(0.05,0,0,0.05,44.95,0)" xlink:href="#K"/><use transform="matrix(0.05,0,0,0.05,48.900000000000006,0)" xlink:href="#R"/><use transform="matrix(0.05,0,0,0.05,53.900000000000006,0)" xlink:href="#C"/><use transform="matrix(0.05,0,0,0.05,63.900000000000006,0)" xlink:href="#H"/><use transform="matrix(0.05,0,0,0.05,69.85000000000001,0)" xlink:href="#X"/><use transform="matrix(0.05,0,0,0.05,78.85000000000001,0)" xlink:href="#M"/></g><path fill="#333" d="M127-220V0H93v-220H8v-28h204v28h-85" id="Y"/><path fill="#333" d="M134-131c28 9 52 24 51 62-1 50-34 73-85 73S17-19 16-69c0-36 21-54 49-61-75-25-45-126 34-121 46 3 78 18 79 63 0 33-17 51-44 57zm-34-11c31 1 46-15 46-44 0-28-17-43-47-42-29 0-46 13-45 42 1 28 16 44 46 44zm1 122c35 0 51-18 51-52 0-30-18-46-53-46-33 0-51 17-51 47 0 34 19 51 53 51" id="Z"/><g id="m"><use transform="matrix(0.07407407407407407,0,0,0.07407407407407407,0,0)" xlink:href="#Y"/><use transform="matrix(0.07407407407407407,0,0,0.07407407407407407,16.22222222222222,0)" xlink:href="#Z"/></g><path fill="#333" d="M87 75C49 33 22-17 22-94c0-76 28-126 65-167h31c-38 41-64 92-64 168S80 34 118 75H87" id="aa"/><path fill="#333" d="M30 0v-248h187v28H63v79h144v27H63v87h162V0H30" id="ab"/><path fill="#333" d="M33-261c38 41 65 92 65 168S71 34 33 75H2C39 34 66-17 66-93S39-220 2-261h31" id="ac"/><g id="n"><use transform="matrix(0.07407407407407407,0,0,0.07407407407407407,0,0)" xlink:href="#aa"/><use transform="matrix(0.07407407407407407,0,0,0.07407407407407407,8.814814814814815,0)" xlink:href="#ab"/><use transform="matrix(0.07407407407407407,0,0,0.07407407407407407,26.592592592592595,0)" xlink:href="#L"/><use transform="matrix(0.07407407407407407,0,0,0.07407407407407407,39.925925925925924,0)" xlink:href="#C"/><use transform="matrix(0.07407407407407407,0,0,0.07407407407407407,54.740740740740726,0)" xlink:href="#U"/><use transform="matrix(0.07407407407407407,0,0,0.07407407407407407,68.07407407407406,0)" xlink:href="#S"/><use transform="matrix(0.07407407407407407,0,0,0.07407407407407407,82.88888888888887,0)" xlink:href="#K"/><use transform="matrix(0.07407407407407407,0,0,0.07407407407407407,88.74074074074072,0)" xlink:href="#R"/><use transform="matrix(0.07407407407407407,0,0,0.07407407407407407,96.14814814814812,0)" xlink:href="#G"/><use transform="matrix(0.07407407407407407,0,0,0.07407407407407407,110.96296296296293,0)" xlink:href="#ac"/></g><path fill="#333" d="M233-177c-1 41-23 64-60 70L243 0h-38l-65-103H63V0H30v-248c88 3 205-21 203 71zM63-129c60-2 137 13 137-47 0-61-80-42-137-45v92" id="ad"/><g id="o"><use transform="matrix(0.07407407407407406,0,0,0.07407407407407406,0,0)" xlink:href="#ad"/><use transform="matrix(0.07407407407407406,0,0,0.07407407407407406,19.18518518518518,0)" xlink:href="#G"/><use transform="matrix(0.07407407407407406,0,0,0.07407407407407406,33.99999999999999,0)" xlink:href="#D"/><use transform="matrix(0.07407407407407406,0,0,0.07407407407407406,48.8148148148148,0)" xlink:href="#C"/><use transform="matrix(0.07407407407407406,0,0,0.07407407407407406,63.62962962962961,0)" xlink:href="#U"/><use transform="matrix(0.07407407407407406,0,0,0.07407407407407406,76.96296296296295,0)" xlink:href="#K"/><use transform="matrix(0.07407407407407406,0,0,0.07407407407407406,82.8148148148148,0)" xlink:href="#R"/><use transform="matrix(0.07407407407407406,0,0,0.07407407407407406,90.2222222222222,0)" xlink:href="#C"/><use transform="matrix(0.07407407407407406,0,0,0.07407407407407406,105.03703703703701,0)" xlink:href="#H"/><use transform="matrix(0.07407407407407406,0,0,0.07407407407407406,113.85185185185182,0)" xlink:href="#X"/></g><g id="p"><use transform="matrix(0.07407407407407406,0,0,0.07407407407407406,0,0)" xlink:href="#V"/><use transform="matrix(0.07407407407407406,0,0,0.07407407407407406,13.33333333333333,0)" xlink:href="#C"/><use transform="matrix(0.07407407407407406,0,0,0.07407407407407406,28.14814814814814,0)" xlink:href="#J"/><use transform="matrix(0.07407407407407406,0,0,0.07407407407407406,42.962962962962955,0)" xlink:href="#T"/><use transform="matrix(0.07407407407407406,0,0,0.07407407407407406,57.777777777777764,0)" xlink:href="#K"/><use transform="matrix(0.07407407407407406,0,0,0.07407407407407406,63.62962962962961,0)" xlink:href="#L"/><use transform="matrix(0.07407407407407406,0,0,0.07407407407407406,76.96296296296295,0)" xlink:href="#K"/><use transform="matrix(0.07407407407407406,0,0,0.07407407407407406,82.8148148148148,0)" xlink:href="#U"/><use transform="matrix(0.07407407407407406,0,0,0.07407407407407406,96.14814814814812,0)" xlink:href="#C"/></g><path fill="#333" d="M187 0l-14-72H61L19 0h-37l149-248h38L221 0h-34zm-19-99l-22-123L76-99h92" id="ae"/><path fill="#333" d="M133-28C103 26-5 8 13-77c13-62 24-115 90-117 29-1 46 15 56 35l19-102h32L160 0h-30zM45-64c-2 27 10 43 35 43 54-1 69-50 69-103 0-29-15-46-42-46-53-1-58 58-62 106" id="af"/><path fill="#333" d="M248-111c6-24 9-61-24-58-72 9-57 108-77 169h-31l26-142c3-37-50-30-64-10C52-115 50-51 37 0H6l36-190h30c-1 10-6 24-4 32 13-43 101-52 105 5 13-22 29-41 61-41 90 0 28 129 23 194h-31" id="ag"/><path fill="#333" d="M50-231l6-30h32l-6 30H50zM6 0l37-190h31L37 0H6" id="ah"/><path fill="#333" d="M67-158c22-48 132-52 116 29L158 0h-32l25-140c3-38-53-32-70-12C52-117 51-52 38 0H6l36-190h30" id="ai"/><g id="q"><use transform="matrix(0.07407407407407407,0,0,0.07407407407407407,0,0)" xlink:href="#ae"/><use transform="matrix(0.07407407407407407,0,0,0.07407407407407407,17.77777777777778,0)" xlink:href="#af"/><use transform="matrix(0.07407407407407407,0,0,0.07407407407407407,32.592592592592595,0)" xlink:href="#ag"/><use transform="matrix(0.07407407407407407,0,0,0.07407407407407407,54.74074074074074,0)" xlink:href="#ah"/><use transform="matrix(0.07407407407407407,0,0,0.07407407407407407,60.592592592592595,0)" xlink:href="#ai"/></g><path fill="#333" d="M-5 72V49h209v23H-5" id="aj"/><path fill="#333" d="M33 0v-38h34V0H33" id="ak"/><g id="r"><use transform="matrix(0.05,0,0,0.05,0,0)" xlink:href="#H"/><use transform="matrix(0.05,0,0,0.05,5.95,0)" xlink:href="#W"/><use transform="matrix(0.05,0,0,0.05,15.949999999999998,0)" xlink:href="#J"/><use transform="matrix(0.05,0,0,0.05,25.950000000000003,0)" xlink:href="#T"/><use transform="matrix(0.05,0,0,0.05,35.95,0)" xlink:href="#C"/><use transform="matrix(0.05,0,0,0.05,45.95,0)" xlink:href="#C"/><use transform="matrix(0.05,0,0,0.05,55.95,0)" xlink:href="#D"/><use transform="matrix(0.05,0,0,0.05,65.95,0)" xlink:href="#aj"/><use transform="matrix(0.05,0,0,0.05,75.95,0)" xlink:href="#V"/><use transform="matrix(0.05,0,0,0.05,84.95,0)" xlink:href="#C"/><use transform="matrix(0.05,0,0,0.05,94.95,0)" xlink:href="#L"/><use transform="matrix(0.05,0,0,0.05,103.95,0)" xlink:href="#G"/><use transform="matrix(0.05,0,0,0.05,113.95,0)" xlink:href="#H"/><use transform="matrix(0.05,0,0,0.05,119.9,0)" xlink:href="#W"/><use transform="matrix(0.05,0,0,0.05,129.9,0)" xlink:href="#I"/><use transform="matrix(0.05,0,0,0.05,139.9,0)" xlink:href="#G"/><use transform="matrix(0.05,0,0,0.05,149.9,0)" xlink:href="#ak"/><use transform="matrix(0.05,0,0,0.05,154.9,0)" xlink:href="#D"/><use transform="matrix(0.05,0,0,0.05,164.9,0)" xlink:href="#X"/></g><g id="s"><use transform="matrix(0.05,0,0,0.05,0,0)" xlink:href="#U"/><use transform="matrix(0.05,0,0,0.05,9,0)" xlink:href="#W"/><use transform="matrix(0.05,0,0,0.05,19,0)" xlink:href="#B"/><use transform="matrix(0.05,0,0,0.05,22.95,0)" xlink:href="#L"/><use transform="matrix(0.05,0,0,0.05,31.950000000000003,0)" xlink:href="#W"/><use transform="matrix(0.05,0,0,0.05,41.95,0)" xlink:href="#R"/><use transform="matrix(0.05,0,0,0.05,46.95,0)" xlink:href="#W"/><use transform="matrix(0.05,0,0,0.05,56.95,0)" xlink:href="#I"/><use transform="matrix(0.05,0,0,0.05,66.95,0)" xlink:href="#I"/><use transform="matrix(0.05,0,0,0.05,76.95,0)" xlink:href="#K"/><use transform="matrix(0.05,0,0,0.05,80.9,0)" xlink:href="#C"/></g><g id="t"><use transform="matrix(0.05,0,0,0.05,0,0)" xlink:href="#J"/><use transform="matrix(0.05,0,0,0.05,10,0)" xlink:href="#G"/><use transform="matrix(0.05,0,0,0.05,20,0)" xlink:href="#B"/></g><g id="u"><use transform="matrix(0.05,0,0,0.05,0,0)" xlink:href="#H"/><use transform="matrix(0.05,0,0,0.05,5.95,0)" xlink:href="#G"/><use transform="matrix(0.05,0,0,0.05,15.949999999999998,0)" xlink:href="#D"/><use transform="matrix(0.05,0,0,0.05,25.950000000000003,0)" xlink:href="#C"/><use transform="matrix(0.05,0,0,0.05,35.95,0)" xlink:href="#U"/><use transform="matrix(0.05,0,0,0.05,44.95,0)" xlink:href="#K"/><use transform="matrix(0.05,0,0,0.05,48.900000000000006,0)" xlink:href="#R"/><use transform="matrix(0.05,0,0,0.05,53.900000000000006,0)" xlink:href="#C"/><use transform="matrix(0.05,0,0,0.05,63.900000000000006,0)" xlink:href="#H"/><use transform="matrix(0.05,0,0,0.05,69.85000000000001,0)" xlink:href="#X"/></g><g id="v"><use transform="matrix(0.05,0,0,0.05,0,0)" xlink:href="#aa"/><use transform="matrix(0.05,0,0,0.05,5.95,0)" xlink:href="#V"/><use transform="matrix(0.05,0,0,0.05,14.949999999999998,0)" xlink:href="#C"/><use transform="matrix(0.05,0,0,0.05,24.95,0)" xlink:href="#L"/><use transform="matrix(0.05,0,0,0.05,33.95,0)" xlink:href="#G"/><use transform="matrix(0.05,0,0,0.05,43.95,0)" xlink:href="#H"/><use transform="matrix(0.05,0,0,0.05,49.900000000000006,0)" xlink:href="#W"/><use transform="matrix(0.05,0,0,0.05,59.900000000000006,0)" xlink:href="#I"/><use transform="matrix(0.05,0,0,0.05,69.9,0)" xlink:href="#G"/><use transform="matrix(0.05,0,0,0.05,79.9,0)" xlink:href="#O"/><use transform="matrix(0.05,0,0,0.05,92.85000000000001,0)" xlink:href="#P"/><use transform="matrix(0.05,0,0,0.05,104.85000000000001,0)" xlink:href="#Q"/><use transform="matrix(0.05,0,0,0.05,116.85000000000001,0)" xlink:href="#ac"/></g><path fill="#333" d="M30-248c118-7 216 8 213 122C240-48 200 0 122 0H30v-248zM63-27c89 8 146-16 146-99s-60-101-146-95v194" id="al"/><g id="w"><use transform="matrix(0.04938271604938272,0,0,0.04938271604938272,0,0)" xlink:href="#al"/><use transform="matrix(0.04938271604938272,0,0,0.04938271604938272,12.790123456790125,0)" xlink:href="#C"/><use transform="matrix(0.04938271604938272,0,0,0.04938271604938272,22.66666666666667,0)" xlink:href="#J"/><use transform="matrix(0.04938271604938272,0,0,0.04938271604938272,32.543209876543216,0)" xlink:href="#G"/></g><path fill="#333" d="M210-169c-67 3-38 105-44 169h-31v-121c0-29-5-50-35-48C34-165 62-65 56 0H25l-1-190h30c1 10-1 24 2 32 10-44 99-50 107 0 11-21 27-35 58-36 85-2 47 119 55 194h-31v-121c0-29-5-49-35-48" id="am"/><g id="x"><use transform="matrix(0.05,0,0,0.05,0,0)" xlink:href="#H"/><use transform="matrix(0.05,0,0,0.05,5.95,0)" xlink:href="#G"/><use transform="matrix(0.05,0,0,0.05,15.949999999999998,0)" xlink:href="#D"/><use transform="matrix(0.05,0,0,0.05,25.950000000000003,0)" xlink:href="#B"/><use transform="matrix(0.05,0,0,0.05,29.899999999999995,0)" xlink:href="#W"/><use transform="matrix(0.05,0,0,0.05,39.9,0)" xlink:href="#V"/><use transform="matrix(0.05,0,0,0.05,48.9,0)" xlink:href="#G"/><use transform="matrix(0.05,0,0,0.05,58.900000000000006,0)" xlink:href="#aj"/><use transform="matrix(0.05,0,0,0.05,68.9,0)" xlink:href="#V"/><use transform="matrix(0.05,0,0,0.05,77.9,0)" xlink:href="#B"/><use transform="matrix(0.05,0,0,0.05,81.85000000000001,0)" xlink:href="#W"/><use transform="matrix(0.05,0,0,0.05,91.85000000000001,0)" xlink:href="#U"/><use transform="matrix(0.05,0,0,0.05,100.85000000000001,0)" xlink:href="#U"/><use transform="matrix(0.05,0,0,0.05,109.85000000000001,0)" xlink:href="#J"/><use transform="matrix(0.05,0,0,0.05,119.85000000000001,0)" xlink:href="#W"/><use transform="matrix(0.05,0,0,0.05,129.85000000000002,0)" xlink:href="#am"/><use transform="matrix(0.05,0,0,0.05,144.8,0)" xlink:href="#G"/><use transform="matrix(0.05,0,0,0.05,154.8,0)" xlink:href="#aa"/><use transform="matrix(0.05,0,0,0.05,160.75,0)" xlink:href="#ac"/></g><g id="y"><use transform="matrix(0.05185185185185186,0,0,0.05185185185185186,0,0)" xlink:href="#H"/><use transform="matrix(0.05185185185185186,0,0,0.05185185185185186,6.170370370370371,0)" xlink:href="#G"/><use transform="matrix(0.05185185185185186,0,0,0.05185185185185186,16.540740740740745,0)" xlink:href="#D"/><use transform="matrix(0.05185185185185186,0,0,0.05185185185185186,26.91111111111112,0)" xlink:href="#B"/><use transform="matrix(0.05185185185185186,0,0,0.05185185185185186,31.00740740740741,0)" xlink:href="#W"/><use transform="matrix(0.05185185185185186,0,0,0.05185185185185186,41.37777777777779,0)" xlink:href="#V"/><use transform="matrix(0.05185185185185186,0,0,0.05185185185185186,50.71111111111112,0)" xlink:href="#G"/><use transform="matrix(0.05185185185185186,0,0,0.05185185185185186,61.0814814814815,0)" xlink:href="#aj"/><use transform="matrix(0.05185185185185186,0,0,0.05185185185185186,71.45185185185187,0)" xlink:href="#R"/><use transform="matrix(0.05185185185185186,0,0,0.05185185185185186,76.63703703703706,0)" xlink:href="#G"/><use transform="matrix(0.05185185185185186,0,0,0.05185185185185186,87.00740740740743,0)" xlink:href="#U"/><use transform="matrix(0.05185185185185186,0,0,0.05185185185185186,96.34074074074076,0)" xlink:href="#R"/><use transform="matrix(0.05185185185185186,0,0,0.05185185185185186,101.52592592592595,0)" xlink:href="#aj"/><use transform="matrix(0.05185185185185186,0,0,0.05185185185185186,111.89629629629631,0)" xlink:href="#J"/><use transform="matrix(0.05185185185185186,0,0,0.05185185185185186,122.26666666666668,0)" xlink:href="#W"/><use transform="matrix(0.05185185185185186,0,0,0.05185185185185186,132.63703703703706,0)" xlink:href="#am"/><use transform="matrix(0.05185185185185186,0,0,0.05185185185185186,148.14074074074077,0)" xlink:href="#G"/><use transform="matrix(0.05185185185185186,0,0,0.05185185185185186,158.51111111111115,0)" xlink:href="#U"/><use transform="matrix(0.05185185185185186,0,0,0.05185185185185186,167.8444444444445,0)" xlink:href="#aj"/><use transform="matrix(0.05185185185185186,0,0,0.05185185185185186,178.21481481481487,0)" xlink:href="#K"/><use transform="matrix(0.05185185185185186,0,0,0.05185185185185186,182.31111111111116,0)" xlink:href="#J"/><use transform="matrix(0.05185185185185186,0,0,0.05185185185185186,192.68148148148154,0)" xlink:href="#aj"/><use transform="matrix(0.05185185185185186,0,0,0.05185185185185186,203.05185185185192,0)" xlink:href="#R"/><use transform="matrix(0.05185185185185186,0,0,0.05185185185185186,208.2370370370371,0)" xlink:href="#G"/><use transform="matrix(0.05185185185185186,0,0,0.05185185185185186,218.60740740740746,0)" xlink:href="#U"/><use transform="matrix(0.05185185185185186,0,0,0.05185185185185186,227.94074074074086,0)" xlink:href="#R"/><use transform="matrix(0.05185185185185186,0,0,0.05185185185185186,233.12592592592605,0)" xlink:href="#U"/><use transform="matrix(0.05185185185185186,0,0,0.05185185185185186,242.45925925925937,0)" xlink:href="#S"/><use transform="matrix(0.05185185185185186,0,0,0.05185185185185186,252.82962962962975,0)" xlink:href="#K"/><use transform="matrix(0.05185185185185186,0,0,0.05185185185185186,256.92592592592604,0)" xlink:href="#R"/><use transform="matrix(0.05185185185185186,0,0,0.05185185185185186,262.1111111111112,0)" xlink:href="#G"/><use transform="matrix(0.05185185185185186,0,0,0.05185185185185186,272.4814814814816,0)" xlink:href="#U"/><use transform="matrix(0.05185185185185186,0,0,0.05185185185185186,281.8148148148149,0)" xlink:href="#aa"/><use transform="matrix(0.05185185185185186,0,0,0.05185185185185186,287.9851851851853,0)" xlink:href="#ac"/></g><g id="z"><use transform="matrix(0.05185185185185186,0,0,0.05185185185185186,0,0)" xlink:href="#V"/><use transform="matrix(0.05185185185185186,0,0,0.05185185185185186,9.333333333333334,0)" xlink:href="#C"/><use transform="matrix(0.05185185185185186,0,0,0.05185185185185186,19.703703703703706,0)" xlink:href="#am"/><use transform="matrix(0.05185185185185186,0,0,0.05185185185185186,35.20740740740741,0)" xlink:href="#D"/><use transform="matrix(0.05185185185185186,0,0,0.05185185185185186,45.57777777777778,0)" xlink:href="#K"/><use transform="matrix(0.05185185185185186,0,0,0.05185185185185186,49.67407407407408,0)" xlink:href="#B"/><use transform="matrix(0.05185185185185186,0,0,0.05185185185185186,53.77037037037038,0)" xlink:href="#G"/><use transform="matrix(0.05185185185185186,0,0,0.05185185185185186,64.14074074074074,0)" xlink:href="#aj"/><use transform="matrix(0.05185185185185186,0,0,0.05185185185185186,74.5111111111111,0)" xlink:href="#W"/><use transform="matrix(0.05185185185185186,0,0,0.05185185185185186,84.88148148148147,0)" xlink:href="#J"/><use transform="matrix(0.05185185185185186,0,0,0.05185185185185186,95.25185185185184,0)" xlink:href="#T"/><use transform="matrix(0.05185185185185186,0,0,0.05185185185185186,105.6222222222222,0)" xlink:href="#aj"/><use transform="matrix(0.05185185185185186,0,0,0.05185185185185186,115.99259259259259,0)" xlink:href="#am"/><use transform="matrix(0.05185185185185186,0,0,0.05185185185185186,131.49629629629626,0)" xlink:href="#G"/><use transform="matrix(0.05185185185185186,0,0,0.05185185185185186,141.86666666666665,0)" xlink:href="#W"/><use transform="matrix(0.05185185185185186,0,0,0.05185185185185186,152.23703703703703,0)" xlink:href="#U"/><use transform="matrix(0.05185185185185186,0,0,0.05185185185185186,161.57037037037037,0)" xlink:href="#S"/><use transform="matrix(0.05185185185185186,0,0,0.05185185185185186,171.94074074074075,0)" xlink:href="#H"/><use transform="matrix(0.05185185185185186,0,0,0.05185185185185186,178.11111111111111,0)" xlink:href="#G"/><use transform="matrix(0.05185185185185186,0,0,0.05185185185185186,188.4814814814815,0)" xlink:href="#aa"/><use transform="matrix(0.05185185185185186,0,0,0.05185185185185186,194.65185185185186,0)" xlink:href="#ac"/></g><path fill="#333" d="M143 0L79-87 56-68V0H24v-261h32v163l83-92h37l-77 82L181 0h-38" id="an"/><g id="A"><use transform="matrix(0.04938271604938272,0,0,0.04938271604938272,0,0)" xlink:href="#U"/><use transform="matrix(0.04938271604938272,0,0,0.04938271604938272,8.88888888888889,0)" xlink:href="#an"/><use transform="matrix(0.04938271604938272,0,0,0.04938271604938272,17.77777777777778,0)" xlink:href="#K"/><use transform="matrix(0.04938271604938272,0,0,0.04938271604938272,21.679012345679013,0)" xlink:href="#D"/><use transform="matrix(0.04938271604938272,0,0,0.04938271604938272,31.555555555555557,0)" xlink:href="#D"/><use transform="matrix(0.04938271604938272,0,0,0.04938271604938272,41.4320987654321,0)" xlink:href="#K"/><use transform="matrix(0.04938271604938272,0,0,0.04938271604938272,45.333333333333336,0)" xlink:href="#J"/><use transform="matrix(0.04938271604938272,0,0,0.04938271604938272,55.20987654320988,0)" xlink:href="#I"/></g></defs></g></svg>