<svg xmlns="http://www.w3.org/2000/svg" xmlns:xlink="http://www.w3.org/1999/xlink" xmlns:lucid="lucid" width="1583" height="1193"><g transform="translate(4024 1638)" lucid:page-tab-id="0_0"><path d="M-2663.3-1450.9v10m0 10v20m0 10v20m0 10v20m0 10v20m0 10v20m0 10v20.02m0 10v20m0 10v20m0 10v20m0 10v20.02m0 10v20m0 10v20m0 10v20m0 10v20.02m0 10v20m0 10v20m0 10v20m0 10v20.02m0 10v20m0 10v20m0 10v20m0 10v20.02m0 10v20m0 10v20m0 10v20m0 10v20.02m0 10v20m0 10v20m0 10v20m0 10v20.02m0 10v20m0 10v20m0 10v20m0 10v10.02" stroke="#333" fill="none"/><path d="M-2662.8-1450.9h-1v-.5h1z" stroke="#333" stroke-width=".05" fill="#333"/><path d="M-2663.3-430.76v.52" stroke="#333" fill="none"/><path d="M-2683.3-1240.5a8 8 0 0 1 8-8h24a8 8 0 0 1 8 8v27.03a8 8 0 0 1-8 8h-24a8 8 0 0 1-8-8z" stroke="#f2f2f2" fill="#6db1ff"/><path d="M-3934.13-1162.73a8 8 0 0 1 8-8h84a8 8 0 0 1 8 8v4.93a17.07 17.07 0 0 1-5 12.07 17.07 17.07 0 0 1-12.07 5h-74.93a8 8 0 0 1-8-8z" fill="#fff"/><path d="M-3834.13-1170.73v20l-10 10h-90" stroke="#333" fill="none"/><path d="M-3934.13-1162.73a8 8 0 0 1 8-8h1321.26a8 8 0 0 1 8 8v341.5a8 8 0 0 1-8 8h-1321.26a8 8 0 0 1-8-8zM-3934.13-918.8h20m15 0h20m15 0h20m15 0h20m15 0h20m15 0h20m15 0h20m15 0h20m15 0h20m15 0h20m15 0h20m15 0h20m15 0h20m15 0h20m15 0h20m15 0h20m15 0h20m15 0h20m15 0h20m15 0h20m15 0h20m15 0h20m15 0h20m15 0h20m15 0h20m15 0h20m15 0h20m15 0h20m15 0h20m15 0h20m15 0h20m15 0h20m15 0h20m15 0h20m15 0h20m15 0h20m15 0h20m15 0h20m15 0h7.26" stroke="#333" fill="none"/><use xlink:href="#a" transform="matrix(1,0,0,1,-3926.1278091575364,-1170.7270406914104) translate(36.525 18.6)"/><use xlink:href="#b" transform="matrix(1,0,0,1,-3922.1278091575364,-1132.7270406914104) translate(4.024999999999999 18.6)"/><use xlink:href="#c" transform="matrix(1,0,0,1,-3922.1278091575364,-1132.7270406914104) translate(50.975 18.6)"/><use xlink:href="#d" transform="matrix(1,0,0,1,-3922.1278091575364,-1132.7270406914104) translate(80.975 18.6)"/><use xlink:href="#e" transform="matrix(1,0,0,1,-3922.1278091575364,-910.8028875970922) translate(18.525 18.6)"/><path d="M-3730.3-1505.18v10.05m0 10.05v20.1m0 10.05v20.1m0 10.04v20.1m0 10.06v20.1m0 10.05v20.1m0 10.06v20.1m0 10.05v20.1m0 10.06v20.1m0 10.04v20.1m0 10.05v20.1m0 10.05v20.1m0 10.05v20.1m0 10.05v20.1m0 10.05v20.1m0 10.04v20.1m0 10.04v20.1m0 10.05v20.1m0 10.04v20.1m0 10.05v20.08m0 10.05v20.1m0 10.05v20.1m0 10.05v20.1m0 10.05v20.1m0 10.05v20.1m0 10.05v20.1m0 10.04v20.1m0 10.05v20.1m0 10.05v20.1m0 10.05v20.1m0 10.05v20.1m0 10.04v20.1m0 10.05v20.1m0 10.06v20.1m0 10.05v20.1m0 10.06v20.1m0 10.05v10.05M-3730.3-419.86v.5" stroke="#333" fill="none"/><path d="M-3750.3-1361.08a8 8 0 0 1 8-8h24a8 8 0 0 1 8 8v790.9a8 8 0 0 1-8 8h-24a8 8 0 0 1-8-8z" stroke="#f2f2f2" fill="#6db1ff"/><path d="M-3963.25-1274.83a8 8 0 0 1 8-8h84a8 8 0 0 1 8 8v4.93a17.07 17.07 0 0 1-5 12.07 17.07 17.07 0 0 1-12.07 5h-74.93a8 8 0 0 1-8-8z" fill="#fff"/><path d="M-3863.25-1282.83v20l-10 10h-90" stroke="#333" fill="none"/><path d="M-3963.25-1274.83a8 8 0 0 1 8-8h1446.27a8 8 0 0 1 8 8v769a8 8 0 0 1-8 8h-1446.27a8 8 0 0 1-8-8z" stroke="#333" fill="none"/><use xlink:href="#f" transform="matrix(1,0,0,1,-3955.2526144443204,-1282.8323396985488) translate(24.025 18.6)"/><use xlink:href="#g" transform="matrix(1,0,0,1,-3951.2526144443204,-1244.8323396985488) translate(4.074999999999996 14.4)"/><use xlink:href="#h" transform="matrix(1,0,0,1,-3951.2526144443204,-1244.8323396985488) translate(42.025 14.4)"/><use xlink:href="#i" transform="matrix(1,0,0,1,-3951.2526144443204,-1244.8323396985488) translate(80.975 14.4)"/><use xlink:href="#j" transform="matrix(1,0,0,1,-3951.2526144443204,-1244.8323396985488) translate(11.599999999999994 36)"/><use xlink:href="#k" transform="matrix(1,0,0,1,-3951.2526144443204,-1244.8323396985488) translate(40.55 36)"/><path d="M-3934.13-750.44a8 8 0 0 1 8-8h84a8 8 0 0 1 8 8v4.93a17.07 17.07 0 0 1-5 12.06 17.07 17.07 0 0 1-12.07 5h-74.93a8 8 0 0 1-8-8z" fill="#fff"/><path d="M-3834.13-758.44v20l-10 10h-90" stroke="#333" fill="none"/><path d="M-3934.13-750.44a8 8 0 0 1 8-8h1321.26a8 8 0 0 1 8 8v210.5a8 8 0 0 1-8 8h-1321.26a8 8 0 0 1-8-8zM-3934.13-643.4h20m15 0h20m15 0h20m15 0h20m15 0h20m15 0h20m15 0h20m15 0h20m15 0h20m15 0h20m15 0h20m15 0h20m15 0h20m15 0h20m15 0h20m15 0h20m15 0h20m15 0h20m15 0h20m15 0h20m15 0h20m15 0h20m15 0h20m15 0h20m15 0h20m15 0h20m15 0h20m15 0h20m15 0h20m15 0h20m15 0h20m15 0h20m15 0h20m15 0h20m15 0h20m15 0h20m15 0h20m15 0h20m15 0h7.26" stroke="#333" fill="none"/><use xlink:href="#a" transform="matrix(1,0,0,1,-3926.1278091575364,-758.4368105552712) translate(36.525 18.6)"/><use xlink:href="#l" transform="matrix(1,0,0,1,-3922.1278091575364,-720.4368105552712) translate(4.049999999999997 18.6)"/><use xlink:href="#m" transform="matrix(1,0,0,1,-3922.1278091575364,-720.4368105552712) translate(84.95 18.6)"/><use xlink:href="#n" transform="matrix(1,0,0,1,-3922.1278091575364,-720.4368105552712) translate(110.95 18.6)"/><use xlink:href="#e" transform="matrix(1,0,0,1,-3922.1278091575364,-635.3933626187791) translate(18.525 18.6)"/><path d="M-3312.96-1440.9v9.86m0 9.88v19.75m0 9.87v19.75m0 9.88v19.76m0 9.87v19.75m0 9.88v19.76m0 9.87v19.75m0 9.87v19.76m0 9.88v19.75m0 9.88v19.76m0 9.88v19.75m0 9.88v19.75m0 9.88v19.75m0 9.88v19.76m0 9.88v19.75m0 9.87v19.75m0 9.88v19.75m0 9.88v19.75m0 9.88v19.76m0 9.87v19.75m0 9.87v19.76m0 9.88v19.75m0 9.88v19.76m0 9.88v19.75m0 9.88v19.75m0 9.88v19.75m0 9.88v19.76m0 9.88V-631m0 9.87v19.75m0 9.88v19.75m0 9.88v19.75m0 9.88v19.76m0 9.87v19.75m0 9.87v19.76m0 9.88v9.87" stroke="#333" fill="none"/><path d="M-3312.46-1440.9h-1v-.5h1z" stroke="#333" stroke-width=".05" fill="#333"/><path d="M-3312.96-433.48v.5" stroke="#333" fill="none"/><path d="M-3332.96-1361.08a8 8 0 0 1 8-8h24a8 8 0 0 1 8 8v790.9a8 8 0 0 1-8 8h-24a8 8 0 0 1-8-8z" stroke="#f2f2f2" fill="#6db1ff"/><path d="M-3408-1598.4a8 8 0 0 1 8-8h174.08a8 8 0 0 1 8 8v149a8 8 0 0 1-8 8H-3400a8 8 0 0 1-8-8z" stroke="#000" stroke-opacity="0" fill="#6db1ff"/><use xlink:href="#o" transform="matrix(1,0,0,1,-3399.9997192863098,-1598.414671088265) translate(71.98148148148148 63.83333333333333)"/><use xlink:href="#p" transform="matrix(1,0,0,1,-3399.9997192863098,-1598.414671088265) translate(27.61111111111113 95.83333333333333)"/><path d="M-2758.33-1608.4a8 8 0 0 1 8-8h174.07a8 8 0 0 1 8 8v149a8 8 0 0 1-8 8h-174.07a8 8 0 0 1-8-8z" stroke="#000" stroke-opacity="0" fill="#6db1ff"/><use xlink:href="#q" transform="matrix(1,0,0,1,-2750.3310480137548,-1608.4146576718304) translate(23.907407407407426 63.833333333333336)"/><use xlink:href="#r" transform="matrix(1,0,0,1,-2750.3310480137548,-1608.4146576718304) translate(32.01851851851853 95.83333333333333)"/><path d="M-3710.54-1581.66c0 10.9-8.85 19.75-19.75 19.75s-19.74-8.86-19.74-19.76c0-10.9 8.84-19.75 19.75-19.75 10.9 0 19.76 8.83 19.76 19.74z" stroke="#333" fill="#6db1ff"/><path d="M-3730.3-1561.9v47.3a27.6 27.6 0 0 0 4.3 14.74l35.7 56.44m-40-63.2l-40 63.2m0-98.74h80" stroke="#333" fill="none"/><path d="M-3770.3-1593.4a8 8 0 0 1 8-8h64a8 8 0 0 1 8 8v164a8 8 0 0 1-8 8h-64a8 8 0 0 1-8-8z" fill="none"/><use xlink:href="#s" transform="matrix(1,0,0,1,-3850.2927192861553,-1443.4147069861738) translate(82.2962962962963 21.333333333333332)"/><path d="M-3291.96-1136.13h27.5a12 12 0 0 1 12 12v35.14a12 12 0 0 1-12 12h-11.62" stroke="#333" fill="none"/><path d="M-3291.95-1135.63h-.5v-1h.5z" stroke="#333" stroke-width=".05" fill="#333"/><path d="M-3290.84-1077l14.26-4.63v9.27z" stroke="#333" fill="#333"/><use xlink:href="#t" transform="matrix(1,0,0,1,-3244.462164301283,-1128.162257939831) translate(0.0049999999999954525 14.4)"/><use xlink:href="#u" transform="matrix(1,0,0,1,-3244.462164301283,-1128.162257939831) translate(188.855 14.4)"/><use xlink:href="#v" transform="matrix(1,0,0,1,-3244.462164301283,-1128.162257939831) translate(309.355 14.4)"/><use xlink:href="#w" transform="matrix(1,0,0,1,-3244.462164301283,-1128.162257939831) translate(79.50500000000002 36)"/><use xlink:href="#x" transform="matrix(1,0,0,1,-3244.462164301283,-1128.162257939831) translate(239.10500000000002 36)"/><path d="M-3291.96-1010.58h591.78" stroke="#333" fill="none"/><path d="M-3291.95-1010.08h-.5v-1h.5z" stroke="#333" stroke-width=".05" fill="#333"/><path d="M-2685.4-1010.58l-14.28 4.63v-9.27z" stroke="#333" fill="#333"/><use xlink:href="#y" transform="matrix(1,0,0,1,-3089.977767256763,-1057.7822879087319) translate(0.0049999999999954525 14.4)"/><use xlink:href="#z" transform="matrix(1,0,0,1,-3089.977767256763,-1057.7822879087319) translate(95.905 14.4)"/><use xlink:href="#A" transform="matrix(1,0,0,1,-3089.977767256763,-1057.7822879087319) translate(124.855 14.4)"/><use xlink:href="#B" transform="matrix(1,0,0,1,-3089.977767256763,-1057.7822879087319) translate(34.42999999999999 36)"/><use xlink:href="#C" transform="matrix(1,0,0,1,-3089.977767256763,-1057.7822879087319) translate(74.38 36)"/><use xlink:href="#D" transform="matrix(1,0,0,1,-3089.977767256763,-1057.7822879087319) translate(89.38 36)"/><path d="M-2683.3-1032.04a8 8 0 0 1 8-8h24a8 8 0 0 1 8 8v42.63a8 8 0 0 1-8 8h-24a8 8 0 0 1-8-8z" stroke="#f2f2f2" fill="#6db1ff"/><path d="M-3333.96-703.1h-4.8m-4.83 0h-9.6m-4.82 0h-9.63m-4.8 0h-9.63m-4.8 0h-9.64m-4.8 0h-9.63m-4.82 0h-9.62m-4.8 0h-9.62m-4.82 0h-9.62m-4.8 0h-9.64m-4.8 0h-9.63m-4.8 0h-9.64m-4.8 0h-9.63m-4.82 0h-10m-5.2 0h-10.4m-5.22 0h-10.4m-5.2 0h-10.4m-5.2 0h-10.4m-5.2 0h-10.4m-5.2 0h-10.42m-5.2 0h-10.4m-5.2 0h-10.4m-5.2 0h-10.4m-5.2 0h-10.4m-5.22 0h-10.4m-5.2 0h-5.2" stroke="#333" fill="none"/><path d="M-3333.46-702.6h-.5v-1h.5z" stroke="#333" stroke-width=".05" fill="#333"/><path d="M-3691.6-713.27l-17.2 10.18 17.2 10.2" stroke="#333" fill="none"/><g><use xlink:href="#E" transform="matrix(1,0,0,1,-3628.077379652183,-728.6850673867028) translate(0.0049999999999954525 14.4)"/><use xlink:href="#F" transform="matrix(1,0,0,1,-3628.077379652183,-728.6850673867028) translate(34.004999999999995 14.4)"/><use xlink:href="#G" transform="matrix(1,0,0,1,-3628.077379652183,-728.6850673867028) translate(103.905 14.4)"/><use xlink:href="#H" transform="matrix(1,0,0,1,-3628.077379652183,-728.6850673867028) translate(137.905 14.4)"/></g><path d="M-3333.96-599.85h-4.8m-4.83 0h-9.6m-4.82 0h-9.63m-4.8 0h-9.63m-4.8 0h-9.64m-4.8 0h-9.63m-4.82 0h-9.62m-4.8 0h-9.62m-4.82 0h-9.62m-4.8 0h-9.64m-4.8 0h-9.63m-4.8 0h-9.64m-4.8 0h-9.63m-4.82 0h-10m-5.2 0h-10.4m-5.22 0h-10.4m-5.2 0h-10.4m-5.2 0h-10.4m-5.2 0h-10.4m-5.2 0h-10.42m-5.2 0h-10.4m-5.2 0h-10.4m-5.2 0h-10.4m-5.2 0h-10.4m-5.22 0h-10.4m-5.2 0h-5.2" stroke="#333" fill="none"/><path d="M-3333.46-599.35h-.5v-1h.5z" stroke="#333" stroke-width=".05" fill="#333"/><path d="M-3691.6-610.02l-17.2 10.17 17.2 10.2" stroke="#333" fill="none"/><g><use xlink:href="#I" transform="matrix(1,0,0,1,-3652.2940223920705,-595.8445190660609) translate(0.0049999999999954525 14.933333333333335)"/><use xlink:href="#J" transform="matrix(1,0,0,1,-3652.2940223920705,-595.8445190660609) translate(18.619814814814813 14.933333333333335)"/><use xlink:href="#K" transform="matrix(1,0,0,1,-3652.2940223920705,-595.8445190660609) translate(37.7012962962963 14.933333333333335)"/><use xlink:href="#L" transform="matrix(1,0,0,1,-3652.2940223920705,-595.8445190660609) translate(117.39759259259262 14.933333333333335)"/><use xlink:href="#M" transform="matrix(1,0,0,1,-3652.2940223920705,-595.8445190660609) translate(143.32351851851854 14.933333333333335)"/><use xlink:href="#N" transform="matrix(1,0,0,1,-3652.2940223920705,-595.8445190660609) translate(198.13092592592596 14.933333333333335)"/><use xlink:href="#O" transform="matrix(1,0,0,1,-3652.2940223920705,-595.8445190660609) translate(32.619814814814816 40.26666666666667)"/><use xlink:href="#P" transform="matrix(1,0,0,1,-3652.2940223920705,-595.8445190660609) translate(139.74574074074076 40.26666666666667)"/><use xlink:href="#Q" transform="matrix(1,0,0,1,-3652.2940223920705,-595.8445190660609) translate(184.23462962962967 40.26666666666667)"/></g><path d="M-3709.3-1317.7h359.45" stroke="#333" fill="none"/><path d="M-3709.28-1317.2h-.5v-1h.5z" stroke="#333" stroke-width=".05" fill="#333"/><path d="M-3335.08-1317.7l-14.27 4.64v-9.27z" stroke="#333" fill="#333"/><g><use xlink:href="#R" transform="matrix(1,0,0,1,-3613.052478406803,-1343.2925636214554) translate(0.0049999999999954525 14.4)"/></g><path d="M-3333.96-870.73h-4.8m-4.83 0h-9.6m-4.82 0h-9.63m-4.8 0h-9.63m-4.8 0h-9.64m-4.8 0h-9.63m-4.82 0h-9.62m-4.8 0h-9.63m-4.8 0h-9.63m-4.8 0h-9.64m-4.8 0h-9.63m-4.8 0h-9.64m-4.8 0h-9.63m-4.82 0h-10m-5.2 0h-10.4m-5.22 0h-10.4m-5.2 0h-10.4m-5.2 0h-10.4m-5.2 0h-10.4m-5.2 0h-10.42m-5.2 0h-10.4m-5.2 0h-10.4m-5.2 0h-10.4m-5.2 0h-10.4m-5.22 0h-10.4m-5.2 0h-5.2" stroke="#333" fill="none"/><path d="M-3333.46-870.23h-.5v-1h.5z" stroke="#333" stroke-width=".05" fill="#333"/><path d="M-3691.6-880.9l-17.2 10.17 17.2 10.18" stroke="#333" fill="none"/><g><use xlink:href="#S" transform="matrix(1,0,0,1,-3554.5773977532817,-896.3268090244892) translate(0.005000000000002558 14.4)"/></g><path d="M-3291.96-1227.66h591.78" stroke="#333" fill="none"/><path d="M-3291.95-1227.16h-.5v-1h.5z" stroke="#333" stroke-width=".05" fill="#333"/><path d="M-2685.4-1227.66l-14.28 4.63v-9.27z" stroke="#333" fill="#333"/><g><use xlink:href="#T" transform="matrix(1,0,0,1,-3006.102791117656,-1253.2614975330823) translate(0.004999999999999005 14.4)"/></g><defs><path fill="#333" d="M24-231v-30h32v30H24zM24 0v-190h32V0H24" id="U"/><path fill="#333" d="M101-234c-31-9-42 10-38 44h38v23H63V0H32v-167H5v-23h27c-7-52 17-82 69-68v24" id="V"/><g id="a"><use transform="matrix(0.05,0,0,0.05,0,0)" xlink:href="#U"/><use transform="matrix(0.05,0,0,0.05,3.95,0)" xlink:href="#V"/></g><path fill="#333" d="M26 75v-336h71v23H56V52h41v23H26" id="W"/><path fill="#333" d="M212-179c-10-28-35-45-73-45-59 0-87 40-87 99 0 60 29 101 89 101 43 0 62-24 78-52l27 14C228-24 195 4 139 4 59 4 22-46 18-125c-6-104 99-153 187-111 19 9 31 26 39 46" id="X"/><path fill="#333" d="M185-189c-5-48-123-54-124 2 14 75 158 14 163 119 3 78-121 87-175 55-17-10-28-26-33-46l33-7c5 56 141 63 141-1 0-78-155-14-162-118-5-82 145-84 179-34 5 7 8 16 11 25" id="Y"/><path fill="#333" d="M137 0h-34L2-248h35l83 218 83-218h36" id="Z"/><g id="b"><use transform="matrix(0.05,0,0,0.05,0,0)" xlink:href="#W"/><use transform="matrix(0.05,0,0,0.05,5,0)" xlink:href="#X"/><use transform="matrix(0.05,0,0,0.05,17.950000000000003,0)" xlink:href="#Y"/><use transform="matrix(0.05,0,0,0.05,29.950000000000003,0)" xlink:href="#Z"/></g><path fill="#333" d="M117-194c89-4 53 116 60 194h-32v-121c0-31-8-49-39-48C34-167 62-67 57 0H25l-1-190h30c1 10-1 24 2 32 11-22 29-35 61-36" id="aa"/><path fill="#333" d="M100-194c62-1 85 37 85 99 1 63-27 99-86 99S16-35 15-95c0-66 28-99 85-99zM99-20c44 1 53-31 53-75 0-43-8-75-51-75s-53 32-53 75 10 74 51 75" id="ab"/><path fill="#333" d="M59-47c-2 24 18 29 38 22v24C64 9 27 4 27-40v-127H5v-23h24l9-43h21v43h35v23H59v120" id="ac"/><g id="c"><use transform="matrix(0.05,0,0,0.05,0,0)" xlink:href="#aa"/><use transform="matrix(0.05,0,0,0.05,10,0)" xlink:href="#ab"/><use transform="matrix(0.05,0,0,0.05,20,0)" xlink:href="#ac"/></g><path fill="#333" d="M84 4C-5 8 30-112 23-190h32v120c0 31 7 50 39 49 72-2 45-101 50-169h31l1 190h-30c-1-10 1-25-2-33-11 22-28 36-60 37" id="ad"/><path fill="#333" d="M85-194c31 0 48 13 60 33l-1-100h32l1 261h-30c-2-10 0-23-3-31C134-8 116 4 85 4 32 4 16-35 15-94c0-66 23-100 70-100zm9 24c-40 0-46 34-46 75 0 40 6 74 45 74 42 0 51-32 51-76 0-42-9-74-50-73" id="ae"/><path fill="#333" d="M3 75V52h41v-290H3v-23h71V75H3" id="af"/><g id="d"><use transform="matrix(0.05,0,0,0.05,0,0)" xlink:href="#V"/><use transform="matrix(0.05,0,0,0.05,5,0)" xlink:href="#ab"/><use transform="matrix(0.05,0,0,0.05,15,0)" xlink:href="#ad"/><use transform="matrix(0.05,0,0,0.05,25,0)" xlink:href="#aa"/><use transform="matrix(0.05,0,0,0.05,35,0)" xlink:href="#ae"/><use transform="matrix(0.05,0,0,0.05,45,0)" xlink:href="#af"/></g><path fill="#333" d="M100-194c63 0 86 42 84 106H49c0 40 14 67 53 68 26 1 43-12 49-29l28 8c-11 28-37 45-77 45C44 4 14-33 15-96c1-61 26-98 85-98zm52 81c6-60-76-77-97-28-3 7-6 17-6 28h103" id="ag"/><path fill="#333" d="M24 0v-261h32V0H24" id="ah"/><path fill="#333" d="M135-143c-3-34-86-38-87 0 15 53 115 12 119 90S17 21 10-45l28-5c4 36 97 45 98 0-10-56-113-15-118-90-4-57 82-63 122-42 12 7 21 19 24 35" id="ai"/><g id="e"><use transform="matrix(0.05,0,0,0.05,0,0)" xlink:href="#W"/><use transform="matrix(0.05,0,0,0.05,5,0)" xlink:href="#ag"/><use transform="matrix(0.05,0,0,0.05,15,0)" xlink:href="#ah"/><use transform="matrix(0.05,0,0,0.05,18.95,0)" xlink:href="#ai"/><use transform="matrix(0.05,0,0,0.05,27.950000000000003,0)" xlink:href="#ag"/><use transform="matrix(0.05,0,0,0.05,37.95,0)" xlink:href="#af"/></g><path fill="#333" d="M115-194c55 1 70 41 70 98S169 2 115 4C84 4 66-9 55-30l1 105H24l-1-265h31l2 30c10-21 28-34 59-34zm-8 174c40 0 45-34 45-75s-6-73-45-74c-42 0-51 32-51 76 0 43 10 73 51 73" id="aj"/><g id="f"><use transform="matrix(0.05,0,0,0.05,0,0)" xlink:href="#ah"/><use transform="matrix(0.05,0,0,0.05,3.95,0)" xlink:href="#ab"/><use transform="matrix(0.05,0,0,0.05,13.949999999999998,0)" xlink:href="#ab"/><use transform="matrix(0.05,0,0,0.05,23.95,0)" xlink:href="#aj"/></g><path fill="#333" d="M30-248c87 1 191-15 191 75 0 78-77 80-158 76V0H30v-248zm33 125c57 0 124 11 124-50 0-59-68-47-124-48v98" id="ak"/><path fill="#333" d="M114-163C36-179 61-72 57 0H25l-1-190h30c1 12-1 29 2 39 6-27 23-49 58-41v29" id="al"/><g id="g"><use transform="matrix(0.05,0,0,0.05,0,0)" xlink:href="#W"/><use transform="matrix(0.05,0,0,0.05,5,0)" xlink:href="#ak"/><use transform="matrix(0.05,0,0,0.05,17,0)" xlink:href="#ag"/><use transform="matrix(0.05,0,0,0.05,27,0)" xlink:href="#al"/></g><path fill="#333" d="M177-190C167-65 218 103 67 71c-23-6-38-20-44-43l32-5c15 47 100 32 89-28v-30C133-14 115 1 83 1 29 1 15-40 15-95c0-56 16-97 71-98 29-1 48 16 59 35 1-10 0-23 2-32h30zM94-22c36 0 50-32 50-73 0-42-14-75-50-75-39 0-46 34-46 75s6 73 46 73" id="am"/><g id="h"><use transform="matrix(0.05,0,0,0.05,0,0)" xlink:href="#ab"/><use transform="matrix(0.05,0,0,0.05,10,0)" xlink:href="#am"/><use transform="matrix(0.05,0,0,0.05,20,0)" xlink:href="#aa"/><use transform="matrix(0.05,0,0,0.05,30,0)" xlink:href="#U"/></g><path fill="#333" d="M96-169c-40 0-48 33-48 73s9 75 48 75c24 0 41-14 43-38l32 2c-6 37-31 61-74 61-59 0-76-41-82-99-10-93 101-131 147-64 4 7 5 14 7 22l-32 3c-4-21-16-35-41-35" id="an"/><path fill="#333" d="M141-36C126-15 110 5 73 4 37 3 15-17 15-53c-1-64 63-63 125-63 3-35-9-54-41-54-24 1-41 7-42 31l-33-3c5-37 33-52 76-52 45 0 72 20 72 64v82c-1 20 7 32 28 27v20c-31 9-61-2-59-35zM48-53c0 20 12 33 32 33 41-3 63-29 60-74-43 2-92-5-92 41" id="ao"/><g id="i"><use transform="matrix(0.05,0,0,0.05,0,0)" xlink:href="#an"/><use transform="matrix(0.05,0,0,0.05,9,0)" xlink:href="#ah"/><use transform="matrix(0.05,0,0,0.05,12.949999999999998,0)" xlink:href="#ao"/><use transform="matrix(0.05,0,0,0.05,22.95,0)" xlink:href="#ai"/><use transform="matrix(0.05,0,0,0.05,31.950000000000003,0)" xlink:href="#ai"/><use transform="matrix(0.05,0,0,0.05,40.95,0)" xlink:href="#ag"/></g><g id="j"><use transform="matrix(0.05,0,0,0.05,0,0)" xlink:href="#aa"/><use transform="matrix(0.05,0,0,0.05,10,0)" xlink:href="#ag"/><use transform="matrix(0.05,0,0,0.05,20,0)" xlink:href="#ah"/></g><path fill="#333" d="M179-190L93 31C79 59 56 82 12 73V49c39 6 53-20 64-50L1-190h34L92-34l54-156h33" id="ap"/><g id="k"><use transform="matrix(0.05,0,0,0.05,0,0)" xlink:href="#al"/><use transform="matrix(0.05,0,0,0.05,5.95,0)" xlink:href="#ag"/><use transform="matrix(0.05,0,0,0.05,15.949999999999998,0)" xlink:href="#aj"/><use transform="matrix(0.05,0,0,0.05,25.950000000000003,0)" xlink:href="#ab"/><use transform="matrix(0.05,0,0,0.05,35.95,0)" xlink:href="#ai"/><use transform="matrix(0.05,0,0,0.05,44.95,0)" xlink:href="#U"/><use transform="matrix(0.05,0,0,0.05,48.900000000000006,0)" xlink:href="#ac"/><use transform="matrix(0.05,0,0,0.05,53.900000000000006,0)" xlink:href="#ab"/><use transform="matrix(0.05,0,0,0.05,63.900000000000006,0)" xlink:href="#al"/><use transform="matrix(0.05,0,0,0.05,69.85000000000001,0)" xlink:href="#ap"/><use transform="matrix(0.05,0,0,0.05,78.85000000000001,0)" xlink:href="#af"/></g><path fill="#333" d="M141 0L90-78 38 0H4l68-98-65-92h35l48 74 47-74h35l-64 92 68 98h-35" id="aq"/><g id="l"><use transform="matrix(0.05,0,0,0.05,0,0)" xlink:href="#W"/><use transform="matrix(0.05,0,0,0.05,5,0)" xlink:href="#ag"/><use transform="matrix(0.05,0,0,0.05,15,0)" xlink:href="#aq"/><use transform="matrix(0.05,0,0,0.05,24,0)" xlink:href="#U"/><use transform="matrix(0.05,0,0,0.05,27.950000000000003,0)" xlink:href="#ac"/><use transform="matrix(0.05,0,0,0.05,32.95,0)" xlink:href="#X"/><use transform="matrix(0.05,0,0,0.05,45.900000000000006,0)" xlink:href="#ab"/><use transform="matrix(0.05,0,0,0.05,55.900000000000006,0)" xlink:href="#ae"/><use transform="matrix(0.05,0,0,0.05,65.9,0)" xlink:href="#ag"/></g><path fill="#333" d="M18-150v-26h174v26H18zm0 90v-26h174v26H18" id="ar"/><g id="m"><use transform="matrix(0.05,0,0,0.05,0,0)" xlink:href="#ar"/><use transform="matrix(0.05,0,0,0.05,10.5,0)" xlink:href="#ar"/></g><path fill="#333" d="M101-251c68 0 85 55 85 127S166 4 100 4C33 4 14-52 14-124c0-73 17-127 87-127zm-1 229c47 0 54-49 54-102s-4-102-53-102c-51 0-55 48-55 102 0 53 5 102 54 102" id="as"/><g id="n"><use transform="matrix(0.05,0,0,0.05,0,0)" xlink:href="#as"/><use transform="matrix(0.05,0,0,0.05,10,0)" xlink:href="#af"/></g><path fill="#333" d="M127-220V0H93v-220H8v-28h204v28h-85" id="at"/><path fill="#333" d="M134-131c28 9 52 24 51 62-1 50-34 73-85 73S17-19 16-69c0-36 21-54 49-61-75-25-45-126 34-121 46 3 78 18 79 63 0 33-17 51-44 57zm-34-11c31 1 46-15 46-44 0-28-17-43-47-42-29 0-46 13-45 42 1 28 16 44 46 44zm1 122c35 0 51-18 51-52 0-30-18-46-53-46-33 0-51 17-51 47 0 34 19 51 53 51" id="au"/><g id="o"><use transform="matrix(0.07407407407407407,0,0,0.07407407407407407,0,0)" xlink:href="#at"/><use transform="matrix(0.07407407407407407,0,0,0.07407407407407407,16.22222222222222,0)" xlink:href="#au"/></g><path fill="#333" d="M87 75C49 33 22-17 22-94c0-76 28-126 65-167h31c-38 41-64 92-64 168S80 34 118 75H87" id="av"/><path fill="#333" d="M30 0v-248h187v28H63v79h144v27H63v87h162V0H30" id="aw"/><path fill="#333" d="M108 0H70L1-190h34L89-25l56-165h34" id="ax"/><path fill="#333" d="M33-261c38 41 65 92 65 168S71 34 33 75H2C39 34 66-17 66-93S39-220 2-261h31" id="ay"/><g id="p"><use transform="matrix(0.07407407407407407,0,0,0.07407407407407407,0,0)" xlink:href="#av"/><use transform="matrix(0.07407407407407407,0,0,0.07407407407407407,8.814814814814815,0)" xlink:href="#aw"/><use transform="matrix(0.07407407407407407,0,0,0.07407407407407407,26.592592592592595,0)" xlink:href="#ax"/><use transform="matrix(0.07407407407407407,0,0,0.07407407407407407,39.925925925925924,0)" xlink:href="#ab"/><use transform="matrix(0.07407407407407407,0,0,0.07407407407407407,54.740740740740726,0)" xlink:href="#ai"/><use transform="matrix(0.07407407407407407,0,0,0.07407407407407407,68.07407407407406,0)" xlink:href="#ad"/><use transform="matrix(0.07407407407407407,0,0,0.07407407407407407,82.88888888888887,0)" xlink:href="#U"/><use transform="matrix(0.07407407407407407,0,0,0.07407407407407407,88.74074074074072,0)" xlink:href="#ac"/><use transform="matrix(0.07407407407407407,0,0,0.07407407407407407,96.14814814814812,0)" xlink:href="#ag"/><use transform="matrix(0.07407407407407407,0,0,0.07407407407407407,110.96296296296293,0)" xlink:href="#ay"/></g><path fill="#333" d="M233-177c-1 41-23 64-60 70L243 0h-38l-65-103H63V0H30v-248c88 3 205-21 203 71zM63-129c60-2 137 13 137-47 0-61-80-42-137-45v92" id="az"/><g id="q"><use transform="matrix(0.07407407407407406,0,0,0.07407407407407406,0,0)" xlink:href="#az"/><use transform="matrix(0.07407407407407406,0,0,0.07407407407407406,19.18518518518518,0)" xlink:href="#ag"/><use transform="matrix(0.07407407407407406,0,0,0.07407407407407406,33.99999999999999,0)" xlink:href="#aj"/><use transform="matrix(0.07407407407407406,0,0,0.07407407407407406,48.8148148148148,0)" xlink:href="#ab"/><use transform="matrix(0.07407407407407406,0,0,0.07407407407407406,63.62962962962961,0)" xlink:href="#ai"/><use transform="matrix(0.07407407407407406,0,0,0.07407407407407406,76.96296296296295,0)" xlink:href="#U"/><use transform="matrix(0.07407407407407406,0,0,0.07407407407407406,82.8148148148148,0)" xlink:href="#ac"/><use transform="matrix(0.07407407407407406,0,0,0.07407407407407406,90.2222222222222,0)" xlink:href="#ab"/><use transform="matrix(0.07407407407407406,0,0,0.07407407407407406,105.03703703703701,0)" xlink:href="#al"/><use transform="matrix(0.07407407407407406,0,0,0.07407407407407406,113.85185185185182,0)" xlink:href="#ap"/></g><g id="r"><use transform="matrix(0.07407407407407406,0,0,0.07407407407407406,0,0)" xlink:href="#an"/><use transform="matrix(0.07407407407407406,0,0,0.07407407407407406,13.33333333333333,0)" xlink:href="#ab"/><use transform="matrix(0.07407407407407406,0,0,0.07407407407407406,28.14814814814814,0)" xlink:href="#aa"/><use transform="matrix(0.07407407407407406,0,0,0.07407407407407406,42.962962962962955,0)" xlink:href="#ae"/><use transform="matrix(0.07407407407407406,0,0,0.07407407407407406,57.777777777777764,0)" xlink:href="#U"/><use transform="matrix(0.07407407407407406,0,0,0.07407407407407406,63.62962962962961,0)" xlink:href="#ax"/><use transform="matrix(0.07407407407407406,0,0,0.07407407407407406,76.96296296296295,0)" xlink:href="#U"/><use transform="matrix(0.07407407407407406,0,0,0.07407407407407406,82.8148148148148,0)" xlink:href="#ai"/><use transform="matrix(0.07407407407407406,0,0,0.07407407407407406,96.14814814814812,0)" xlink:href="#ab"/></g><path fill="#333" d="M187 0l-14-72H61L19 0h-37l149-248h38L221 0h-34zm-19-99l-22-123L76-99h92" id="aA"/><path fill="#333" d="M133-28C103 26-5 8 13-77c13-62 24-115 90-117 29-1 46 15 56 35l19-102h32L160 0h-30zM45-64c-2 27 10 43 35 43 54-1 69-50 69-103 0-29-15-46-42-46-53-1-58 58-62 106" id="aB"/><path fill="#333" d="M248-111c6-24 9-61-24-58-72 9-57 108-77 169h-31l26-142c3-37-50-30-64-10C52-115 50-51 37 0H6l36-190h30c-1 10-6 24-4 32 13-43 101-52 105 5 13-22 29-41 61-41 90 0 28 129 23 194h-31" id="aC"/><path fill="#333" d="M50-231l6-30h32l-6 30H50zM6 0l37-190h31L37 0H6" id="aD"/><path fill="#333" d="M67-158c22-48 132-52 116 29L158 0h-32l25-140c3-38-53-32-70-12C52-117 51-52 38 0H6l36-190h30" id="aE"/><g id="s"><use transform="matrix(0.07407407407407407,0,0,0.07407407407407407,0,0)" xlink:href="#aA"/><use transform="matrix(0.07407407407407407,0,0,0.07407407407407407,17.77777777777778,0)" xlink:href="#aB"/><use transform="matrix(0.07407407407407407,0,0,0.07407407407407407,32.592592592592595,0)" xlink:href="#aC"/><use transform="matrix(0.07407407407407407,0,0,0.07407407407407407,54.74074074074074,0)" xlink:href="#aD"/><use transform="matrix(0.07407407407407407,0,0,0.07407407407407407,60.592592592592595,0)" xlink:href="#aE"/></g><path fill="#333" d="M33 0v-38h34V0H33" id="aF"/><path fill="#333" d="M0 4l72-265h28L28 4H0" id="aG"/><path fill="#333" d="M115-194c53 0 69 39 70 98 0 66-23 100-70 100C84 3 66-7 56-30L54 0H23l1-261h32v101c10-23 28-34 59-34zm-8 174c40 0 45-34 45-75 0-40-5-75-45-74-42 0-51 32-51 76 0 43 10 73 51 73" id="aH"/><path fill="#333" d="M-5 72V49h209v23H-5" id="aI"/><path fill="#333" d="M9 0v-24l116-142H16v-24h144v24L44-24h123V0H9" id="aJ"/><path fill="#333" d="M106-169C34-169 62-67 57 0H25v-261h32l-1 103c12-21 28-36 61-36 89 0 53 116 60 194h-32v-121c2-32-8-49-39-48" id="aK"/><g id="t"><use transform="matrix(0.05,0,0,0.05,0,0)" xlink:href="#aF"/><use transform="matrix(0.05,0,0,0.05,5,0)" xlink:href="#aG"/><use transform="matrix(0.05,0,0,0.05,10,0)" xlink:href="#al"/><use transform="matrix(0.05,0,0,0.05,15.949999999999998,0)" xlink:href="#ab"/><use transform="matrix(0.05,0,0,0.05,25.950000000000003,0)" xlink:href="#aH"/><use transform="matrix(0.05,0,0,0.05,35.95,0)" xlink:href="#ab"/><use transform="matrix(0.05,0,0,0.05,45.95,0)" xlink:href="#ac"/><use transform="matrix(0.05,0,0,0.05,50.95,0)" xlink:href="#aI"/><use transform="matrix(0.05,0,0,0.05,60.95,0)" xlink:href="#am"/><use transform="matrix(0.05,0,0,0.05,70.95,0)" xlink:href="#ag"/><use transform="matrix(0.05,0,0,0.05,80.95,0)" xlink:href="#aa"/><use transform="matrix(0.05,0,0,0.05,90.95,0)" xlink:href="#ag"/><use transform="matrix(0.05,0,0,0.05,100.95,0)" xlink:href="#al"/><use transform="matrix(0.05,0,0,0.05,106.9,0)" xlink:href="#ao"/><use transform="matrix(0.05,0,0,0.05,116.9,0)" xlink:href="#aJ"/><use transform="matrix(0.05,0,0,0.05,125.9,0)" xlink:href="#U"/><use transform="matrix(0.05,0,0,0.05,129.85,0)" xlink:href="#ab"/><use transform="matrix(0.05,0,0,0.05,139.85,0)" xlink:href="#aa"/><use transform="matrix(0.05,0,0,0.05,149.85,0)" xlink:href="#ag"/><use transform="matrix(0.05,0,0,0.05,159.85,0)" xlink:href="#aF"/><use transform="matrix(0.05,0,0,0.05,164.85,0)" xlink:href="#ai"/><use transform="matrix(0.05,0,0,0.05,173.85,0)" xlink:href="#aK"/></g><path fill="#333" d="M109-170H84l-4-78h32zm-65 0H19l-4-78h33" id="aL"/><path fill="#333" d="M190 0L58-211 59 0H30v-248h39L202-35l-2-213h31V0h-41" id="aM"/><path fill="#333" d="M210-169c-67 3-38 105-44 169h-31v-121c0-29-5-50-35-48C34-165 62-65 56 0H25l-1-190h30c1 10-1 24 2 32 10-44 99-50 107 0 11-21 27-35 58-36 85-2 47 119 55 194h-31v-121c0-29-5-49-35-48" id="aN"/><g id="u"><use transform="matrix(0.05,0,0,0.05,0,0)" xlink:href="#aL"/><use transform="matrix(0.05,0,0,0.05,6.3500000000000005,0)" xlink:href="#aM"/><use transform="matrix(0.05,0,0,0.05,19.3,0)" xlink:href="#ab"/><use transform="matrix(0.05,0,0,0.05,29.3,0)" xlink:href="#aN"/><use transform="matrix(0.05,0,0,0.05,44.25,0)" xlink:href="#ag"/><use transform="matrix(0.05,0,0,0.05,54.25,0)" xlink:href="#X"/><use transform="matrix(0.05,0,0,0.05,67.2,0)" xlink:href="#ah"/><use transform="matrix(0.05,0,0,0.05,71.15,0)" xlink:href="#ao"/><use transform="matrix(0.05,0,0,0.05,81.15,0)" xlink:href="#ai"/><use transform="matrix(0.05,0,0,0.05,90.15,0)" xlink:href="#ai"/><use transform="matrix(0.05,0,0,0.05,99.15,0)" xlink:href="#ag"/><use transform="matrix(0.05,0,0,0.05,109.15,0)" xlink:href="#aL"/></g><path fill="#333" d="M143 0L79-87 56-68V0H24v-261h32v163l83-92h37l-77 82L181 0h-38" id="aO"/><g id="v"><use transform="matrix(0.05,0,0,0.05,0,0)" xlink:href="#aL"/><use transform="matrix(0.05,0,0,0.05,6.3500000000000005,0)" xlink:href="#aM"/><use transform="matrix(0.05,0,0,0.05,19.3,0)" xlink:href="#ab"/><use transform="matrix(0.05,0,0,0.05,29.3,0)" xlink:href="#aN"/><use transform="matrix(0.05,0,0,0.05,44.25,0)" xlink:href="#ag"/><use transform="matrix(0.05,0,0,0.05,54.25,0)" xlink:href="#ak"/><use transform="matrix(0.05,0,0,0.05,66.25,0)" xlink:href="#ao"/><use transform="matrix(0.05,0,0,0.05,76.25,0)" xlink:href="#an"/><use transform="matrix(0.05,0,0,0.05,85.25,0)" xlink:href="#aO"/><use transform="matrix(0.05,0,0,0.05,94.25,0)" xlink:href="#ao"/><use transform="matrix(0.05,0,0,0.05,104.25,0)" xlink:href="#am"/><use transform="matrix(0.05,0,0,0.05,114.25,0)" xlink:href="#ag"/><use transform="matrix(0.05,0,0,0.05,124.25,0)" xlink:href="#aL"/></g><g id="w"><use transform="matrix(0.05,0,0,0.05,0,0)" xlink:href="#aL"/><use transform="matrix(0.05,0,0,0.05,6.3500000000000005,0)" xlink:href="#ak"/><use transform="matrix(0.05,0,0,0.05,18.35,0)" xlink:href="#ag"/><use transform="matrix(0.05,0,0,0.05,28.35,0)" xlink:href="#al"/><use transform="matrix(0.05,0,0,0.05,34.300000000000004,0)" xlink:href="#an"/><use transform="matrix(0.05,0,0,0.05,43.300000000000004,0)" xlink:href="#ab"/><use transform="matrix(0.05,0,0,0.05,53.300000000000004,0)" xlink:href="#al"/><use transform="matrix(0.05,0,0,0.05,59.25,0)" xlink:href="#ai"/><use transform="matrix(0.05,0,0,0.05,68.25,0)" xlink:href="#ab"/><use transform="matrix(0.05,0,0,0.05,78.25,0)" xlink:href="#ak"/><use transform="matrix(0.05,0,0,0.05,90.25,0)" xlink:href="#ao"/><use transform="matrix(0.05,0,0,0.05,100.25,0)" xlink:href="#an"/><use transform="matrix(0.05,0,0,0.05,109.25,0)" xlink:href="#aO"/><use transform="matrix(0.05,0,0,0.05,118.25,0)" xlink:href="#ao"/><use transform="matrix(0.05,0,0,0.05,128.25,0)" xlink:href="#am"/><use transform="matrix(0.05,0,0,0.05,138.25,0)" xlink:href="#ag"/><use transform="matrix(0.05,0,0,0.05,148.25,0)" xlink:href="#aL"/></g><path fill="#333" d="M30 0v-248h33v221h125V0H30" id="aP"/><g id="x"><use transform="matrix(0.05,0,0,0.05,0,0)" xlink:href="#aL"/><use transform="matrix(0.05,0,0,0.05,6.3500000000000005,0)" xlink:href="#aM"/><use transform="matrix(0.05,0,0,0.05,19.3,0)" xlink:href="#ad"/><use transform="matrix(0.05,0,0,0.05,29.3,0)" xlink:href="#aN"/><use transform="matrix(0.05,0,0,0.05,44.25,0)" xlink:href="#ag"/><use transform="matrix(0.05,0,0,0.05,54.25,0)" xlink:href="#al"/><use transform="matrix(0.05,0,0,0.05,60.2,0)" xlink:href="#ab"/><use transform="matrix(0.05,0,0,0.05,70.2,0)" xlink:href="#aP"/><use transform="matrix(0.05,0,0,0.05,80.2,0)" xlink:href="#U"/><use transform="matrix(0.05,0,0,0.05,84.15,0)" xlink:href="#ax"/><use transform="matrix(0.05,0,0,0.05,93.15,0)" xlink:href="#ag"/><use transform="matrix(0.05,0,0,0.05,103.15,0)" xlink:href="#ah"/><use transform="matrix(0.05,0,0,0.05,107.10000000000001,0)" xlink:href="#ah"/><use transform="matrix(0.05,0,0,0.05,111.05000000000001,0)" xlink:href="#U"/><use transform="matrix(0.05,0,0,0.05,115,0)" xlink:href="#aL"/></g><g id="y"><use transform="matrix(0.05,0,0,0.05,0,0)" xlink:href="#ai"/><use transform="matrix(0.05,0,0,0.05,9,0)" xlink:href="#ao"/><use transform="matrix(0.05,0,0,0.05,19,0)" xlink:href="#ah"/><use transform="matrix(0.05,0,0,0.05,22.95,0)" xlink:href="#ax"/><use transform="matrix(0.05,0,0,0.05,31.950000000000003,0)" xlink:href="#ao"/><use transform="matrix(0.05,0,0,0.05,41.95,0)" xlink:href="#ac"/><use transform="matrix(0.05,0,0,0.05,46.95,0)" xlink:href="#ao"/><use transform="matrix(0.05,0,0,0.05,56.95,0)" xlink:href="#am"/><use transform="matrix(0.05,0,0,0.05,66.95,0)" xlink:href="#am"/><use transform="matrix(0.05,0,0,0.05,76.95,0)" xlink:href="#U"/><use transform="matrix(0.05,0,0,0.05,80.9,0)" xlink:href="#ab"/></g><g id="z"><use transform="matrix(0.05,0,0,0.05,0,0)" xlink:href="#aa"/><use transform="matrix(0.05,0,0,0.05,10,0)" xlink:href="#ag"/><use transform="matrix(0.05,0,0,0.05,20,0)" xlink:href="#ah"/></g><g id="A"><use transform="matrix(0.05,0,0,0.05,0,0)" xlink:href="#al"/><use transform="matrix(0.05,0,0,0.05,5.95,0)" xlink:href="#ag"/><use transform="matrix(0.05,0,0,0.05,15.949999999999998,0)" xlink:href="#aj"/><use transform="matrix(0.05,0,0,0.05,25.950000000000003,0)" xlink:href="#ab"/><use transform="matrix(0.05,0,0,0.05,35.95,0)" xlink:href="#ai"/><use transform="matrix(0.05,0,0,0.05,44.95,0)" xlink:href="#U"/><use transform="matrix(0.05,0,0,0.05,48.900000000000006,0)" xlink:href="#ac"/><use transform="matrix(0.05,0,0,0.05,53.900000000000006,0)" xlink:href="#ab"/><use transform="matrix(0.05,0,0,0.05,63.900000000000006,0)" xlink:href="#al"/><use transform="matrix(0.05,0,0,0.05,69.85000000000001,0)" xlink:href="#ap"/></g><g id="B"><use transform="matrix(0.05,0,0,0.05,0,0)" xlink:href="#av"/><use transform="matrix(0.05,0,0,0.05,5.95,0)" xlink:href="#ac"/><use transform="matrix(0.05,0,0,0.05,10.95,0)" xlink:href="#ag"/><use transform="matrix(0.05,0,0,0.05,20.95,0)" xlink:href="#ai"/><use transform="matrix(0.05,0,0,0.05,29.950000000000003,0)" xlink:href="#ac"/></g><use transform="matrix(0.05,0,0,0.05,0,0)" xlink:href="#ag" id="C"/><g id="D"><use transform="matrix(0.05,0,0,0.05,0,0)" xlink:href="#an"/><use transform="matrix(0.05,0,0,0.05,9,0)" xlink:href="#ab"/><use transform="matrix(0.05,0,0,0.05,19,0)" xlink:href="#ax"/><use transform="matrix(0.05,0,0,0.05,28,0)" xlink:href="#ag"/><use transform="matrix(0.05,0,0,0.05,38,0)" xlink:href="#al"/><use transform="matrix(0.05,0,0,0.05,43.95,0)" xlink:href="#ao"/><use transform="matrix(0.05,0,0,0.05,53.95,0)" xlink:href="#am"/><use transform="matrix(0.05,0,0,0.05,63.95,0)" xlink:href="#ag"/><use transform="matrix(0.05,0,0,0.05,73.95,0)" xlink:href="#ay"/></g><g id="E"><use transform="matrix(0.05,0,0,0.05,0,0)" xlink:href="#ac"/><use transform="matrix(0.05,0,0,0.05,5,0)" xlink:href="#ag"/><use transform="matrix(0.05,0,0,0.05,15,0)" xlink:href="#ai"/><use transform="matrix(0.05,0,0,0.05,24,0)" xlink:href="#ac"/></g><g id="F"><use transform="matrix(0.05,0,0,0.05,0,0)" xlink:href="#am"/><use transform="matrix(0.05,0,0,0.05,10,0)" xlink:href="#ag"/><use transform="matrix(0.05,0,0,0.05,20,0)" xlink:href="#aa"/><use transform="matrix(0.05,0,0,0.05,30,0)" xlink:href="#ag"/><use transform="matrix(0.05,0,0,0.05,40,0)" xlink:href="#al"/><use transform="matrix(0.05,0,0,0.05,45.95,0)" xlink:href="#ao"/><use transform="matrix(0.05,0,0,0.05,55.95,0)" xlink:href="#ac"/><use transform="matrix(0.05,0,0,0.05,60.95,0)" xlink:href="#U"/></g><g id="G"><use transform="matrix(0.05,0,0,0.05,0,0)" xlink:href="#an"/><use transform="matrix(0.05,0,0,0.05,9,0)" xlink:href="#ab"/><use transform="matrix(0.05,0,0,0.05,19,0)" xlink:href="#aa"/></g><g id="H"><use transform="matrix(0.05,0,0,0.05,0,0)" xlink:href="#ai"/><use transform="matrix(0.05,0,0,0.05,9,0)" xlink:href="#ad"/><use transform="matrix(0.05,0,0,0.05,19,0)" xlink:href="#an"/><use transform="matrix(0.05,0,0,0.05,28,0)" xlink:href="#an"/><use transform="matrix(0.05,0,0,0.05,37,0)" xlink:href="#ag"/><use transform="matrix(0.05,0,0,0.05,47,0)" xlink:href="#ai"/><use transform="matrix(0.05,0,0,0.05,56,0)" xlink:href="#ai"/><use transform="matrix(0.05,0,0,0.05,65,0)" xlink:href="#ab"/></g><g id="I"><use transform="matrix(0.05185185185185186,0,0,0.05185185185185186,0,0)" xlink:href="#ai"/><use transform="matrix(0.05185185185185186,0,0,0.05185185185185186,9.333333333333334,0)" xlink:href="#U"/></g><path fill="#333" d="M47-170H22l-4-78h33" id="aQ"/><g id="J"><use transform="matrix(0.05185185185185186,0,0,0.05185185185185186,0,0)" xlink:href="#ag"/><use transform="matrix(0.05185185185185186,0,0,0.05185185185185186,10.370370370370372,0)" xlink:href="#aQ"/></g><g id="K"><use transform="matrix(0.05185185185185186,0,0,0.05185185185185186,0,0)" xlink:href="#ax"/><use transform="matrix(0.05185185185185186,0,0,0.05185185185185186,9.333333333333334,0)" xlink:href="#ag"/><use transform="matrix(0.05185185185185186,0,0,0.05185185185185186,19.703703703703706,0)" xlink:href="#al"/><use transform="matrix(0.05185185185185186,0,0,0.05185185185185186,25.874074074074077,0)" xlink:href="#U"/><use transform="matrix(0.05185185185185186,0,0,0.05185185185185186,29.970370370370375,0)" xlink:href="#V"/><use transform="matrix(0.05185185185185186,0,0,0.05185185185185186,35.15555555555556,0)" xlink:href="#U"/><use transform="matrix(0.05185185185185186,0,0,0.05185185185185186,39.25185185185185,0)" xlink:href="#an"/><use transform="matrix(0.05185185185185186,0,0,0.05185185185185186,48.58518518518519,0)" xlink:href="#ao"/><use transform="matrix(0.05185185185185186,0,0,0.05185185185185186,58.95555555555556,0)" xlink:href="#ac"/><use transform="matrix(0.05185185185185186,0,0,0.05185185185185186,64.14074074074075,0)" xlink:href="#ab"/></g><g id="L"><use transform="matrix(0.05185185185185186,0,0,0.05185185185185186,0,0)" xlink:href="#ad"/><use transform="matrix(0.05185185185185186,0,0,0.05185185185185186,10.370370370370372,0)" xlink:href="#aa"/></g><g id="M"><use transform="matrix(0.05185185185185186,0,0,0.05185185185185186,0,0)" xlink:href="#ag"/><use transform="matrix(0.05185185185185186,0,0,0.05185185185185186,10.370370370370372,0)" xlink:href="#al"/><use transform="matrix(0.05185185185185186,0,0,0.05185185185185186,16.540740740740745,0)" xlink:href="#al"/><use transform="matrix(0.05185185185185186,0,0,0.05185185185185186,22.711111111111116,0)" xlink:href="#ab"/><use transform="matrix(0.05185185185185186,0,0,0.05185185185185186,33.08148148148149,0)" xlink:href="#al"/><use transform="matrix(0.05185185185185186,0,0,0.05185185185185186,39.25185185185186,0)" xlink:href="#ag"/></g><g id="N"><use transform="matrix(0.05185185185185186,0,0,0.05185185185185186,0,0)" xlink:href="#ae"/><use transform="matrix(0.05185185185185186,0,0,0.05185185185185186,10.370370370370372,0)" xlink:href="#ad"/><use transform="matrix(0.05185185185185186,0,0,0.05185185185185186,20.740740740740744,0)" xlink:href="#al"/><use transform="matrix(0.05185185185185186,0,0,0.05185185185185186,26.911111111111115,0)" xlink:href="#ao"/><use transform="matrix(0.05185185185185186,0,0,0.05185185185185186,37.281481481481485,0)" xlink:href="#aa"/><use transform="matrix(0.05185185185185186,0,0,0.05185185185185186,47.65185185185186,0)" xlink:href="#ac"/><use transform="matrix(0.05185185185185186,0,0,0.05185185185185186,52.83703703703704,0)" xlink:href="#ag"/></g><g id="O"><use transform="matrix(0.05185185185185186,0,0,0.05185185185185186,0,0)" xlink:href="#ah"/><use transform="matrix(0.05185185185185186,0,0,0.05185185185185186,4.0962962962962965,0)" xlink:href="#aQ"/><use transform="matrix(0.05185185185185186,0,0,0.05185185185185186,7.622222222222223,0)" xlink:href="#ag"/><use transform="matrix(0.05185185185185186,0,0,0.05185185185185186,17.992592592592594,0)" xlink:href="#ai"/><use transform="matrix(0.05185185185185186,0,0,0.05185185185185186,27.32592592592593,0)" xlink:href="#ag"/><use transform="matrix(0.05185185185185186,0,0,0.05185185185185186,37.6962962962963,0)" xlink:href="#an"/><use transform="matrix(0.05185185185185186,0,0,0.05185185185185186,47.02962962962964,0)" xlink:href="#ad"/><use transform="matrix(0.05185185185185186,0,0,0.05185185185185186,57.40000000000002,0)" xlink:href="#aJ"/><use transform="matrix(0.05185185185185186,0,0,0.05185185185185186,66.73333333333335,0)" xlink:href="#U"/><use transform="matrix(0.05185185185185186,0,0,0.05185185185185186,70.82962962962965,0)" xlink:href="#ab"/><use transform="matrix(0.05185185185185186,0,0,0.05185185185185186,81.20000000000002,0)" xlink:href="#aa"/><use transform="matrix(0.05185185185185186,0,0,0.05185185185185186,91.57037037037038,0)" xlink:href="#ag"/></g><g id="P"><use transform="matrix(0.05185185185185186,0,0,0.05185185185185186,0,0)" xlink:href="#ae"/><use transform="matrix(0.05185185185185186,0,0,0.05185185185185186,10.370370370370372,0)" xlink:href="#ag"/><use transform="matrix(0.05185185185185186,0,0,0.05185185185185186,20.740740740740744,0)" xlink:href="#ah"/><use transform="matrix(0.05185185185185186,0,0,0.05185185185185186,24.837037037037042,0)" xlink:href="#ah"/><use transform="matrix(0.05185185185185186,0,0,0.05185185185185186,28.933333333333337,0)" xlink:href="#ab"/></g><g id="Q"><use transform="matrix(0.05185185185185186,0,0,0.05185185185185186,0,0)" xlink:href="#ai"/><use transform="matrix(0.05185185185185186,0,0,0.05185185185185186,9.333333333333334,0)" xlink:href="#an"/><use transform="matrix(0.05185185185185186,0,0,0.05185185185185186,18.666666666666668,0)" xlink:href="#al"/><use transform="matrix(0.05185185185185186,0,0,0.05185185185185186,24.83703703703704,0)" xlink:href="#U"/><use transform="matrix(0.05185185185185186,0,0,0.05185185185185186,28.933333333333337,0)" xlink:href="#aj"/><use transform="matrix(0.05185185185185186,0,0,0.05185185185185186,39.30370370370371,0)" xlink:href="#ac"/></g><g id="R"><use transform="matrix(0.05,0,0,0.05,0,0)" xlink:href="#ag"/><use transform="matrix(0.05,0,0,0.05,10,0)" xlink:href="#ax"/><use transform="matrix(0.05,0,0,0.05,19,0)" xlink:href="#ab"/><use transform="matrix(0.05,0,0,0.05,29,0)" xlink:href="#ai"/><use transform="matrix(0.05,0,0,0.05,38,0)" xlink:href="#ad"/><use transform="matrix(0.05,0,0,0.05,48,0)" xlink:href="#U"/><use transform="matrix(0.05,0,0,0.05,51.95,0)" xlink:href="#ac"/><use transform="matrix(0.05,0,0,0.05,56.95,0)" xlink:href="#ag"/><use transform="matrix(0.05,0,0,0.05,66.95,0)" xlink:href="#aI"/><use transform="matrix(0.05,0,0,0.05,76.95,0)" xlink:href="#ac"/><use transform="matrix(0.05,0,0,0.05,81.95,0)" xlink:href="#ag"/><use transform="matrix(0.05,0,0,0.05,91.95,0)" xlink:href="#ai"/><use transform="matrix(0.05,0,0,0.05,100.95,0)" xlink:href="#ac"/><use transform="matrix(0.05,0,0,0.05,105.95,0)" xlink:href="#aI"/><use transform="matrix(0.05,0,0,0.05,115.95,0)" xlink:href="#ai"/><use transform="matrix(0.05,0,0,0.05,124.95,0)" xlink:href="#an"/><use transform="matrix(0.05,0,0,0.05,133.95,0)" xlink:href="#al"/><use transform="matrix(0.05,0,0,0.05,139.89999999999998,0)" xlink:href="#U"/><use transform="matrix(0.05,0,0,0.05,143.84999999999997,0)" xlink:href="#aj"/><use transform="matrix(0.05,0,0,0.05,153.84999999999997,0)" xlink:href="#ac"/><use transform="matrix(0.05,0,0,0.05,158.84999999999997,0)" xlink:href="#aF"/><use transform="matrix(0.05,0,0,0.05,163.84999999999997,0)" xlink:href="#ai"/><use transform="matrix(0.05,0,0,0.05,172.84999999999997,0)" xlink:href="#aK"/></g><g id="S"><use transform="matrix(0.05,0,0,0.05,0,0)" xlink:href="#ai"/><use transform="matrix(0.05,0,0,0.05,9,0)" xlink:href="#aO"/><use transform="matrix(0.05,0,0,0.05,18,0)" xlink:href="#U"/><use transform="matrix(0.05,0,0,0.05,21.95,0)" xlink:href="#aj"/><use transform="matrix(0.05,0,0,0.05,31.950000000000003,0)" xlink:href="#aj"/><use transform="matrix(0.05,0,0,0.05,41.95,0)" xlink:href="#U"/><use transform="matrix(0.05,0,0,0.05,45.900000000000006,0)" xlink:href="#aa"/><use transform="matrix(0.05,0,0,0.05,55.900000000000006,0)" xlink:href="#am"/></g><g id="T"><use transform="matrix(0.05,0,0,0.05,0,0)" xlink:href="#al"/><use transform="matrix(0.05,0,0,0.05,5.95,0)" xlink:href="#ag"/><use transform="matrix(0.05,0,0,0.05,15.949999999999998,0)" xlink:href="#ao"/><use transform="matrix(0.05,0,0,0.05,25.950000000000003,0)" xlink:href="#ae"/></g></defs></g></svg>